<svg xmlns="http://www.w3.org/2000/svg" viewBox="0 0 512 512" fill="currentColor" fill-rule="evenodd">
<g transform="translate(101.129,52.540) scale(0.173016)"><path d="M802.10,22.13C801.20,23.33 800.50,24.83 800.50,25.43C800.50,26.03 798.90,28.43 797.00,30.63C795.10,32.93 793.50,35.13 793.50,35.63C793.50,36.13 792.00,38.33 790.20,40.53C788.40,42.63 785.70,46.23 784.20,48.43C778.20,57.23 774.60,61.43 754.50,83.33C745.50,93.23 705.80,132.83 695.50,142.23C690.80,146.53 685.40,151.53 683.50,153.33C681.60,155.13 673.50,162.33 665.50,169.33C647.60,185.13 646.50,186.33 646.50,190.03C646.50,193.03 650.20,201.23 653.70,206.03C654.80,207.43 656.30,211.93 657.10,215.93C657.90,220.53 659.60,224.93 661.60,228.03C664.30,232.33 664.80,234.13 665.50,243.13C666.40,254.53 667.40,259.23 670.50,268.93C672.30,274.33 672.70,278.23 672.90,291.83C673.20,308.13 673.20,308.13 677.10,311.53C683.50,317.23 685.00,317.93 691.40,319.03C694.80,319.53 700.10,321.13 703.10,322.53C711.80,326.53 739.80,330.93 756.50,330.93C766.40,330.93 771.70,328.33 781.50,318.83C792.60,308.03 837.30,267.93 849.50,257.83C851.40,256.23 855.00,253.13 857.50,251.03C860.00,248.93 863.90,246.23 866.20,245.03C868.50,243.93 870.70,242.53 871.00,241.93C871.40,241.33 875.30,238.23 879.80,234.93C884.30,231.63 889.10,227.83 890.50,226.43C891.90,225.13 895.10,223.23 897.50,222.13C900.00,221.03 903.70,218.73 905.90,217.03C908.00,215.33 910.30,213.93 910.90,213.93C911.50,213.93 914.00,212.33 916.40,210.43C918.80,208.43 923.20,206.23 926.20,205.33C929.10,204.53 933.40,202.23 935.70,200.33C945.30,192.43 945.20,191.93 932.30,171.43C922.10,155.23 910.20,143.13 895.60,134.23C893.60,133.03 891.30,131.13 890.50,130.13C889.60,129.03 887.00,127.03 884.60,125.53C878.10,121.43 860.10,102.73 857.50,97.53C856.30,95.03 854.90,92.63 854.40,92.33C853.90,92.03 852.10,89.43 850.40,86.63C846.70,80.23 841.50,72.53 838.00,68.33C836.60,66.53 834.80,63.43 833.90,61.33C833.00,59.13 830.70,55.73 828.90,53.63C827.00,51.63 825.50,49.33 825.50,48.63C825.50,47.93 824.00,45.53 822.20,43.33C820.30,41.23 818.30,37.73 817.60,35.73C816.90,33.63 815.90,31.63 815.30,31.33C814.80,31.03 812.80,28.33 810.90,25.33C807.10,19.43 804.60,18.53 802.10,22.13Z M1250.10,134.43C1249.20,135.33 1248.00,136.93 1247.50,137.93C1246.90,139.03 1244.60,140.73 1242.20,141.73C1239.90,142.83 1236.90,144.83 1235.60,146.33C1234.20,147.73 1230.90,149.63 1228.20,150.43C1225.50,151.23 1221.80,153.23 1220.00,154.83C1218.10,156.43 1214.20,158.43 1211.30,159.33C1208.40,160.13 1204.40,161.93 1202.50,163.23C1200.60,164.53 1197.20,166.23 1195.00,166.93C1192.80,167.63 1189.20,169.13 1187.00,170.43C1184.80,171.63 1180.50,173.23 1177.50,173.93C1174.50,174.63 1170.30,176.23 1168.30,177.63C1166.20,179.03 1161.10,180.93 1157.00,181.93C1152.90,182.93 1147.70,184.83 1145.60,186.33C1142.90,188.23 1139.30,189.43 1133.00,190.43C1127.80,191.23 1123.00,192.63 1121.60,193.73C1116.90,197.13 1114.60,197.93 1106.80,198.93C1101.90,199.53 1096.80,201.03 1093.00,202.83C1089.60,204.43 1083.00,206.43 1078.20,207.33C1073.40,208.13 1066.50,209.93 1062.80,211.23C1059.00,212.63 1046.10,216.03 1034.00,218.93C1021.90,221.73 1009.60,225.23 1006.60,226.63C1003.60,228.03 998.10,229.63 994.40,230.13C989.60,230.83 986.10,232.13 982.50,234.43C979.70,236.23 975.30,238.03 972.70,238.43C967.20,239.23 964.90,240.33 961.60,243.63C960.30,244.93 957.40,246.23 955.20,246.63C953.00,246.93 949.80,248.43 948.10,250.03C946.30,251.53 942.40,253.93 939.30,255.23C936.30,256.63 933.40,258.23 933.10,258.83C932.70,259.43 930.50,260.93 928.20,262.03C924.20,264.13 919.40,267.83 913.00,273.83C911.40,275.43 908.50,277.43 906.80,278.33C902.40,280.53 898.30,284.23 882.70,299.73C871.40,311.03 868.30,313.53 862.70,316.03C859.00,317.73 853.30,320.33 850.00,321.93C846.70,323.63 842.10,325.43 839.70,325.93C835.50,327.03 832.10,330.93 833.90,332.73C835.40,334.13 844.50,332.93 850.40,330.43C853.80,329.03 859.70,327.23 863.50,326.43C867.40,325.63 871.80,324.33 873.40,323.53C879.90,320.13 891.90,318.13 909.50,317.53C928.00,316.93 933.00,316.13 941.00,312.73C944.40,311.33 950.30,310.23 959.20,309.43C970.30,308.33 973.50,307.63 979.10,305.03C983.70,302.83 988.30,301.63 994.40,300.93C1000.60,300.23 1004.70,299.13 1009.00,296.93C1012.30,295.33 1017.70,293.43 1021.00,292.83C1024.30,292.23 1030.40,290.33 1034.50,288.53C1038.60,286.73 1044.20,284.73 1046.80,284.03C1049.50,283.43 1052.70,282.23 1053.90,281.43C1055.10,280.63 1058.60,279.13 1061.60,278.03C1064.60,277.03 1069.60,274.73 1072.60,273.03C1075.70,271.33 1079.20,269.93 1080.40,269.93C1083.00,269.93 1087.90,267.73 1092.20,264.53C1094.00,263.23 1097.20,261.93 1099.40,261.53C1101.80,261.23 1104.90,259.63 1106.90,257.93C1108.80,256.23 1112.50,254.13 1115.20,253.23C1117.80,252.33 1121.60,250.43 1123.50,248.93C1125.40,247.53 1128.50,245.73 1130.30,244.93C1132.10,244.23 1137.80,240.53 1142.80,236.83C1147.90,233.03 1152.50,229.93 1153.20,229.93C1153.80,229.93 1156.50,228.23 1159.20,226.23C1170.30,217.73 1179.20,224.93 1169.10,234.33C1167.20,236.03 1163.50,239.53 1160.70,242.13C1157.90,244.83 1155.00,246.93 1154.10,246.93C1153.30,246.93 1150.30,248.83 1147.60,251.13C1139.90,257.83 1135.20,261.53 1132.60,262.83C1131.30,263.53 1128.20,265.63 1125.80,267.53C1123.30,269.43 1120.80,270.93 1120.20,270.93C1119.50,270.93 1117.40,272.23 1115.50,273.83C1113.60,275.33 1109.70,277.63 1106.80,278.93C1104.00,280.13 1100.90,281.93 1099.90,283.03C1099.00,284.13 1096.00,285.63 1093.30,286.43C1090.60,287.23 1086.60,289.23 1084.20,290.83C1081.90,292.53 1077.80,294.33 1075.00,294.93C1072.30,295.53 1068.20,297.33 1065.90,298.93C1063.70,300.53 1059.60,302.33 1056.90,303.03C1054.20,303.63 1049.10,305.43 1045.50,306.93C1037.20,310.53 1025.20,314.53 1015.00,317.13C1010.60,318.23 1003.20,320.43 998.50,322.03C993.10,323.93 985.60,325.53 977.90,326.43C971.00,327.23 962.30,329.03 957.90,330.53C950.70,332.93 948.10,333.23 926.90,333.93C904.30,334.63 898.90,335.53 899.80,338.23C900.20,339.63 902.90,340.33 916.50,342.43C922.30,343.33 931.80,344.93 937.80,346.03C947.30,347.83 951.80,348.03 976.30,347.73C1003.20,347.33 1004.30,347.23 1013.00,344.63C1017.90,343.13 1026.90,341.23 1033.00,340.33C1039.00,339.53 1046.90,337.83 1050.50,336.53C1054.10,335.23 1060.60,332.93 1065.00,331.43C1084.00,325.03 1087.20,323.73 1090.50,321.43C1092.40,320.13 1095.90,318.63 1098.30,317.93C1100.60,317.33 1104.00,315.53 1105.90,313.93C1107.80,312.23 1111.20,310.23 1113.60,309.43C1116.00,308.53 1119.10,306.83 1120.50,305.53C1121.90,304.33 1124.40,302.43 1126.00,301.43C1127.70,300.43 1129.40,298.93 1129.80,298.23C1130.30,297.43 1132.60,295.53 1134.90,294.03C1148.70,285.33 1169.40,264.93 1188.50,241.43C1191.50,237.73 1195.50,233.13 1197.30,231.23C1199.00,229.43 1200.50,227.43 1200.50,226.93C1200.50,226.33 1202.10,224.23 1204.00,222.03C1205.90,219.93 1208.20,216.63 1209.00,214.63C1209.80,212.63 1211.60,209.83 1213.10,208.23C1214.50,206.73 1216.50,203.83 1217.50,201.83C1218.50,199.93 1220.10,197.73 1221.00,196.93C1221.90,196.13 1223.60,193.73 1224.70,191.53C1225.80,189.23 1227.60,186.53 1228.60,185.43C1229.60,184.33 1231.10,181.63 1232.00,179.43C1232.90,177.23 1235.00,174.03 1236.70,172.33C1238.40,170.53 1240.10,167.33 1240.60,164.83C1241.20,162.13 1242.90,159.03 1245.00,156.93C1246.80,155.03 1248.80,151.63 1249.40,149.33C1250.10,146.83 1251.80,144.13 1254.10,142.13C1256.80,139.73 1257.60,138.33 1257.30,136.23C1257.10,134.03 1256.40,133.33 1254.40,133.13C1252.90,132.93 1251.00,133.53 1250.10,134.43Z M516.80,145.83C513.40,147.43 508.50,149.13 505.90,149.53C502.70,150.03 500.10,151.23 497.60,153.43C495.60,155.23 492.30,157.23 490.20,157.93C488.10,158.53 484.30,160.93 481.70,163.03C479.10,165.23 475.30,168.43 473.10,170.23C463.20,178.43 463.00,179.03 463.90,205.93C464.60,229.23 465.40,234.63 468.90,239.23C470.20,241.03 471.90,244.43 472.50,246.93C473.90,252.73 481.70,261.13 487.10,262.93C489.30,263.63 492.80,265.43 495.00,267.03C497.20,268.53 502.00,270.53 505.80,271.33C509.50,272.23 514.20,273.73 516.30,274.83C518.30,275.83 526.80,278.63 535.00,280.83C543.30,283.13 555.00,286.53 561.00,288.43C567.10,290.33 576.10,292.33 581.00,292.93C587.10,293.73 592.40,295.23 597.50,297.43C609.70,302.93 618.90,303.33 622.10,298.43C623.50,296.33 623.40,295.63 621.10,290.23C619.80,287.03 618.10,280.63 617.50,276.13C615.40,260.73 612.60,248.43 608.70,236.93C606.50,230.63 603.70,222.13 602.50,218.03C601.30,213.93 599.00,208.23 597.50,205.53C595.90,202.73 594.40,198.83 594.00,196.83C593.60,194.93 591.80,191.33 589.90,188.93C587.90,186.43 586.10,183.23 585.80,181.63C585.50,180.03 583.80,177.33 582.00,175.63C580.20,173.83 578.10,171.03 577.20,169.43C576.30,167.73 572.10,162.93 567.80,158.73C561.50,152.43 558.90,150.63 554.10,148.93C550.80,147.83 547.30,146.13 546.20,145.13C544.70,143.83 542.10,143.33 533.60,143.13C523.60,142.83 522.70,143.03 516.80,145.83Z M468.80,321.63C466.10,323.73 462.60,326.43 461.00,327.73C459.30,328.93 455.90,331.33 453.30,332.93C450.80,334.63 448.40,336.63 448.10,337.43C447.80,338.23 444.90,340.23 441.70,341.83C438.40,343.53 435.50,345.53 435.20,346.33C434.90,347.13 433.10,348.63 431.30,349.53C429.50,350.43 426.20,352.73 424.10,354.53C421.90,356.43 419.60,357.93 418.90,357.93C418.30,357.93 415.50,359.43 412.80,361.33C410.20,363.13 406.90,364.93 405.70,365.33C404.40,365.73 401.90,367.43 400.00,369.03C398.20,370.63 394.80,372.63 392.40,373.43C390.00,374.33 386.70,376.33 385.00,377.93C383.40,379.43 380.00,381.33 377.50,381.93C375.10,382.63 371.60,384.43 369.80,385.93C368.10,387.53 364.20,389.43 361.20,390.33C358.30,391.13 355.00,392.73 354.10,393.83C353.10,394.93 350.20,396.63 347.60,397.53C345.10,398.53 339.40,401.23 335.00,403.53C330.60,405.83 323.00,409.43 318.00,411.43C313.10,413.53 307.20,416.23 305.00,417.53C302.80,418.73 298.80,420.33 296.00,420.93C293.30,421.53 288.80,423.53 286.00,425.43C282.50,427.83 279.10,429.13 274.60,429.83C270.90,430.43 267.30,431.63 266.10,432.73C262.80,435.73 260.10,436.83 252.10,438.33C247.80,439.23 243.00,440.83 240.80,442.33C238.70,443.73 234.20,445.53 230.70,446.43C227.30,447.33 217.60,450.53 209.20,453.53C200.80,456.53 190.40,459.93 186.10,461.03C181.80,462.13 176.10,464.13 173.50,465.43C170.60,466.93 164.70,468.43 158.60,469.33C151.40,470.43 147.10,471.63 143.90,473.53C140.50,475.53 136.80,476.53 128.50,477.53C120.90,478.43 115.40,479.83 110.50,481.83C106.70,483.53 100.70,485.13 97.30,485.43C83.60,486.83 81.30,489.33 86.00,497.23C87.80,500.33 88.80,504.03 89.40,508.83C89.90,513.83 90.70,516.53 92.20,518.13C95.40,521.73 96.40,524.23 97.40,531.53C98.20,536.63 99.10,539.13 101.60,542.13C103.40,544.43 105.20,548.33 106.00,551.43C106.60,554.43 108.30,558.13 109.70,559.73C111.00,561.33 112.90,564.73 113.90,567.33C114.90,569.93 117.20,574.53 119.10,577.63C121.00,580.73 122.50,583.73 122.50,584.23C122.50,584.63 123.90,587.03 125.50,589.43C127.20,591.83 128.50,594.23 128.50,594.73C128.50,595.23 130.50,598.73 133.00,602.53C135.50,606.23 137.50,609.83 137.50,610.43C137.50,611.03 138.90,612.83 140.60,614.53C142.30,616.13 144.60,619.23 145.60,621.43C147.50,625.43 152.50,632.23 157.00,636.93C158.30,638.33 160.50,640.93 161.70,642.63C180.30,668.13 206.40,695.33 230.00,713.93C237.20,719.63 245.00,725.93 249.60,730.03C251.60,731.83 254.10,733.63 255.10,734.23C256.20,734.83 258.40,736.43 260.10,737.93C261.80,739.43 265.30,741.63 267.90,742.83C270.40,744.13 272.50,745.53 272.50,745.93C272.50,746.43 274.60,748.03 277.30,749.53C279.90,751.03 282.90,753.03 284.00,754.03C285.10,754.93 288.30,756.83 291.20,758.33C294.00,759.73 296.60,761.33 297.00,761.93C297.40,762.53 300.00,764.13 302.80,765.53C305.70,767.03 309.10,769.13 310.50,770.33C311.90,771.63 315.10,773.33 317.60,774.33C320.20,775.23 323.00,776.83 324.00,777.93C325.00,779.03 328.30,780.83 331.40,782.03C334.50,783.13 338.40,785.13 340.00,786.43C341.70,787.63 346.10,789.63 349.80,790.73C353.60,791.83 358.00,793.83 359.80,795.23C361.60,796.53 364.80,798.23 367.00,798.93C369.20,799.63 372.80,801.13 375.00,802.43C377.20,803.63 380.80,805.23 383.00,805.93C385.20,806.63 389.10,808.23 391.70,809.53C394.30,810.93 399.50,812.63 403.20,813.53C407.00,814.33 412.00,816.33 414.50,817.93C417.00,819.53 421.10,821.33 423.60,822.03C427.70,823.13 428.60,823.03 430.90,821.63C433.60,819.83 435.50,814.63 435.50,808.73C435.50,806.63 436.10,803.03 436.90,800.73C439.60,792.63 440.40,788.43 441.50,777.43C442.40,767.63 442.80,766.03 445.60,762.13C447.80,759.03 448.90,756.13 449.60,751.13C450.80,742.63 451.30,741.13 454.00,737.43C455.30,735.73 456.90,732.43 457.50,729.93C459.00,724.63 476.00,689.33 477.60,688.33C478.20,688.03 480.00,684.83 481.50,681.43C483.00,678.03 484.90,674.83 485.50,674.43C486.20,674.03 487.80,671.33 489.00,668.53C490.30,665.73 492.70,662.13 494.30,660.53C496.00,658.93 497.70,656.33 498.00,654.73C498.40,653.13 500.30,649.93 502.30,647.53C504.40,645.13 506.80,641.93 507.70,640.33C508.70,638.73 511.50,634.73 514.00,631.43C516.40,628.13 519.30,624.13 520.40,622.53C522.60,619.33 528.40,612.43 533.00,607.53C534.60,605.83 537.20,602.63 538.70,600.43C548.60,586.03 595.40,536.03 607.30,527.23C609.30,525.73 614.40,521.53 618.50,517.83C622.60,514.23 627.50,510.23 629.20,509.03C634.10,505.63 635.10,501.03 633.20,490.53C632.30,485.83 630.80,480.73 629.70,479.13C627.00,475.33 625.70,469.93 624.90,459.43C624.60,454.43 623.00,444.93 621.40,438.13C619.80,431.43 618.00,421.33 617.50,415.63C616.90,410.03 616.00,402.13 615.50,398.13C614.90,394.13 614.50,384.03 614.50,375.63C614.50,362.33 614.20,360.03 612.50,357.23C610.00,353.03 608.00,352.03 599.30,350.93C590.40,349.73 587.40,348.93 581.00,345.73C577.40,343.83 573.10,342.83 565.50,342.03C557.00,341.13 553.80,340.23 548.00,337.43C543.60,335.23 539.50,333.93 537.00,333.93C529.50,333.93 520.30,331.83 514.60,328.93C510.40,326.73 506.60,325.73 499.50,324.93C492.10,324.13 488.90,323.23 484.80,320.93C477.80,316.93 474.80,317.13 468.80,321.63Z M817.50,336.43C816.00,338.33 816.80,339.53 820.10,340.23C824.00,340.93 828.50,339.13 828.50,336.83C828.50,335.23 827.70,334.93 823.60,334.93C820.60,334.93 818.30,335.43 817.50,336.43Z M1576.50,351.93C1563.80,352.53 1560.90,353.03 1553.20,355.83C1548.30,357.53 1543.70,358.93 1542.90,358.93C1539.90,358.93 1516.80,367.13 1513.30,369.43C1511.30,370.83 1507.40,372.33 1504.80,372.93C1502.20,373.53 1497.80,375.53 1495.00,377.33C1492.30,379.23 1488.50,381.03 1486.60,381.43C1484.80,381.83 1481.60,383.63 1479.60,385.43C1477.60,387.23 1474.20,389.23 1472.00,389.83C1469.80,390.43 1466.70,392.03 1465.00,393.53C1463.40,394.93 1460.20,397.03 1458.00,398.13C1455.80,399.33 1452.50,401.53 1450.70,403.03C1448.90,404.63 1447.00,405.93 1446.50,405.93C1446.00,405.93 1443.60,407.63 1441.20,409.63C1438.80,411.73 1435.50,414.23 1433.90,415.13C1432.30,416.13 1428.10,419.13 1424.50,421.93C1420.90,424.63 1416.20,428.13 1414.00,429.63C1408.00,433.63 1386.70,454.23 1370.00,472.13C1358.80,484.23 1355.20,488.53 1353.20,492.53C1352.30,494.23 1350.90,496.23 1350.00,496.93C1349.10,497.73 1347.50,499.93 1346.50,502.03C1345.40,504.03 1343.00,507.33 1341.10,509.43C1339.20,511.43 1337.30,514.43 1337.00,516.03C1336.60,517.63 1335.30,520.23 1334.10,521.73C1330.70,525.73 1329.80,527.93 1329.00,533.93C1328.50,537.63 1327.20,540.83 1325.20,543.63C1322.30,547.73 1322.10,548.53 1321.40,561.63C1320.60,577.73 1321.50,584.83 1325.00,589.93C1326.40,591.93 1328.10,595.93 1328.90,598.73C1329.70,601.93 1331.70,605.73 1334.10,608.53C1341.30,617.13 1352.90,627.93 1357.00,629.83C1359.30,630.93 1361.70,632.53 1362.50,633.43C1364.70,636.13 1368.60,637.63 1375.50,638.33C1379.90,638.83 1383.70,640.03 1387.20,642.03C1394.30,646.13 1402.80,646.93 1437.00,646.83C1466.80,646.83 1486.40,645.33 1490.50,642.73C1494.70,640.13 1499.60,638.93 1510.70,638.13C1520.10,637.33 1521.90,636.93 1526.20,634.13C1529.60,631.93 1533.20,630.73 1538.50,629.83C1546.30,628.63 1550.20,627.13 1552.40,624.53C1553.20,623.63 1555.60,622.43 1557.90,621.83C1560.10,621.23 1563.60,619.73 1565.50,618.53C1567.50,617.23 1570.90,615.23 1573.30,614.03C1585.10,608.03 1616.70,581.13 1625.60,569.43C1627.80,566.73 1631.30,562.13 1633.50,559.43C1641.90,548.93 1653.50,530.33 1656.70,522.03C1657.60,519.63 1659.60,516.03 1661.00,513.93C1662.80,511.43 1664.10,507.43 1665.10,501.83C1665.90,497.33 1667.70,491.03 1669.10,488.03C1672.60,480.33 1673.80,468.63 1673.30,447.93C1672.80,430.83 1672.70,430.23 1669.30,421.43C1667.30,416.43 1665.40,409.83 1665.10,406.73C1664.60,403.13 1663.40,399.63 1661.80,397.23C1660.40,395.13 1658.40,391.53 1657.40,389.33C1656.50,387.03 1654.20,383.23 1652.30,380.83C1648.30,375.63 1637.60,364.93 1636.50,364.93C1636.10,364.93 1633.40,363.33 1630.50,361.43C1627.60,359.53 1624.70,357.93 1624.00,357.93C1623.30,357.93 1619.90,356.63 1616.40,355.03C1608.80,351.53 1599.40,350.83 1576.50,351.93ZM1560.70,428.13C1563.80,429.63 1567.30,432.13 1568.60,433.93C1569.90,435.73 1572.20,437.73 1573.60,438.43C1576.60,440.03 1583.20,453.03 1586.00,462.93C1589.80,476.13 1588.00,495.03 1582.00,505.43C1580.70,507.63 1579.10,511.33 1578.40,513.73C1577.70,516.03 1575.70,519.63 1574.00,521.73C1572.20,523.73 1570.50,526.33 1570.10,527.53C1569.80,528.63 1567.60,531.53 1565.20,534.03C1562.90,536.43 1558.90,540.73 1556.40,543.43C1552.00,548.23 1545.40,553.93 1536.30,560.63C1533.90,562.33 1529.30,564.43 1526.10,565.33C1522.80,566.13 1518.20,568.23 1515.90,569.93C1512.00,572.73 1510.50,573.13 1500.80,573.93C1494.80,574.43 1486.50,575.53 1482.10,576.43C1469.90,578.83 1457.50,578.73 1447.00,576.13C1442.10,574.93 1436.30,573.73 1434.30,573.43C1431.90,573.03 1428.80,571.43 1426.00,568.93C1423.50,566.73 1420.90,564.63 1420.20,564.23C1415.00,560.93 1403.50,540.83 1403.50,535.03C1403.50,533.63 1404.90,529.73 1406.50,526.43C1408.10,523.13 1409.50,519.73 1409.50,518.83C1409.50,517.33 1414.00,510.33 1425.50,493.73C1429.30,488.23 1447.10,469.93 1448.60,469.93C1449.00,469.93 1452.90,466.83 1457.40,462.93C1461.80,459.13 1466.90,455.23 1468.70,454.33C1470.40,453.43 1473.30,451.13 1475.00,449.33C1476.80,447.43 1479.20,445.93 1480.40,445.93C1483.20,445.93 1486.10,444.43 1490.30,440.83C1492.10,439.23 1494.40,437.93 1495.30,437.93C1496.30,437.93 1500.80,436.13 1505.30,433.93C1516.20,428.73 1522.30,426.93 1532.50,425.93C1546.30,424.63 1554.30,425.23 1560.70,428.13Z M667.60,361.83C665.20,363.43 664.70,371.23 665.50,394.93C666.40,418.33 666.80,421.63 670.50,433.73C671.60,437.23 673.00,445.33 673.50,451.73C674.90,466.93 676.10,473.83 678.50,479.13C679.50,481.53 681.10,487.63 681.90,492.83C683.10,500.53 684.00,503.23 686.70,507.03C689.90,511.53 702.80,526.23 709.10,532.33C710.80,534.03 712.60,536.23 713.10,537.13C713.60,538.03 720.80,545.83 729.00,554.53C737.30,563.23 747.40,573.93 751.70,578.33C755.90,582.83 763.40,591.33 768.40,597.43C777.30,608.13 790.80,623.13 797.10,629.33C798.90,631.03 804.40,637.13 809.50,642.93C814.60,648.73 821.70,656.53 825.40,660.43C833.50,668.93 847.20,684.33 854.00,692.83C856.80,696.33 863.00,703.23 867.80,708.23C872.70,713.33 881.90,723.43 888.30,730.83C894.70,738.23 903.20,747.73 907.10,751.83C913.20,758.43 921.20,767.43 934.30,782.63C936.40,785.03 939.60,788.63 941.50,790.73C947.70,797.63 952.90,803.43 957.20,808.53C967.10,820.13 971.40,825.33 978.50,833.43C1000.20,858.43 1009.40,869.23 1013.50,874.33C1016.00,877.53 1019.60,881.93 1021.70,884.23C1039.90,905.23 1050.10,917.63 1057.50,928.33C1058.30,929.53 1060.50,932.23 1062.50,934.53C1064.40,936.73 1067.80,940.93 1070.00,943.83C1072.20,946.83 1075.50,950.93 1077.30,953.13C1079.00,955.33 1080.50,957.73 1080.50,958.43C1080.50,959.13 1082.20,962.13 1084.20,965.03C1087.90,970.33 1087.90,970.63 1087.70,978.43C1087.60,982.83 1088.00,989.73 1088.60,993.83C1089.70,1000.53 1090.30,1001.63 1095.00,1007.13C1097.90,1010.43 1101.80,1014.13 1103.80,1015.33C1105.70,1016.43 1108.70,1018.43 1110.60,1019.63C1112.50,1020.93 1115.60,1022.13 1117.50,1022.53C1121.10,1023.03 1125.70,1024.53 1133.50,1027.43C1139.70,1029.73 1154.10,1029.13 1160.70,1026.13C1163.30,1025.03 1167.60,1023.73 1170.20,1023.33C1176.80,1022.43 1179.30,1021.33 1183.20,1017.93C1185.10,1016.23 1187.20,1014.93 1188.00,1014.93C1190.50,1014.93 1205.90,1000.13 1210.00,993.93C1211.20,992.03 1213.40,989.33 1214.90,988.03C1216.30,986.63 1217.50,985.13 1217.50,984.73C1217.50,984.23 1218.80,981.93 1220.40,979.53C1222.00,977.23 1224.90,971.23 1226.90,966.13C1230.00,958.33 1230.50,955.83 1230.50,948.93C1230.50,941.53 1230.20,940.23 1226.50,933.03C1222.00,924.03 1210.80,912.03 1204.00,908.83C1201.80,907.73 1198.00,905.83 1195.60,904.43C1193.20,903.03 1190.00,901.93 1188.50,901.93C1183.30,901.93 1179.90,899.73 1171.30,890.63C1162.00,880.83 1143.20,859.33 1130.00,843.43C1125.60,838.13 1118.70,830.33 1114.70,826.13C1110.70,821.83 1106.10,816.03 1104.50,813.13C1102.80,810.33 1101.10,807.93 1100.70,807.93C1100.20,807.93 1098.90,806.23 1097.80,804.13C1096.60,802.13 1094.60,799.43 1093.30,798.33C1092.00,797.13 1089.00,793.63 1086.50,790.43C1084.00,787.33 1078.30,780.43 1073.80,775.33C1069.20,770.13 1065.50,765.43 1065.50,764.93C1065.50,764.43 1063.70,761.93 1061.50,759.23C1059.40,756.63 1055.80,752.13 1053.50,749.43C1051.30,746.63 1046.40,740.83 1042.60,736.43C1038.90,732.03 1034.30,726.23 1032.40,723.63C1025.90,714.53 1024.50,712.73 1020.80,708.33C1018.70,706.03 1015.50,702.13 1013.70,699.73C1011.90,697.33 1008.40,693.03 1006.00,690.03C1003.50,687.03 1001.50,684.23 1001.50,683.83C1001.50,683.33 998.00,678.93 993.80,673.93C982.90,661.23 980.30,658.03 978.10,654.53C977.10,652.83 974.80,649.73 973.10,647.73C971.40,645.63 968.20,641.63 966.00,638.83C963.80,636.03 960.40,632.03 958.40,630.03C956.40,628.03 954.00,624.83 953.00,622.93C952.00,621.03 950.00,618.03 948.60,616.33C947.20,614.53 944.20,610.83 942.00,608.03C937.10,601.73 932.40,595.73 926.70,588.73C924.30,585.83 921.30,581.83 920.00,579.93C918.60,578.03 916.30,574.63 914.70,572.43C913.20,570.23 910.60,567.03 909.00,565.33C907.30,563.53 904.30,559.93 902.30,557.33C900.20,554.63 896.30,549.53 893.60,545.93C884.10,533.53 882.00,530.83 878.50,526.63C876.50,524.33 874.10,521.03 873.00,519.43C872.00,517.73 868.40,513.03 865.10,508.93C861.70,504.83 857.60,499.73 856.00,497.63C854.30,495.53 851.70,492.03 850.00,489.93C848.40,487.83 845.50,484.23 843.70,481.83C837.20,473.03 832.90,467.53 829.50,463.43C827.60,461.13 825.20,457.93 824.30,456.33C823.30,454.73 820.50,450.93 818.00,447.93C815.50,444.93 812.20,440.63 810.80,438.43C808.30,434.73 803.80,429.23 798.10,422.93C796.80,421.53 795.00,419.03 793.90,417.43C792.90,415.73 790.70,412.83 789.00,410.73C785.80,406.93 781.30,400.63 778.00,395.53C776.90,393.83 773.60,390.03 770.80,387.13C765.60,381.93 765.60,381.93 756.80,381.93C736.40,381.83 722.30,380.33 715.50,377.53C711.90,376.03 703.90,374.03 697.50,373.13C686.50,371.43 685.60,371.13 678.10,366.13C669.60,360.53 669.70,360.53 667.60,361.83Z M836.10,373.73C833.90,374.13 832.00,374.93 831.80,375.43C831.40,376.73 839.90,379.53 853.50,382.43C871.90,386.43 887.80,390.83 893.00,393.33C895.80,394.73 901.40,396.33 905.50,397.03C910.40,397.73 914.90,399.13 918.40,401.13C921.80,403.03 926.90,404.73 931.90,405.53C936.60,406.33 941.70,408.03 944.40,409.63C946.90,411.03 951.80,412.83 955.40,413.63C959.00,414.33 963.80,416.03 966.20,417.33C968.50,418.63 972.80,420.53 975.70,421.43C978.60,422.43 983.00,424.23 985.50,425.43C988.00,426.73 992.10,428.23 994.50,428.93C997.00,429.53 1001.30,431.33 1004.00,432.93C1006.80,434.53 1011.00,436.23 1013.50,436.93C1016.00,437.53 1020.00,439.43 1022.50,440.93C1025.00,442.53 1029.30,444.33 1032.00,445.03C1034.80,445.63 1039.00,447.73 1041.30,449.53C1043.70,451.33 1047.10,453.13 1048.80,453.43C1050.60,453.83 1053.70,455.43 1055.70,457.03C1057.80,458.63 1061.40,460.83 1063.70,461.83C1073.00,465.83 1094.80,481.33 1106.30,491.93C1111.60,496.93 1112.50,498.23 1112.50,501.33C1112.50,508.43 1104.80,508.43 1096.30,501.33C1094.00,499.33 1089.70,496.63 1086.90,495.43C1084.10,494.23 1081.20,492.33 1080.40,491.23C1078.60,488.63 1075.90,487.33 1070.90,486.43C1068.30,486.03 1065.70,484.73 1064.00,482.93C1062.30,481.13 1059.40,479.63 1056.10,478.83C1053.30,478.23 1049.30,476.33 1047.20,474.73C1045.20,473.03 1041.00,471.13 1038.00,470.43C1035.00,469.73 1030.80,468.03 1028.70,466.63C1026.70,465.13 1022.40,463.13 1019.20,462.03C1016.00,460.93 1012.20,459.13 1010.70,458.13C1009.20,457.03 1005.50,455.43 1002.50,454.43C999.50,453.43 995.00,451.63 992.50,450.43C990.00,449.13 985.90,447.63 983.50,446.93C981.00,446.33 977.10,444.53 974.70,442.93C972.10,441.23 967.90,439.73 963.70,438.93C959.60,438.23 955.30,436.73 952.40,434.93C949.70,433.13 945.00,431.43 940.40,430.53C936.30,429.73 930.50,427.73 927.40,426.03C924.10,424.23 919.30,422.63 915.40,422.03C911.10,421.43 907.30,420.13 904.00,418.03C900.60,415.93 896.20,414.43 890.60,413.33C886.00,412.43 880.30,410.93 877.80,409.83C875.30,408.83 869.80,407.03 865.40,405.93C861.00,404.83 855.70,402.93 853.50,401.83C845.40,397.63 838.50,398.33 838.50,403.43C838.50,406.33 842.90,416.23 846.00,420.33C847.30,422.03 849.40,425.93 850.80,428.93C852.10,431.93 854.00,435.03 854.90,435.83C855.90,436.63 857.30,438.53 858.10,440.13C860.10,444.03 883.20,467.73 886.80,469.63C888.30,470.43 890.40,471.83 891.50,472.93C894.00,475.43 903.70,481.93 909.60,484.93C912.20,486.33 915.40,488.43 916.70,489.63C918.00,490.73 921.00,492.23 923.50,492.93C926.00,493.53 929.80,495.43 931.90,497.13C934.30,499.03 938.20,500.83 941.90,501.63C945.30,502.43 949.60,504.13 951.60,505.53C953.70,506.93 958.90,508.73 964.60,509.93C969.80,511.03 975.60,512.63 977.50,513.53C979.40,514.43 987.70,516.73 996.00,518.53C1009.30,521.63 1017.30,522.93 1046.50,526.93C1050.60,527.53 1056.90,528.63 1060.50,529.43C1064.10,530.23 1072.70,531.53 1079.80,532.33C1090.70,533.63 1093.30,534.23 1097.90,536.93C1102.60,539.53 1111.80,541.63 1120.20,541.93C1120.30,541.93 1122.00,543.33 1124.00,545.03C1126.00,546.83 1129.80,548.73 1133.20,549.63C1138.40,550.93 1146.50,555.43 1153.50,560.73C1154.90,561.83 1157.80,563.53 1160.00,564.73C1165.50,567.53 1182.20,584.43 1185.10,590.13C1187.90,595.73 1190.90,596.53 1192.60,592.23C1194.00,588.63 1193.00,585.03 1189.50,581.43C1187.90,579.73 1185.70,575.93 1184.50,572.93C1183.30,569.93 1181.50,566.03 1180.40,564.33C1179.40,562.63 1177.80,559.23 1177.00,556.93C1176.10,554.53 1174.40,551.23 1173.10,549.53C1171.90,547.83 1170.00,544.13 1169.10,541.33C1168.20,538.43 1166.50,535.33 1165.30,534.33C1164.20,533.23 1162.20,530.13 1161.00,527.43C1159.70,524.63 1157.90,521.73 1156.90,520.93C1156.00,520.13 1154.30,517.53 1153.30,515.23C1152.30,512.93 1150.50,510.33 1149.40,509.53C1148.20,508.73 1146.10,506.33 1144.70,504.23C1137.40,493.53 1121.30,476.63 1105.30,462.93C1100.50,458.83 1094.40,453.63 1091.80,451.33C1089.20,449.03 1085.60,446.53 1083.90,445.63C1082.20,444.73 1080.20,443.33 1079.40,442.33C1078.70,441.43 1076.00,439.83 1073.60,438.73C1071.20,437.73 1067.70,435.63 1065.90,434.03C1064.10,432.43 1060.90,430.63 1058.80,429.93C1056.70,429.23 1053.80,427.63 1052.40,426.23C1051.00,424.93 1047.40,422.93 1044.50,421.83C1041.50,420.73 1037.90,418.93 1036.40,417.83C1033.60,415.93 1024.20,411.73 1012.70,407.33C1009.30,406.03 1004.70,404.03 1002.60,402.93C1000.50,401.93 995.50,400.33 991.60,399.53C987.60,398.73 982.10,396.73 979.20,395.13C975.10,392.83 971.90,391.93 964.20,391.13C957.00,390.33 952.60,389.23 948.00,387.13C939.90,383.23 938.70,383.03 921.50,382.03C911.00,381.33 905.30,380.53 901.00,378.93C890.60,375.23 847.40,371.83 836.10,373.73Z M1271.10,625.43C1269.00,626.83 1265.70,628.83 1263.70,629.83C1257.50,632.93 1244.10,648.13 1242.40,653.93C1241.70,656.23 1241.40,663.63 1241.60,673.03C1242.00,686.53 1242.30,688.83 1244.00,691.33C1245.10,692.83 1247.60,696.73 1249.50,699.93C1255.50,709.73 1260.50,716.93 1261.50,716.93C1262.60,716.93 1271.50,728.43 1271.50,729.83C1271.50,731.03 1263.40,741.93 1261.00,743.93C1260.10,744.73 1258.50,746.93 1257.50,748.83C1256.50,750.83 1253.30,755.33 1250.50,758.93C1247.70,762.53 1243.90,767.73 1242.10,770.43C1240.20,773.23 1238.00,776.13 1237.00,776.93C1236.10,777.63 1234.70,779.83 1233.90,781.73C1233.10,783.63 1230.80,787.13 1228.70,789.43C1226.70,791.73 1224.20,794.93 1223.20,796.53C1219.20,803.13 1209.20,817.53 1205.50,821.93C1204.70,822.93 1201.50,827.23 1198.50,831.53C1195.50,835.73 1191.30,841.23 1189.30,843.63C1187.20,846.03 1185.50,848.43 1185.50,849.03C1185.50,849.53 1183.90,851.73 1182.00,853.83C1173.70,862.93 1176.30,870.03 1186.90,867.13C1189.50,866.43 1191.70,866.43 1193.40,867.03C1194.80,867.63 1200.80,868.63 1206.70,869.33C1216.60,870.63 1217.90,871.03 1222.10,874.23C1224.50,876.13 1228.00,878.03 1229.80,878.33C1237.20,879.73 1253.90,897.23 1260.10,909.93C1263.80,917.63 1266.50,929.93 1266.50,939.13C1266.50,954.83 1261.80,971.03 1252.40,986.93C1243.40,1002.43 1222.10,1025.43 1201.90,1041.53C1199.70,1043.23 1195.60,1045.43 1192.80,1046.33C1189.90,1047.33 1187.30,1048.53 1186.90,1049.03C1185.80,1050.83 1180.40,1053.03 1172.20,1055.03C1167.70,1056.13 1160.90,1058.23 1157.00,1059.63C1150.60,1062.03 1148.60,1062.23 1134.50,1062.33C1121.60,1062.33 1118.30,1062.03 1114.50,1060.53C1112.00,1059.53 1106.30,1057.43 1101.70,1055.83C1096.50,1054.03 1091.60,1051.53 1088.80,1049.23C1078.60,1040.83 1068.20,1030.13 1066.00,1025.83C1064.70,1023.33 1062.90,1020.73 1062.00,1019.93C1057.50,1016.13 1057.00,1013.53 1056.90,989.93C1056.80,977.53 1056.70,966.83 1056.60,966.23C1056.20,962.33 1044.10,959.63 1019.80,958.03C1008.60,957.23 1002.70,956.33 996.80,954.43C988.40,951.73 980.00,950.53 960.50,949.03C953.10,948.43 945.30,947.23 941.50,946.03C932.60,943.13 919.60,940.93 911.60,940.93C898.60,940.83 868.50,934.73 863.60,931.13C862.20,930.13 859.60,927.13 857.90,924.53C853.90,918.53 846.30,910.43 840.10,905.73C834.40,901.33 830.00,900.43 817.30,901.13C810.10,901.63 807.80,902.13 805.60,903.83C804.20,905.03 801.70,906.73 800.10,907.73C796.90,909.53 796.70,909.73 787.50,920.63C784.10,924.63 780.90,927.93 780.30,927.93C779.80,927.93 778.10,928.73 776.70,929.73C775.20,930.73 771.40,932.63 768.30,933.83C765.10,935.13 762.10,936.73 761.40,937.53C760.80,938.23 757.80,939.83 754.70,940.93C751.50,942.13 747.50,944.53 745.60,946.23C737.20,954.13 731.10,960.93 726.70,967.33C722.00,974.23 722.00,974.23 721.70,986.83C721.50,995.83 721.80,1000.03 722.70,1001.53C725.90,1006.63 730.60,1013.73 733.30,1017.43C734.90,1019.63 736.80,1023.23 737.50,1025.43C738.20,1027.63 739.90,1031.03 741.20,1032.93C742.50,1034.83 744.00,1038.03 744.50,1039.93C745.00,1041.93 747.30,1045.93 749.50,1048.93C751.70,1051.83 753.50,1054.83 753.50,1055.43C753.50,1056.83 764.80,1068.33 771.10,1073.33C777.30,1078.23 779.90,1079.33 790.90,1081.43C798.50,1082.93 801.10,1083.03 809.60,1082.03C815.10,1081.43 821.20,1080.23 823.30,1079.33C827.20,1077.73 842.60,1068.53 848.30,1064.43C852.40,1061.53 861.50,1059.53 866.90,1060.33C869.20,1060.63 904.30,1061.43 945.00,1061.93C1014.80,1062.83 1019.10,1063.03 1021.50,1064.73C1026.60,1068.53 1024.30,1074.93 1013.50,1086.43C1012.00,1088.03 1009.80,1091.33 1008.60,1093.63C1007.50,1095.93 1006.10,1098.13 1005.50,1098.43C1004.90,1098.73 1003.50,1100.93 1002.40,1103.23C1001.20,1105.53 999.00,1108.83 997.40,1110.43C995.80,1112.13 994.00,1115.13 993.30,1117.23C992.60,1119.23 990.70,1122.43 989.20,1124.23C987.60,1125.93 983.90,1131.23 980.90,1135.93C978.00,1140.63 974.10,1146.43 972.40,1148.93C970.70,1151.43 967.40,1156.53 965.00,1160.43C962.60,1164.23 959.50,1168.83 958.20,1170.43C956.80,1172.13 954.70,1175.23 953.40,1177.43C952.10,1179.63 950.20,1182.63 949.00,1184.03C947.80,1185.53 946.20,1188.23 945.50,1190.03C944.80,1191.93 942.70,1195.13 940.80,1197.13C939.00,1199.23 936.90,1202.33 936.00,1204.13C933.60,1209.33 923.30,1224.43 917.90,1230.73C916.20,1232.83 914.30,1236.03 913.60,1238.03C913.00,1240.03 911.30,1242.73 909.90,1244.03C908.50,1245.33 906.40,1248.23 905.30,1250.43C904.10,1252.63 901.90,1255.93 900.40,1257.73C898.80,1259.53 897.50,1261.63 897.50,1262.33C897.50,1263.13 895.90,1265.63 894.00,1267.93C892.10,1270.23 889.60,1273.93 888.50,1276.23C887.40,1278.53 884.30,1283.33 881.50,1286.93C878.80,1290.53 875.60,1295.13 874.50,1297.13C873.40,1299.23 871.20,1302.33 869.60,1304.13C868.10,1305.93 866.00,1309.03 865.00,1310.93C864.00,1312.83 861.90,1315.73 860.40,1317.33C858.80,1319.03 857.50,1320.83 857.50,1321.43C857.50,1322.03 855.70,1325.03 853.50,1327.93C851.30,1330.83 849.50,1333.83 849.50,1334.53C849.50,1335.23 847.80,1337.83 845.80,1340.33C842.10,1344.63 838.80,1349.53 833.50,1358.43C832.10,1360.73 830.00,1363.93 828.70,1365.53C821.00,1375.33 819.30,1377.83 817.60,1381.43C816.60,1383.63 815.00,1386.13 814.10,1386.83C813.10,1387.63 811.20,1390.33 809.80,1392.83C808.30,1395.33 806.10,1398.73 804.80,1400.43C801.30,1404.83 795.90,1412.83 793.40,1417.43C792.20,1419.63 789.90,1422.93 788.40,1424.73C786.80,1426.53 785.50,1428.63 785.50,1429.33C785.50,1430.13 783.90,1432.63 782.00,1434.93C780.10,1437.23 778.50,1439.53 778.50,1440.03C778.50,1440.53 777.00,1442.63 775.10,1444.63C773.30,1446.73 770.70,1450.43 769.50,1452.93C768.30,1455.43 765.80,1459.13 764.10,1461.13C762.40,1463.23 759.60,1466.63 757.90,1468.63C756.20,1470.73 753.60,1474.63 752.10,1477.43C749.10,1482.93 746.20,1487.43 741.50,1493.43C737.60,1498.43 734.40,1503.13 730.90,1508.93C729.40,1511.43 726.90,1514.93 725.30,1516.73C723.80,1518.53 722.50,1520.43 722.50,1521.03C722.50,1521.53 720.80,1523.83 718.60,1526.23C716.50,1528.53 714.00,1532.23 713.10,1534.43C712.10,1536.63 710.40,1539.53 709.10,1540.93C707.90,1542.33 705.60,1545.43 704.10,1547.93C702.60,1550.43 699.40,1555.13 697.00,1558.43C694.50,1561.73 691.70,1565.73 690.80,1567.33C689.80,1568.93 687.90,1571.63 686.50,1573.33C682.90,1577.73 676.40,1587.53 674.00,1592.03C672.90,1594.13 670.50,1597.23 668.80,1599.03C667.00,1600.73 665.50,1602.73 665.50,1603.43C665.50,1604.63 657.30,1616.43 653.60,1620.43C652.70,1621.53 650.10,1625.13 647.90,1628.33C638.00,1643.33 633.90,1649.03 629.90,1653.73C628.20,1655.83 626.00,1659.03 625.00,1660.93C624.00,1662.83 621.90,1665.93 620.40,1667.73C618.80,1669.53 617.50,1671.43 617.50,1671.93C617.50,1672.43 615.60,1675.13 613.30,1677.83C608.30,1683.63 604.70,1688.53 600.20,1695.43C595.80,1702.23 592.50,1706.73 589.00,1711.13C587.40,1713.13 584.00,1717.73 581.50,1721.43C579.00,1725.03 575.30,1730.03 573.30,1732.53C571.20,1735.03 569.50,1737.33 569.50,1737.73C569.50,1738.13 567.80,1740.53 565.80,1743.13C563.70,1745.63 561.20,1749.03 560.30,1750.53C559.30,1752.13 556.50,1755.93 554.00,1758.93C551.50,1761.93 547.90,1766.73 546.00,1769.63C544.10,1772.43 542.10,1775.13 541.50,1775.43C540.90,1775.73 538.90,1778.43 537.00,1781.23C531.60,1789.13 528.60,1792.93 520.80,1801.83C516.80,1806.33 513.50,1810.43 513.50,1810.93C513.50,1811.43 512.00,1813.63 510.10,1815.63C508.30,1817.73 506.20,1820.53 505.50,1821.93C504.00,1824.83 498.70,1831.33 493.00,1837.33C490.80,1839.63 485.60,1845.33 481.50,1849.93C471.90,1860.53 455.20,1877.23 449.00,1882.43C446.40,1884.63 443.10,1887.73 441.60,1889.33C440.20,1890.93 437.60,1892.83 435.80,1893.53C434.00,1894.33 431.10,1896.23 429.30,1897.73C427.50,1899.33 423.80,1901.33 421.20,1902.33C418.60,1903.33 415.20,1905.13 413.70,1906.43C412.20,1907.63 408.50,1909.43 405.50,1910.43C402.50,1911.43 397.80,1913.33 395.20,1914.63C389.20,1917.63 375.00,1921.43 361.50,1923.53C348.80,1925.53 337.90,1924.93 320.20,1921.43C307.00,1918.83 301.00,1916.93 296.10,1914.03C294.40,1913.03 290.60,1911.43 287.70,1910.43C284.80,1909.53 280.10,1907.23 277.40,1905.33C274.60,1903.43 271.70,1901.93 270.90,1901.93C270.10,1901.93 267.80,1900.43 265.80,1898.53C263.70,1896.73 260.20,1894.23 258.00,1893.13C248.00,1888.03 208.10,1847.93 201.60,1836.53C200.30,1834.33 198.10,1831.03 196.60,1829.33C190.00,1821.43 182.10,1810.13 178.20,1802.93C176.80,1800.43 174.80,1797.63 173.60,1796.53C172.50,1795.53 170.90,1792.53 170.00,1789.93C169.20,1787.33 167.10,1783.93 165.40,1782.33C158.70,1776.13 157.70,1768.53 162.80,1763.53C166.30,1760.03 169.00,1759.43 197.50,1755.43C203.80,1754.53 212.40,1753.23 216.50,1752.33C220.60,1751.53 228.70,1750.03 234.50,1748.93C249.50,1746.13 252.10,1742.23 244.60,1733.63C241.60,1730.13 240.60,1728.03 240.10,1723.83C239.70,1720.83 238.10,1715.53 236.50,1711.93C232.90,1703.53 227.50,1688.23 227.50,1686.23C227.50,1685.33 225.70,1680.73 223.60,1676.03C221.40,1671.33 219.10,1664.53 218.50,1660.93C217.30,1654.33 215.60,1650.23 212.40,1646.03C211.30,1644.73 210.50,1642.03 210.50,1640.03C210.40,1634.03 208.60,1627.73 205.40,1622.73C203.30,1619.53 202.10,1615.93 201.40,1611.23C200.80,1606.93 199.30,1602.03 197.10,1597.83C195.20,1594.23 193.20,1588.73 192.60,1585.53C192.00,1582.33 190.40,1577.33 189.00,1574.33C185.90,1567.83 180.00,1551.33 178.00,1543.53C177.20,1540.33 175.40,1535.83 174.00,1533.53C172.70,1531.23 170.90,1525.83 170.10,1521.53C169.20,1517.03 167.30,1511.63 165.60,1508.63C163.50,1504.93 162.30,1501.13 161.70,1495.63C160.90,1489.73 159.90,1486.73 157.60,1483.03C155.40,1479.73 154.00,1475.73 153.10,1470.63C152.40,1466.53 150.70,1461.23 149.30,1458.83C147.90,1456.43 146.20,1451.83 145.60,1448.73C144.30,1442.53 142.60,1440.43 139.60,1441.43C136.90,1442.23 129.00,1451.23 117.70,1466.33C110.50,1476.03 105.60,1482.33 101.90,1486.73C100.20,1488.73 98.20,1492.13 97.60,1494.23C96.90,1496.23 94.90,1499.53 93.10,1501.43C91.30,1503.33 89.30,1506.63 88.60,1508.83C88.00,1511.03 86.40,1514.13 85.10,1515.63C83.90,1517.13 81.70,1520.93 80.20,1523.93C78.80,1526.93 76.90,1530.53 76.10,1531.93C75.30,1533.33 72.50,1538.93 70.00,1544.43C67.50,1549.93 63.90,1557.53 62.00,1561.43C60.10,1565.23 58.10,1570.63 57.50,1573.23C56.90,1575.93 55.10,1580.43 53.50,1583.33C51.60,1586.63 50.20,1591.03 49.50,1595.63C48.90,1600.23 47.30,1605.13 45.00,1609.63C42.20,1615.13 41.40,1618.23 40.50,1626.03C39.90,1632.33 38.60,1637.63 37.00,1641.33C35.50,1644.63 33.60,1652.33 32.50,1659.23C31.40,1665.93 29.40,1677.93 28.00,1685.93C26.70,1693.93 24.90,1705.83 24.00,1712.43C23.20,1719.03 21.90,1728.03 21.30,1732.43C20.50,1737.73 20.10,1756.63 20.00,1788.43C20.00,1841.53 19.80,1839.63 27.60,1869.43C29.20,1875.43 31.20,1884.03 32.00,1888.43C32.80,1892.83 34.80,1899.03 36.50,1902.13C38.10,1905.33 39.90,1910.83 40.50,1914.53C41.70,1921.73 42.60,1923.93 46.10,1928.13C47.30,1929.63 48.60,1932.83 49.00,1935.13C50.20,1943.63 50.70,1944.83 53.50,1948.43C55.00,1950.33 56.80,1954.33 57.50,1957.23C58.20,1960.03 59.90,1964.23 61.40,1966.43C62.90,1968.63 64.90,1972.43 65.90,1974.83C66.90,1977.33 68.50,1980.53 69.50,1981.93C70.50,1983.33 72.50,1986.93 74.00,1989.93C75.40,1992.93 78.80,1999.43 81.50,2004.43C84.20,2009.33 87.70,2016.23 89.30,2019.53C90.90,2022.93 92.80,2026.03 93.40,2026.43C94.10,2026.83 95.60,2029.43 96.90,2032.23C98.10,2035.13 100.00,2038.13 101.00,2038.93C102.00,2039.73 103.80,2042.53 105.00,2045.13C106.20,2047.63 108.40,2051.23 109.90,2053.13C116.40,2061.03 119.60,2065.73 121.40,2069.43C122.40,2071.63 124.00,2074.03 124.90,2074.83C125.80,2075.53 127.70,2078.33 129.10,2081.03C130.60,2083.63 132.30,2086.03 133.10,2086.33C133.80,2086.63 136.00,2089.23 137.90,2092.13C144.10,2101.33 148.20,2105.93 170.40,2128.53C195.10,2153.83 210.10,2171.13 220.50,2186.43C223.00,2190.13 226.90,2195.33 229.30,2198.03C231.60,2200.73 233.50,2203.63 233.50,2204.43C233.50,2205.23 234.80,2207.33 236.40,2209.13C237.90,2210.93 240.00,2214.03 241.00,2215.93C241.90,2217.83 244.00,2220.73 245.60,2222.43C247.10,2224.03 249.10,2227.03 249.90,2228.93C250.70,2230.83 252.60,2234.03 254.20,2236.13C255.70,2238.13 257.80,2241.03 258.80,2242.63C259.70,2244.13 262.70,2248.83 265.50,2252.93C268.20,2257.03 271.70,2263.13 273.30,2266.43C274.90,2269.73 276.90,2273.03 277.80,2273.83C278.70,2274.53 279.90,2276.83 280.50,2278.93C281.10,2281.03 283.10,2284.63 285.00,2286.83C287.20,2289.53 288.70,2292.83 289.50,2296.33C290.10,2299.53 291.80,2303.33 293.50,2305.43C295.20,2307.53 297.70,2313.13 299.50,2318.93C302.80,2329.73 304.60,2331.93 310.10,2331.93C312.30,2331.93 314.60,2330.83 317.50,2328.43C322.50,2324.23 326.90,2322.93 335.60,2322.93C339.50,2322.93 344.50,2322.13 347.80,2321.03C358.90,2317.23 375.20,2313.13 386.40,2311.43C392.70,2310.53 400.90,2308.53 404.90,2306.93C410.00,2304.93 414.70,2303.93 421.50,2303.43C433.30,2302.63 443.10,2300.63 448.10,2298.13C453.00,2295.63 455.90,2295.23 472.90,2293.93C484.40,2293.03 488.10,2292.33 494.10,2289.93C499.90,2287.63 504.60,2286.73 516.70,2285.43C533.90,2283.73 537.60,2283.13 549.00,2280.03C553.40,2278.83 564.90,2276.73 574.50,2275.33C600.30,2271.63 620.40,2268.13 629.80,2265.93C635.10,2264.63 643.20,2263.63 652.50,2263.33C663.70,2262.83 670.70,2261.93 683.00,2259.23C698.80,2255.83 715.80,2254.13 735.50,2254.03C743.80,2253.93 760.40,2251.43 773.50,2248.43C777.30,2247.53 788.80,2246.53 801.00,2246.03C821.10,2245.23 822.40,2245.03 830.50,2242.03C836.30,2239.83 842.80,2238.43 851.00,2237.43C858.60,2236.53 866.20,2234.93 871.80,2232.93C876.70,2231.23 883.90,2229.23 887.80,2228.43C891.80,2227.63 903.30,2224.33 913.50,2221.03C923.70,2217.83 934.10,2214.73 936.80,2214.03C939.40,2213.43 943.20,2211.83 945.30,2210.53C947.50,2209.03 952.40,2207.43 957.30,2206.53C963.30,2205.43 966.70,2204.23 969.80,2201.93C972.80,2199.83 976.10,2198.53 980.50,2197.83C984.90,2197.13 988.30,2195.93 991.20,2193.93C993.50,2192.23 998.20,2190.23 1001.90,2189.43C1005.50,2188.53 1010.60,2186.53 1013.20,2184.93C1015.80,2183.23 1019.70,2181.43 1021.80,2180.83C1025.30,2179.93 1038.70,2173.63 1046.00,2169.63C1047.70,2168.73 1050.80,2167.53 1053.00,2166.93C1055.20,2166.43 1059.50,2164.43 1062.50,2162.43C1065.50,2160.53 1069.50,2158.63 1071.50,2158.33C1075.90,2157.53 1079.50,2155.73 1081.90,2153.13C1082.90,2151.93 1086.10,2150.53 1088.90,2149.93C1092.20,2149.23 1095.30,2147.83 1097.30,2146.03C1099.00,2144.43 1102.80,2142.33 1105.70,2141.43C1108.60,2140.43 1112.10,2138.83 1113.50,2137.93C1114.90,2136.93 1121.00,2133.53 1127.00,2130.43C1133.10,2127.23 1139.20,2123.63 1140.70,2122.43C1142.20,2121.13 1145.60,2119.43 1148.30,2118.53C1151.00,2117.63 1154.20,2115.73 1155.50,2114.43C1156.80,2113.13 1160.10,2111.33 1162.90,2110.53C1165.90,2109.63 1169.30,2107.73 1171.00,2105.93C1172.50,2104.33 1175.40,2102.63 1177.30,2102.33C1179.10,2101.93 1182.70,2099.93 1185.10,2097.83C1187.50,2095.73 1191.00,2093.73 1192.90,2093.43C1194.70,2093.03 1198.00,2091.23 1200.10,2089.33C1202.20,2087.53 1204.50,2085.93 1205.00,2085.93C1205.60,2085.93 1209.10,2084.03 1212.70,2081.63C1216.40,2079.33 1221.70,2076.03 1224.50,2074.43C1227.40,2072.73 1231.70,2069.73 1234.10,2067.73C1236.50,2065.73 1240.10,2063.53 1242.10,2063.03C1244.00,2062.53 1247.60,2060.23 1250.10,2058.03C1252.50,2055.73 1255.10,2053.93 1255.90,2053.93C1256.70,2053.93 1259.60,2052.13 1262.40,2049.93C1265.20,2047.73 1267.70,2045.93 1268.10,2045.93C1268.50,2045.93 1270.40,2044.73 1272.40,2043.23C1274.30,2041.63 1277.80,2039.33 1280.10,2037.93C1285.40,2034.83 1301.50,2023.33 1307.30,2018.53C1309.70,2016.53 1312.30,2014.93 1313.00,2014.93C1313.80,2014.93 1316.70,2012.93 1319.50,2010.43C1322.30,2007.93 1325.00,2005.93 1325.50,2005.93C1326.00,2005.93 1328.10,2004.53 1330.10,2002.73C1332.10,2001.03 1335.40,1998.43 1337.50,1997.03C1343.00,1993.33 1356.20,1983.23 1361.70,1978.53C1372.50,1969.23 1374.90,1967.33 1377.50,1965.93C1379.00,1965.13 1382.00,1962.93 1384.10,1961.13C1399.20,1948.33 1408.40,1940.23 1410.50,1937.93C1411.90,1936.43 1421.20,1927.83 1431.30,1918.93C1450.40,1901.93 1483.70,1868.23 1488.70,1860.73C1490.30,1858.33 1492.70,1855.53 1494.00,1854.43C1496.10,1852.63 1509.00,1837.93 1515.80,1829.53C1517.30,1827.63 1519.70,1823.93 1521.10,1821.23C1522.50,1818.63 1525.00,1815.03 1526.60,1813.43C1528.20,1811.73 1529.50,1809.93 1529.50,1809.33C1529.50,1808.83 1530.90,1806.73 1532.50,1804.73C1534.20,1802.63 1536.40,1799.03 1537.50,1796.63C1538.60,1794.23 1540.80,1790.53 1542.50,1788.43C1544.10,1786.33 1545.50,1784.13 1545.50,1783.63C1545.50,1783.03 1547.80,1778.03 1550.60,1772.53C1555.90,1762.33 1567.50,1728.63 1567.50,1723.63C1567.50,1722.13 1566.50,1719.93 1565.40,1718.83C1563.50,1716.93 1562.60,1716.73 1556.60,1717.33C1553.00,1717.73 1546.00,1718.43 1541.00,1718.93C1536.10,1719.43 1529.30,1720.73 1526.00,1721.93C1519.40,1724.23 1497.70,1727.93 1490.40,1727.93C1487.90,1727.93 1482.50,1728.83 1478.40,1729.93C1468.60,1732.63 1442.70,1737.93 1434.50,1739.03C1417.40,1741.23 1408.60,1742.93 1404.30,1744.83C1401.70,1745.93 1396.80,1747.13 1393.30,1747.43C1374.50,1749.33 1364.20,1751.23 1358.90,1753.63C1354.40,1755.63 1350.40,1756.43 1337.80,1757.53C1324.70,1758.73 1321.20,1759.43 1315.60,1761.93C1310.70,1764.03 1305.60,1765.23 1296.70,1766.33C1290.00,1767.13 1280.40,1769.13 1275.30,1770.73C1270.20,1772.43 1259.70,1774.93 1252.00,1776.33C1236.70,1779.03 1222.30,1782.73 1216.10,1785.33C1213.90,1786.23 1207.20,1787.63 1201.30,1788.43C1193.10,1789.53 1188.50,1790.73 1182.60,1793.43C1177.40,1795.73 1173.20,1796.93 1170.30,1796.93C1164.40,1796.93 1155.30,1799.43 1150.20,1802.33C1147.80,1803.73 1143.50,1805.03 1140.00,1805.43C1131.40,1806.43 1127.70,1807.53 1123.60,1810.43C1121.60,1811.83 1117.20,1813.43 1114.00,1814.03C1110.70,1814.63 1104.20,1816.93 1099.50,1819.13C1094.80,1821.33 1088.20,1824.43 1084.80,1826.03C1081.40,1827.63 1078.30,1828.93 1077.80,1828.93C1077.30,1828.93 1074.40,1831.53 1071.20,1834.73C1064.70,1841.33 1064.30,1843.13 1067.90,1849.93C1069.20,1852.43 1071.10,1857.23 1072.00,1860.43C1072.90,1863.73 1075.10,1868.63 1076.70,1871.23C1078.40,1873.83 1080.40,1878.93 1081.10,1882.53C1082.00,1886.53 1083.70,1890.73 1085.50,1893.33C1087.60,1896.13 1088.70,1899.23 1089.20,1902.83C1089.60,1906.53 1090.80,1909.63 1093.20,1913.13C1095.40,1916.33 1097.00,1920.13 1097.70,1923.93C1098.40,1928.13 1099.70,1931.13 1102.10,1934.23C1106.40,1939.73 1107.50,1946.53 1105.20,1952.13C1104.00,1954.93 1102.40,1956.43 1098.80,1958.23C1096.20,1959.53 1092.40,1961.63 1090.40,1963.03C1087.20,1965.23 1081.70,1967.13 1053.50,1976.03C1048.20,1977.63 1037.60,1979.83 1029.50,1980.93C1021.50,1981.93 1012.30,1983.83 1009.00,1984.93C1005.10,1986.33 998.50,1987.43 990.00,1988.03C961.20,1990.13 944.60,1992.03 937.00,1993.93C924.80,1997.03 891.30,1998.13 822.00,1997.73C762.00,1997.23 762.00,1997.23 753.00,1994.13C746.60,1991.93 740.10,1990.63 730.50,1989.53C716.80,1988.03 714.60,1987.33 698.00,1979.33C688.60,1974.73 675.70,1962.23 673.50,1955.43C671.60,1949.73 673.00,1941.83 677.00,1935.93C678.80,1933.23 681.00,1928.53 681.90,1925.63C682.70,1922.73 684.60,1919.23 685.90,1918.03C687.30,1916.73 689.10,1913.33 689.90,1910.43C690.80,1907.63 692.40,1904.43 693.60,1903.33C694.70,1902.33 697.00,1898.73 698.60,1895.43C703.20,1886.03 706.80,1879.73 709.70,1875.93C711.10,1874.03 712.60,1871.23 713.00,1869.73C713.40,1868.33 715.10,1865.33 716.90,1863.23C718.60,1861.13 720.90,1857.53 721.90,1855.13C723.00,1852.83 724.40,1850.43 725.20,1849.73C726.00,1849.13 727.80,1846.23 729.20,1843.53C730.60,1840.73 732.50,1837.53 733.60,1836.43C734.60,1835.33 736.50,1831.83 737.90,1828.73C739.30,1825.63 740.90,1822.83 741.50,1822.43C742.10,1822.13 743.90,1819.23 745.60,1816.13C749.10,1809.53 753.70,1802.23 758.30,1796.03C760.00,1793.63 761.50,1791.03 761.50,1790.43C761.50,1789.73 763.30,1786.93 765.50,1784.33C767.70,1781.63 769.50,1778.93 769.50,1778.33C769.50,1777.63 771.00,1775.23 772.90,1773.03C774.80,1770.73 776.90,1767.23 777.50,1765.13C778.20,1763.13 780.00,1760.03 781.50,1758.43C783.10,1756.73 785.00,1753.73 785.90,1751.53C786.80,1749.43 788.70,1746.23 790.20,1744.43C791.80,1742.53 794.80,1738.13 797.00,1734.43C799.20,1730.73 802.40,1725.83 804.20,1723.43C805.90,1721.03 808.10,1717.63 809.10,1715.73C810.00,1713.93 812.30,1710.73 814.10,1708.63C816.00,1706.63 817.50,1704.43 817.50,1703.93C817.50,1703.43 819.40,1700.03 821.80,1696.53C824.10,1692.93 829.40,1684.83 833.50,1678.33C837.60,1671.93 842.40,1664.63 844.10,1662.03C845.80,1659.53 848.00,1655.83 849.00,1653.93C850.00,1652.03 852.30,1648.63 854.10,1646.53C856.00,1644.33 857.50,1642.03 857.50,1641.43C857.50,1640.83 858.90,1638.73 860.60,1636.73C862.20,1634.63 864.30,1630.93 865.10,1628.43C866.00,1625.83 867.90,1623.13 869.50,1621.93C871.00,1620.83 873.00,1618.23 873.80,1616.13C874.70,1614.03 876.40,1610.93 877.80,1609.33C879.10,1607.73 881.00,1604.83 882.00,1602.93C883.00,1601.03 884.90,1598.03 886.20,1596.43C889.10,1592.73 895.10,1583.53 897.20,1579.43C898.10,1577.73 900.30,1574.73 902.10,1572.63C904.00,1570.63 905.50,1568.33 905.50,1567.63C905.50,1566.93 906.80,1564.83 908.40,1562.93C909.90,1561.03 912.10,1557.63 913.30,1555.43C914.40,1553.23 916.50,1550.33 917.90,1549.03C919.30,1547.73 921.00,1545.03 921.60,1543.03C922.30,1541.03 924.20,1537.83 925.90,1535.83C929.00,1532.13 933.00,1526.13 937.30,1518.53C938.60,1516.23 940.50,1513.53 941.50,1512.43C942.50,1511.33 944.00,1509.03 944.80,1507.43C945.60,1505.73 947.50,1503.23 948.90,1501.83C950.30,1500.43 952.30,1497.33 953.50,1494.83C955.30,1490.73 958.40,1486.33 965.00,1478.33C966.40,1476.53 968.20,1473.43 969.10,1471.33C970.00,1469.13 972.00,1465.63 973.60,1463.43C978.80,1456.33 983.30,1449.53 985.60,1445.43C986.80,1443.23 989.10,1439.93 990.60,1438.13C992.20,1436.33 993.50,1434.43 993.50,1433.93C993.50,1433.43 995.30,1430.93 997.50,1428.43C999.70,1425.93 1001.50,1423.23 1001.50,1422.43C1001.50,1421.73 1003.30,1418.93 1005.50,1416.33C1007.70,1413.63 1009.50,1410.93 1009.50,1410.33C1009.50,1409.73 1010.90,1407.43 1012.60,1405.33C1014.40,1403.13 1016.60,1399.63 1017.60,1397.33C1018.60,1395.13 1020.40,1392.43 1021.60,1391.33C1022.80,1390.33 1024.80,1387.43 1026.20,1384.93C1030.20,1377.63 1035.00,1370.33 1038.30,1366.43C1040.10,1364.53 1041.50,1362.43 1041.50,1361.93C1041.50,1361.43 1042.90,1359.43 1044.50,1357.53C1046.20,1355.73 1048.20,1352.43 1049.10,1350.33C1050.00,1348.23 1052.20,1344.73 1054.10,1342.53C1056.00,1340.33 1057.50,1338.13 1057.50,1337.53C1057.50,1336.93 1059.30,1334.23 1061.50,1331.53C1063.70,1328.93 1065.50,1326.13 1065.50,1325.33C1065.50,1324.63 1066.80,1322.53 1068.40,1320.73C1070.00,1318.93 1072.60,1315.33 1074.10,1312.83C1075.70,1310.33 1078.40,1306.13 1080.00,1303.43C1081.70,1300.83 1084.50,1296.93 1086.30,1294.73C1088.00,1292.53 1089.50,1290.33 1089.50,1289.83C1089.50,1289.43 1090.80,1287.43 1092.50,1285.63C1094.10,1283.73 1096.30,1280.23 1097.30,1277.83C1098.40,1275.43 1100.20,1272.53 1101.50,1271.43C1102.70,1270.33 1104.50,1267.83 1105.50,1265.83C1106.50,1263.93 1108.10,1261.63 1109.00,1260.93C1109.90,1260.13 1112.00,1256.93 1113.60,1253.83C1115.20,1250.63 1117.10,1247.73 1117.80,1247.23C1119.30,1246.33 1127.30,1234.23 1130.00,1228.93C1131.00,1227.03 1132.90,1224.03 1134.20,1222.43C1142.10,1212.53 1143.90,1210.13 1146.00,1205.93C1147.30,1203.43 1149.10,1200.73 1150.00,1199.93C1150.90,1199.23 1152.50,1196.93 1153.50,1194.93C1154.50,1192.93 1156.10,1190.63 1157.10,1189.83C1158.00,1189.03 1159.90,1186.13 1161.10,1183.23C1162.40,1180.43 1164.30,1177.23 1165.30,1176.23C1166.40,1175.23 1171.60,1167.93 1176.80,1159.93C1182.10,1151.93 1187.50,1144.03 1188.80,1142.43C1190.20,1140.73 1192.30,1137.63 1193.50,1135.43C1194.70,1133.23 1197.00,1129.93 1198.60,1128.13C1200.20,1126.33 1201.50,1124.43 1201.50,1124.03C1201.50,1123.53 1203.30,1121.03 1205.50,1118.33C1207.60,1115.73 1209.70,1112.33 1210.00,1110.83C1210.30,1109.33 1212.10,1106.43 1213.80,1104.33C1215.60,1102.13 1218.30,1098.63 1219.70,1096.43C1221.20,1094.23 1224.50,1089.63 1227.00,1086.13C1229.50,1082.73 1232.30,1078.23 1233.40,1076.13C1234.40,1074.13 1236.50,1071.33 1238.00,1069.93C1239.40,1068.53 1241.30,1066.03 1242.10,1064.43C1243.50,1061.33 1250.70,1056.93 1254.10,1056.93C1255.00,1056.93 1258.70,1057.83 1262.30,1058.93C1267.10,1060.33 1275.20,1061.33 1290.50,1062.33C1306.70,1063.43 1313.40,1064.23 1317.60,1065.73C1325.10,1068.43 1334.10,1069.73 1356.50,1071.43C1369.70,1072.43 1376.70,1073.43 1381.00,1074.93C1384.20,1076.03 1391.20,1077.43 1396.40,1078.03C1401.70,1078.63 1406.30,1079.23 1406.60,1079.53C1407.00,1079.73 1412.90,1080.13 1419.70,1080.33C1427.10,1080.63 1435.40,1081.63 1440.50,1082.83C1445.20,1083.93 1453.70,1085.53 1459.50,1086.33C1465.30,1087.13 1471.30,1088.33 1472.90,1088.93C1474.40,1089.43 1481.60,1090.43 1488.80,1090.93C1517.70,1093.03 1525.20,1094.43 1534.50,1099.03C1539.20,1101.33 1544.40,1104.53 1546.00,1106.03C1547.70,1107.63 1551.20,1109.53 1553.90,1110.33C1556.60,1111.13 1560.00,1112.93 1561.40,1114.33C1563.00,1115.83 1566.60,1117.53 1570.50,1118.43C1574.10,1119.33 1580.60,1121.23 1585.00,1122.73C1595.80,1126.33 1611.80,1126.53 1621.00,1123.13C1624.30,1121.83 1629.80,1120.03 1633.30,1119.03C1636.80,1118.03 1640.60,1116.23 1641.80,1115.13C1645.60,1111.63 1657.80,1102.73 1660.00,1101.83C1661.10,1101.43 1663.60,1100.83 1665.60,1100.53C1667.50,1100.13 1670.70,1098.73 1672.50,1097.43C1674.40,1096.03 1677.80,1094.43 1680.00,1093.83C1689.70,1091.23 1708.90,1074.63 1712.50,1065.63C1713.00,1064.43 1714.10,1059.03 1715.10,1053.53C1716.60,1045.13 1716.70,1042.83 1715.60,1038.03C1714.90,1034.93 1714.00,1029.13 1713.50,1025.03C1712.80,1019.63 1711.80,1016.53 1709.60,1013.03C1708.00,1010.53 1705.70,1006.43 1704.60,1003.93C1701.50,997.13 1694.50,986.53 1689.40,980.93C1684.90,975.93 1684.90,975.93 1677.70,975.93C1668.90,975.93 1661.20,974.33 1659.20,972.13C1658.40,971.23 1656.50,966.63 1655.10,961.93C1652.20,952.43 1647.30,944.93 1642.30,942.33C1637.10,939.63 1622.40,938.83 1605.00,940.33C1591.10,941.53 1589.20,941.93 1584.30,944.73C1581.40,946.33 1576.30,948.23 1573.00,948.93C1569.70,949.63 1564.50,951.23 1561.40,952.53C1556.00,954.73 1554.40,954.83 1511.90,955.93C1487.80,956.53 1432.10,957.23 1388.30,957.63C1314.80,958.23 1308.40,958.13 1306.10,956.53C1304.70,955.63 1303.50,953.93 1303.50,952.83C1303.50,949.83 1306.30,943.73 1309.10,940.83C1311.70,938.13 1316.80,930.33 1320.80,922.93C1322.20,920.43 1324.20,917.53 1325.40,916.53C1326.60,915.43 1328.50,912.53 1329.60,910.03C1330.70,907.53 1332.40,904.53 1333.40,903.43C1334.40,902.33 1336.20,899.63 1337.30,897.33C1338.40,895.13 1340.10,892.63 1341.10,891.83C1342.00,891.03 1343.90,887.93 1345.20,884.93C1346.60,881.93 1348.90,878.03 1350.50,876.43C1352.00,874.73 1353.80,871.83 1354.40,869.83C1355.10,867.83 1356.50,865.33 1357.60,864.33C1358.80,863.23 1360.60,860.73 1361.70,858.53C1362.80,856.43 1365.00,852.83 1366.60,850.63C1368.20,848.43 1369.50,846.13 1369.50,845.53C1369.50,844.93 1370.80,842.83 1372.40,840.93C1373.90,839.03 1376.00,835.83 1377.00,833.93C1377.90,832.03 1379.80,829.33 1381.10,827.93C1382.40,826.53 1384.10,823.43 1385.00,820.93C1385.90,818.43 1387.90,815.03 1389.50,813.43C1391.10,811.73 1393.10,808.23 1393.90,805.63C1394.70,803.03 1396.70,799.63 1398.30,798.13C1400.00,796.53 1401.80,793.43 1402.50,791.03C1403.70,786.63 1408.60,780.43 1413.90,776.63C1416.90,774.53 1418.00,774.43 1448.50,773.93C1480.00,773.43 1480.00,773.43 1487.50,769.83C1491.60,767.73 1496.70,765.83 1498.90,765.43C1505.20,764.33 1517.50,755.03 1523.70,746.63C1529.00,739.43 1529.00,739.43 1528.80,718.43C1528.80,706.83 1528.20,695.63 1527.60,693.43C1527.00,691.13 1524.60,687.33 1522.20,684.63C1516.90,679.03 1514.80,678.73 1504.00,682.43C1494.20,685.83 1487.00,687.73 1480.40,688.43C1477.40,688.83 1470.10,689.93 1464.00,691.03C1440.30,695.03 1412.20,696.13 1394.50,693.53C1378.10,691.13 1366.20,688.93 1361.00,687.23C1355.90,685.73 1339.70,678.83 1335.90,676.63C1323.80,669.73 1316.20,662.93 1300.30,644.93C1287.50,630.43 1279.40,622.93 1276.60,622.93C1275.60,622.93 1273.10,624.03 1271.10,625.43Z M1260.80,1093.33C1259.00,1094.13 1257.50,1095.23 1257.50,1095.63C1257.50,1096.13 1255.80,1098.53 1253.80,1101.13C1251.70,1103.63 1248.00,1108.33 1245.50,1111.43C1243.00,1114.63 1239.10,1119.33 1236.80,1122.13C1230.80,1129.03 1230.80,1132.93 1237.10,1140.13C1245.80,1150.23 1250.00,1155.03 1253.80,1158.83C1255.80,1161.03 1257.50,1163.23 1257.50,1163.83C1257.50,1164.43 1261.20,1168.93 1265.80,1173.73C1270.30,1178.63 1275.80,1185.03 1278.00,1187.93C1280.20,1190.83 1283.40,1194.63 1285.00,1196.33C1286.70,1198.03 1289.20,1201.03 1290.70,1202.93C1292.10,1204.83 1297.60,1210.93 1302.90,1216.43C1308.20,1221.93 1312.50,1226.73 1312.50,1227.13C1312.50,1227.53 1314.20,1229.83 1316.30,1232.23C1318.30,1234.73 1322.30,1239.43 1325.00,1242.83C1332.60,1252.23 1346.80,1268.43 1347.60,1268.73C1348.60,1269.13 1359.30,1281.63 1365.50,1289.43C1374.90,1301.33 1383.60,1311.63 1389.00,1317.33C1390.70,1319.03 1393.20,1322.03 1394.70,1323.93C1396.10,1325.83 1401.50,1332.03 1406.60,1337.63C1416.60,1348.43 1421.60,1354.33 1425.50,1359.83C1426.80,1361.73 1430.10,1365.63 1432.80,1368.33C1435.50,1371.13 1439.00,1375.13 1440.50,1377.23C1442.10,1379.33 1450.00,1388.63 1458.20,1397.83C1466.30,1407.13 1476.80,1419.33 1481.50,1424.93C1486.20,1430.53 1491.70,1437.03 1493.70,1439.23C1498.90,1445.13 1511.20,1459.33 1516.50,1465.93C1519.00,1468.93 1528.20,1479.53 1537.00,1489.53C1545.80,1499.53 1555.00,1510.33 1557.50,1513.43C1560.00,1516.63 1567.20,1525.13 1573.60,1532.33C1580.00,1539.53 1586.00,1546.93 1587.00,1548.83C1588.00,1550.83 1589.00,1556.13 1589.50,1561.53C1589.90,1566.63 1590.60,1571.23 1590.90,1571.73C1591.20,1572.33 1592.20,1576.23 1593.10,1580.63C1594.00,1584.93 1595.80,1590.53 1597.10,1593.13C1598.40,1595.63 1600.00,1601.03 1600.60,1604.93C1601.40,1609.73 1602.80,1613.53 1604.60,1616.23C1606.20,1618.53 1608.10,1622.73 1609.00,1625.53C1609.80,1628.33 1611.40,1631.43 1612.60,1632.53C1613.80,1633.53 1615.50,1636.13 1616.50,1638.23C1620.80,1647.83 1644.90,1669.93 1651.10,1669.93C1652.00,1669.93 1656.40,1671.63 1660.90,1673.63C1669.00,1677.43 1669.00,1677.43 1701.50,1677.43C1734.10,1677.43 1734.10,1677.43 1743.70,1672.63C1753.60,1667.73 1760.00,1662.13 1760.90,1657.73C1761.20,1656.43 1761.60,1653.03 1761.90,1650.13C1762.20,1647.13 1763.60,1642.33 1765.00,1639.23C1768.50,1631.43 1769.30,1624.93 1770.00,1595.93C1770.80,1565.13 1769.70,1548.93 1766.60,1545.03C1764.50,1542.53 1763.30,1540.13 1760.40,1533.13C1757.80,1527.13 1743.60,1512.53 1736.50,1508.63C1723.50,1501.53 1713.40,1497.03 1705.80,1494.93C1692.40,1491.13 1684.40,1486.23 1674.70,1476.03C1669.90,1470.93 1664.30,1464.93 1662.30,1462.63C1660.30,1460.33 1653.40,1452.33 1646.90,1445.03C1640.50,1437.63 1634.70,1430.33 1634.10,1428.93C1632.90,1426.13 1627.10,1418.73 1621.90,1413.53C1620.30,1411.83 1618.10,1409.03 1617.00,1407.43C1616.00,1405.73 1612.60,1401.53 1609.50,1397.93C1606.30,1394.33 1601.00,1387.73 1597.70,1383.23C1594.40,1378.63 1590.50,1373.73 1589.10,1372.23C1584.30,1367.03 1578.50,1359.83 1577.40,1357.63C1576.70,1356.43 1573.20,1352.03 1569.60,1347.93C1565.90,1343.83 1562.10,1339.03 1561.00,1337.43C1560.00,1335.73 1558.10,1333.33 1556.90,1331.93C1549.40,1323.63 1545.40,1318.83 1541.70,1313.93C1534.20,1303.93 1530.00,1298.73 1526.40,1295.03C1524.50,1293.03 1521.80,1289.83 1520.50,1287.93C1519.20,1286.03 1515.40,1281.23 1512.00,1277.33C1508.70,1273.33 1504.00,1267.53 1501.50,1264.43C1499.00,1261.23 1495.40,1256.93 1493.50,1254.73C1483.60,1243.83 1481.70,1241.73 1478.20,1237.73C1474.40,1233.33 1470.90,1229.13 1462.00,1218.03C1453.50,1207.43 1442.70,1194.63 1438.10,1189.93C1433.10,1184.73 1414.50,1163.33 1406.50,1153.63C1390.90,1134.53 1363.70,1104.63 1360.10,1102.73C1359.10,1102.13 1353.40,1101.53 1347.60,1101.43C1337.70,1101.13 1331.20,1100.13 1315.50,1096.43C1311.90,1095.53 1300.50,1094.43 1290.00,1093.93C1279.60,1093.43 1269.40,1092.73 1267.50,1092.43C1265.40,1092.13 1262.70,1092.53 1260.80,1093.33Z"/></g>
</svg>
