<?xml version="1.0" encoding="UTF-8"?>
<!-- Generator: visioncortex VTracer 0.6.12 -->
<svg viewBox="0 0 512 512" version="1.1" xmlns="http://www.w3.org/2000/svg" width="512" height="512">
<path d="M0 0 C0.266 0.196 0.266 0.196 1.613 1.189 C25.06 18.614 43.087 39.321 57 65 C57.585 66.063 58.17 67.127 58.773 68.223 C71.661 92.686 80.012 122.168 79 150 C79.592 150.003 80.183 150.005 80.793 150.008 C81.583 150.046 82.373 150.085 83.188 150.125 C83.965 150.148 84.742 150.171 85.543 150.195 C89.202 151.394 91.179 153.718 93 157 C93.706 160.353 93.678 163.618 93.629 167.035 C93.631 167.991 93.634 168.948 93.636 169.933 C93.635 171.948 93.622 173.962 93.597 175.977 C93.563 179.056 93.576 182.133 93.596 185.213 C93.589 187.174 93.579 189.136 93.566 191.098 C93.571 192.015 93.576 192.933 93.581 193.879 C93.506 197.999 93.359 200.398 91.215 203.994 C87.079 207.741 84.084 208.25 78.525 208.254 C77.873 208.258 77.222 208.261 76.551 208.264 C74.358 208.273 72.167 208.267 69.975 208.261 C68.391 208.264 66.807 208.268 65.223 208.272 C60.864 208.283 56.504 208.28 52.145 208.276 C47.446 208.274 42.747 208.283 38.048 208.29 C28.84 208.303 19.632 208.305 10.424 208.302 C2.942 208.301 -4.54 208.302 -12.023 208.307 C-13.086 208.307 -14.15 208.308 -15.246 208.308 C-17.407 208.31 -19.568 208.311 -21.729 208.312 C-42.005 208.323 -62.282 208.321 -82.559 208.315 C-101.121 208.309 -119.682 208.321 -138.244 208.34 C-157.291 208.359 -176.337 208.367 -195.384 208.364 C-206.082 208.362 -216.78 208.364 -227.478 208.378 C-236.586 208.39 -245.693 208.392 -254.8 208.38 C-259.448 208.374 -264.097 208.373 -268.746 208.385 C-272.999 208.395 -277.252 208.392 -281.505 208.378 C-283.046 208.376 -284.587 208.378 -286.128 208.386 C-288.218 208.396 -290.308 208.388 -292.399 208.375 C-293.561 208.375 -294.724 208.375 -295.921 208.375 C-300.228 207.85 -302.848 206.229 -305.786 203.094 C-307.18 200.689 -307.39 199.259 -307.42 196.494 C-307.436 195.61 -307.452 194.725 -307.468 193.814 C-307.468 192.866 -307.469 191.918 -307.469 190.941 C-307.476 189.96 -307.484 188.979 -307.492 187.968 C-307.503 185.894 -307.505 183.82 -307.501 181.747 C-307.5 178.577 -307.542 175.41 -307.586 172.24 C-307.591 170.224 -307.594 168.208 -307.594 166.191 C-307.61 165.245 -307.627 164.299 -307.643 163.325 C-307.595 158.695 -307.526 156.671 -304.588 152.926 C-300.473 149.864 -298.115 149.905 -293 150 C-293.017 149.647 -293.017 149.647 -293.105 147.859 C-293.881 118.448 -283.876 88.6 -270 63 C-269.718 62.477 -269.718 62.477 -268.289 59.832 C-260.772 46.474 -251.647 34.964 -241 24 C-240.475 23.449 -239.95 22.898 -239.409 22.331 C-179.024 -40.995 -71.052 -52.678 0 0 Z M-131.812 -20.875 C-132.209 -20.811 -132.209 -20.811 -134.217 -20.486 C-140.757 -19.355 -147.157 -17.794 -153.562 -16.062 C-154.008 -15.942 -154.008 -15.942 -156.263 -15.333 C-162.353 -13.62 -168.172 -11.456 -174 -9 C-173.555 -7.975 -173.111 -6.95 -172.652 -5.895 C-172.08 -4.534 -171.508 -3.173 -170.938 -1.812 C-170.643 -1.139 -170.348 -0.465 -170.045 0.229 C-168.394 4.211 -167.59 6.852 -169 11 C-170.75 11.75 -170.75 11.75 -173 12 C-176.596 9.093 -178.011 6.086 -179.625 1.812 C-181.793 -3.896 -181.793 -3.896 -184 -5 C-186.632 -3.862 -189.102 -2.661 -191.625 -1.312 C-192.003 -1.111 -192.003 -1.111 -193.917 -0.092 C-201.545 4.101 -208.386 9.144 -215.183 14.559 C-216.921 15.937 -218.679 17.284 -220.445 18.625 C-221.453 19.409 -222.461 20.192 -223.5 21 C-224.377 21.681 -225.253 22.361 -226.156 23.062 C-228 25 -228 25 -228 29 C-226.072 31.14 -224.175 33.062 -222.062 35 C-215.392 41.16 -215.392 41.16 -215 45 C-217 48 -217 48 -219.211 48.594 C-223.558 47.668 -225.705 44.707 -228.625 41.5 C-229.756 40.275 -230.894 39.056 -232.039 37.844 C-232.536 37.299 -233.033 36.754 -233.545 36.193 C-235 35 -235 35 -238 35 C-239.832 36.978 -241.444 38.919 -243.062 41.062 C-243.546 41.693 -244.029 42.324 -244.527 42.973 C-253.785 55.196 -263.106 68.319 -268 83 C-262.108 85.744 -256.205 88.064 -250 90 C-250.33 92.31 -250.66 94.62 -251 97 C-255.729 98.51 -258.609 97.303 -263.125 95.5 C-269.682 92.894 -269.682 92.894 -273 94 C-273.844 95.787 -273.844 95.787 -274.5 98.129 C-274.746 98.992 -274.992 99.854 -275.245 100.743 C-275.494 101.674 -275.743 102.604 -276 103.562 C-276.261 104.51 -276.523 105.457 -276.792 106.433 C-280.696 120.899 -283 134.975 -283 150 C-262.87 150 -242.74 150 -222 150 C-221.34 144.39 -220.68 138.78 -220 133 C-213.436 103.582 -196.854 76.808 -171.398 60.09 C-144.298 43.424 -113.375 36.568 -81.841 43.473 C-61.175 48.56 -44.068 58.033 -28 72 C-27.388 72.527 -26.775 73.054 -26.145 73.598 C-4.825 93.398 4.192 121.917 7 150 C27.46 150 47.92 150 69 150 C67.841 130.304 65.498 111.369 58 93 C57.299 93.193 56.598 93.387 55.875 93.586 C53.908 94.126 51.939 94.661 49.969 95.191 C48.172 95.681 46.379 96.185 44.594 96.715 C42.754 97.24 40.877 97.631 39 98 C38.01 97.34 37.02 96.68 36 96 C36 93.203 36 93.203 37 90 C39.478 88.378 42.179 87.603 45 86.75 C47.691 85.881 50.342 84.968 53 84 C53.33 83.34 53.66 82.68 54 82 C52.891 79.427 51.725 76.982 50.438 74.5 C50.067 73.775 49.696 73.051 49.314 72.304 C42.315 58.745 33.634 46.812 24 35 C18.74 35.95 16.053 39.926 12.686 43.783 C9.695 46.989 8.677 47.935 4.113 48.371 C3.086 48.249 2.059 48.126 1 48 C1.169 42.237 2.591 39.745 6.709 35.764 C7.321 35.202 7.932 34.641 8.562 34.062 C9.178 33.474 9.794 32.886 10.428 32.279 C11.939 30.839 13.468 29.417 15 28 C13.413 23.735 10.195 21.226 6.812 18.375 C6.193 17.85 5.574 17.325 4.936 16.784 C-21.258 -5 -21.258 -5 -31 -5 C-31.531 -3.857 -32.062 -2.713 -32.609 -1.535 C-33.322 -0.044 -34.036 1.447 -34.75 2.938 C-35.098 3.692 -35.446 4.447 -35.805 5.225 C-36.153 5.943 -36.501 6.662 -36.859 7.402 C-37.174 8.067 -37.488 8.732 -37.812 9.418 C-39 11 -39 11 -41.021 11.795 C-43 12 -43 12 -44.812 10.875 C-46 9 -46 9 -45.734 6.734 C-44.665 2.752 -42.849 -0.775 -41.059 -4.477 C-40 -7 -40 -7 -40 -10 C-49.915 -13.602 -59.805 -16.59 -70.125 -18.812 C-71.083 -19.019 -72.042 -19.225 -73.03 -19.438 C-80.716 -21.039 -88.118 -22.145 -96 -22.062 C-97.98 -22.042 -99.96 -22.021 -102 -22 C-102.33 -14.41 -102.66 -6.82 -103 1 C-103.825 1.33 -103.825 1.33 -108 3 C-108.99 2.34 -109.98 1.68 -111 1 C-111.432 -1.338 -111.432 -1.338 -111.512 -4.227 C-111.547 -5.258 -111.583 -6.289 -111.619 -7.352 C-111.642 -8.432 -111.664 -9.512 -111.688 -10.625 C-111.722 -11.713 -111.756 -12.801 -111.791 -13.922 C-111.874 -16.614 -111.943 -19.307 -112 -22 C-118.717 -22.127 -125.18 -21.967 -131.812 -20.875 Z M-189 88 C-191.551 91.211 -193.811 94.534 -196 98 C-196.585 98.902 -197.17 99.805 -197.773 100.734 C-207.124 115.843 -212 132.232 -212 150 C-143.03 150 -74.06 150 -3 150 C-3 127.017 -11.09 105.503 -26 88 C-26.731 87.12 -27.462 86.239 -28.215 85.332 C-44.38 66.553 -69.144 53.12 -94 51 C-131.561 48.933 -163.402 59.592 -189 88 Z M-298 161 C-298.101 163.655 -298.14 166.283 -298.133 168.938 C-298.134 169.733 -298.135 170.528 -298.136 171.347 C-298.136 173.032 -298.135 174.717 -298.13 176.401 C-298.125 178.989 -298.13 181.576 -298.137 184.164 C-298.136 185.797 -298.135 187.43 -298.133 189.062 C-298.135 189.842 -298.137 190.621 -298.139 191.424 C-298.115 196.885 -298.115 196.885 -297 198 C-295.073 198.087 -293.143 198.107 -291.215 198.098 C-290.045 198.094 -288.875 198.091 -287.67 198.088 C-286.438 198.08 -285.207 198.071 -283.938 198.062 C-282.702 198.058 -281.466 198.053 -280.193 198.049 C-277.129 198.037 -274.064 198.021 -271 198 C-270.933 197.022 -270.866 196.044 -270.797 195.037 C-270.125 185.25 -270.125 185.25 -269 183 C-267.02 183 -265.04 183 -263 183 C-261.584 185.833 -261.654 188.475 -261.438 191.625 C-261.354 192.814 -261.27 194.002 -261.184 195.227 C-261.123 196.142 -261.062 197.057 -261 198 C-256.521 198.029 -252.042 198.047 -247.562 198.062 C-246.283 198.071 -245.004 198.079 -243.686 198.088 C-242.471 198.091 -241.256 198.094 -240.004 198.098 C-238.878 198.103 -237.752 198.108 -236.592 198.114 C-234 198 -234 198 -233 197 C-232.791 194.837 -232.632 192.669 -232.5 190.5 C-232.111 184.111 -232.111 184.111 -231 183 C-229 182.959 -227 182.957 -225 183 C-222.744 187.512 -223.387 192.971 -223 198 C-213.76 198 -204.52 198 -195 198 C-194.421 194.526 -193.879 191.169 -193.5 187.688 C-193 184 -193 184 -192 183 C-189.5 182.875 -189.5 182.875 -187 183 C-184.668 185.332 -185.473 190.939 -185.281 194.094 C-185 197 -185 197 -184 198 C-181.781 198.088 -179.56 198.107 -177.34 198.098 C-176.675 198.096 -176.011 198.095 -175.326 198.093 C-173.197 198.088 -171.067 198.075 -168.938 198.062 C-167.497 198.057 -166.056 198.053 -164.615 198.049 C-161.077 198.038 -157.538 198.021 -154 198 C-153.939 197.085 -153.879 196.17 -153.816 195.227 C-153.733 194.038 -153.649 192.85 -153.562 191.625 C-153.522 191.033 -153.522 191.033 -153.316 188.039 C-153 185 -153 185 -152 183 C-150 182.957 -148 182.959 -146 183 C-142.433 186.567 -144.359 192.969 -144 198 C-133.77 198 -123.54 198 -113 198 C-112.482 194.377 -111.968 190.754 -111.5 187.125 C-111 184 -111 184 -110 183 C-107.5 182.875 -107.5 182.875 -105 183 C-102.668 185.332 -103.473 190.939 -103.281 194.094 C-103 197 -103 197 -102 198 C-99.781 198.088 -97.56 198.107 -95.34 198.098 C-94.675 198.096 -94.011 198.095 -93.326 198.093 C-91.197 198.088 -89.067 198.075 -86.938 198.062 C-85.497 198.057 -84.056 198.053 -82.615 198.049 C-79.077 198.038 -75.538 198.021 -72 198 C-71.939 197.085 -71.879 196.17 -71.816 195.227 C-71.733 194.038 -71.649 192.85 -71.562 191.625 C-71.522 191.033 -71.522 191.033 -71.316 188.039 C-71 185 -71 185 -70 183 C-68.02 183 -66.04 183 -64 183 C-61.744 187.512 -62.387 192.971 -62 198 C-51.77 198 -41.54 198 -31 198 C-30.67 193.71 -30.34 189.42 -30 185 C-29.67 184.34 -29.34 183.68 -29 183 C-27.02 183 -25.04 183 -23 183 C-20.744 187.512 -21.387 192.971 -21 198 C-11.43 198 -1.86 198 8 198 C8.33 193.71 8.66 189.42 9 185 C11 183 11 183 13.562 182.812 C16 183 16 183 17 184 C17.466 188.659 17.705 193.327 18 198 C27.24 198 36.48 198 46 198 C46.33 194.04 46.66 190.08 47 186 C47.66 185.01 48.32 184.02 49 183 C51.562 182.75 51.562 182.75 54 183 C56.636 185.636 55.802 194.858 56 198 C64.91 198 73.82 198 83 198 C83 185.46 83 172.92 83 160 C34.607 159.977 -13.785 159.96 -62.178 159.949 C-67.885 159.948 -73.592 159.946 -79.299 159.945 C-80.435 159.945 -81.571 159.945 -82.742 159.944 C-101.164 159.94 -119.586 159.932 -138.009 159.923 C-156.897 159.914 -175.785 159.908 -194.673 159.906 C-206.338 159.905 -218.003 159.9 -229.668 159.892 C-237.656 159.887 -245.643 159.885 -253.631 159.886 C-258.247 159.887 -262.862 159.886 -267.478 159.881 C-271.697 159.876 -275.915 159.876 -280.133 159.879 C-281.666 159.88 -283.199 159.878 -284.732 159.875 C-286.802 159.871 -288.872 159.873 -290.942 159.877 C-292.096 159.877 -293.25 159.876 -294.439 159.876 C-297 160 -297 160 -298 161 Z " fill="currentColor" transform="translate(363,177)"/>
</svg>
