<?xml version="1.0" encoding="UTF-8"?>
<!-- Generator: visioncortex VTracer 0.6.12 -->
<svg viewBox="0 0 512 512" version="1.1" xmlns="http://www.w3.org/2000/svg" width="512" height="512">
<path d="M0 0 C9.323 5.473 17.086 14.477 20.375 24.812 C22.343 34.847 22.577 46.129 17 55 C14.505 58.53 11.921 61.989 9.241 65.381 C3.14 73.125 2.203 79.129 3 89 C4.999 94.891 8.96 98.377 13.75 102.188 C16 104 16 104 17 106 C17.284 108.934 17.495 111.151 17 114 C14.557 116.874 12.907 117.794 9.25 118.625 C1.02 117.042 -5.237 110.586 -10 104 C-16.065 94.088 -17.318 83.628 -15.57 72.188 C-13.901 65.591 -10.356 61.105 -6 56 C-0.945 49.713 3.741 43.701 3.344 35.176 C2.206 27.971 -0.484 22.677 -6.254 18.223 C-7.783 17.152 -9.328 16.105 -10.875 15.062 C-13 13 -13 13 -14.062 9.625 C-13.986 5.171 -12.87 3.349 -10 0 C-6.31 -1.23 -3.636 -1.231 0 0 Z " fill="currentColor" transform="translate(242,57)"/>
<path d="M0 0 C5.83 1.372 9.628 5.276 12.773 10.266 C17.257 18.921 18.575 27.246 16.062 36.75 C13.509 44.494 8.36 50.679 3.387 57.023 C0.682 60.917 0.735 65.191 1.188 69.75 C2.918 75.05 6.24 77.815 10.445 81.234 C12.825 83.304 13.143 84.42 13.562 87.562 C13.188 90.75 13.188 90.75 11.125 93.625 C8.188 95.75 8.188 95.75 4.938 96.5 C-3.594 94.794 -8.684 88.16 -13.402 81.277 C-17.795 73.405 -18.244 63.838 -16.195 55.125 C-14.026 49.749 -10.385 45.526 -6.719 41.094 C-3.335 36.933 -0.636 33.215 -0.375 27.688 C-0.96 22.426 -2.477 19.238 -6 15.312 C-8.447 11.853 -8.48 9.902 -7.812 5.75 C-5.446 2.478 -3.913 1.044 0 0 Z " fill="currentColor" transform="translate(302.8125,83.25)"/>
<path d="M0 0 C2.81 2.278 3.849 3.547 5 7 C5.892 18.425 4.04 26.093 -3.223 34.938 C-4.306 36.194 -5.395 37.446 -6.496 38.688 C-9.935 42.606 -11.955 45.849 -12.031 51.168 C-11.674 56.505 -10.334 59.713 -7 64 C-3 69.189 -3 69.189 -3 73.125 C-4.177 76.508 -5.036 77.972 -8 80 C-11.578 80.757 -13.805 80.682 -17.02 78.848 C-23.719 73.609 -28.451 65.391 -30 57 C-31.012 45.909 -28.106 37.172 -21.035 28.625 C-20.322 27.759 -19.609 26.892 -18.875 26 C-18.533 25.598 -18.533 25.598 -16.805 23.562 C-13.863 19.385 -12.708 15.514 -13.062 10.438 C-13.15 6.449 -12.663 4.139 -10 1 C-6.621 -1.564 -3.97 -1.158 0 0 Z " fill="currentColor" transform="translate(201,99)"/>
<path d="M0 0 C1.003 -0.002 2.005 -0.003 3.038 -0.005 C6.396 -0.009 9.754 -0.006 13.111 -0.002 C15.519 -0.004 17.928 -0.006 20.336 -0.008 C26.198 -0.012 32.06 -0.011 37.922 -0.008 C42.689 -0.006 47.456 -0.006 52.223 -0.007 C52.563 -0.007 52.563 -0.007 54.281 -0.007 C55.661 -0.008 57.04 -0.008 58.42 -0.008 C71.354 -0.011 84.289 -0.008 97.224 -0.002 C108.309 0.002 119.394 0.001 130.479 -0.003 C143.362 -0.009 156.245 -0.011 169.128 -0.008 C170.503 -0.007 171.879 -0.007 173.255 -0.007 C173.932 -0.007 174.608 -0.007 175.306 -0.006 C180.062 -0.006 184.818 -0.007 189.575 -0.009 C195.987 -0.012 202.399 -0.01 208.811 -0.004 C211.161 -0.003 213.511 -0.003 215.861 -0.006 C219.076 -0.008 222.291 -0.005 225.505 0 C226.429 -0.002 227.353 -0.004 228.305 -0.007 C244.33 0.041 244.33 0.041 247.771 2.27 C250.387 4.995 251.001 6.953 251.132 10.689 C249.779 14.821 248.5 16.545 245.007 19.127 C241.194 19.939 241.194 19.939 238.007 20.127 C237.958 21.022 237.909 21.916 237.858 22.838 C237.41 30.09 236.686 37.053 235.007 44.127 C245.121 43.932 245.121 43.932 248.757 40.627 C249.128 40.214 249.128 40.214 251.007 38.127 C254.507 37.002 254.507 37.002 258.007 37.127 C260.882 39.502 260.882 39.502 263.007 42.127 C263.337 42.457 263.667 42.787 264.007 43.127 C264.342 46.534 264.332 49.956 264.382 53.377 C264.419 54.332 264.456 55.287 264.495 56.272 C264.584 63.369 264.584 63.369 261.639 67.236 C258.863 69.23 257.42 70.127 254.007 70.127 C251.079 68.802 249.416 67.883 247.87 65.029 C246.007 63.127 246.007 63.127 242.214 62.736 C240.748 62.763 239.283 62.81 237.819 62.877 C237.07 62.895 236.32 62.913 235.548 62.932 C233.7 62.979 231.853 63.05 230.007 63.127 C229.861 63.416 229.861 63.416 229.124 64.88 C217.895 87.062 204.155 108.412 182.007 121.127 C183.322 127.716 185.196 133.768 187.612 140.029 C187.968 140.968 188.324 141.908 188.691 142.875 C189.457 144.892 190.224 146.907 190.994 148.922 C193.044 154.291 195.073 159.668 197.1 165.045 C197.513 166.138 197.925 167.231 198.35 168.358 C202.413 179.157 206.329 190.006 210.194 200.877 C210.491 201.712 210.788 202.547 211.095 203.407 C212.508 207.382 213.916 211.359 215.313 215.34 C216.51 218.745 217.74 222.136 218.986 225.523 C219.311 226.421 219.636 227.318 219.971 228.242 C220.594 229.958 221.224 231.671 221.865 233.381 C223.566 238.112 224.49 242.022 224.007 247.127 C222.046 250.596 220.851 251.839 217.069 253.127 C213.344 253.127 211.886 252.462 209.007 250.127 C206.856 246.877 205.335 243.676 204.026 240.014 C203.666 239.01 203.306 238.007 202.934 236.973 C202.566 235.93 202.198 234.888 201.819 233.814 C201.47 232.846 201.122 231.877 200.763 230.879 C196.652 219.357 192.877 207.737 189.007 196.127 C140.167 196.127 91.327 196.127 41.007 196.127 C34.17 214.359 34.17 214.359 31.901 220.951 C31.388 222.426 30.874 223.9 30.36 225.375 C29.581 227.617 28.804 229.859 28.03 232.102 C27.263 234.325 26.489 236.544 25.714 238.764 C25.486 239.431 25.257 240.099 25.022 240.787 C21.921 249.623 21.921 249.623 18.257 252.502 C14.825 253.455 12.428 253.044 9.007 252.127 C5.91 249.427 5.067 247.98 4.776 243.869 C5.017 239.964 5.807 237.047 7.139 233.377 C7.368 232.738 7.596 232.1 7.831 231.442 C8.587 229.333 9.359 227.23 10.132 225.127 C10.672 223.63 11.212 222.133 11.75 220.635 C12.896 217.452 14.049 214.272 15.205 211.093 C17.024 206.088 18.817 201.073 20.604 196.057 C26.918 178.354 33.354 160.705 40.007 143.127 C41.368 139.526 42.722 135.921 44.069 132.314 C44.369 131.525 44.668 130.735 44.977 129.921 C46.117 126.859 47.007 124.423 47.007 121.127 C45.276 119.725 45.276 119.725 42.819 118.189 C17.646 101.253 0.028 73.358 -6.243 43.814 C-7.685 35.584 -8.153 27.475 -7.993 19.127 C-8.597 19.101 -9.2 19.075 -9.821 19.049 C-13.536 18.785 -16.309 18.528 -19.556 16.627 C-21.728 12.849 -21.891 9.371 -20.993 5.127 C-15.713 -1.085 -7.494 -0.018 0 0 Z M10.007 19.127 C10.007 46.34 17.629 68.745 36.007 89.127 C36.754 89.969 37.502 90.81 38.272 91.678 C54.306 108.746 79.451 121.169 102.982 122.266 C136.496 123.242 163.96 116.053 189.007 93.127 C189.78 92.424 190.554 91.722 191.35 90.998 C208.976 74.22 218.15 50.016 220.007 26.127 C220.007 23.817 220.007 21.507 220.007 19.127 C150.707 19.127 81.407 19.127 10.007 19.127 Z M63.007 130.127 C60.724 136.497 58.445 142.87 56.171 149.243 C55.396 151.413 54.62 153.581 53.843 155.75 C52.728 158.862 51.617 161.975 50.507 165.088 C50.332 165.575 50.332 165.575 49.446 168.039 C49.126 168.94 48.805 169.841 48.475 170.769 C48.191 171.564 47.907 172.359 47.614 173.178 C47.007 175.127 47.007 175.127 47.007 177.127 C91.557 177.127 136.107 177.127 182.007 177.127 C178.633 164.756 178.633 164.756 176.886 160.189 C176.507 159.192 176.129 158.194 175.739 157.166 C175.546 156.665 175.546 156.665 174.569 154.127 C173.799 152.106 173.03 150.086 172.261 148.064 C171.884 147.087 171.508 146.11 171.12 145.104 C170.359 143.069 169.632 141.021 168.936 138.963 C168.597 137.965 168.258 136.967 167.909 135.939 C167.614 135.038 167.318 134.137 167.014 133.209 C166.682 132.522 166.349 131.835 166.007 131.127 C162.562 129.979 161.9 130.278 158.612 131.49 C158.179 131.645 158.179 131.645 155.99 132.428 C155.067 132.761 154.145 133.095 153.194 133.439 C125.911 142.815 96.503 141.119 69.569 131.334 C66.007 130.127 66.007 130.127 63.007 130.127 Z " fill="currentColor" transform="translate(133.99334716796875,202.87301635742188)"/>
</svg>
