<?xml version="1.0" encoding="UTF-8"?>
<!-- Generator: visioncortex VTracer 0.6.12 -->
<svg viewBox="0 0 512 512" version="1.1" xmlns="http://www.w3.org/2000/svg" width="512" height="512">
<path d="M0 0 C10.451 8.966 16.949 19.63 21.02 32.742 C21.02 33.402 21.02 34.062 21.02 34.742 C22.214 34.841 23.409 34.941 24.641 35.043 C31.242 35.782 37.636 37.364 44.082 38.93 C44.726 39.086 45.369 39.242 46.033 39.403 C80.106 47.729 109.417 64.243 128.594 94.555 C139.012 111.92 143.523 130.688 144.02 150.742 C144.658 150.546 145.296 150.35 145.953 150.147 C173.205 141.82 205.06 132.843 232.02 146.742 C237.335 149.812 241.891 153.167 246.02 157.742 C246.26 157.992 246.26 157.992 247.477 159.258 C256.79 169.35 259.511 180.764 259.266 194.188 C258.425 206.334 253.708 218.054 245.02 226.742 C228.247 240.57 208.954 245.818 187.48 245.945 C186.685 245.952 185.89 245.959 185.071 245.966 C182.512 245.984 179.953 245.99 177.395 245.992 C176.521 245.994 175.648 245.995 174.748 245.996 C161.277 245.992 148.278 245.27 135.02 242.742 C133.455 242.463 131.89 242.186 130.324 241.91 C120.29 240.108 120.29 240.108 116.32 238.965 C114.02 238.742 114.02 238.742 112.098 239.965 C111.494 240.572 110.891 241.179 110.27 241.805 C102.623 249.032 95.324 254.058 84.574 254.01 C83.833 254.014 83.093 254.019 82.33 254.023 C79.853 254.036 77.377 254.034 74.9 254.033 C73.123 254.039 71.345 254.046 69.568 254.053 C64.744 254.071 59.919 254.075 55.095 254.077 C51.069 254.079 47.043 254.086 43.017 254.093 C33.521 254.109 24.026 254.114 14.531 254.113 C4.729 254.112 -5.072 254.133 -14.874 254.164 C-23.287 254.19 -31.7 254.201 -40.113 254.2 C-45.138 254.199 -50.164 254.205 -55.19 254.226 C-59.914 254.246 -64.637 254.246 -69.361 254.231 C-71.096 254.229 -72.831 254.234 -74.566 254.246 C-76.932 254.261 -79.296 254.252 -81.662 254.237 C-82.351 254.247 -83.04 254.257 -83.75 254.268 C-87.047 254.22 -88.73 253.934 -91.379 251.907 C-93.711 248.755 -93.917 246.668 -93.98 242.742 C-92.052 232.766 -87.292 225.578 -78.98 219.742 C-73.036 216.749 -67.546 216.43 -60.98 216.742 C-60.836 215.463 -60.692 214.185 -60.543 212.867 C-60.274 210.485 -60.058 208.898 -58.98 206.742 C-59.742 206.91 -60.504 207.077 -61.289 207.25 C-68.986 208.768 -75.196 209.506 -82.172 205.477 C-88.707 200.903 -91.873 196.385 -93.418 188.492 C-94.61 179.039 -91.972 172.45 -86.613 164.762 C-85.049 162.827 -83.422 161.301 -81.543 159.68 C-78.98 156.742 -78.98 156.742 -79.23 152.973 C-79.821 149.324 -80.617 145.726 -81.418 142.117 C-83.392 132.602 -83.725 122.898 -84.158 113.214 C-84.891 99.156 -84.891 99.156 -89.953 93.562 C-90.643 93.003 -91.332 92.444 -92.043 91.867 C-92.735 91.292 -93.427 90.717 -94.141 90.125 C-95.98 88.742 -95.98 88.742 -97.98 87.742 C-97.873 88.478 -97.766 89.214 -97.656 89.973 C-96.667 98.029 -96.667 98.029 -98.355 101.867 C-99.205 102.848 -100.063 103.825 -100.98 104.742 C-105.598 105.052 -110.228 105.021 -114.855 105.055 C-116.161 105.084 -117.467 105.113 -118.812 105.143 C-120.062 105.151 -121.311 105.159 -122.598 105.168 C-123.749 105.183 -124.9 105.197 -126.085 105.212 C-128.98 104.742 -128.98 104.742 -130.863 103.186 C-132.386 99.855 -132.326 96.808 -132.246 93.223 C-132.249 91.709 -132.253 90.195 -132.258 88.682 C-132.25 86.323 -132.231 83.966 -132.19 81.608 C-132.034 70.991 -133.4 63.538 -138.317 54.119 C-142.666 45.292 -142.32 35.578 -142.293 25.93 C-142.309 24.742 -142.325 23.554 -142.342 22.33 C-142.348 11.002 -142.348 11.002 -138.98 6.742 C-133.427 2.899 -129.058 2.067 -122.391 1.766 C-121.939 1.738 -121.939 1.738 -119.653 1.595 C-116.784 1.419 -113.914 1.267 -111.043 1.117 C-108.176 0.957 -105.31 0.791 -102.443 0.618 C-100.666 0.511 -98.889 0.412 -97.111 0.324 C-89.704 -0.102 -83.09 -1.751 -76.149 -4.365 C-50.444 -14.028 -23.303 -17.653 0 0 Z M-79.977 10.859 C-83.776 11.976 -87.487 12.41 -91.418 12.805 C-92.201 12.893 -92.983 12.981 -93.79 13.072 C-97.654 13.488 -101.464 13.788 -105.352 13.809 C-108.976 13.844 -112.426 13.945 -115.98 14.742 C-117.796 16.626 -118.383 18.119 -119.16 20.602 C-120.782 24.833 -125.008 27.756 -128.98 29.742 C-129.745 42.536 -126.86 52.908 -118.375 62.57 C-111.384 69.423 -101.781 73.07 -93.004 77.113 C-83.083 81.797 -77.02 87.393 -72.98 97.742 C-72.167 100.552 -71.84 103.103 -71.77 106.023 C-71.743 106.856 -71.717 107.689 -71.689 108.547 C-71.662 109.436 -71.634 110.326 -71.605 111.242 C-71.147 123.133 -69.986 135.194 -66.98 146.742 C-64.309 145.778 -62.197 144.918 -59.98 143.117 C-57.98 141.742 -57.98 141.742 -55.418 141.242 C-52.98 141.742 -52.98 141.742 -51.043 143.93 C-49.98 146.742 -49.98 146.742 -50.57 149.152 C-52.366 152.451 -54.404 153.852 -57.48 155.992 C-78.77 171.239 -78.77 171.239 -80.98 180.742 C-81.135 185.721 -80.737 188.812 -77.543 192.742 C-73.454 195.933 -71.187 196.078 -65.98 195.742 C-59.288 193.563 -53.646 190.362 -47.717 186.619 C-42.662 183.608 -42.662 183.608 -39.074 184.316 C-36.43 186.117 -35.857 187.715 -34.98 190.742 C-38.12 195.263 -41.195 197.258 -45.98 199.742 C-42.814 209.142 -34.174 215.871 -26.605 221.867 C-26.011 222.34 -25.416 222.814 -24.804 223.301 C-19.168 227.634 -19.168 227.634 -15.98 227.742 C-14.29 226.099 -12.628 224.427 -10.98 222.742 C-4.906 218.551 1.829 217.653 9.02 216.742 C8.985 215.882 8.95 215.023 8.914 214.137 C8.627 201.588 9.811 190.643 18.02 180.742 C18.522 180.117 19.025 179.492 19.543 178.848 C25.612 172.053 34.834 167.169 43.965 166.539 C44.489 166.531 44.489 166.531 47.145 166.492 C47.672 166.479 47.672 166.479 50.34 166.414 C51.224 166.522 52.108 166.631 53.02 166.742 C55.02 169.742 55.02 169.742 54.832 172.805 C54.02 175.742 54.02 175.742 51.02 177.742 C49.133 178.069 47.234 178.333 45.332 178.555 C36.624 179.929 31.068 183.731 25.496 190.512 C21.094 197.162 20.215 204.936 21.02 212.742 C21.655 215.084 22.318 217.419 23.02 219.742 C23.094 222.074 23.115 224.411 23.02 226.742 C20.075 227.724 17.649 227.857 14.573 227.931 C6.868 228.155 0.386 228.951 -5.98 233.742 C-8.98 237.536 -8.98 237.536 -8.98 240.742 C3.885 240.928 16.75 241.07 29.617 241.157 C35.592 241.198 41.566 241.255 47.541 241.346 C53.311 241.433 59.081 241.481 64.853 241.501 C67.049 241.516 69.246 241.545 71.443 241.588 C90.812 241.955 90.812 241.955 97.229 236.885 C98.535 235.544 99.804 234.166 101.02 232.742 C102.176 231.709 103.34 230.686 104.52 229.68 C116.477 217.27 123.418 201.079 128.02 184.742 C128.411 183.484 128.803 182.226 129.207 180.93 C136.122 153.802 130.114 123.801 116.399 99.881 C112.204 93.015 106.721 87.367 101.02 81.742 C100.206 80.918 99.393 80.095 98.555 79.246 C76.572 58.141 44.897 52.039 16.075 46.204 C14.02 45.742 14.02 45.742 11.02 44.742 C10.176 42.992 10.176 42.992 9.52 40.742 C9.267 39.926 9.014 39.11 8.754 38.27 C8.293 36.682 7.843 35.091 7.41 33.496 C4.023 21.908 -4.139 12.252 -14.605 6.43 C-36.061 -4.79 -58.723 2.934 -79.977 10.859 Z M-119.98 76.742 C-119.98 82.022 -119.98 87.302 -119.98 92.742 C-116.68 92.742 -113.38 92.742 -109.98 92.742 C-109.505 88.969 -109.274 85.494 -109.98 81.742 C-112.291 79.252 -114.803 77.897 -117.98 76.742 C-118.64 76.742 -119.3 76.742 -119.98 76.742 Z M153.5 161.018 C151.02 161.742 151.02 161.742 148.881 162.121 C147.016 162.578 147.016 162.578 144.02 164.742 C142.4 169.207 141.75 173.741 141.082 178.43 C140.979 179.067 140.979 179.067 140.455 182.291 C139.948 185.438 139.471 188.587 139.02 191.742 C140.892 192.786 140.892 192.786 143.02 193.742 C146.002 192.725 148.081 190.963 150.395 188.867 C152.689 186.83 154.767 185.272 157.395 183.617 C160.02 181.742 160.02 181.742 161.02 179.867 C161.02 176.895 160.083 174.494 159.02 171.742 C161.207 169.18 161.207 169.18 164.02 166.742 C168.98 166.767 171.74 169.838 175.082 173.117 C181.461 179.233 181.461 179.233 185.02 181.742 C189.198 180.119 191.918 177.031 194.957 173.867 C204.344 164.161 204.344 164.161 208.52 163.117 C212.471 164.105 213.833 166.431 216.02 169.742 C216.332 172.617 216.332 172.617 216.02 174.742 C212.866 175.443 210.292 175.742 207.02 175.742 C206.94 176.074 206.94 176.074 206.539 177.754 C204.643 184.929 202.294 188.559 196.02 192.742 C196.02 193.402 196.02 194.062 196.02 194.742 C197.439 195.655 198.861 196.564 200.293 197.457 C202.887 199.388 204.741 201.816 206.723 204.352 C207.151 204.81 207.579 205.269 208.02 205.742 C208.68 205.742 209.34 205.742 210.02 205.742 C211.832 203.74 213.493 201.745 215.145 199.617 C215.378 199.332 215.378 199.332 216.562 197.891 C219.564 194.041 220.458 191.771 220.02 186.742 C221.145 184.867 221.145 184.867 223.02 183.742 C226.979 183.14 228.497 183.362 231.77 185.742 C232.512 186.402 233.255 187.062 234.02 187.742 C234.68 187.742 235.34 187.742 236.02 187.742 C236.344 190.953 236.344 190.953 236.02 194.742 C233.789 197.219 233.789 197.219 230.832 199.367 C225.369 203.419 220.549 207.055 217.582 213.305 C215.292 217.597 213.514 219.776 209.02 221.742 C204.462 221.158 201.83 217.741 198.797 214.555 C197.154 212.88 195.47 211.4 193.645 209.93 C191.02 207.742 191.02 207.742 190.02 205.742 C186.343 207.253 184.301 209.391 181.707 212.367 C180.925 213.255 180.142 214.144 179.336 215.059 C177.878 216.748 176.427 218.442 174.984 220.145 C174.377 220.857 173.77 221.57 173.145 222.305 C172.611 222.945 172.077 223.586 171.527 224.246 C170.02 225.742 170.02 225.742 167.02 226.742 C161.093 223.174 157.246 217.542 153.66 211.781 C152.02 209.742 152.02 209.742 149.965 208.93 C148.02 208.742 148.02 208.742 145.645 209.117 C141.792 208.567 140.489 206.235 138.156 203.273 C137.781 202.768 137.406 202.263 137.02 201.742 C134.11 203.197 133.966 205.105 132.832 208.117 C130.27 214.516 126.898 220.065 123.02 225.742 C126.194 227.859 127.901 228.22 131.613 228.777 C132.17 228.862 132.17 228.862 134.988 229.291 C135.571 229.376 135.571 229.376 138.52 229.805 C139.654 229.978 140.788 230.151 141.957 230.33 C169.828 234.501 206.805 238.325 231.02 220.742 C231.637 220.301 232.254 219.86 232.891 219.406 C240.416 213.548 244.216 204.966 246.02 195.742 C247.169 186.085 244.866 177.492 239.332 169.492 C231.392 159.805 221.361 155.089 209.02 153.742 C189.807 152.791 171.892 155.509 153.5 161.018 Z M163.02 179.742 C161.366 181.396 161.579 183.598 161.27 185.867 C160.608 189.798 159.882 192.428 157.395 195.555 C155.02 198.742 155.02 198.742 154.395 201.867 C155.234 205.73 157.062 207.207 160.02 209.742 C160.68 210.402 161.34 211.062 162.02 211.742 C165.046 211.764 167.144 211.468 169.522 209.498 C171.047 207.866 172.446 206.18 173.832 204.43 C174.321 203.848 174.81 203.266 175.314 202.666 C177.71 199.741 179.286 197.442 180.02 193.742 C179.272 193.067 178.524 192.391 177.754 191.695 C176.759 190.794 175.764 189.893 174.77 188.992 C174.282 188.551 174.282 188.551 171.816 186.32 C170.094 184.733 168.407 183.104 166.785 181.414 C165.02 179.742 165.02 179.742 163.02 179.742 Z M-46.98 219.742 C-47.372 220.856 -47.764 221.97 -48.168 223.117 C-49.286 225.668 -49.746 226.584 -52.105 228.18 C-55.361 228.817 -58.34 228.76 -61.645 228.699 C-68.557 228.826 -73.165 230.812 -77.98 235.742 C-78.31 236.567 -78.31 236.567 -79.98 240.742 C-61.17 240.742 -42.36 240.742 -22.98 240.742 C-22.98 239.752 -22.98 238.762 -22.98 237.742 C-23.491 237.509 -24.001 237.276 -24.527 237.035 C-31.144 233.715 -36.081 229.233 -41.379 224.168 C-43.98 221.742 -43.98 221.742 -46.98 219.742 Z " fill="currentColor" transform="translate(197.98046875,135.2578125)"/>
<path d="M0 0 C3.134 2.93 4.803 4.791 5.5 9.062 C4.81 13.118 3.525 15.757 0.312 18.375 C-3.277 19.345 -6.434 18.979 -10 18 C-12.5 16.5 -12.5 16.5 -14 14 C-14.614 10.87 -14.657 8.126 -14 5 C-9.949 -0.255 -6.434 -1.93 0 0 Z " fill="currentColor" transform="translate(151,158)"/>
</svg>
