<?xml version="1.0" encoding="UTF-8"?>
<!-- Generator: visioncortex VTracer 0.6.12 -->
<svg viewBox="0 0 512 512" version="1.1" xmlns="http://www.w3.org/2000/svg" width="512" height="512">
<path d="M0 0 C6.95 4.876 10.965 10.172 12.75 18.5 C12.832 19.325 12.915 20.15 13 21 C13.727 20.93 14.454 20.861 15.203 20.789 C23.762 20.328 29.941 22.085 37 27 C42.869 32.625 46.046 39.797 46.438 47.875 C46.124 56.384 42.914 62.826 36.781 68.625 C34.94 70.046 33.112 71.036 31 72 C31.16 72.847 31.32 73.694 31.484 74.566 C32.922 84.14 33.376 93.063 27.488 101.051 C22.958 106.62 18.191 110.534 11 112 C3.943 112.714 -0.948 111.116 -8 109 C-7.67 121.21 -7.34 133.42 -7 146 C-6.34 145.01 -6.34 145.01 -3 140 C6.158 127.129 20.696 119.763 36 117 C39.588 116.664 43.148 116.585 46.75 116.562 C47.682 116.53 48.614 116.497 49.574 116.463 C56.305 116.41 56.305 116.41 59.637 119.238 C61.87 123.762 61.179 127.203 60 132 C58.612 135.83 56.909 139.404 55 143 C54.629 143.7 54.257 144.4 53.875 145.121 C44.925 160.565 30.671 169.688 14 175 C8.982 175.954 4.163 176.108 -0.938 176.062 C-1.621 176.058 -2.305 176.053 -3.01 176.049 C-4.673 176.037 -6.337 176.019 -8 176 C-8 178.97 -8 181.94 -8 185 C-7.674 184.993 -7.674 184.993 -6.022 184.96 C0.775 184.827 7.572 184.736 14.369 184.67 C16.906 184.64 19.443 184.599 21.979 184.547 C25.625 184.475 29.271 184.441 32.918 184.414 C33.485 184.399 33.485 184.399 36.353 184.32 C43.957 184.317 43.957 184.317 46.859 186.217 C48.829 188.384 49.904 190.395 50.362 193.29 C50.235 194.024 50.108 194.759 49.977 195.516 C49.908 195.948 49.908 195.948 49.56 198.139 C49.375 199.083 49.19 200.027 49 201 C48.818 202.022 48.636 203.043 48.448 204.096 C47.793 207.655 47.088 211.202 46.375 214.75 C45.834 217.48 45.297 220.211 44.762 222.941 C44.621 223.657 44.48 224.373 44.335 225.11 C42.213 235.957 40.254 246.835 38.273 257.708 C38.129 258.498 37.984 259.287 37.836 260.101 C37.565 261.582 37.295 263.063 37.027 264.545 C36.446 267.727 35.805 270.867 35 274 C35.576 273.997 36.152 273.994 36.745 273.992 C50.776 273.925 64.807 273.876 78.837 273.845 C85.623 273.829 92.408 273.808 99.193 273.774 C105.742 273.741 112.29 273.723 118.839 273.715 C121.337 273.71 123.835 273.699 126.333 273.683 C129.833 273.661 133.332 273.658 136.832 273.659 C137.864 273.649 138.895 273.638 139.958 273.627 C147.202 273.658 152.164 274.486 157.75 279.438 C163.514 286.002 164.33 290.239 164.203 298.965 C163.763 305.547 162 309.396 157.125 313.875 C152.424 317.839 148.341 319.273 142.188 319.125 C141.212 319.107 140.236 319.089 139.23 319.07 C138.862 319.059 138.862 319.059 137 319 C137.003 319.453 137.003 319.453 137.02 321.744 C137.08 330.279 137.126 338.813 137.155 347.347 C137.171 351.734 137.192 356.122 137.226 360.509 C137.259 364.743 137.277 368.977 137.285 373.211 C137.29 374.827 137.301 376.442 137.317 378.058 C137.339 380.32 137.342 382.582 137.341 384.845 C137.344 385.489 137.344 385.489 137.361 388.748 C136.979 392.192 136.435 393.586 134 396 C132.063 396.531 132.063 396.531 130 396.5 C129.319 396.51 128.639 396.521 127.938 396.531 C126 396 126 396 123 392 C123 367.91 123 343.82 123 319 C30.27 319.33 -62.46 319.66 -158 320 C-158 339.8 -158 359.6 -158 380 C-159 393 -159 393 -162 396 C-167.989 396.642 -167.989 396.642 -170.697 394.922 C-172.704 391.961 -172.359 389.411 -172.341 385.866 C-172.341 385.505 -172.341 385.505 -172.342 383.678 C-172.34 381.292 -172.316 378.906 -172.293 376.52 C-172.287 374.865 -172.283 373.21 -172.28 371.555 C-172.269 367.2 -172.239 362.845 -172.206 358.49 C-172.175 354.046 -172.162 349.602 -172.146 345.158 C-172.114 336.439 -172.063 327.719 -172 319 C-172.407 319.012 -172.407 319.012 -174.469 319.075 C-175.543 319.094 -176.616 319.113 -177.723 319.133 C-178.785 319.157 -179.847 319.182 -180.942 319.208 C-186.947 318.8 -190.945 315.38 -194.875 311.062 C-199.55 304.325 -199.91 297.532 -198.605 289.602 C-196.939 283.3 -193.384 279.56 -188 276 C-184.485 274.37 -181.746 273.751 -177.881 273.759 C-177.377 273.758 -177.377 273.758 -174.826 273.751 C-173.731 273.758 -172.636 273.766 -171.509 273.773 C-170.928 273.773 -170.928 273.773 -167.989 273.772 C-164.153 273.773 -160.317 273.789 -156.48 273.805 C-153.82 273.808 -151.159 273.811 -148.498 273.813 C-142.212 273.819 -135.926 273.836 -129.639 273.856 C-122.481 273.878 -115.323 273.889 -108.164 273.899 C-93.443 273.92 -78.721 273.955 -64 274 C-64.159 273.21 -64.318 272.421 -64.482 271.607 C-64.704 270.501 -64.927 269.394 -65.157 268.255 C-65.402 267.034 -65.648 265.814 -65.901 264.557 C-66.437 261.892 -66.974 259.227 -67.51 256.562 C-69.785 245.257 -69.785 245.257 -70.824 240.114 C-76.024 214.36 -76.024 214.36 -77.949 203.492 C-78.013 203.152 -78.013 203.152 -78.336 201.43 C-79.079 197.048 -79.153 193.307 -78 189 C-76.179 186.587 -76.179 186.587 -73 185 C-69.038 184.469 -65.128 184.535 -61.137 184.609 C-59.99 184.615 -58.842 184.621 -57.661 184.627 C-54.002 184.649 -50.345 184.699 -46.688 184.75 C-44.205 184.77 -41.723 184.788 -39.24 184.805 C-33.16 184.849 -27.08 184.916 -21 185 C-21 182.03 -21 179.06 -21 176 C-21.619 176.159 -22.238 176.317 -22.875 176.48 C-39.821 179.298 -56.686 176.775 -71 167 C-83.386 156.837 -90.453 143.196 -92.312 127.41 C-92 125 -92 125 -90.562 122.711 C-86.777 120.183 -83.455 120.441 -79 120.562 C-78.146 120.578 -77.293 120.593 -76.413 120.609 C-57.916 121.171 -43.668 128.921 -30.973 142.105 C-27.152 146.282 -24.92 149.89 -22 155 C-21.67 139.82 -21.34 124.64 -21 109 C-23.97 109.99 -26.94 110.98 -30 112 C-38.025 112.669 -44.389 111.336 -51.188 106.938 C-56.422 102.142 -60.583 95.075 -61.168 87.957 C-61.219 82.391 -60.423 77.376 -59 72 C-59.866 71.484 -60.732 70.969 -61.625 70.438 C-68.444 65.827 -72.325 60.056 -74 52 C-74.997 44.788 -73.323 38.266 -69.113 32.348 C-64.54 26.912 -60.091 22.539 -53 21 C-48.973 20.718 -45.028 20.755 -41 21 C-40.932 20.613 -40.932 20.613 -40.59 18.656 C-39.036 11.137 -37.009 5.948 -31 1 C-21.159 -5.298 -10.129 -6.187 0 0 Z M-27.156 14.164 C-29.406 17.625 -29.843 20.734 -30.188 24.75 C-30.909 31.909 -30.909 31.909 -32 33 C-35.948 33.165 -39.539 32.927 -43.438 32.312 C-48.2 31.752 -51.866 32.553 -56 35 C-58.375 37.438 -58.375 37.438 -60 40 C-60.412 40.598 -60.825 41.196 -61.25 41.812 C-62.42 45.226 -62.546 48.47 -62 52 C-58.026 59.796 -52.013 63.375 -44 66 C-43.491 71.343 -44.875 73.738 -48 78 C-49.676 83.029 -49.606 87.34 -47.812 92.25 C-45.186 96.236 -42.531 98.49 -38 100 C-33.42 100.532 -29.946 100.455 -25.75 98.438 C-23.42 96.373 -22.153 94.854 -20.5 92.312 C-18.574 89.376 -18.293 89.083 -14.688 88.062 C-13.801 88.042 -12.914 88.021 -12 88 C-11.722 88.361 -11.722 88.361 -10.312 90.188 C-3.375 98.625 -3.375 98.625 2 100 C8.178 100.588 11.037 100.039 16 96 C18.921 93.482 19.833 91.48 20.273 87.582 C20.501 81.38 19.956 77.723 15.996 72.852 C15 71 15 71 15.051 68.398 C16 66 16 66 18.109 64.812 C18.981 64.544 19.852 64.276 20.75 64 C26.532 61.938 29.413 59.327 32.875 54.25 C34.392 49.868 34.174 46.457 33 42 C30.725 37.613 28.577 34.933 24 33 C19.314 31.923 15.325 31.73 10.688 33.062 C7 34 7 34 4.832 33.445 C3 32 3 32 2.312 29.207 C2.209 28.087 2.106 26.967 2 25.812 C1.151 19.13 0.098 14.655 -5.188 10.125 C-13.692 6.723 -20.597 7.581 -27.156 14.164 Z M30.078 130.816 C16.114 135.53 5.292 145.312 -1.438 158.438 C-3 162 -3 162 -3 164 C10.668 164.683 22.647 160.395 33.25 151.75 C40.092 145.372 44.701 138.065 47 129 C42.263 126.632 34.955 129.454 30.078 130.816 Z M-78 133 C-75.936 144.143 -70.148 152.375 -61 159 C-51.966 164.582 -43.502 166.333 -33 166 C-32 163 -32 163 -33.039 160.512 C-40.774 146.738 -49.983 139.14 -65 134 C-68.168 133.23 -71.057 132.882 -74.312 132.938 C-75.529 132.958 -76.746 132.979 -78 133 Z M-65 198 C-63.875 207.002 -63.875 207.002 -63.016 211.384 C-62.826 212.362 -62.635 213.341 -62.439 214.349 C-62.337 214.865 -62.337 214.865 -61.82 217.48 C-61.607 218.57 -61.393 219.66 -61.174 220.783 C-60.723 223.082 -60.27 225.381 -59.817 227.679 C-59.131 231.158 -58.45 234.639 -57.77 238.119 C-56.714 243.508 -55.636 248.892 -54.545 254.274 C-54.073 256.636 -53.624 259.001 -53.187 261.37 C-53.072 261.946 -53.072 261.946 -52.492 264.863 C-52.318 265.791 -52.144 266.718 -51.964 267.673 C-50.626 270.903 -48.895 272.071 -46 274 C-43.041 274.508 -43.041 274.508 -39.729 274.518 C-38.484 274.53 -37.239 274.543 -35.956 274.556 C-34.606 274.549 -33.256 274.54 -31.906 274.531 C-30.513 274.534 -29.12 274.538 -27.726 274.543 C-24.811 274.549 -21.896 274.54 -18.981 274.521 C-15.252 274.499 -11.523 274.512 -7.794 274.536 C-4.918 274.55 -2.043 274.546 0.833 274.535 C2.208 274.533 3.582 274.536 4.957 274.545 C6.881 274.555 8.805 274.537 10.729 274.518 C11.822 274.514 12.915 274.511 14.041 274.508 C17.701 273.88 19.37 272.576 22 270 C23.039 267.42 23.039 267.42 23.625 264.469 C23.854 263.362 24.083 262.255 24.319 261.114 C24.544 259.922 24.768 258.729 25 257.5 C25.249 256.263 25.497 255.027 25.753 253.753 C26.53 249.84 27.273 245.922 28 242 C28.233 240.746 28.465 239.493 28.705 238.201 C29.774 232.373 30.814 226.541 31.824 220.703 C33.154 213.124 34.582 205.563 36 198 C2.67 198 -30.66 198 -65 198 Z M-185 291 C-186.79 294.58 -186.466 298.562 -185.25 302.312 C-183.675 304.439 -182.456 305.015 -180 306 C-177.424 306.251 -177.424 306.251 -174.443 306.252 C-173.306 306.257 -172.168 306.262 -170.996 306.267 C-169.746 306.263 -168.496 306.259 -167.208 306.254 C-165.866 306.256 -164.525 306.259 -163.184 306.263 C-159.495 306.272 -155.807 306.268 -152.118 306.261 C-148.141 306.257 -144.164 306.264 -140.187 306.269 C-132.395 306.278 -124.603 306.276 -116.811 306.271 C-110.48 306.266 -104.148 306.265 -97.817 306.268 C-96.917 306.268 -96.017 306.268 -95.089 306.269 C-93.26 306.269 -91.431 306.27 -89.603 306.271 C-72.444 306.276 -55.286 306.27 -38.128 306.259 C-23.397 306.25 -8.667 306.252 6.063 306.261 C23.159 306.271 40.255 306.276 57.351 306.27 C59.173 306.269 60.995 306.268 62.817 306.268 C63.714 306.267 64.61 306.267 65.534 306.267 C71.86 306.265 78.185 306.268 84.511 306.273 C92.217 306.278 99.923 306.277 107.629 306.266 C111.563 306.261 115.496 306.259 119.43 306.265 C123.029 306.271 126.627 306.268 130.226 306.257 C132.149 306.254 134.073 306.261 135.996 306.267 C137.134 306.262 138.271 306.257 139.443 306.252 C140.427 306.251 141.411 306.251 142.424 306.251 C145.113 305.989 146.726 305.432 149 304 C151.544 300.566 151.296 297.145 151 293 C149.812 289.62 149.102 289.068 146 287 C143.543 286.747 143.543 286.747 140.554 286.743 C139.984 286.74 139.984 286.74 137.104 286.723 C135.847 286.726 134.591 286.729 133.297 286.733 C131.953 286.729 130.609 286.724 129.266 286.719 C125.565 286.707 121.865 286.707 118.164 286.709 C114.176 286.71 110.188 286.699 106.201 286.689 C98.385 286.672 90.569 286.667 82.753 286.666 C76.402 286.665 70.05 286.661 63.699 286.654 C45.702 286.637 27.705 286.628 9.708 286.629 C8.737 286.629 7.766 286.629 6.766 286.629 C5.794 286.629 4.822 286.63 3.821 286.63 C-11.935 286.63 -27.69 286.611 -43.445 286.583 C-59.612 286.554 -75.78 286.541 -91.947 286.542 C-101.028 286.543 -110.108 286.537 -119.189 286.516 C-126.92 286.498 -134.651 286.493 -142.382 286.507 C-146.328 286.514 -150.274 286.514 -154.22 286.496 C-157.831 286.481 -161.442 286.483 -165.053 286.501 C-166.981 286.505 -168.908 286.49 -170.836 286.474 C-171.408 286.479 -171.408 286.479 -174.302 286.502 C-175.289 286.502 -176.275 286.501 -177.292 286.501 C-180.77 287.142 -182.461 288.591 -185 291 Z " fill="currentColor" transform="translate(273,60)"/>
<path d="M0 0 C4.842 2.712 8.782 7.209 10.453 12.547 C11.505 18.266 10.901 22.531 8.156 27.57 C5.25 31.744 1.639 34.891 -3.188 36.5 C-9.905 37.228 -15.776 36.822 -21.188 32.5 C-25.067 28.198 -28.092 23.438 -28.422 17.543 C-27.671 10.999 -24.244 5.593 -19.188 1.5 C-13.1 -2.512 -6.663 -2.867 0 0 Z M-14 12.625 C-16.188 15.5 -16.188 15.5 -16.188 18.625 C-15.186 21.503 -14.65 22.767 -12.188 24.5 C-9.52 25.656 -8.389 25.558 -5.562 24.75 C-3.188 23.5 -3.188 23.5 -1.188 20.5 C-1.25 17 -1.25 17 -2.188 13.5 C-6.271 10.079 -9.553 9.265 -14 12.625 Z " fill="currentColor" transform="translate(267.1875,99.5)"/>
</svg>
