<?xml version="1.0" encoding="UTF-8"?>
<!-- Generator: visioncortex VTracer 0.6.12 -->
<svg viewBox="0 0 512 512" version="1.1" xmlns="http://www.w3.org/2000/svg" width="512" height="512">
<path d="M0 0 C8.511 5.235 14.002 12.343 16.926 21.953 C18.933 32.25 15.764 41.237 10.312 49.938 C10.835 50.107 11.358 50.276 11.897 50.451 C18.075 52.479 24.166 54.705 30.25 57 C31.305 57.397 32.36 57.794 33.448 58.204 C44.665 62.435 55.856 66.732 67.037 71.057 C68.662 71.686 70.287 72.314 71.912 72.943 C94.359 81.623 116.803 90.311 139.186 99.156 C149.169 103.1 159.165 107.008 169.167 110.906 C182.888 116.254 196.608 121.608 210.312 127 C210.656 127.135 210.656 127.135 212.393 127.819 C221.109 131.251 229.791 134.756 238.438 138.36 C241.97 139.813 245.536 141.154 249.121 142.473 C262.283 147.364 275.296 152.648 288.34 157.842 C301.288 162.996 314.242 168.104 327.312 172.938 C339.954 177.721 339.954 177.721 343.312 182.938 C343.773 185.254 343.773 185.254 343.688 187.5 C343.681 187.872 343.681 187.872 343.648 189.754 C343.263 192.257 342.648 193.782 341.312 195.938 C334.508 200.535 326.057 203.129 318.438 206.062 C316.571 206.788 314.705 207.514 312.839 208.24 C310.92 208.986 309.001 209.731 307.081 210.475 C301.254 212.734 295.44 215.025 289.625 217.312 C287.298 218.227 284.971 219.141 282.645 220.055 C275.402 222.901 268.161 225.754 260.921 228.607 C256.044 230.528 251.167 232.45 246.29 234.371 C243.735 235.377 241.179 236.384 238.624 237.391 C224.715 242.871 210.791 248.309 196.847 253.697 C184.107 258.62 171.393 263.605 158.685 268.609 C135.952 277.562 113.199 286.465 90.445 295.365 C83.426 298.11 76.408 300.857 69.391 303.605 C51.934 310.441 34.477 317.273 17.007 324.073 C15.434 324.685 13.862 325.297 12.289 325.91 C10.147 326.744 8.005 327.577 5.863 328.41 C5.263 328.644 5.263 328.644 2.228 329.824 C0.272 330.571 -1.701 331.275 -3.688 331.938 C-3.689 332.676 -3.69 333.414 -3.692 334.175 C-3.71 341.149 -3.751 348.122 -3.82 355.096 C-3.854 358.681 -3.879 362.265 -3.883 365.85 C-3.887 369.313 -3.916 372.775 -3.961 376.237 C-3.98 378.195 -3.975 380.152 -3.969 382.11 C-4.131 392.043 -4.131 392.043 -7.105 395.735 C-10.21 398.383 -11.749 398.956 -15.691 399.18 C-19.09 398.767 -21.144 397.117 -23.688 394.938 C-25.955 391.536 -25.934 390.388 -25.924 386.4 C-25.926 385.241 -25.928 384.083 -25.93 382.889 C-25.922 381.61 -25.914 380.331 -25.905 379.013 C-25.904 377.645 -25.903 376.278 -25.904 374.91 C-25.902 371.931 -25.895 368.951 -25.882 365.972 C-25.862 361.125 -25.855 356.278 -25.85 351.431 C-25.842 344.393 -25.827 337.356 -25.809 330.319 C-25.782 319.198 -25.778 308.077 -25.779 296.956 C-25.779 295.062 -25.779 293.169 -25.779 291.275 C-25.779 288.405 -25.779 285.536 -25.779 282.666 C-25.78 271.842 -25.777 261.019 -25.771 250.195 C-25.771 249.205 -25.77 248.216 -25.77 247.196 C-25.761 231.157 -25.726 215.118 -25.683 199.079 C-25.64 182.619 -25.631 166.159 -25.653 149.699 C-25.665 139.542 -25.649 129.386 -25.598 119.229 C-25.565 112.27 -25.565 105.311 -25.591 98.352 C-25.605 94.334 -25.604 90.318 -25.564 86.301 C-25.528 82.623 -25.533 78.948 -25.571 75.27 C-25.58 73.309 -25.545 71.348 -25.509 69.387 C-25.654 61.012 -25.654 61.012 -28.684 57.862 C-30.959 56.342 -33.233 55.136 -35.688 53.938 C-42.283 47.857 -46.14 41.205 -46.926 32.211 C-47.173 22.573 -45.324 13.71 -38.535 6.504 C-28.208 -2.251 -12.729 -6.01 0 0 Z M-23.688 20.938 C-25.976 23.778 -26.648 25.703 -27.25 29.312 C-26.492 34.198 -24.629 36.965 -20.688 39.938 C-16.554 41.545 -13.532 41.224 -9.375 39.812 C-6.313 37.676 -5.074 36.404 -3.688 32.938 C-2.859 26.411 -2.859 26.411 -4.707 23.125 C-6.85 20.432 -8.401 19.033 -11.688 17.938 C-16.675 17.568 -19.737 17.755 -23.688 20.938 Z M-4.688 66.938 C-4.688 146.798 -4.688 226.658 -4.688 308.938 C1.435 307.101 7.274 305.299 13.16 302.926 C13.878 302.641 14.596 302.355 15.336 302.061 C16.879 301.448 18.422 300.832 19.965 300.215 C24.16 298.535 28.362 296.871 32.562 295.203 C33.438 294.855 34.313 294.507 35.214 294.149 C45.086 290.227 54.979 286.359 64.875 282.5 C65.751 282.158 66.627 281.816 67.53 281.464 C77.666 277.51 87.81 273.58 97.987 269.732 C106.099 266.657 114.167 263.469 122.238 260.288 C131.188 256.764 140.153 253.28 149.125 249.812 C165.949 243.309 182.758 236.775 199.5 230.062 C219.814 221.918 240.205 213.971 260.605 206.047 C275.189 200.382 289.756 194.673 304.312 188.938 C304.312 188.278 304.312 187.618 304.312 186.938 C283.908 178.697 263.406 170.71 242.9 162.725 C237.265 160.53 231.632 158.329 226 156.125 C225.566 155.955 225.566 155.955 223.368 155.095 C218.451 153.17 213.538 151.239 208.625 149.305 C206.25 148.37 203.875 147.435 201.5 146.5 C200.916 146.27 200.916 146.27 197.958 145.106 C188.721 141.476 179.463 137.904 170.188 134.373 C165.233 132.48 160.309 130.535 155.418 128.48 C148.87 125.731 142.254 123.172 135.625 120.625 C132.868 119.562 130.112 118.498 127.355 117.434 C126.632 117.154 125.908 116.875 125.162 116.587 C116.245 113.143 107.341 109.665 98.438 106.188 C96.696 105.508 94.955 104.828 93.213 104.148 C89.682 102.769 86.151 101.39 82.621 100.011 C77.363 97.957 72.105 95.904 66.848 93.852 C65.989 93.516 65.131 93.181 64.246 92.836 C59.97 91.167 55.694 89.498 51.417 87.831 C49.735 87.175 48.053 86.519 46.371 85.863 C45.544 85.541 44.717 85.218 43.865 84.886 C38.738 82.887 33.614 80.88 28.492 78.869 C25.145 77.555 21.797 76.245 18.449 74.935 C16.874 74.318 15.3 73.7 13.727 73.08 C11.564 72.228 9.4 71.381 7.234 70.535 C6.013 70.056 4.792 69.576 3.534 69.082 C0.312 67.938 0.312 67.938 -4.688 66.938 Z " fill="currentColor" transform="translate(106.6875,57.0625)"/>
</svg>
