<?xml version="1.0" encoding="UTF-8"?>
<!-- Generator: visioncortex VTracer 0.6.12 -->
<svg viewBox="0 0 512 512" version="1.1" xmlns="http://www.w3.org/2000/svg" width="512" height="512">
<path d="M0 0 C3.022 1.745 5.417 3.833 7 7 C7.086 9.178 7.107 11.359 7.098 13.539 C7.096 14.19 7.096 14.19 7.088 17.484 C7.08 18.865 7.071 20.245 7.062 21.625 C7.057 23.013 7.053 24.401 7.049 25.789 C7.037 29.193 7.021 32.596 7 36 C7.926 35.999 8.852 35.998 9.806 35.997 C32.305 35.975 54.804 35.959 77.304 35.948 C88.184 35.943 99.064 35.936 109.945 35.925 C119.425 35.915 128.906 35.908 138.386 35.906 C143.408 35.905 148.431 35.902 153.453 35.894 C158.176 35.888 162.899 35.885 167.622 35.887 C169.359 35.887 171.097 35.885 172.834 35.881 C175.198 35.876 177.562 35.877 179.926 35.88 C180.621 35.877 181.315 35.874 182.031 35.871 C186.772 35.886 186.772 35.886 189 37 C188.984 36.178 188.969 35.356 188.952 34.509 C188.89 30.777 188.851 27.045 188.812 23.312 C188.8 22.666 188.8 22.666 188.736 19.393 C188.727 18.145 188.717 16.898 188.707 15.613 C188.691 14.466 188.676 13.32 188.659 12.138 C189.166 7.474 191.051 4.949 194.312 1.688 C197.618 -0.388 199.158 -0.627 203 0 C206.974 2.14 209.397 3.77 211 8 C211.319 10.933 211.319 10.933 211.414 14.297 C211.453 15.502 211.491 16.707 211.531 17.949 C211.547 18.576 211.547 18.576 211.625 21.75 C211.664 23.02 211.702 24.289 211.742 25.598 C211.836 28.732 211.922 31.866 212 35 C212.745 35.025 213.489 35.05 214.256 35.076 C221.42 35.32 228.582 35.585 235.744 35.872 C237.644 35.947 239.543 36.018 241.443 36.081 C257.061 36.605 269.378 40.846 280.312 52.25 C289.342 62.976 291.307 75.237 291.267 88.815 C291.272 89.977 291.276 91.139 291.281 92.337 C291.292 95.541 291.293 98.745 291.291 101.949 C291.29 105.413 291.301 108.877 291.311 112.342 C291.327 119.121 291.333 125.9 291.334 132.679 C291.335 138.192 291.339 143.706 291.346 149.22 C291.363 164.872 291.372 180.524 291.371 196.176 C291.371 197.019 291.371 197.862 291.371 198.73 C291.371 199.574 291.37 200.418 291.37 201.287 C291.37 214.958 291.389 228.628 291.417 242.299 C291.446 256.355 291.459 270.412 291.458 284.468 C291.457 292.352 291.462 300.236 291.484 308.12 C291.502 314.833 291.507 321.546 291.493 328.258 C291.487 331.679 291.486 335.099 291.504 338.519 C291.519 342.239 291.51 345.958 291.494 349.678 C291.505 350.742 291.515 351.807 291.526 352.905 C291.396 367.193 286.426 378.308 276.875 388.688 C270.125 395.243 261.115 400.119 251.609 400.131 C250.483 400.135 249.356 400.139 248.196 400.143 C247.575 400.143 247.575 400.143 244.431 400.14 C243.115 400.143 241.799 400.146 240.443 400.149 C236.783 400.158 233.122 400.159 229.462 400.16 C225.517 400.162 221.572 400.169 217.627 400.176 C208.997 400.19 200.366 400.196 191.736 400.2 C186.348 400.203 180.96 400.207 175.572 400.212 C160.657 400.224 145.741 400.234 130.826 400.238 C130.349 400.238 130.349 400.238 127.932 400.238 C126.975 400.238 126.018 400.239 125.032 400.239 C123.092 400.239 121.152 400.24 119.213 400.24 C118.25 400.24 117.288 400.241 116.297 400.241 C100.709 400.245 85.12 400.262 69.532 400.286 C53.531 400.309 37.529 400.322 21.528 400.323 C12.543 400.324 3.558 400.33 -5.428 400.348 C-13.08 400.363 -20.731 400.368 -28.383 400.36 C-32.287 400.356 -36.191 400.357 -40.094 400.371 C-43.67 400.384 -47.246 400.383 -50.822 400.37 C-52.724 400.368 -54.626 400.379 -56.527 400.392 C-69.393 400.317 -78.686 395.518 -88.117 386.938 C-97.501 377.282 -100.615 365.787 -100.508 352.628 C-100.514 351.43 -100.52 350.232 -100.527 348.997 C-100.54 345.702 -100.535 342.408 -100.523 339.113 C-100.514 335.548 -100.528 331.983 -100.539 328.418 C-100.557 321.446 -100.553 314.474 -100.541 307.502 C-100.532 301.833 -100.531 296.164 -100.535 290.495 C-100.536 290.091 -100.536 290.091 -100.537 288.045 C-100.538 286.403 -100.54 284.76 -100.541 283.117 C-100.552 267.733 -100.539 252.348 -100.518 236.964 C-100.5 223.779 -100.503 210.594 -100.521 197.409 C-100.543 182.077 -100.551 166.746 -100.539 151.414 C-100.538 149.778 -100.537 148.141 -100.535 146.505 C-100.535 145.7 -100.534 144.894 -100.533 144.065 C-100.53 138.406 -100.536 132.748 -100.545 127.089 C-100.556 120.188 -100.553 113.287 -100.532 106.386 C-100.522 102.869 -100.517 99.352 -100.531 95.834 C-100.542 92.013 -100.528 88.193 -100.508 84.372 C-100.517 83.272 -100.526 82.171 -100.535 81.037 C-100.436 71.186 -97.85 62.685 -91.875 54.812 C-91.192 53.891 -90.509 52.969 -89.805 52.02 C-89.209 51.353 -88.614 50.687 -88 50 C-87.34 50 -86.68 50 -86 50 C-86 49.34 -86 48.68 -86 48 C-74.667 38.419 -60.964 35.64 -46.562 35.938 C-36.329 36.052 -26.206 35.722 -16 35 C-15.991 34.214 -15.981 33.427 -15.972 32.617 C-15.918 29.036 -15.834 25.456 -15.75 21.875 C-15.736 20.638 -15.722 19.4 -15.707 18.125 C-15.398 6.639 -15.398 6.639 -11 2 C-7.311 -0.459 -4.282 -0.816 0 0 Z M-74 68 C-79.692 76.18 -79.157 86.066 -79.133 95.656 C-79.134 96.525 -79.135 97.394 -79.136 98.289 C-79.136 100.104 -79.135 101.919 -79.13 103.734 C-79.125 106.521 -79.13 109.307 -79.137 112.094 C-79.136 113.865 -79.135 115.635 -79.133 117.406 C-79.135 118.24 -79.137 119.073 -79.139 119.931 C-79.115 125.77 -79.115 125.77 -78 128 C-36.232 128.023 5.535 128.041 47.303 128.051 C52.24 128.052 57.176 128.054 62.112 128.055 C63.095 128.055 64.078 128.055 65.09 128.056 C80.981 128.06 96.871 128.068 112.761 128.077 C129.079 128.087 145.396 128.092 161.714 128.094 C171.774 128.095 181.834 128.1 191.895 128.108 C198.803 128.113 205.712 128.115 212.62 128.114 C216.6 128.113 220.579 128.114 224.559 128.119 C228.214 128.124 231.868 128.124 235.523 128.121 C237.448 128.12 239.373 128.125 241.298 128.129 C247.826 128.118 254.324 127.935 260.841 127.555 C261.54 127.516 262.239 127.477 262.959 127.437 C267.878 127.122 267.878 127.122 269 126 C269.114 124.58 269.16 123.155 269.177 121.731 C269.19 120.822 269.203 119.913 269.216 118.977 C269.223 117.986 269.231 116.994 269.238 115.973 C269.246 114.955 269.254 113.936 269.263 112.888 C269.277 110.723 269.287 108.558 269.295 106.393 C269.312 103.107 269.356 99.823 269.4 96.537 C269.411 94.432 269.419 92.327 269.426 90.223 C269.435 89.736 269.435 89.736 269.479 87.273 C269.455 79.629 267.922 72.705 263.105 66.598 C262.789 66.344 262.789 66.344 261.188 65.062 C260.562 64.538 259.937 64.013 259.293 63.473 C253.132 59.516 248.224 58.56 241.039 58.672 C240.208 58.674 239.377 58.676 238.52 58.678 C236.777 58.684 235.034 58.698 233.292 58.719 C230.612 58.75 227.933 58.76 225.254 58.766 C223.557 58.775 221.861 58.785 220.164 58.797 C219.36 58.801 218.556 58.805 217.727 58.81 C212.117 58.883 212.117 58.883 211 60 C210.903 62.014 210.868 64.031 210.859 66.047 C210.84 67.284 210.821 68.522 210.801 69.797 C210.767 72.417 210.749 75.036 210.746 77.656 C210.722 78.899 210.697 80.142 210.672 81.422 C210.667 81.992 210.667 81.992 210.644 84.878 C209.805 88.944 208.197 90.431 205 93 C200.997 94.144 198.985 94.46 195.188 92.688 C192.03 90.252 190.684 88.908 190 85 C189.854 82.976 189.753 80.949 189.684 78.922 C189.642 77.762 189.6 76.602 189.557 75.406 C189.517 74.2 189.478 72.993 189.438 71.75 C189.394 70.528 189.351 69.306 189.307 68.047 C189.201 65.031 189.099 62.016 189 59 C165.418 58.977 141.836 58.959 118.253 58.948 C107.305 58.943 96.356 58.936 85.407 58.925 C75.868 58.915 66.328 58.908 56.789 58.906 C51.735 58.905 46.68 58.902 41.626 58.894 C36.875 58.888 32.123 58.885 27.372 58.887 C25.623 58.887 23.873 58.885 22.124 58.881 C19.747 58.876 17.369 58.877 14.992 58.88 C14.29 58.877 13.589 58.874 12.866 58.871 C8.114 58.886 8.114 58.886 7 60 C6.866 61.94 6.796 63.884 6.754 65.828 C6.737 66.424 6.737 66.424 6.654 69.441 C6.593 71.965 6.536 74.488 6.482 77.012 C6.448 78.209 6.414 79.407 6.379 80.641 C6.366 81.19 6.366 81.19 6.303 83.97 C5.996 87.043 5.403 89.256 4 92 C0.379 94.112 -2.866 94.506 -7 94 C-12.708 90.877 -12.708 90.877 -14 87 C-14.139 84.948 -14.225 82.892 -14.281 80.836 C-14.3 80.234 -14.3 80.234 -14.395 77.188 C-14.465 74.638 -14.535 72.089 -14.605 69.539 C-14.624 68.938 -14.624 68.938 -14.719 65.898 C-14.749 64.792 -14.779 63.685 -14.811 62.544 C-15 60 -15 60 -16 59 C-18.986 58.861 -21.946 58.787 -24.934 58.762 C-25.841 58.754 -26.748 58.746 -27.682 58.737 C-29.612 58.723 -31.541 58.713 -33.47 58.705 C-36.394 58.688 -39.317 58.644 -42.24 58.6 C-44.117 58.589 -45.994 58.581 -47.871 58.574 C-48.735 58.557 -49.599 58.539 -50.489 58.521 C-59.49 58.553 -67.728 61.429 -74 68 Z M-78 150 C-79.578 153.156 -79.144 156.542 -79.14 160.007 C-79.143 160.845 -79.146 161.682 -79.149 162.544 C-79.158 165.366 -79.16 168.188 -79.161 171.01 C-79.166 173.027 -79.171 175.044 -79.176 177.061 C-79.189 182.553 -79.196 188.045 -79.2 193.537 C-79.203 196.967 -79.207 200.397 -79.212 203.828 C-79.225 214.558 -79.235 225.288 -79.239 236.018 C-79.243 248.408 -79.261 260.799 -79.29 273.189 C-79.312 282.762 -79.322 292.335 -79.323 301.908 C-79.324 307.627 -79.33 313.346 -79.348 319.065 C-79.364 324.448 -79.366 329.83 -79.358 335.213 C-79.357 337.187 -79.361 339.16 -79.371 341.134 C-79.384 343.833 -79.378 346.532 -79.367 349.231 C-79.376 350.008 -79.384 350.785 -79.392 351.585 C-79.329 358.618 -77.561 364.899 -72.75 370.25 C-72.209 370.874 -71.667 371.498 -71.109 372.141 C-64.093 378.325 -58.409 378.579 -49.305 378.521 C-48.024 378.529 -46.743 378.537 -45.423 378.545 C-41.877 378.565 -38.333 378.561 -34.788 378.552 C-30.96 378.547 -27.132 378.565 -23.305 378.58 C-15.81 378.606 -8.315 378.609 -0.82 378.605 C5.273 378.601 11.367 378.605 17.46 378.613 C17.894 378.614 17.894 378.614 20.089 378.617 C21.852 378.619 23.614 378.622 25.377 378.624 C41.905 378.646 58.432 378.641 74.96 378.629 C90.071 378.619 105.183 378.641 120.294 378.679 C135.819 378.718 151.343 378.735 166.867 378.727 C175.58 378.723 184.293 378.728 193.005 378.757 C200.423 378.78 207.841 378.783 215.259 378.759 C219.042 378.747 222.824 378.745 226.606 378.769 C230.713 378.795 234.818 378.774 238.924 378.748 C240.112 378.763 241.3 378.778 242.523 378.793 C250.343 378.692 255.925 377.069 262 372 C268.092 364.745 269.153 358.902 269.127 349.547 C269.128 349.123 269.128 349.123 269.132 346.975 C269.136 344.132 269.133 341.289 269.129 338.446 C269.131 336.408 269.133 334.369 269.135 332.331 C269.139 326.796 269.137 321.261 269.134 315.727 C269.132 309.942 269.134 304.156 269.136 298.371 C269.138 288.66 269.135 278.949 269.13 269.238 C269.125 257.995 269.127 246.751 269.132 235.508 C269.137 225.866 269.137 216.223 269.135 206.581 C269.133 200.817 269.133 195.052 269.136 189.288 C269.139 183.875 269.137 178.461 269.131 173.047 C269.13 171.054 269.13 169.061 269.133 167.069 C269.135 164.361 269.132 161.653 269.127 158.945 C269.128 158.546 269.128 158.546 269.134 156.524 C269.114 151.114 269.114 151.114 268 150 C266.16 149.902 264.316 149.876 262.473 149.877 C261.87 149.876 261.87 149.876 258.815 149.871 C257.458 149.874 256.101 149.877 254.744 149.88 C253.316 149.879 251.888 149.878 250.46 149.877 C246.517 149.875 242.575 149.879 238.632 149.884 C234.387 149.888 230.143 149.887 225.898 149.886 C218.537 149.886 211.177 149.889 203.816 149.894 C193.174 149.902 182.532 149.905 171.89 149.906 C154.626 149.908 137.362 149.915 120.097 149.925 C103.322 149.934 86.547 149.941 69.772 149.945 C68.739 149.945 67.706 149.946 66.641 149.946 C61.458 149.947 56.275 149.948 51.092 149.95 C8.061 149.96 -34.969 149.978 -78 150 Z " fill="currentColor" transform="translate(160,56)"/>
<path d="M0 0 C4.034 3.334 6.475 6.093 7.406 11.367 C7.707 17.418 7.308 21.08 3.305 25.793 C-1.127 30.1 -4.442 31.433 -10.57 31.98 C-16.321 31.467 -19.616 29.41 -23.383 25.168 C-26.826 21.047 -27.487 17.346 -27.41 12.082 C-26.721 7.19 -24.212 3.322 -20.32 0.316 C-13.474 -3.786 -6.901 -4.44 0 0 Z " fill="currentColor" transform="translate(173.0703125,260.33203125)"/>
<path d="M0 0 C4.593 3.656 6.652 6.587 7.477 12.312 C7.757 18.217 7.448 22.562 3.469 27.105 C-0.744 31.096 -4.67 32.15 -10.371 32.566 C-15.808 32.293 -19.544 29.831 -23.312 26.062 C-26.559 20.819 -27.362 16.65 -26.469 10.613 C-25.271 5.707 -22.783 3.094 -18.875 0.062 C-13.106 -2.89 -5.8 -2.881 0 0 Z " fill="currentColor" transform="translate(264.9375,259.5625)"/>
<path d="M0 0 C3.927 4.436 3.992 8.841 3.887 14.582 C3.184 19.44 1.092 22.428 -2.555 25.633 C-7.297 28.392 -11.105 29.302 -16.555 28.633 C-22.749 26.643 -26.475 23.33 -29.555 17.633 C-31.221 12.633 -31.131 8.346 -29.055 3.508 C-26.16 -1.798 -21.569 -4.237 -16.055 -6.305 C-9.243 -6.475 -4.952 -4.399 0 0 Z " fill="currentColor" transform="translate(360.5546875,263.3671875)"/>
<path d="M0 0 C3.292 2.693 5.841 5.432 7.75 9.25 C8.277 14.534 8.437 18.9 6 23.688 C5.257 24.533 4.515 25.379 3.75 26.25 C3.131 26.993 2.512 27.735 1.875 28.5 C-1.993 31.685 -5.705 32.479 -10.625 32.25 C-15.92 31.463 -19.681 29.22 -23.25 25.25 C-26.047 20.613 -26.564 16.373 -25.75 11.062 C-24.505 6.233 -22.985 3.579 -19.25 0.25 C-12.71 -3.559 -6.721 -3.619 0 0 Z " fill="currentColor" transform="translate(264.25,345.75)"/>
<path d="M0 0 C4.381 2.775 8.132 6.073 10 11 C10.737 16.5 11.1 22.189 8 27 C4.077 31.533 -0.641 33.663 -6.5 34.5 C-11.691 33.758 -15.968 32.208 -19.582 28.281 C-23.256 23.283 -24.517 19.311 -24 13 C-21.814 6.634 -18.568 3.141 -12.812 -0.312 C-8.356 -1.402 -4.415 -1.273 0 0 Z " fill="currentColor" transform="translate(354,344)"/>
<path d="M0 0 C5.455 2.38 8.754 6.558 11 12 C12.016 17.667 11.195 22.152 8 27 C4.687 30.94 2.089 33.021 -3 34 C-9.063 34.087 -13.256 32.972 -18 29 C-22.331 24.084 -23.418 21.138 -23.344 14.672 C-22.613 8.993 -19.421 5.387 -15.438 1.5 C-10.285 -0.748 -5.533 -0.731 0 0 Z " fill="currentColor" transform="translate(169,344)"/>
</svg>
