<?xml version="1.0" encoding="UTF-8"?>
<!-- Generator: visioncortex VTracer 0.6.12 -->
<svg viewBox="0 0 512 512" version="1.1" xmlns="http://www.w3.org/2000/svg" width="512" height="512">
<path d="M0 0 C0.507 -0.004 0.507 -0.004 3.071 -0.022 C4.183 -0.024 5.294 -0.027 6.439 -0.03 C7.024 -0.033 7.024 -0.033 9.987 -0.05 C13.87 -0.069 17.754 -0.081 21.637 -0.091 C22.975 -0.095 24.313 -0.099 25.651 -0.103 C31.938 -0.123 38.224 -0.137 44.511 -0.145 C51.762 -0.155 59.013 -0.181 66.265 -0.222 C71.873 -0.252 77.482 -0.267 83.09 -0.27 C86.439 -0.272 89.786 -0.283 93.135 -0.306 C96.872 -0.331 100.608 -0.33 104.345 -0.323 C105.45 -0.336 106.555 -0.348 107.694 -0.362 C115.099 -0.311 118.536 0.756 123.914 5.893 C124.383 6.451 124.853 7.01 125.336 7.585 C125.816 8.14 126.295 8.696 126.789 9.268 C129.52 13.224 130.336 16.833 130.353 21.592 C130.358 22.132 130.358 22.132 130.379 24.867 C130.379 25.455 130.379 25.455 130.377 28.43 C130.383 29.676 130.39 30.922 130.397 32.206 C130.413 35.617 130.419 39.028 130.42 42.44 C130.422 44.574 130.426 46.708 130.431 48.842 C130.45 56.294 130.458 63.747 130.457 71.2 C130.455 78.134 130.476 85.068 130.508 92.002 C130.534 97.965 130.545 103.929 130.544 109.893 C130.543 113.45 130.549 117.007 130.57 120.564 C130.593 124.535 130.584 128.505 130.572 132.477 C130.583 133.646 130.594 134.816 130.606 136.021 C130.55 143.258 129.802 149.254 124.639 154.664 C108.741 168.574 89.85 160.683 67.086 161.147 C67.086 219.227 67.086 277.307 67.086 337.147 C76.986 337.477 86.886 337.807 97.086 338.147 C102.086 342.147 102.086 342.147 102.934 344.296 C103.348 348.589 103.322 350.674 101.336 354.647 C99.086 357.147 99.086 357.147 96.086 358.147 C93.706 358.263 91.323 358.317 88.94 358.34 C88.216 358.348 87.492 358.356 86.746 358.365 C84.352 358.39 81.957 358.406 79.563 358.421 C78.744 358.426 77.926 358.431 77.082 358.437 C72.752 358.463 68.421 358.483 64.091 358.497 C60.508 358.511 56.925 358.538 53.342 358.579 C49.014 358.629 44.686 358.653 40.357 358.66 C38.709 358.667 37.061 358.682 35.413 358.706 C33.105 358.738 30.799 358.738 28.491 358.731 C27.179 358.739 25.866 358.747 24.514 358.755 C20.229 357.995 18.788 356.478 16.086 353.147 C14.635 350.244 14.714 348.375 15.086 345.147 C16.899 342.218 18.959 339.711 22.086 338.147 C23.752 337.995 25.423 337.898 27.094 337.831 C28.08 337.789 29.066 337.747 30.082 337.704 C31.115 337.664 32.147 337.625 33.211 337.585 C34.251 337.541 35.292 337.498 36.363 337.454 C38.937 337.348 41.512 337.246 44.086 337.147 C45.395 319.623 45.217 302.078 45.187 284.518 C45.181 280.168 45.181 275.819 45.179 271.469 C45.176 263.264 45.168 255.059 45.158 246.854 C45.147 237.499 45.141 228.145 45.136 218.79 C45.126 199.576 45.108 180.361 45.086 161.147 C44.033 161.152 42.98 161.158 41.896 161.163 C37.928 161.181 33.96 161.193 29.992 161.202 C28.286 161.207 26.581 161.214 24.875 161.223 C-5.848 161.376 -5.848 161.376 -12.914 155.147 C-17.157 150.57 -19.158 146.966 -19.188 140.709 C-19.198 139.604 -19.208 138.5 -19.218 137.361 C-19.219 136.154 -19.22 134.947 -19.22 133.703 C-19.229 132.428 -19.237 131.152 -19.246 129.839 C-19.268 126.343 -19.276 122.847 -19.281 119.35 C-19.285 117.164 -19.291 114.978 -19.298 112.791 C-19.323 105.157 -19.336 97.523 -19.34 89.888 C-19.343 82.783 -19.373 75.679 -19.415 68.574 C-19.45 62.466 -19.465 56.358 -19.466 50.25 C-19.467 46.605 -19.475 42.961 -19.504 39.317 C-19.535 35.247 -19.526 31.179 -19.513 27.109 C-19.528 25.91 -19.543 24.711 -19.558 23.475 C-19.488 15.483 -18.069 10.307 -12.365 4.596 C-8.324 1.041 -5.267 0.026 0 0 Z M1.086 22.147 C0.832 24.181 0.832 24.181 0.825 26.733 C0.818 27.699 0.811 28.665 0.804 29.661 C0.806 30.724 0.809 31.788 0.811 32.883 C0.806 34 0.801 35.118 0.796 36.269 C0.782 39.977 0.783 43.685 0.785 47.393 C0.781 49.962 0.777 52.53 0.772 55.098 C0.765 60.488 0.765 65.877 0.77 71.267 C0.776 77.499 0.764 83.731 0.743 89.964 C0.723 95.956 0.72 101.948 0.723 107.939 C0.723 110.491 0.718 113.042 0.708 115.594 C0.695 119.156 0.702 122.719 0.714 126.282 C0.706 127.343 0.698 128.405 0.691 129.498 C0.698 130.467 0.705 131.436 0.712 132.434 C0.712 133.277 0.711 134.119 0.711 134.988 C1.181 137.696 1.85 138.572 4.086 140.147 C6.074 140.525 6.074 140.525 8.382 140.528 C9.258 140.537 10.134 140.545 11.037 140.554 C11.996 140.548 12.954 140.542 13.942 140.535 C14.953 140.541 15.965 140.546 17.007 140.551 C20.358 140.565 23.708 140.556 27.059 140.546 C29.381 140.548 31.704 140.551 34.027 140.554 C38.896 140.559 43.766 140.552 48.636 140.538 C54.89 140.521 61.143 140.531 67.397 140.549 C72.194 140.56 76.99 140.556 81.786 140.549 C84.093 140.547 86.399 140.549 88.706 140.556 C91.924 140.564 95.142 140.552 98.36 140.535 C98.84 140.538 98.84 140.538 101.27 140.554 C102.144 140.545 103.017 140.537 103.917 140.528 C104.298 140.528 104.298 140.528 106.224 140.525 C108.086 140.147 108.086 140.147 110.086 137.147 C110.338 134.988 110.338 134.988 110.34 132.434 C110.346 131.465 110.351 130.496 110.357 129.498 C110.353 128.437 110.349 127.375 110.345 126.282 C110.348 125.163 110.352 124.044 110.355 122.891 C110.364 119.183 110.358 115.476 110.352 111.768 C110.353 109.199 110.355 106.63 110.357 104.061 C110.36 98.673 110.356 93.285 110.347 87.897 C110.336 81.664 110.339 75.431 110.35 69.198 C110.361 63.206 110.359 57.213 110.354 51.221 C110.352 48.669 110.354 46.117 110.359 43.564 C110.364 40.004 110.356 36.444 110.345 32.883 C110.349 31.82 110.353 30.756 110.357 29.661 C110.351 28.695 110.346 27.729 110.34 26.733 C110.339 25.891 110.338 25.049 110.338 24.181 C110.086 22.147 110.086 22.147 108.086 20.147 C106.206 19.895 106.206 19.895 103.873 19.893 C102.989 19.888 102.106 19.882 101.196 19.876 C100.224 19.88 99.253 19.884 98.252 19.888 C97.231 19.885 96.21 19.881 95.157 19.878 C91.769 19.869 88.381 19.875 84.992 19.882 C82.646 19.88 80.299 19.878 77.953 19.876 C73.03 19.873 68.107 19.877 63.184 19.886 C56.862 19.898 50.54 19.891 44.218 19.879 C39.371 19.872 34.524 19.874 29.677 19.88 C27.345 19.881 25.014 19.879 22.682 19.875 C19.428 19.87 16.174 19.877 12.92 19.888 C11.948 19.884 10.977 19.88 9.976 19.876 C9.534 19.879 9.534 19.879 7.299 19.893 C6.914 19.894 6.914 19.894 4.966 19.895 C3.086 20.147 3.086 20.147 1.086 22.147 Z " fill="currentColor" transform="translate(325.9140167236328,75.85282897949219)"/>
<path d="M0 0 C0.773 -0.008 1.545 -0.016 2.341 -0.024 C3.982 -0.038 5.623 -0.049 7.264 -0.057 C8.928 -0.068 10.592 -0.089 12.256 -0.118 C23.145 -0.313 31.605 0.084 41.094 5.988 C47.556 12.635 49.769 19.604 50.594 28.676 C49.893 36.66 47.58 44.262 41.562 49.828 C33.81 56.119 26.041 57.723 16.219 57.426 C15.353 57.412 14.488 57.399 13.596 57.385 C11.491 57.35 9.386 57.296 7.281 57.238 C7.255 58.468 7.23 59.698 7.203 60.965 C7.147 62.598 7.089 64.231 7.031 65.863 C7.024 66.267 7.024 66.267 6.988 68.312 C6.763 73.848 5.866 76.966 2.281 81.238 C-0.938 82.848 -4.238 82.845 -7.719 82.238 C-10.938 79.704 -12.423 78.125 -13.719 74.238 C-13.828 72.108 -13.878 69.975 -13.896 67.843 C-13.902 67.198 -13.909 66.554 -13.916 65.89 C-13.935 63.76 -13.947 61.63 -13.957 59.5 C-13.961 58.771 -13.965 58.042 -13.969 57.291 C-13.99 53.433 -14.005 49.574 -14.014 45.716 C-14.025 41.738 -14.059 37.761 -14.099 33.783 C-14.125 30.717 -14.134 27.652 -14.137 24.587 C-14.142 23.121 -14.154 21.655 -14.172 20.189 C-14.197 18.133 -14.196 16.078 -14.189 14.022 C-14.195 12.854 -14.2 11.686 -14.206 10.483 C-13.612 6.527 -12.188 4.347 -9.719 1.238 C-6.638 -0.302 -3.384 0.034 0 0 Z M6.281 19.238 C6.281 25.178 6.281 31.118 6.281 37.238 C14.169 38.816 21.183 39.439 28.281 35.238 C30.344 32.988 30.344 32.988 31.281 30.238 C30.726 26.281 29.977 23.998 27.27 21.039 C23.102 18.528 19.723 18.795 14.969 18.988 C12.102 19.071 9.235 19.153 6.281 19.238 Z " fill="currentColor" transform="translate(363.71875,114.76171875)"/>
<path d="M0 0 C1.115 -0.007 2.231 -0.014 3.38 -0.021 C7.033 -0.039 10.686 -0.027 14.34 -0.014 C16.899 -0.016 19.457 -0.02 22.016 -0.025 C27.365 -0.031 32.714 -0.023 38.063 -0.004 C44.221 0.018 50.377 0.011 56.534 -0.011 C62.493 -0.032 68.451 -0.029 74.409 -0.018 C76.929 -0.015 79.448 -0.018 81.968 -0.028 C85.497 -0.038 89.025 -0.022 92.555 0 C93.069 -0.004 93.069 -0.004 95.669 -0.025 C109.472 0.135 119.004 5.94 128.465 15.58 C131.461 19.137 133.348 22.556 135.129 26.846 C135.255 27.148 135.255 27.148 135.895 28.68 C139.135 36.485 142.203 44.363 145.254 52.243 C146.019 54.216 146.794 56.185 147.57 58.154 C148.019 59.306 148.468 60.458 148.93 61.645 C150.952 65.957 153.158 67.593 157.34 69.643 C168.085 75.515 174.458 83.112 178.318 94.619 C179.521 98.903 179.573 103.021 179.568 107.447 C179.575 108.313 179.581 109.179 179.588 110.071 C179.607 112.917 179.611 115.762 179.613 118.607 C179.62 120.596 179.626 122.585 179.633 124.573 C179.645 128.735 179.649 132.897 179.648 137.058 C179.648 142.379 179.675 147.699 179.709 153.02 C179.732 157.125 179.736 161.23 179.735 165.335 C179.737 167.296 179.746 169.257 179.761 171.218 C179.781 173.965 179.775 176.711 179.763 179.459 C179.774 180.261 179.786 181.062 179.797 181.888 C179.725 188.41 177.774 193.503 173.602 198.541 C165.66 205.099 157.294 205.259 147.277 204.518 C141.625 203.375 137.253 200.679 133.277 196.518 C131.096 192.317 130.205 188.156 129.277 183.518 C74.497 183.518 19.717 183.518 -36.723 183.518 C-37.713 187.148 -38.703 190.778 -39.723 194.518 C-43.191 200.128 -47.383 203.009 -53.723 204.518 C-62.309 205.531 -72.585 206.107 -79.723 200.518 C-85.474 194.423 -86.867 189.501 -86.991 181.213 C-87 180.79 -87 180.79 -87.041 178.645 C-87.093 175.834 -87.137 173.024 -87.18 170.213 C-87.195 169.25 -87.21 168.287 -87.225 167.295 C-87.305 162.19 -87.377 157.085 -87.445 151.98 C-87.516 146.734 -87.611 141.488 -87.712 136.242 C-87.785 132.188 -87.839 128.133 -87.889 124.078 C-87.916 122.146 -87.95 120.215 -87.991 118.283 C-88.29 103.863 -88.01 90.749 -77.723 79.518 C-77.21 78.914 -76.697 78.311 -76.168 77.689 C-71.534 72.59 -65.974 69.348 -59.723 66.518 C-59.063 66.518 -58.403 66.518 -57.723 66.518 C-57.609 65.834 -57.496 65.15 -57.38 64.446 C-56.149 58.961 -53.883 53.785 -51.85 48.555 C-51.048 46.489 -50.257 44.418 -49.467 42.348 C-43.298 26.325 -37.082 10.996 -20.406 3.472 C-13.437 0.737 -7.449 -0.059 0 0 Z M86.655 20.529 C74.973 20.565 63.292 20.623 51.611 20.701 C45.623 20.741 39.636 20.773 33.648 20.789 C27.843 20.804 22.039 20.838 16.234 20.886 C14.027 20.901 11.821 20.909 9.614 20.909 C6.524 20.912 3.436 20.939 0.346 20.972 C-0.559 20.967 -1.463 20.962 -2.395 20.956 C-9.798 21.077 -15.464 23.106 -20.824 28.311 C-24.863 33.433 -26.991 39.717 -29.302 45.753 C-30.104 47.848 -30.925 49.934 -31.75 52.02 C-35.723 62.156 -35.723 62.156 -35.723 64.518 C18.067 64.518 71.857 64.518 127.277 64.518 C125.963 58.601 124.664 53.233 122.527 47.643 C122.266 46.956 122.004 46.27 121.734 45.563 C114.359 26.695 114.359 26.695 105.145 22.561 C98.939 20.257 93.211 20.516 86.655 20.529 Z M-6.992 84.54 C-12.964 84.559 -18.934 84.605 -24.905 84.672 C-27.123 84.694 -29.341 84.707 -31.558 84.713 C-34.594 84.722 -37.628 84.762 -40.664 84.811 C-41.102 84.809 -41.102 84.809 -43.32 84.799 C-51.004 84.98 -57.736 87.53 -63.223 93.018 C-65.979 97.612 -66.973 101.21 -66.966 106.577 C-66.969 107.775 -66.972 108.972 -66.975 110.206 C-66.968 111.49 -66.961 112.773 -66.953 114.096 C-66.952 115.431 -66.951 116.767 -66.952 118.103 C-66.95 120.893 -66.942 123.684 -66.928 126.475 C-66.911 130.058 -66.908 133.642 -66.908 137.225 C-66.908 140.641 -66.899 144.056 -66.891 147.471 C-66.89 148.762 -66.888 150.054 -66.887 151.385 C-66.881 152.57 -66.874 153.755 -66.868 154.976 C-66.864 156.024 -66.86 157.073 -66.856 158.153 C-66.723 160.518 -66.723 160.518 -65.723 161.518 C-62.857 161.62 -60.016 161.656 -57.15 161.651 C-56.695 161.652 -56.695 161.652 -54.392 161.658 C-51.318 161.665 -48.244 161.664 -45.17 161.663 C-42.976 161.666 -40.782 161.669 -38.588 161.673 C-32.611 161.682 -26.634 161.684 -20.657 161.685 C-15.676 161.686 -10.696 161.689 -5.716 161.693 C5.358 161.701 16.431 161.704 27.504 161.703 C28.169 161.703 28.834 161.703 29.519 161.703 C29.852 161.703 29.852 161.703 31.536 161.703 C42.331 161.702 53.125 161.712 63.92 161.726 C74.992 161.74 86.064 161.747 97.135 161.746 C103.356 161.746 109.577 161.749 115.798 161.76 C121.646 161.769 127.494 161.769 133.342 161.762 C135.494 161.761 137.646 161.763 139.798 161.769 C142.724 161.777 145.651 161.773 148.578 161.765 C149.008 161.767 149.008 161.767 151.187 161.78 C157.049 161.746 157.049 161.746 159.277 159.518 C159.545 157.218 159.545 157.218 159.568 154.309 C159.581 153.22 159.593 152.131 159.607 151.009 C159.609 149.826 159.611 148.643 159.613 147.424 C159.62 146.207 159.627 144.991 159.633 143.738 C159.644 141.155 159.648 138.573 159.648 135.99 C159.652 132.061 159.689 128.134 159.727 124.205 C159.732 121.695 159.736 119.184 159.738 116.674 C159.745 116.09 159.745 116.09 159.782 113.137 C159.739 105.316 158.978 97.621 153.527 91.577 C148.142 86.601 143.249 85.274 135.935 85.199 C135.572 85.194 135.572 85.194 133.734 85.168 C131.318 85.137 128.903 85.12 126.488 85.104 C124.774 85.085 123.059 85.065 121.344 85.045 C116.737 84.992 112.13 84.953 107.523 84.916 C103.685 84.885 99.847 84.846 96.01 84.808 C83.766 84.688 71.522 84.595 59.277 84.518 C58.494 84.513 57.71 84.508 56.903 84.502 C39.173 84.391 21.445 84.383 3.716 84.498 C0.146 84.518 -3.423 84.53 -6.992 84.54 Z M-60.723 182.518 C-60.723 183.178 -60.723 183.838 -60.723 184.518 C-60.063 184.518 -59.403 184.518 -58.723 184.518 C-58.723 183.858 -58.723 183.198 -58.723 182.518 C-59.383 182.518 -60.043 182.518 -60.723 182.518 Z " fill="currentColor" transform="translate(142.72265625,230.482421875)"/>
<path d="M0 0 C1.038 -0.037 2.075 -0.075 3.145 -0.113 C11.75 -0.212 11.75 -0.212 15.422 2.773 C18.162 5.835 18.678 6.61 19.062 10.688 C18.698 14.994 17.81 16.4 14.75 19.375 C10.052 22.241 5.223 21.743 -0.125 21.75 C-1.106 21.774 -2.087 21.799 -3.098 21.824 C-9.127 21.849 -12.681 21.431 -17.25 17.375 C-18.986 13.902 -18.852 10.163 -18.25 6.375 C-12.859 -0.434 -8.125 0.109 0 0 Z " fill="currentColor" transform="translate(111.25,344.625)"/>
<path d="M0 0 C1.094 -0.029 2.188 -0.058 3.314 -0.088 C11.399 -0.152 11.399 -0.152 15.363 2.184 C18.244 5.545 19.218 7.866 19.125 12.312 C17.947 16.083 16.163 17.772 13.188 20.312 C9.338 22.237 4.61 21.541 0.375 21.562 C-0.623 21.583 -1.622 21.604 -2.65 21.625 C-9.087 21.659 -12.798 21.119 -17.625 16.625 C-19.373 13.22 -19.618 10.001 -18.812 6.312 C-13.209 -0.618 -8.363 0.073 0 0 Z " fill="currentColor" transform="translate(266.8125,344.6875)"/>
</svg>
