<?xml version="1.0" encoding="UTF-8"?>
<!-- Generator: visioncortex VTracer 0.6.12 -->
<svg viewBox="0 0 512 512" version="1.1" xmlns="http://www.w3.org/2000/svg" width="512" height="512">
<path d="M0 0 C8.044 3.093 14.551 8.131 20.188 14.562 C20.484 14.897 20.484 14.897 21.984 16.59 C23.535 18.445 24.93 20.29 26.328 22.254 C28.964 25.765 31.38 28.456 35 31 C39.934 31.376 44.153 30.402 48.945 29.342 C52.278 28.787 55.461 29.085 58.812 29.375 C60.038 29.47 61.264 29.566 62.527 29.664 C64.713 29.875 66.895 30.135 69.066 30.461 C72.046 30.768 74.121 30.85 77 30 C80.586 26.747 83.197 22.926 86 19 C92.868 11.141 103.131 1.227 113.781 -0.434 C119.649 -0.442 123.54 -0.237 128 4 C130.91 8.897 132.019 13.727 133.062 19.25 C133.147 19.693 133.147 19.693 133.577 21.936 C135.604 32.842 136.944 43.619 137.164 54.719 C137.598 76.498 137.598 76.498 141.26 87.23 C144.023 96.019 146.23 112.54 142 121 C143.217 120.959 144.434 120.918 145.688 120.875 C149.243 120.894 151.884 121.13 155 123 C157.191 125.703 158.042 127.125 157.875 130.625 C156.886 133.309 156.383 134.412 154 136 C148.688 137.169 143.409 137.11 138 137 C137.34 138.114 136.68 139.227 136 140.375 C135.629 141.001 135.257 141.628 134.875 142.273 C134 144 134 144 134 146 C135.109 146.459 136.217 146.918 137.359 147.391 C138.823 148.01 140.287 148.63 141.75 149.25 C142.48 149.55 143.209 149.851 143.961 150.16 C151.541 153.399 151.541 153.399 154 157 C154.064 158.297 154.129 159.594 154.195 160.93 C154.419 163.655 154.599 164.644 156.671 166.485 C159.023 167.848 161.398 169.005 163.875 170.125 C165.624 170.979 167.373 171.833 169.121 172.688 C169.967 173.087 170.812 173.487 171.683 173.898 C191.422 183.283 211.256 197.271 225.375 214.07 C226.409 215.298 227.469 216.504 228.562 217.68 C239.262 229.253 247.635 242.633 254 257 C254.138 257.308 254.138 257.308 254.834 258.865 C260.699 272.172 265.075 286.563 267 301 C267.111 301.821 267.222 302.642 267.336 303.488 C269.494 323.641 268.098 343.382 263.562 363.062 C263.46 363.509 263.46 363.509 262.941 365.77 C261.787 370.535 260.427 374.691 258 379 C275.927 371.022 288.695 358.396 296 340 C297.606 335.069 298.85 330.055 300 325 C300.088 324.623 300.088 324.623 300.533 322.717 C303.473 305.618 301.943 285.489 297 269 C296.901 268.647 296.901 268.647 296.399 266.861 C291.541 249.751 283.645 233.53 275.188 217.938 C262.983 195.391 255.789 170.359 263 145 C268.582 130.461 278.415 119.651 292.312 112.625 C298.281 110.203 307.085 107.606 313.305 109.82 C315.801 111.557 316.798 113.216 318 116 C318 119.063 318 119.063 317 122 C313.347 125.581 310.727 126.497 305.688 126.938 C299.627 127.73 295.691 129.107 291 133 C290.693 133.253 290.693 133.253 289.137 134.531 C280.159 142.683 277.807 152.806 276.781 164.492 C276.015 183.977 285.835 201.95 294.382 218.797 C312.602 254.721 327.208 297.61 314.685 337.971 C306.51 362.204 292.242 380.506 269.348 392.375 C250.349 401.534 229.072 401.302 208.429 401.291 C206.223 401.297 204.016 401.303 201.81 401.311 C195.875 401.328 189.94 401.333 184.004 401.335 C180.29 401.336 176.577 401.34 172.863 401.346 C159.225 401.365 145.587 401.372 131.949 401.37 C121.212 401.37 110.474 401.389 99.737 401.417 C88.675 401.446 77.614 401.459 66.553 401.458 C60.357 401.457 54.161 401.463 47.965 401.484 C42.148 401.503 36.332 401.504 30.516 401.489 C28.384 401.487 26.253 401.492 24.121 401.504 C21.208 401.519 18.296 401.51 15.383 401.494 C14.543 401.505 13.703 401.515 12.838 401.526 C6.547 401.452 1.185 399.94 -3.529 395.588 C-9.184 389.177 -9.532 382.902 -9.312 374.668 C-8.907 369.909 -7.827 366.804 -5 363 C-4.541 362.376 -4.082 361.752 -3.609 361.109 C-1.151 358.03 0.447 356.231 4.168 354.676 C7.6 351.433 7.454 350.547 7.621 345.965 C7.592 343.284 7.529 340.616 7.438 337.938 C7.407 336.462 7.38 334.987 7.354 333.512 C7.294 330.21 7.214 326.91 7.126 323.609 C7 318.537 6.952 313.466 6.918 308.393 C6.887 303.882 6.837 299.372 6.785 294.861 C6.762 292.647 6.744 290.432 6.731 288.218 C6.647 275.994 5.931 264.694 2.93 252.828 C1.726 247.871 1.195 243.085 1 238 C0.962 237.01 0.924 236.019 0.885 234.999 C0.363 216.219 2.045 199.867 8.012 182.098 C9 179 9 179 9 177 C7.437 175.936 5.821 174.951 4.188 174 C-1.495 170.535 -5.918 166.522 -10.59 161.844 C-11.385 161.235 -12.181 160.627 -13 160 C-16.028 160.458 -18.865 161.625 -21.738 162.664 C-22.641 162.981 -23.544 163.298 -24.475 163.625 C-26.359 164.289 -28.239 164.963 -30.115 165.648 C-35.564 167.538 -39.376 168.547 -45 167 C-47.82 164.635 -47.979 163.172 -48.438 159.5 C-47.906 155.251 -47.327 154.6 -44 152 C-41.049 150.682 -38.021 149.71 -34.938 148.75 C-34.122 148.482 -33.307 148.214 -32.467 147.938 C-26.452 146 -26.452 146 -23 146 C-24.65 142.7 -26.3 139.4 -28 136 C-29.299 136.165 -30.599 136.33 -31.938 136.5 C-44.347 137.809 -44.347 137.809 -49.062 135.5 C-51.095 132.878 -51.354 132.112 -51.5 128.938 C-51 125 -51 125 -49.688 123.062 C-45.82 120.627 -42.254 120.897 -37.812 120.938 C-37.176 120.942 -37.176 120.942 -33.957 120.965 C-32.981 120.976 -32.005 120.988 -31 121 C-31.33 120.01 -31.66 119.02 -32 118 C-32.907 103.746 -31.535 89.604 -27 76 C-26.812 73.204 -26.672 70.424 -26.57 67.625 C-26.496 65.898 -26.422 64.172 -26.348 62.445 C-26.236 59.75 -26.127 57.054 -26.026 54.358 C-24.382 11.382 -24.382 11.382 -14 1 C-9.731 -1.135 -4.622 -0.578 0 0 Z M-4 16 C-6.246 20.851 -7.759 25.466 -8.664 30.75 C-8.727 31.116 -8.727 31.116 -9.048 32.967 C-10.548 42.398 -10.418 51.89 -10.36 61.416 C-10.322 72.052 -11.4 81.166 -14.831 91.266 C-16.434 96.385 -17.231 101.264 -16.879 106.621 C-16.831 107.411 -16.782 108.2 -16.732 109.014 C-16.676 109.814 -16.62 110.613 -16.562 111.438 C-16.51 112.264 -16.458 113.091 -16.404 113.943 C-16.276 115.963 -16.139 117.981 -16 120 C-12.103 121.028 -8.358 121.294 -4.34 121.523 C-1.604 122.081 -0.708 122.837 1 125 C2.275 127.731 2.068 128.792 1.125 131.688 C-1.752 134.819 -4.021 134.714 -8.137 134.957 C-8.752 134.971 -9.366 134.985 -10 135 C-9.34 136.65 -8.68 138.3 -8 140 C-7.325 139.881 -6.649 139.763 -5.953 139.641 C1.312 138.591 1.312 138.591 4.625 140.562 C6.374 143.663 6.523 145.491 6 149 C4.5 150.875 4.5 150.875 3 152 C6.365 159.824 15.51 163.854 23 167 C23.66 167 24.32 167 25 167 C26.071 172.447 26.292 175.946 24.188 181.121 C18.454 196.139 16.536 211.879 16.438 227.875 C16.423 229.096 16.408 230.317 16.394 231.575 C16.47 238.617 17.349 245.035 18.957 251.852 C21.688 263.642 21.927 275.443 22.25 287.5 C22.323 289.867 22.397 292.234 22.471 294.601 C22.684 301.734 22.85 308.866 23 316 C23.024 317.106 23.048 318.212 23.073 319.351 C23.202 325.487 23.301 331.623 23.35 337.76 C23.367 339.616 23.389 341.473 23.417 343.33 C23.452 345.888 23.461 348.445 23.461 351.004 C23.475 351.747 23.489 352.491 23.504 353.256 C23.461 358.121 22.453 360.583 19 364 C17 365.188 17 365.188 15 366 C10.597 368.017 8.175 370.65 6 375 C5.726 378.149 5.661 380.305 7.06 383.171 C9.423 385.399 11.035 385.455 14.219 385.453 C14.561 385.443 14.561 385.443 16.293 385.391 C16.999 385.385 17.705 385.379 18.432 385.373 C20.685 385.351 22.936 385.301 25.188 385.25 C26.715 385.23 28.243 385.212 29.771 385.195 C33.515 385.151 37.257 385.082 41 385 C41.021 384.568 41.021 384.568 41.124 382.385 C41.812 370.874 41.812 370.874 44.688 365.5 C45.166 364.562 45.644 363.623 46.137 362.656 C48 360 48 360 51.073 357.847 C53.864 355.554 53.985 355.077 54.726 351.237 C54.746 349.753 54.733 348.268 54.694 346.785 C54.696 345.971 54.699 345.158 54.701 344.319 C54.703 342.559 54.691 340.798 54.667 339.037 C54.629 336.25 54.627 333.465 54.635 330.678 C54.644 324.764 54.605 318.851 54.562 312.938 C54.518 306.081 54.493 299.225 54.507 292.368 C54.504 289.622 54.47 286.878 54.435 284.132 C54.434 282.45 54.434 280.768 54.436 279.086 C54.418 278.322 54.4 277.559 54.381 276.773 C54.417 272.977 54.698 271.329 57.305 268.491 C60.965 266.466 63.037 266.878 67 268 C69.581 271.871 69.273 275.067 69.243 279.555 C69.245 280.428 69.247 281.302 69.249 282.201 C69.252 285.093 69.242 287.984 69.23 290.875 C69.229 292.881 69.229 294.888 69.229 296.894 C69.228 301.101 69.219 305.307 69.206 309.514 C69.189 314.911 69.185 320.308 69.186 325.705 C69.185 329.849 69.18 333.992 69.173 338.136 C69.17 340.126 69.168 342.117 69.167 344.107 C69.165 346.886 69.156 349.666 69.145 352.445 C69.146 353.271 69.146 354.097 69.147 354.949 C69.128 358.222 69.043 360.872 68 364 C67.257 364.268 66.515 364.536 65.75 364.812 C61.244 366.758 58.901 370.32 56.625 374.562 C55.881 377.465 56.102 379.156 57 382 C57.33 382.495 57.33 382.495 59 385 C61.695 385.267 64.158 385.348 66.852 385.293 C67.626 385.289 68.4 385.284 69.197 385.28 C71.673 385.263 74.149 385.226 76.625 385.188 C78.302 385.172 79.979 385.159 81.656 385.146 C85.771 385.113 89.885 385.062 94 385 C94.037 384.486 94.037 384.486 94.227 381.887 C94.96 373.655 96.23 367.876 100.623 360.735 C103.202 355.612 103.339 350.083 103.75 344.438 C103.949 342.123 104.152 339.81 104.359 337.496 C104.456 336.389 104.553 335.282 104.652 334.141 C104.968 331.292 105.442 328.572 106.051 325.773 C107.107 320.895 107.317 316.165 107.438 311.188 C108.208 292.52 113.621 275.907 127.133 262.566 C133.547 256.825 140.316 252.066 149 251 C151.438 251.75 151.438 251.75 153 253 C154.525 256.05 154.236 258.642 154 262 C151.966 264.551 150.527 265.216 147.438 266.625 C135.9 272.234 129.132 282.078 124.688 293.75 C121.121 304.36 120.847 315.234 124 326 C124.268 326.971 124.536 327.941 124.812 328.941 C126.944 336.038 129.723 341.723 135 347 C138.266 347.205 141.53 347.32 144.801 347.426 C148.539 348.097 149.796 348.943 152 352 C151.786 358.214 151.786 358.214 149 361 C146.804 361.271 146.804 361.271 144.09 361.309 C143.595 361.321 143.595 361.321 141.088 361.385 C139.015 361.419 136.942 361.451 134.869 361.479 C127.175 361.682 120.272 362.368 114.125 367.312 C110.786 371.536 108.912 374.249 109.188 379.75 C110 383 110 383 112 385 C114.051 385.257 114.051 385.257 116.628 385.267 C117.604 385.276 118.58 385.284 119.585 385.293 C120.659 385.292 121.734 385.291 122.84 385.291 C123.969 385.297 125.098 385.304 126.26 385.311 C130.01 385.33 133.759 385.334 137.508 385.336 C140.109 385.342 142.71 385.349 145.311 385.356 C150.774 385.368 156.237 385.372 161.699 385.371 C168.001 385.369 174.303 385.39 180.604 385.422 C186.674 385.451 192.744 385.459 198.814 385.457 C201.392 385.46 203.969 385.469 206.547 385.484 C210.16 385.504 213.771 385.498 217.383 385.486 C218.445 385.497 219.508 385.508 220.602 385.52 C228.126 385.456 233.041 383.989 239.137 379.387 C253.73 363.397 252.977 334.516 252.211 314.448 C250.447 285.678 240.176 258.952 223 236 C222.466 235.282 221.932 234.564 221.381 233.823 C206.728 214.516 188.249 200.268 167 189 C164.157 187.486 161.317 185.969 158.481 184.443 C156.592 183.428 154.699 182.421 152.8 181.424 C144.79 177.131 137.475 172.235 131.625 165.188 C129.442 162.577 127.864 160.909 125 159 C124.01 159 123.02 159 122 159 C120.656 160.658 119.324 162.326 118 164 C114.849 166.555 113.48 167.008 109.375 166.938 C106 166 106 166 104 164.25 C102.719 161.367 102.989 159.954 104 157 C104.66 156.34 105.32 155.68 106 155 C106 154.01 106 153.02 106 152 C104 150.312 104 150.312 102 149 C102.594 142.698 102.594 142.698 104.125 140.062 C108.564 137.547 114.222 139.068 119 140 C119.66 138.35 120.32 136.7 121 135 C120.169 134.974 119.337 134.948 118.48 134.922 C117.394 134.865 116.307 134.808 115.188 134.75 C114.109 134.704 113.03 134.657 111.918 134.609 C109 134 109 134 107.109 132.145 C106 130 106 130 106.062 126.938 C107.187 123.415 107.8 122.771 111 121 C113.812 120.63 116.432 120.4 119.25 120.312 C119.995 120.278 120.74 120.244 121.508 120.209 C123.338 120.127 125.169 120.062 127 120 C129.581 108.824 128.603 95.793 124.243 85.152 C121.488 78.224 121.57 71.324 121.518 63.987 C121.43 53.209 121.177 42.494 119.625 31.812 C119.511 31.002 119.397 30.192 119.279 29.356 C118.5 24.505 117.105 20.44 115 16 C103.628 21.807 95.565 31.199 88.23 41.48 C84.257 46.739 84.257 46.739 80.484 47.523 C77.276 47.57 74.329 47.388 71.24 46.487 C66.089 45.367 60.622 45.815 55.375 45.812 C54.141 45.8 52.908 45.788 51.637 45.775 C45.216 45.765 39.373 46.029 33.17 47.764 C30.224 48.084 28.605 47.377 26 46 C24.227 44.292 24.227 44.292 22.625 42.262 C22.032 41.524 21.439 40.786 20.828 40.025 C20.225 39.254 19.622 38.482 19 37.688 C13.997 31.385 8.912 25.6 2.875 20.25 C2.212 19.657 1.55 19.064 0.867 18.453 C-1 17 -1 17 -4 16 Z " fill="currentColor" transform="translate(123,55)"/>
<path d="M0 0 C3.025 1.736 5.418 3.836 7 7 C7.594 12.009 7.586 14.885 4.438 18.938 C2.041 21.402 0.899 22.032 -2.5 23.125 C-6.561 22.98 -8.649 22.285 -12 20 C-14.903 16.613 -15.582 13.467 -15.43 9 C-14.654 5.389 -12.609 3.547 -10 1 C-6.771 -0.614 -3.49 -0.596 0 0 Z " fill="currentColor" transform="translate(150,143)"/>
<path d="M0 0 C3.442 0.038 4.634 0.243 7.688 2.062 C11.081 5.765 11.789 7.08 11.625 12.25 C10.991 16.208 9.711 18.516 6.75 21.312 C3.815 23.012 2.145 23.329 -1.25 23.188 C-5.659 21.902 -8.272 19.957 -10.625 16 C-11.471 12.362 -11.217 9.922 -10.25 6.312 C-7.75 3.438 -7.75 3.438 -5.25 1.312 C-3.69 -0.247 -2.161 0.068 0 0 Z " fill="currentColor" transform="translate(205.25,142.6875)"/>
</svg>
