<?xml version="1.0" encoding="UTF-8"?>
<!-- Generator: visioncortex VTracer 0.6.12 -->
<svg viewBox="0 0 512 512" version="1.1" xmlns="http://www.w3.org/2000/svg" width="512" height="512">
<path d="M0 0 C0.643 -0.005 0.643 -0.005 3.899 -0.03 C5.307 -0.031 6.716 -0.032 8.124 -0.032 C9.622 -0.04 11.119 -0.048 12.616 -0.057 C16.67 -0.079 20.724 -0.088 24.778 -0.093 C27.316 -0.097 29.855 -0.103 32.393 -0.11 C41.265 -0.135 50.137 -0.148 59.009 -0.151 C67.252 -0.155 75.494 -0.185 83.737 -0.227 C90.835 -0.262 97.932 -0.277 105.03 -0.278 C109.259 -0.278 113.489 -0.287 117.719 -0.316 C121.703 -0.342 125.687 -0.344 129.671 -0.328 C131.123 -0.326 132.576 -0.333 134.028 -0.349 C151.117 -0.526 163.958 5.715 176.333 17.165 C191.127 32.267 190.136 51.745 190.038 71.456 C190.025 75.284 190.04 79.112 190.052 82.94 C190.07 90.42 190.062 97.9 190.044 105.38 C190.03 111.463 190.026 117.546 190.029 123.628 C190.03 124.497 190.03 125.365 190.031 126.26 C190.032 128.025 190.033 129.789 190.034 131.554 C190.043 147.128 190.026 162.701 189.996 178.274 C189.967 193.361 189.96 208.448 189.976 223.535 C189.992 239.995 189.996 256.455 189.979 272.916 C189.977 274.673 189.975 276.43 189.973 278.187 C189.973 279.052 189.972 279.916 189.971 280.807 C189.965 286.878 189.968 292.95 189.975 299.021 C189.983 306.426 189.976 313.83 189.951 321.235 C189.938 325.008 189.932 328.78 189.943 332.553 C189.955 336.653 189.936 340.753 189.914 344.853 C189.922 346.031 189.93 347.208 189.939 348.421 C189.792 363.238 184.64 376.476 174.399 387.274 C163.685 395.953 153.02 401.386 139.05 401.408 C137.795 401.412 136.539 401.416 135.245 401.421 C133.866 401.42 132.486 401.42 131.107 401.419 C129.645 401.422 128.182 401.426 126.72 401.43 C122.757 401.438 118.794 401.441 114.831 401.441 C112.351 401.442 109.872 401.444 107.392 401.447 C98.731 401.456 90.07 401.46 81.409 401.459 C73.353 401.459 65.297 401.469 57.242 401.485 C50.311 401.498 43.381 401.504 36.451 401.503 C32.318 401.503 28.185 401.506 24.053 401.516 C20.162 401.526 16.271 401.526 12.381 401.519 C10.959 401.518 9.538 401.52 8.117 401.526 C-8.766 401.594 -21.838 398.665 -34.351 386.614 C-43.658 376.935 -49.714 365.544 -49.732 351.835 C-49.736 350.75 -49.74 349.664 -49.744 348.545 C-49.743 347.358 -49.742 346.17 -49.741 344.947 C-49.744 343.681 -49.747 342.415 -49.75 341.111 C-49.758 337.6 -49.76 334.088 -49.761 330.577 C-49.763 326.789 -49.77 323.001 -49.777 319.212 C-49.79 310.929 -49.797 302.646 -49.801 294.362 C-49.804 289.188 -49.808 284.013 -49.812 278.838 C-49.825 264.505 -49.835 250.171 -49.838 235.837 C-49.839 234.92 -49.839 234.003 -49.839 233.058 C-49.839 232.138 -49.839 231.219 -49.84 230.272 C-49.84 228.409 -49.841 226.546 -49.841 224.683 C-49.841 223.758 -49.841 222.834 -49.842 221.882 C-49.846 206.917 -49.863 191.953 -49.886 176.988 C-49.91 161.615 -49.923 146.242 -49.924 130.869 C-49.925 122.241 -49.93 113.614 -49.948 104.986 C-49.964 97.637 -49.969 90.289 -49.961 82.94 C-49.957 79.193 -49.958 75.447 -49.972 71.701 C-49.987 67.631 -49.979 63.561 -49.968 59.49 C-49.976 58.319 -49.984 57.147 -49.993 55.94 C-49.891 38.872 -44.217 25.693 -32.601 13.274 C-24.004 5.205 -11.77 0.049 0 0 Z M33.262 21.294 C27.435 21.333 21.608 21.394 15.781 21.491 C14.042 21.518 12.304 21.538 10.566 21.552 C0.261 21.64 -8.781 22.035 -17.405 28.317 C-24.828 36.006 -27.696 41.616 -28.186 52.368 C-28.226 53.192 -28.266 54.015 -28.307 54.863 C-28.826 66.868 -28.74 78.884 -28.73 90.896 C-28.731 93.633 -28.733 96.37 -28.735 99.107 C-28.74 105.724 -28.739 112.34 -28.736 118.957 C-28.734 124.339 -28.733 129.721 -28.735 135.104 C-28.735 135.874 -28.735 136.644 -28.735 137.438 C-28.735 139.003 -28.736 140.568 -28.736 142.133 C-28.739 156.757 -28.736 171.381 -28.73 186.005 C-28.726 198.523 -28.727 211.04 -28.731 223.557 C-28.736 238.14 -28.739 252.723 -28.735 267.306 C-28.735 268.864 -28.735 270.422 -28.735 271.98 C-28.734 272.746 -28.734 273.512 -28.734 274.302 C-28.733 279.673 -28.735 285.043 -28.737 290.414 C-28.74 296.966 -28.739 303.518 -28.734 310.07 C-28.731 313.406 -28.731 316.741 -28.733 320.077 C-28.765 361.533 -28.765 361.533 -20.515 370.555 C-11.467 379.078 -4.08 379.72 8.004 379.678 C9.488 379.684 10.972 379.691 12.456 379.699 C16.473 379.717 20.489 379.716 24.506 379.71 C27.866 379.707 31.225 379.713 34.585 379.719 C42.515 379.733 50.444 379.732 58.374 379.72 C66.54 379.709 74.705 379.723 82.871 379.75 C89.895 379.772 96.92 379.778 103.944 379.773 C108.133 379.769 112.323 379.772 116.512 379.789 C120.454 379.804 124.395 379.8 128.336 379.781 C129.777 379.778 131.219 379.781 132.66 379.791 C144.157 379.869 152.16 378.12 160.677 370.196 C168.136 361.875 168.695 351.56 168.667 340.927 C168.669 340.306 168.669 340.306 168.68 337.159 C168.691 333.718 168.692 330.278 168.69 326.837 C168.69 323.122 168.701 319.407 168.71 315.692 C168.727 308.417 168.732 301.143 168.733 293.868 C168.734 287.953 168.738 282.038 168.745 276.123 C168.762 259.342 168.772 242.561 168.77 225.78 C168.77 225.328 168.77 225.328 168.77 223.04 C168.77 222.588 168.77 222.588 168.77 220.297 C168.769 205.629 168.788 190.961 168.816 176.293 C168.845 161.222 168.859 146.151 168.857 131.079 C168.856 122.622 168.862 114.165 168.883 105.708 C168.902 98.507 168.906 91.306 168.892 84.104 C168.886 80.433 168.886 76.762 168.903 73.091 C168.922 69.103 168.909 65.116 168.894 61.129 C168.904 59.979 168.914 58.829 168.925 57.644 C168.836 47.173 166.492 38.578 159.118 30.923 C152.753 24.818 145.208 21.152 136.246 21.147 C135.835 21.146 135.835 21.146 133.757 21.139 C133.31 21.14 133.31 21.14 131.049 21.145 C130.1 21.143 129.151 21.141 128.173 21.139 C125.015 21.135 121.858 21.138 118.7 21.141 C116.472 21.141 114.245 21.14 112.017 21.138 C107.317 21.137 102.616 21.139 97.916 21.144 C93.179 21.148 88.443 21.148 83.706 21.144 C66.891 21.127 50.077 21.188 33.262 21.294 Z " fill="currentColor" transform="translate(185.60073852539063,55.72584533691406)"/>
<path d="M0 0 C0.685 -0.007 1.37 -0.013 2.075 -0.02 C4.34 -0.039 6.605 -0.043 8.87 -0.045 C10.445 -0.052 12.021 -0.059 13.596 -0.066 C16.9 -0.078 20.204 -0.081 23.507 -0.08 C27.737 -0.08 31.965 -0.107 36.194 -0.142 C39.449 -0.164 42.704 -0.168 45.959 -0.167 C47.518 -0.169 49.077 -0.178 50.635 -0.194 C52.819 -0.213 55 -0.207 57.184 -0.195 C58.425 -0.198 59.666 -0.201 60.945 -0.204 C64.819 0.381 66.46 1.566 69.221 4.291 C70.957 7.761 70.681 11.496 70.221 15.291 C68.38 18.752 67.084 19.944 63.458 21.401 C57.459 22.981 51.157 22.596 45.002 22.591 C43.617 22.595 42.231 22.6 40.845 22.604 C37.951 22.612 35.056 22.611 32.161 22.606 C28.466 22.6 24.771 22.617 21.076 22.641 C18.217 22.655 15.359 22.656 12.5 22.653 C10.48 22.654 8.46 22.668 6.44 22.682 C-5.164 22.623 -5.164 22.623 -10.779 19.291 C-13.049 16.581 -13.697 14.839 -14.216 11.353 C-13.659 7.455 -12.213 5.351 -9.779 2.291 C-6.126 -0.144 -4.354 0.027 0 0 Z " fill="currentColor" transform="translate(226.77880859375,379.70947265625)"/>
</svg>
