<?xml version="1.0" encoding="UTF-8"?>
<!-- Generator: visioncortex VTracer 0.6.12 -->
<svg viewBox="0 0 512 512" version="1.1" xmlns="http://www.w3.org/2000/svg" width="512" height="512">
<path d="M0 0 C0.415 0.352 0.83 0.704 1.258 1.066 C1.477 0.849 1.477 0.849 2.586 -0.254 C12.171 -9.254 23.166 -13.705 36.258 -14.184 C37.593 -14.132 38.927 -14.047 40.258 -13.934 C41.065 -13.865 41.872 -13.797 42.703 -13.727 C55.982 -11.965 66.866 -5.211 75.258 5.066 C83.097 15.468 85.378 27.22 84.258 40.066 C82.204 53.659 75.712 63.392 66.258 73.066 C65.535 73.828 64.811 74.59 64.066 75.375 C59.394 80.198 54.437 84.495 49.199 88.691 C46.066 91.221 43.005 93.824 39.945 96.441 C34.352 101.204 28.63 105.778 22.824 110.277 C20.342 112.204 17.899 114.171 15.473 116.168 C14.851 116.674 14.229 117.18 13.588 117.701 C12.401 118.667 11.222 119.642 10.051 120.627 C6.514 123.484 3.828 124.881 -0.742 125.066 C-6.795 122.524 -11.481 118.057 -16.441 113.836 C-19.76 111.025 -23.179 108.355 -26.617 105.691 C-32.14 101.397 -37.478 96.925 -42.764 92.343 C-46.116 89.442 -49.509 86.622 -52.992 83.879 C-66.361 73.224 -76.553 62.745 -81.742 46.066 C-81.942 45.448 -82.142 44.829 -82.348 44.191 C-84.688 31.588 -82.741 18.982 -75.805 8.191 C-74.798 6.806 -73.778 5.43 -72.742 4.066 C-72.02 3.035 -71.298 2.004 -70.555 0.941 C-51.584 -20.947 -20.345 -16.301 0 0 Z M-63.742 15.066 C-69.213 23.839 -70.387 33.679 -68.129 43.82 C-64.017 55.105 -55.822 63.554 -46.742 71.066 C-45.876 71.783 -45.01 72.5 -44.117 73.238 C-42.299 74.729 -40.476 76.213 -38.648 77.691 C-35.538 80.233 -32.483 82.832 -29.43 85.441 C-22.688 91.183 -15.738 96.64 -8.742 102.066 C-7.791 102.808 -6.84 103.549 -5.859 104.312 C-3.822 105.9 -1.783 107.484 0.258 109.066 C4.667 106.205 8.829 103.146 12.945 99.879 C13.557 99.396 14.168 98.912 14.799 98.414 C26.894 88.83 38.831 78.994 50.359 68.73 C51.727 67.532 53.121 66.363 54.531 65.215 C63.228 57.963 69.303 48.644 70.574 37.223 C70.942 28.024 68.956 19.967 63.07 12.754 C57.297 6.707 50.092 1.513 41.621 0.73 C29.503 0.459 20.49 2.758 11.258 11.066 C9.008 13.691 9.008 13.691 7.258 16.066 C5.383 18.441 5.383 18.441 3.258 20.066 C-0.264 20.066 -2.071 19.616 -4.805 17.379 C-6.215 15.695 -7.562 13.958 -8.867 12.191 C-13.948 5.975 -22.63 1.508 -30.527 0.66 C-44.278 0.159 -55.005 3.824 -63.742 15.066 Z " fill="currentColor" transform="translate(254.7421875,99.93359375)"/>
<path d="M0 0 C0.866 0.577 1.733 1.155 2.625 1.75 C10.383 9.1 16.233 19.255 17 30 C17.026 30.332 17.026 30.332 17.156 32.012 C17.624 42.858 14.186 52.226 8 61 C7.582 61.625 7.165 62.25 6.734 62.895 C1.021 70.518 -8.839 75.997 -18 78 C-32.509 79.455 -44.288 77.03 -56 68 C-64.601 60.115 -70.298 49.931 -71.336 38.203 C-71.478 23.864 -67.871 13.482 -57.934 2.773 C-41.624 -12.807 -17.629 -13.125 0 0 Z M-51.25 16.188 C-56.106 23.992 -58.551 32.292 -56.457 41.348 C-53.781 50.203 -48.828 56.778 -40.711 61.266 C-33.034 64.726 -25.495 65.197 -17.375 62.938 C-9.088 59.76 -2.779 54.002 1 46 C4.23 37.387 3.661 29.34 0 21 C-4.456 13.809 -9.828 8.656 -18 6 C-31.563 2.986 -41.477 6.686 -51.25 16.188 Z " fill="currentColor" transform="translate(162,232)"/>
<path d="M0 0 C9.375 7.776 14.288 16.142 17.199 27.824 C18.535 42.917 15.162 53.807 5.715 65.691 C-1.213 73.409 -11.129 78.452 -21.438 79.027 C-35.881 79.308 -47.169 76.233 -58.051 66.137 C-67.449 56.187 -70.335 45.055 -70.109 31.711 C-69.005 17.806 -62.62 8.497 -52.27 -0.383 C-36.543 -11.805 -15.575 -11.101 0 0 Z M-50.801 17.824 C-55.475 25.682 -56.607 32.695 -55.801 41.824 C-53.697 49.948 -48.26 56.086 -41.801 61.199 C-34.393 65.212 -26.343 66.189 -18.152 64.172 C-8.799 60.819 -2.007 54.539 2.277 45.566 C4.527 38.875 4.295 30.499 1.637 23.949 C-2.595 15.988 -8.425 10.272 -16.801 6.824 C-29.963 3.605 -41.888 7.505 -50.801 17.824 Z " fill="currentColor" transform="translate(402.80078125,231.17578125)"/>
<path d="M0 0 C0.678 0.53 1.356 1.06 2.055 1.605 C2.671 2.084 3.287 2.562 3.922 3.055 C11.406 9.658 17.418 21.6 18.055 31.605 C18.326 46.623 13.46 57.772 3.215 68.539 C-5.589 76.911 -15.693 79.801 -27.508 79.918 C-28.46 79.947 -29.412 79.976 -30.393 80.006 C-41.705 80.106 -49.59 75.949 -57.945 68.605 C-58.586 68.059 -59.227 67.512 -59.887 66.949 C-68.268 59.274 -72.008 48.486 -72.902 37.336 C-73.107 24.307 -67.992 12.957 -59.086 3.574 C-42.565 -11.62 -18.207 -13.121 0 0 Z M-51.773 16.785 C-57.332 24.8 -58.915 31.888 -57.945 41.605 C-56.052 49.496 -51.742 56.169 -45.113 60.918 C-36.504 66.02 -27.955 67.139 -18.125 64.988 C-10.611 62.327 -4.415 57.691 -0.273 50.84 C4.07 41.519 4.609 33.041 1.117 23.355 C-2.638 15.32 -8.208 10.435 -16.383 7.105 C-29.068 3.125 -43.029 6.359 -51.773 16.785 Z " fill="currentColor" transform="translate(282.9453125,255.39453125)"/>
<path d="M0 0 C0.426 -0.003 0.426 -0.003 2.583 -0.017 C4.386 -0.027 6.189 -0.033 7.991 -0.037 C10.713 -0.047 13.433 -0.078 16.154 -0.109 C25.572 -0.167 34.17 0.12 43.184 3.203 C43.746 3.391 43.746 3.391 46.594 4.344 C60.408 10.122 70.5 17.517 79.23 29.559 C81.184 32.203 81.184 32.203 83.184 34.203 C83.689 33.914 83.689 33.914 86.246 32.453 C99.712 25.72 114.453 25.016 129.193 25.018 C131.349 25.016 133.506 24.997 135.662 24.979 C151.842 24.912 166.383 27.476 181.184 34.203 C181.489 33.681 181.795 33.159 182.109 32.621 C192.733 15.533 208.56 5.394 227.935 0.634 C231.81 -0.108 235.655 -0.122 239.59 -0.133 C240.473 -0.139 241.356 -0.146 242.266 -0.153 C244.128 -0.163 245.99 -0.168 247.853 -0.167 C250.648 -0.172 253.443 -0.208 256.238 -0.246 C278.513 -0.387 297.686 5.156 314.07 21.031 C326.654 34.492 332.34 50.212 332.434 68.328 C332.444 68.829 332.444 68.829 332.496 71.363 C332.501 72.324 332.506 73.284 332.512 74.273 C332.521 75.148 332.53 76.022 332.54 76.922 C332.11 79.676 331.348 80.509 329.184 82.203 C327.371 83.078 327.371 83.078 325.184 83.203 C319.517 80.87 319.517 80.87 318.184 78.203 C318.071 76.215 317.963 74.227 317.894 72.237 C317.299 55.423 313.526 41.976 301.656 29.492 C287.932 16.787 272.895 15.555 255.099 15.737 C251.992 15.766 248.886 15.757 245.779 15.744 C243.775 15.75 241.77 15.759 239.766 15.77 C238.852 15.767 237.938 15.764 236.997 15.761 C223.04 15.962 211.23 21.677 201.184 31.203 C194.08 39.504 194.08 39.504 194.312 43.309 C195.338 45.538 196.466 46.65 198.309 48.266 C211.569 61.008 215.242 77.465 215.621 95.141 C215.638 95.603 215.638 95.603 215.726 97.943 C215.767 104.545 215.767 104.545 212.852 107.836 C210.184 109.203 210.184 109.203 207.059 109.141 C204.089 108.172 203.076 107.602 201.184 105.203 C200.815 103.249 200.815 103.249 200.812 101.027 C200.805 100.617 200.805 100.617 200.769 98.539 C200.761 97.665 200.754 96.791 200.746 95.891 C200.247 79.989 196.326 66.85 184.621 55.453 C169.549 42.71 152.856 40.682 133.918 40.812 C131.122 40.828 128.328 40.812 125.533 40.793 C106.785 40.769 90.283 44.316 76.301 57.816 C68.756 66.322 63.279 77.462 63.043 88.891 C63.024 89.754 63.004 90.618 62.984 91.508 C62.951 93.304 62.932 95.101 62.93 96.898 C62.801 101.432 62.638 103.591 59.867 107.328 C57.184 109.203 57.184 109.203 53.496 109.203 C50.184 108.203 50.184 108.203 48.184 105.203 C45.805 86.593 48.643 69.271 60.184 54.203 C63.084 50.77 66.077 47.451 69.184 44.203 C66.158 33.78 58.541 26.37 49.184 21.203 C42.902 18.467 36.565 16.103 29.666 16.042 C29.221 16.037 29.221 16.037 26.973 16.013 C26.019 16.009 25.065 16.004 24.082 16 C23.586 15.997 23.586 15.997 21.077 15.983 C18.977 15.973 16.878 15.967 14.778 15.963 C11.591 15.953 8.405 15.922 5.219 15.891 C3.173 15.884 1.128 15.879 -0.918 15.875 C-1.86 15.863 -2.802 15.85 -3.773 15.838 C-16.805 15.881 -29.724 21.014 -39.254 30.016 C-50.255 42.083 -53.192 55.504 -54.046 71.37 C-54.106 72.337 -54.165 73.304 -54.227 74.301 C-54.269 75.172 -54.312 76.044 -54.356 76.942 C-54.904 79.635 -55.666 80.538 -57.816 82.203 C-61.004 83.378 -62.303 83.428 -65.441 82.056 C-67.816 80.203 -67.816 80.203 -68.448 77.682 C-68.447 76.691 -68.446 75.701 -68.445 74.68 C-68.45 73.582 -68.455 72.484 -68.46 71.354 C-68.433 70.19 -68.407 69.027 -68.379 67.828 C-68.363 66.647 -68.347 65.465 -68.331 64.248 C-68.112 55.9 -67.318 48.86 -63.816 41.203 C-63.454 40.333 -63.092 39.463 -62.719 38.566 C-55.854 23.372 -42.86 11.971 -27.816 5.203 C-23.255 3.489 -18.566 2.277 -13.816 1.203 C-13.11 1.028 -12.404 0.853 -11.676 0.673 C-7.776 0.032 -3.947 0.021 0 0 Z " fill="currentColor" transform="translate(123.81640625,316.796875)"/>
</svg>
