<?xml version="1.0" encoding="UTF-8"?>
<!-- Generator: visioncortex VTracer 0.6.12 -->
<svg viewBox="0 0 512 512" version="1.1" xmlns="http://www.w3.org/2000/svg" width="512" height="512">
<path d="M0 0 C16.432 15.197 28.63 35.305 34.75 56.812 C34.846 57.146 34.846 57.146 35.329 58.833 C38.693 71.646 39.173 84.598 39.15 97.754 C39.154 99.407 39.159 101.06 39.165 102.713 C39.178 107.158 39.179 111.602 39.177 116.047 C39.176 119.781 39.18 123.515 39.185 127.249 C39.196 136.074 39.197 144.9 39.191 153.725 C39.185 162.772 39.197 171.819 39.218 180.866 C39.236 188.683 39.242 196.5 39.239 204.317 C39.237 208.964 39.239 213.61 39.253 218.257 C39.376 262.645 33.473 299.791 1.688 333.312 C-4.361 339.136 -11.233 343.925 -18.125 348.688 C-18.535 348.976 -18.535 348.976 -20.609 350.438 C-40.361 363.325 -63.908 367.875 -87.043 367.873 C-89.356 367.875 -91.668 367.893 -93.98 367.912 C-123.249 368.026 -154.492 358.37 -176.125 337.688 C-176.125 337.027 -176.125 336.368 -176.125 335.688 C-176.678 335.468 -177.231 335.249 -177.801 335.023 C-180.851 333.27 -182.991 330.905 -185.312 328.312 C-185.553 328.045 -185.553 328.045 -186.771 326.69 C-210.534 299.911 -218.283 269.621 -218.27 234.47 C-218.273 232.861 -218.277 231.251 -218.28 229.642 C-218.289 225.298 -218.292 220.955 -218.292 216.612 C-218.293 213.889 -218.295 211.166 -218.298 208.444 C-218.307 198.919 -218.311 189.394 -218.31 179.869 C-218.31 171.033 -218.32 162.197 -218.336 153.362 C-218.349 145.741 -218.354 138.12 -218.354 130.499 C-218.354 125.963 -218.356 121.427 -218.367 116.891 C-218.377 112.618 -218.377 108.345 -218.37 104.072 C-218.368 102.518 -218.371 100.964 -218.377 99.41 C-218.496 66.915 -210.705 35.813 -189.125 10.688 C-188.844 10.347 -188.844 10.347 -187.422 8.621 C-167.303 -15.259 -136.417 -29.932 -105.559 -33 C-65.619 -36.218 -30.383 -26.218 0 0 Z M-170.188 20.875 C-192.536 47.262 -199.235 76.5 -197.125 110.688 C-195.316 112.497 -192.83 111.81 -190.421 111.817 C-189.595 111.814 -188.769 111.811 -187.918 111.808 C-187.483 111.808 -187.483 111.808 -185.28 111.81 C-182.34 111.812 -179.399 111.806 -176.459 111.801 C-174.36 111.801 -172.261 111.801 -170.163 111.801 C-164.446 111.802 -158.729 111.796 -153.013 111.789 C-147.046 111.783 -141.078 111.782 -135.111 111.781 C-123.803 111.778 -112.495 111.77 -101.186 111.76 C-88.316 111.748 -75.446 111.743 -62.575 111.738 C-36.092 111.727 -9.608 111.71 16.875 111.688 C21.859 83.55 15.439 55.356 -0.125 31.688 C-2.878 28.054 -5.876 24.878 -9.125 21.688 C-10.064 20.696 -11 19.701 -11.934 18.703 C-29.41 0.255 -53.581 -10.338 -79.012 -11.437 C-113.237 -12.275 -145.899 -5.193 -170.188 20.875 Z M-197.125 134.688 C-197.379 136.692 -197.379 136.692 -197.386 139.204 C-197.393 140.155 -197.4 141.107 -197.407 142.087 C-197.405 143.134 -197.402 144.182 -197.4 145.261 C-197.405 146.363 -197.41 147.464 -197.415 148.598 C-197.429 152.262 -197.428 155.926 -197.426 159.59 C-197.43 162.142 -197.434 164.695 -197.439 167.247 C-197.446 172.616 -197.446 177.986 -197.441 183.355 C-197.435 189.515 -197.447 195.674 -197.468 201.834 C-197.488 207.792 -197.491 213.751 -197.488 219.71 C-197.488 222.225 -197.493 224.741 -197.503 227.257 C-197.615 258.801 -193.436 288.641 -171.125 312.688 C-170.305 313.599 -169.485 314.51 -168.641 315.449 C-156.888 327.914 -142.414 336.302 -126.312 341.875 C-125.957 342 -125.957 342 -124.159 342.634 C-113.064 346.309 -101.803 347.031 -90.188 346.938 C-88.956 346.93 -87.725 346.923 -86.456 346.915 C-61.003 346.613 -38.845 338.774 -19.125 322.688 C-18.824 322.457 -18.824 322.457 -17.301 321.289 C2.028 306.171 14.218 280.756 17.235 256.851 C18.475 245.637 18.14 234.304 18.105 223.039 C18.104 220.488 18.104 217.938 18.104 215.387 C18.103 210.077 18.095 204.767 18.081 199.457 C18.065 193.32 18.06 187.182 18.061 181.045 C18.061 175.115 18.056 169.185 18.048 163.255 C18.045 160.739 18.043 158.223 18.042 155.707 C18.04 152.211 18.031 148.714 18.02 145.217 C18.021 144.174 18.021 143.131 18.022 142.057 C18.02 141.583 18.02 141.583 18.009 139.186 C18.007 138.361 18.005 137.535 18.004 136.685 C17.875 134.687 17.875 134.687 16.875 132.688 C-10.732 132.641 -38.339 132.606 -65.945 132.584 C-78.763 132.574 -91.58 132.559 -104.398 132.537 C-115.566 132.517 -126.734 132.504 -137.902 132.499 C-143.819 132.497 -149.735 132.491 -155.652 132.476 C-161.215 132.463 -166.778 132.458 -172.342 132.461 C-174.389 132.461 -176.436 132.457 -178.483 132.449 C-181.267 132.439 -184.052 132.442 -186.836 132.447 C-187.655 132.441 -188.474 132.435 -189.318 132.429 C-194.897 132.459 -194.897 132.459 -197.125 134.688 Z " fill="currentColor" transform="translate(345.125,88.3125)"/>
<path d="M0 0 C3.531 0.681 5.109 2.65 7.227 5.43 C8.55 8.076 8.383 10.106 8.419 13.069 C8.427 13.66 8.427 13.66 8.468 16.65 C8.512 22.062 8.554 27.474 8.577 32.886 C8.59 35.742 8.618 38.597 8.659 41.452 C8.718 45.565 8.735 49.676 8.75 53.789 C8.773 55.064 8.795 56.339 8.819 57.653 C8.795 67.53 8.795 67.53 5.821 71.223 C2.708 73.871 1.17 74.448 -2.777 74.672 C-6.176 74.26 -8.23 72.61 -10.773 70.43 C-13.051 67.013 -13.03 65.769 -13.048 61.752 C-13.058 60.588 -13.067 59.423 -13.077 58.223 C-13.076 56.963 -13.075 55.704 -13.074 54.406 C-13.079 53.113 -13.083 51.819 -13.087 50.487 C-13.095 47.748 -13.094 45.009 -13.089 42.271 C-13.083 38.768 -13.1 35.266 -13.123 31.763 C-13.142 28.415 -13.138 25.067 -13.137 21.719 C-13.141 21.091 -13.141 21.091 -13.165 17.915 C-13.158 16.744 -13.152 15.572 -13.146 14.366 C-13.146 13.338 -13.147 12.31 -13.148 11.251 C-12.096 3.325 -7.519 -0.22 0 0 Z " fill="currentColor" transform="translate(257.7734375,100.5703125)"/>
</svg>
