<?xml version="1.0" encoding="UTF-8"?>
<!-- Generator: visioncortex VTracer 0.6.12 -->
<svg viewBox="0 0 512 512" version="1.1" xmlns="http://www.w3.org/2000/svg" width="512" height="512">
<path d="M0 0 C0.693 0.156 1.386 0.311 2.101 0.472 C19.007 4.391 34.14 12.381 47 24 C48.031 24.763 49.062 25.526 50.125 26.312 C66.464 41.586 75.48 63.647 76.375 85.75 C76.074 100.131 70.961 115.649 60.977 126.184 C54.897 131.77 48.525 136.645 40 137 C35.919 136.093 33.559 134.275 31 131 C30.318 128.087 30.165 125.169 30 122.188 C29.632 115.616 28.545 111.583 25 106 C25 105.34 25 104.68 25 104 C24.426 103.722 23.853 103.443 23.262 103.156 C21.048 102.025 18.946 100.775 16.812 99.5 C7.734 94.494 -0.96 94.106 -10.934 96.789 C-16.647 98.696 -20.595 100.934 -25 105 C-25.66 105 -26.32 105 -27 105 C-27.248 105.557 -27.495 106.114 -27.75 106.688 C-29 109 -29 109 -30.812 111.062 C-39.318 122.484 -41.89 137.057 -40.754 151.027 C-40.304 153.739 -39.706 156.344 -39 159 C-38.742 160.036 -38.484 161.073 -38.219 162.141 C-32.514 182.895 -18.248 199.062 0.043 209.805 C5.194 212.717 10.382 215.127 16 217 C16.931 217.317 17.861 217.634 18.82 217.961 C35.666 222.755 55.681 221.522 71.68 214.391 C76.05 212.56 78.315 212.471 83 213 C85.938 214.438 85.938 214.438 88 217 C89.049 220.09 89.594 222.778 89 226 C82.182 236.056 68.626 238.611 57.27 240.868 C49.845 242.129 42.459 242.389 34.938 242.438 C33.82 242.448 32.703 242.458 31.552 242.468 C21.369 242.36 12.703 240.219 3.723 235.438 C1.735 234.388 -0.283 233.395 -2.316 232.438 C-26.576 220.933 -47.195 200.416 -56.875 175.125 C-63.381 155.157 -65.052 132.184 -56.348 112.559 C-47.713 96.165 -36.356 83.349 -18.531 76.777 C-4.269 72.397 10.761 72.82 24.375 79.312 C28.835 81.749 33.306 84.481 37 88 C37 88.66 37 89.32 37 90 C37.66 90 38.32 90 39 90 C42.898 95.279 46.26 101.036 49 107 C54.769 94.994 56.194 84.949 53 72 C52.816 71.179 52.631 70.358 52.441 69.512 C48.493 54.135 37.654 41.032 24.177 32.9 C-3.627 17.314 -36.325 14.49 -67 23 C-72.793 24.693 -78.403 26.75 -84 29 C-84.329 29.128 -84.329 29.128 -85.993 29.776 C-122.027 43.917 -149.901 70.458 -170 103 C-170.461 103.732 -170.922 104.464 -171.397 105.218 C-175.425 111.734 -178.712 118.467 -181.875 125.438 C-182.137 126.008 -182.137 126.008 -183.463 128.897 C-186.475 135.502 -189.329 142.151 -192.062 148.875 C-208.557 188.943 -237.875 222.726 -278.102 239.758 C-296.49 247.339 -296.49 247.339 -305 246 C-307.87 244.206 -309.491 243.017 -311 240 C-311.382 234.934 -311.033 232.091 -308 228 C-305.934 226.883 -305.934 226.883 -303.438 226.125 C-302.459 225.8 -301.481 225.475 -300.473 225.141 C-299.327 224.764 -298.181 224.388 -297 224 C-279.78 218.031 -264.706 210.11 -251 198 C-250.297 197.429 -249.595 196.858 -248.871 196.27 C-229.041 179.932 -216.999 154.443 -207.182 131.261 C-184.361 77.524 -149.412 32.287 -93.845 9.645 C-91.57 8.745 -89.288 7.866 -87 7 C-86.346 6.75 -85.692 6.5 -85.018 6.243 C-58.258 -3.795 -27.894 -6.569 0 0 Z " fill="currentColor" transform="translate(367,134)"/>
</svg>
