<?xml version="1.0" encoding="UTF-8"?>
<!-- Generator: visioncortex VTracer 0.6.12 -->
<svg viewBox="0 0 512 512" version="1.1" xmlns="http://www.w3.org/2000/svg" width="512" height="512">
<path d="M0 0 C17.979 16.014 24.966 37.045 30.172 59.867 C32.764 71.166 36.801 83.776 46.692 90.928 C48.493 92.009 50.314 92.989 52.188 93.938 C52.846 94.279 53.505 94.621 54.184 94.973 C65.373 100.599 76.629 101.871 88.98 102.019 C89.518 102.027 89.518 102.027 92.244 102.068 C95.794 102.12 99.344 102.164 102.895 102.207 C104.111 102.222 105.328 102.237 106.582 102.253 C113.019 102.332 119.456 102.404 125.893 102.472 C132.527 102.544 139.161 102.639 145.795 102.739 C150.91 102.812 156.026 102.867 161.142 102.916 C163.587 102.943 166.032 102.977 168.477 103.018 C171.904 103.074 175.33 103.104 178.757 103.128 C179.757 103.15 180.758 103.172 181.788 103.195 C190.943 103.21 198.781 100.72 205.535 94.379 C212.79 86.641 215.585 78.7 215.375 68.188 C215.378 67.376 215.381 66.565 215.385 65.729 C215.34 60.727 214.586 56.552 213.062 51.75 C212.424 47.523 212.773 44.34 214.688 40.438 C217.42 37.345 219.126 36.013 223.062 34.75 C229.812 34.337 234.921 36.503 240.062 40.75 C249.362 49.358 254.708 60.658 255.434 73.344 C255.927 93.116 250.44 109.521 236.825 124.167 C232.114 128.995 227.006 132.533 221.062 135.75 C222.066 141.216 223.63 146.516 225.125 151.863 C226.913 159.278 227.178 166.301 227.055 173.883 C227.037 175.844 227.02 177.805 227.004 179.766 C226.973 182.813 226.938 185.86 226.891 188.907 C226.706 201.701 226.722 213.555 231.151 225.745 C233.951 234.974 231.83 245.889 230.75 255.312 C230.614 256.523 230.478 257.734 230.338 258.981 C229.926 262.573 229.498 266.162 229.062 269.75 C228.94 270.774 228.817 271.798 228.69 272.853 C228.355 275.572 227.997 278.286 227.625 281 C227.576 281.389 227.576 281.389 227.329 283.358 C226.343 290.094 224.112 296.741 218.625 301.125 C218.069 301.586 217.514 302.048 216.941 302.523 C210.578 306.677 203.764 306.122 196.453 306.121 C194.267 306.125 192.082 306.161 189.896 306.199 C182.428 306.261 176.403 306.146 170.062 301.75 C168.223 299.934 168.223 299.934 167.125 298.188 C166.745 297.609 166.364 297.03 165.973 296.434 C163.291 291.474 163.446 286.223 164.062 280.75 C165.843 274.924 167.995 271.131 173.375 268.188 C175.453 266.844 175.453 266.844 177.062 264.75 C178.194 259.204 177.635 253.341 177.062 247.75 C177.02 247.284 177.02 247.284 176.805 244.926 C175.779 241.918 174.304 241.155 171.625 239.5 C158.413 230.73 148.606 220.151 144.062 204.75 C143.386 205.041 142.709 205.333 142.012 205.633 C104.566 221.634 58.718 237.068 18.257 221.683 C17.533 221.375 16.808 221.067 16.062 220.75 C16.011 221.711 15.96 222.671 15.907 223.661 C15.347 233.652 14.436 243.565 13.25 253.5 C13.163 254.235 13.075 254.971 12.985 255.729 C11.915 264.645 10.787 273.546 9.125 282.375 C8.992 283.13 8.859 283.885 8.721 284.663 C7.045 292.831 2.825 298.96 -3.938 303.75 C-9.854 306.702 -16.208 306.085 -22.657 306.066 C-24.865 306.063 -27.072 306.086 -29.279 306.111 C-30.695 306.114 -32.111 306.114 -33.527 306.113 C-34.805 306.116 -36.082 306.119 -37.398 306.122 C-42.75 305.559 -46.734 303.564 -50.188 299.438 C-54.058 294.594 -55.371 290.085 -55.191 283.832 C-54.475 277.958 -52.058 272.989 -47.938 268.75 C-46.916 268.195 -45.894 267.639 -44.842 267.067 C-41.938 264.75 -41.938 264.75 -41.225 261.423 C-41.234 260.764 -41.234 260.764 -41.281 257.426 C-41.284 256.7 -41.287 255.973 -41.289 255.225 C-41.307 252.836 -41.37 250.451 -41.438 248.062 C-41.467 246.397 -41.495 244.732 -41.521 243.067 C-41.601 238.791 -41.726 234.517 -41.863 230.242 C-41.934 227.855 -41.987 225.47 -42.031 223.083 C-42.353 206.775 -43.443 192.564 -50.965 177.805 C-57.305 164.406 -59.765 148.052 -61.875 133.5 C-62.987 126.317 -65.497 119.57 -67.938 112.75 C-72.726 111.985 -77.352 111.608 -82.199 111.539 C-83.58 111.511 -84.961 111.482 -86.342 111.453 C-88.476 111.412 -90.61 111.375 -92.745 111.349 C-108.308 111.139 -121.323 108.933 -133.188 98.125 C-142.826 87.94 -145.402 75.833 -145.188 62.316 C-144.673 54.977 -142.129 50.063 -136.938 44.75 C-130.949 39.66 -122.64 37.604 -115.012 36.219 C-112.321 35.677 -110.291 35.169 -107.938 33.75 C-106.473 31.176 -105.717 28.698 -104.906 25.852 C-100.277 11.029 -88.904 0.027 -75.678 -7.347 C-52.345 -19.452 -20.631 -16.011 0 0 Z M-83.609 14.332 C-90.103 21.211 -94.006 30.345 -96.004 39.496 C-97.389 42.841 -99.099 44.507 -101.938 46.75 C-104.769 47.461 -107.258 47.928 -110.125 48.25 C-117.655 49.335 -125.519 50.662 -130.652 56.801 C-133.453 61.049 -133.413 65.786 -132.938 70.75 C-130.641 81.693 -125.405 88.107 -116.5 94.5 C-110.323 97.513 -104.127 98.039 -97.379 98.059 C-95.76 98.084 -94.141 98.109 -92.521 98.135 C-90.009 98.163 -87.497 98.188 -84.985 98.206 C-63.814 98.395 -63.814 98.395 -58.297 103.17 C-52.466 109.947 -50.866 122.191 -48.938 130.75 C-18.734 129.265 9.323 113.897 31.062 93.75 C29.77 90.866 28.403 88.878 26.062 86.75 C25.615 87.353 25.168 87.957 24.707 88.578 C24.102 89.377 23.498 90.177 22.875 91 C22.579 91.394 22.579 91.394 21.082 93.391 C14.727 100.816 5.66 104.602 -3.938 105.75 C-14.176 106.192 -23.117 103.382 -30.938 96.75 C-38.291 89.966 -42.488 81.315 -43.085 71.271 C-43.095 70.403 -43.104 69.535 -43.115 68.64 C-43.121 68.145 -43.121 68.145 -43.153 65.637 C-43.161 64.579 -43.168 63.52 -43.176 62.43 C-43.184 61.334 -43.192 60.238 -43.2 59.11 C-43.214 56.798 -43.225 54.487 -43.233 52.175 C-43.25 48.631 -43.294 45.087 -43.338 41.543 C-43.348 39.297 -43.357 37.051 -43.363 34.805 C-43.381 33.742 -43.398 32.68 -43.416 31.585 C-43.413 30.6 -43.41 29.616 -43.407 28.601 C-43.413 27.735 -43.419 26.868 -43.425 25.975 C-42.938 23.75 -42.938 23.75 -41.107 21.904 C-38.938 20.75 -38.938 20.75 -35.75 21.438 C-32.938 22.75 -32.938 22.75 -31.938 24.75 C-31.834 26.275 -31.792 27.804 -31.78 29.332 C-31.77 30.284 -31.759 31.236 -31.749 32.217 C-31.741 33.25 -31.734 34.283 -31.727 35.348 C-31.698 37.533 -31.67 39.719 -31.641 41.904 C-31.599 45.351 -31.563 48.799 -31.536 52.246 C-31.508 55.572 -31.462 58.897 -31.414 62.223 C-31.411 63.242 -31.408 64.261 -31.404 65.311 C-31.261 73.701 -30.097 81.59 -23.938 87.75 C-18.126 92.835 -10.806 93.963 -3.254 93.633 C4.006 92.523 10.151 89.45 14.734 83.625 C19.964 74.694 19.051 65.025 16.67 55.312 C12.983 41.657 8.212 25.99 -1.938 15.75 C-2.529 15.133 -3.121 14.515 -3.73 13.879 C-25.447 -6.942 -62.266 -5.864 -83.609 14.332 Z M226.062 47.75 C226.207 48.407 226.351 49.065 226.5 49.742 C229.731 66.299 229.692 82.356 220.062 96.75 C214.127 105.163 204.402 112.714 194.062 114.75 C192.487 114.842 190.908 114.885 189.33 114.89 C188.856 114.893 188.856 114.893 186.456 114.908 C185.421 114.909 184.387 114.91 183.322 114.911 C182.774 114.914 182.774 114.914 180.004 114.926 C176.373 114.941 172.743 114.948 169.113 114.953 C166.581 114.959 164.05 114.965 161.518 114.97 C156.879 114.98 152.24 114.986 147.601 114.989 C140.815 114.993 134.029 115.011 127.243 115.04 C121.335 115.064 115.428 115.072 109.521 115.074 C107.025 115.077 104.53 115.085 102.035 115.098 C79.604 115.208 59.729 113.692 40.062 101.75 C39.694 102.177 39.325 102.603 38.945 103.043 C28.164 114.663 14.299 123.451 -0.082 129.912 C-1.849 130.71 -3.597 131.549 -5.344 132.391 C-17.819 138.162 -31.272 141.475 -44.938 142.75 C-46.547 147.784 -45.318 152.08 -44.125 157.062 C-43.91 157.994 -43.695 158.926 -43.473 159.886 C-42.229 164.873 -40.742 169.423 -38.445 174.027 C-29.186 192.606 -29.116 210.698 -28.961 231.058 C-28.937 233.762 -28.898 236.465 -28.854 239.169 C-28.773 244.321 -28.72 249.473 -28.688 254.625 C-28.682 255.427 -28.676 256.228 -28.67 257.054 C-28.658 259.305 -28.662 261.554 -28.672 263.805 C-28.674 265.078 -28.676 266.352 -28.679 267.664 C-28.938 270.75 -28.938 270.75 -30.938 273.75 C-32.777 274.742 -32.777 274.742 -34.875 275.625 C-38.571 277.396 -40.428 278.788 -41.938 282.75 C-42.34 286.038 -42.355 287.958 -40.804 290.9 C-38.159 293.522 -36.373 293.267 -32.695 293.281 C-32.08 293.284 -32.08 293.284 -28.965 293.297 C-27.677 293.281 -26.389 293.266 -25.062 293.25 C-23.782 293.265 -22.502 293.281 -21.184 293.297 C-20.567 293.294 -20.567 293.294 -17.445 293.281 C-16.318 293.277 -15.19 293.272 -14.028 293.268 C-10.243 292.634 -8.614 291.465 -5.938 288.75 C-1.733 280.904 -1.598 270.364 -0.5 261.625 C-0.285 259.97 -0.07 258.316 0.146 256.661 C1.308 247.598 2.312 238.527 3.168 229.43 C3.255 228.51 3.343 227.59 3.432 226.643 C3.854 222.171 4.256 217.698 4.631 213.222 C4.777 211.601 4.923 209.98 5.07 208.359 C5.126 207.615 5.183 206.871 5.24 206.105 C5.434 204.046 5.434 204.046 6.062 200.75 C9.284 198.602 10.322 198.189 14.062 198.75 C17.209 201.672 17.454 204.634 18.062 208.75 C21.207 209.402 24.353 210.046 27.5 210.688 C28.378 210.87 29.257 211.052 30.162 211.24 C66.838 218.684 103.559 208.773 137.062 193.75 C138.053 193.09 139.043 192.43 140.062 191.75 C140.75 188.125 140.75 188.125 141.062 184.75 C143.702 184.42 146.342 184.09 149.062 183.75 C152.108 187.173 152.873 190.389 153.875 194.812 C157.892 210.971 167.346 221.701 180.922 230.908 C184.61 233.453 187.25 235.505 189.062 239.75 C190.668 249.123 192.766 266.153 188.062 274.75 C185.75 275.312 185.75 275.312 183.062 275.75 C179.508 277.899 178.236 279.351 176.562 283.188 C176.062 286.75 176.062 286.75 177.375 289.625 C179.062 291.75 179.062 291.75 180.062 292.75 C184.451 293.061 188.852 293.029 193.25 293.062 C194.483 293.092 195.716 293.121 196.986 293.15 C207.195 293.222 207.195 293.222 210.82 291.137 C213.636 288.14 214.128 286.309 214.75 282.25 C214.856 281.577 214.962 280.904 215.072 280.211 C215.442 277.728 215.756 275.242 216.062 272.75 C216.198 271.684 216.333 270.618 216.473 269.52 C221.031 232.849 221.031 232.849 216.035 217.934 C213.984 211.221 213.958 204.69 214.07 197.75 C214.088 195.79 214.105 193.831 214.121 191.871 C214.152 188.822 214.187 185.772 214.234 182.723 C214.462 166.965 214.149 152.924 206.953 138.531 C205.748 134.768 205.901 132.526 207.062 128.75 C209.31 127.049 211.066 125.981 213.562 124.812 C226.714 117.96 235.516 108.482 240.336 94.293 C243.665 82.64 243.51 69.044 237.703 58.215 C235.036 53.987 232.335 50.479 228.062 47.75 C227.402 47.75 226.743 47.75 226.062 47.75 Z " fill="currentColor" transform="translate(199.9375,109.25)"/>
<path d="M0 0 C2.579 1.952 3.752 3.372 4.938 6.375 C5.023 9.959 3.876 11.986 2 15 C-1.513 17.342 -2.865 17.496 -7 17 C-10.748 14.918 -11.795 13.705 -13 9.562 C-13 5.582 -12.518 4.039 -10 1 C-6.621 -1.564 -3.97 -1.158 0 0 Z " fill="currentColor" transform="translate(130,144)"/>
</svg>
