<?xml version="1.0" encoding="UTF-8"?>
<!-- Generator: visioncortex VTracer 0.6.12 -->
<svg viewBox="0 0 512 512" version="1.1" xmlns="http://www.w3.org/2000/svg" width="512" height="512">
<path d="M0 0 C16.952 13.781 27.223 32.07 30.113 53.762 C31.642 73.365 28.447 91.783 23.517 110.727 C21.471 118.746 20.321 126.708 19.359 134.918 C20.2 134.983 21.04 135.047 21.906 135.114 C41.96 136.684 61.919 138.696 81.878 141.204 C115.599 145.412 156.062 149.766 185.324 128.793 C187.716 126.882 190.04 124.916 192.359 122.918 C195.7 120.105 197.819 119.554 202.262 119.422 C205.4 120.164 207.063 121.69 209.359 123.918 C221.24 147.49 219.981 181.575 216.359 206.918 C216.25 207.729 216.141 208.54 216.029 209.376 C213.029 230.722 206.021 253.335 195.37 272.126 C194.274 274.069 193.226 276.034 192.18 278.004 C187.562 286.587 182.382 294.241 176.359 301.918 C174.667 304.234 173.012 306.573 171.359 308.918 C171.978 309.021 171.978 309.021 175.109 309.543 C179.275 310.442 182.661 311.988 186.422 313.98 C193.026 317.408 197.645 318.398 205.047 317.168 C208.73 316.677 209.122 316.758 212.422 318.98 C214.359 321.918 214.359 321.918 214.984 324.918 C214.149 328.929 212.53 330.396 209.359 332.918 C199.158 336.362 188.412 333.269 179.074 328.832 C177.762 328.159 176.452 327.483 175.145 326.801 C166.589 322.57 157.704 323.02 148.852 325.93 C146.293 326.944 143.917 328.132 141.484 329.418 C128.603 336.039 113.441 336.971 99.531 333.117 C96.314 331.901 93.378 330.427 90.332 328.843 C80.098 323.574 70.597 321.335 59.27 324.887 C56.547 326.106 53.974 327.484 51.359 328.918 C49.246 329.861 47.121 330.778 44.984 331.668 C44.506 331.872 44.506 331.872 42.086 332.902 C28.793 337.854 11.046 335.824 -1.629 330.195 C-4.253 328.99 -6.843 327.731 -9.426 326.441 C-17.146 322.783 -27.202 322.547 -35.492 324.637 C-37.941 325.626 -40.278 326.739 -42.641 327.918 C-44.739 328.828 -46.843 329.724 -48.953 330.605 C-49.436 330.814 -49.436 330.814 -51.879 331.867 C-61.759 335.626 -76.461 335.688 -86.375 332.031 C-98.228 326.207 -106.622 318.258 -114.641 307.918 C-115.252 307.146 -115.863 306.374 -116.492 305.578 C-134.183 281.949 -140.311 249.622 -136.953 220.73 C-132.44 191.097 -120.791 164.514 -104.906 139.176 C-101.049 132.292 -100.12 124.679 -99.641 116.918 C-100.168 116.99 -100.168 116.99 -102.84 117.355 C-119.01 119.437 -135.901 121.032 -151.641 115.918 C-152.506 115.651 -153.371 115.384 -154.262 115.109 C-165.344 111.219 -173.91 104.159 -179.641 93.918 C-181.828 89.161 -182.382 85.098 -181.641 79.918 C-179.413 75.544 -176.78 72.552 -172.641 69.918 C-167.118 68.361 -161.619 67.392 -155.953 66.543 C-131.669 62.657 -131.669 62.657 -124.641 55.918 C-123.504 52.684 -123.504 52.684 -122.641 48.918 C-119.038 33.385 -113.535 19.858 -102.641 7.918 C-102.376 7.608 -102.376 7.608 -101.039 6.039 C-75.376 -22.216 -29.053 -21.505 0 0 Z M-92.641 19.918 C-102.221 31.779 -106.373 43.866 -107.82 58.973 C-109.045 63.368 -111.525 65.593 -115.355 67.992 C-117.278 69.055 -119.223 70.03 -121.203 70.98 C-121.907 71.325 -122.611 71.669 -123.336 72.024 C-129.277 74.869 -135.3 77.12 -141.641 78.918 C-141.98 79.019 -141.98 79.019 -143.699 79.527 C-149.008 80.984 -154.439 81.689 -159.883 82.453 C-162.641 82.918 -162.641 82.918 -164.641 83.918 C-164.032 89.093 -162.012 92.89 -158.02 96.305 C-144.663 105.551 -126.452 104.634 -111.078 102.918 C-95.164 101.183 -95.164 101.183 -91.641 101.918 C-87.67 105.293 -86.069 109.782 -85.369 114.909 C-84.001 132.293 -89.934 144.749 -98.598 159.395 C-111.013 180.51 -120.151 204.301 -121.641 228.918 C-121.718 230.01 -121.795 231.102 -121.875 232.227 C-122.861 258.55 -114.114 285.494 -96.922 305.512 C-89.419 313.426 -81.006 318.92 -69.891 319.48 C-59.453 319.106 -49.764 314.108 -40.359 309.934 C-28.487 305.499 -15.117 307.31 -3.641 311.918 C-1.403 312.941 0.826 313.983 3.047 315.043 C15.306 320.842 27.417 320.992 40.359 316.918 C42.919 315.866 45.388 314.662 47.859 313.418 C59.629 307.496 71.881 305.737 84.797 309.48 C89.104 310.949 93.187 312.738 97.305 314.654 C109.879 320.475 120.474 321.065 133.613 316.535 C158.941 306.735 174.775 281.426 185.438 257.499 C194.595 236.277 201.764 213.181 202.359 189.918 C202.38 189.165 202.4 188.411 202.421 187.635 C202.793 171.847 202.048 156.315 198.359 140.918 C194.408 140.918 191.962 142.701 188.672 144.668 C187.395 145.409 186.118 146.148 184.84 146.887 C182.96 147.98 181.087 149.081 179.223 150.199 C163.746 158.825 143.549 159.27 126.256 159.179 C123.889 159.168 121.523 159.179 119.156 159.191 C95.514 159.217 71.976 155.975 48.505 153.447 C44.799 153.049 41.093 152.653 37.387 152.258 C36.284 152.138 35.182 152.018 34.046 151.895 C27.153 151.16 20.279 150.636 13.355 150.285 C10.499 149.935 8.762 149.454 6.359 147.918 C1.981 141.969 3.848 130.912 4.895 123.871 C6.51 114.44 8.978 105.178 11.359 95.918 C17.123 73.222 17.259 50.878 5.762 30.02 C0.005 20.446 -7.057 13.6 -16.641 7.918 C-17.276 7.538 -17.912 7.157 -18.566 6.766 C-42.302 -6.257 -74.624 0.528 -92.641 19.918 Z " fill="currentColor" transform="translate(236.640625,95.08203125)"/>
<path d="M0 0 C4.17 1.76 6.271 3.815 8 8 C8.571 12.299 8.476 15.847 6.812 19.875 C4.062 23.099 1.935 24.706 -2.336 25.355 C-6.776 25.602 -10.004 25.532 -13.562 22.688 C-16.933 18.972 -17.354 16.034 -17.281 11.062 C-16.677 6.631 -14.068 3.89 -10.75 1.125 C-7.054 -0.387 -3.939 -0.583 0 0 Z " fill="currentColor" transform="translate(184,135)"/>
<path d="M0 0 C2 1.5 2 1.5 3 4 C3.763 12.786 -0.988 20.983 -6.082 27.777 C-14.175 37.202 -23.174 42.298 -35 46 C-35.99 46 -36.98 46 -38 46 C-38.003 46.617 -38.005 47.235 -38.008 47.871 C-38.334 55.016 -40.15 59.71 -45 65 C-56.828 75.551 -70.787 80.053 -86 83 C-87.106 83.227 -88.212 83.454 -89.352 83.688 C-118.307 88.76 -147.347 83.802 -171.691 67.16 C-183.722 58.179 -193.572 42.988 -196 28 C-196.263 25.041 -196.38 22.095 -196.438 19.125 C-196.46 18.387 -196.482 17.649 -196.505 16.888 C-196.49 13.377 -196.28 11.376 -194.156 8.527 C-192 7 -192 7 -189.062 6.438 C-184.915 7.199 -183.646 8.758 -181 12 C-180.18 15.418 -180.18 15.418 -179.875 19.188 C-178.803 29.54 -176.808 36.618 -170.426 44.969 C-169 47 -169 47 -169 49 C-168.34 49 -167.68 49 -167 49 C-165.375 50.375 -165.375 50.375 -164 52 C-164 52.66 -164 53.32 -164 54 C-163.495 54.249 -162.989 54.498 -162.469 54.754 C-160.478 55.759 -158.502 56.795 -156.531 57.84 C-133.901 69.702 -104.467 72.244 -79.684 65.199 C-69.549 61.9 -60.251 58.113 -53 50 C-52.67 49.01 -52.34 48.02 -52 47 C-52.374 46.987 -52.374 46.987 -54.266 46.922 C-62.215 46.464 -62.215 46.464 -65.75 44.375 C-67.579 40.899 -67.015 38.722 -66 35 C-64.352 32.774 -63.516 32.081 -60.754 31.647 C-59.889 31.653 -59.024 31.658 -58.133 31.664 C-57.652 31.659 -57.652 31.659 -55.216 31.635 C-54.706 31.634 -54.706 31.634 -52.125 31.625 C-40.54 31.363 -30.995 29.964 -22 22 C-17.364 16.472 -14.7 10.241 -12.273 3.504 C-11 1 -11 1 -9.074 -0.355 C-5.778 -1.38 -3.302 -0.84 0 0 Z " fill="currentColor" transform="translate(384,286)"/>
</svg>
