<?xml version="1.0" encoding="UTF-8"?>
<!-- Generator: visioncortex VTracer 0.6.12 -->
<svg viewBox="0 0 512 512" version="1.1" xmlns="http://www.w3.org/2000/svg" width="512" height="512">
<path d="M0 0 C8.116 -0.024 16.231 -0.041 24.347 -0.056 C29.751 -0.067 35.155 -0.08 40.559 -0.103 C45.531 -0.123 50.504 -0.134 55.477 -0.138 C57.273 -0.141 59.069 -0.148 60.865 -0.158 C93.714 -0.342 93.714 -0.342 106.407 11.333 C114.019 19.579 117.467 28.408 117.388 39.502 C117.391 39.962 117.391 39.962 117.404 42.288 C117.419 45.352 117.411 48.415 117.404 51.479 C117.41 53.682 117.417 55.885 117.425 58.089 C117.443 64.062 117.442 70.035 117.436 76.008 C117.433 80.998 117.439 85.988 117.445 90.978 C117.46 103.424 117.456 115.871 117.444 128.317 C117.434 139.113 117.447 149.908 117.471 160.704 C117.496 171.804 117.505 182.905 117.499 194.005 C117.495 200.231 117.498 206.457 117.515 212.683 C117.53 218.538 117.526 224.392 117.508 230.247 C117.504 232.393 117.507 234.539 117.517 236.684 C117.531 239.62 117.519 242.554 117.502 245.489 C117.511 246.333 117.521 247.176 117.531 248.046 C117.391 259.359 111.191 268.447 103.285 276.161 C96.389 281.89 88.989 284.178 80.137 284.193 C78.957 284.198 77.776 284.202 76.56 284.207 C75.267 284.207 73.974 284.206 72.641 284.206 C71.251 284.21 69.86 284.213 68.469 284.217 C64.648 284.227 60.827 284.231 57.006 284.234 C52.884 284.238 48.763 284.247 44.641 284.256 C34.688 284.276 24.736 284.286 14.783 284.295 C10.094 284.299 5.405 284.304 0.717 284.31 C-14.872 284.327 -30.461 284.341 -46.05 284.348 C-50.094 284.35 -54.138 284.352 -58.182 284.354 C-59.187 284.355 -60.192 284.355 -61.228 284.356 C-77.509 284.364 -93.79 284.389 -110.072 284.422 C-126.793 284.455 -143.514 284.473 -160.235 284.476 C-169.621 284.478 -179.007 284.487 -188.393 284.513 C-196.387 284.534 -204.38 284.542 -212.374 284.533 C-216.45 284.528 -220.527 284.53 -224.603 284.549 C-228.34 284.567 -232.077 284.566 -235.814 284.55 C-237.795 284.547 -239.776 284.563 -241.757 284.58 C-253.098 284.499 -262.034 281.823 -270.707 274.391 C-279.674 265.271 -283.485 254.29 -283.381 241.686 C-283.385 240.798 -283.39 239.91 -283.395 238.996 C-283.407 236.051 -283.397 233.107 -283.388 230.163 C-283.392 228.039 -283.397 225.916 -283.404 223.793 C-283.417 218.047 -283.412 212.302 -283.403 206.556 C-283.395 200.532 -283.402 194.508 -283.407 188.484 C-283.412 178.37 -283.405 168.256 -283.391 158.142 C-283.374 146.462 -283.38 134.782 -283.396 123.102 C-283.41 113.059 -283.412 103.016 -283.404 92.973 C-283.399 86.982 -283.399 80.99 -283.409 74.998 C-283.417 69.364 -283.411 63.73 -283.394 58.096 C-283.39 56.033 -283.391 53.97 -283.398 51.907 C-283.406 49.082 -283.396 46.258 -283.381 43.432 C-283.387 42.624 -283.394 41.816 -283.401 40.983 C-283.289 29.981 -279.304 20.068 -272.031 11.829 C-260.279 0.481 -247.376 0.329 -232.003 0.4 C-229.886 0.391 -227.769 0.381 -225.652 0.368 C-219.901 0.34 -214.149 0.342 -208.398 0.35 C-202.266 0.353 -196.134 0.328 -190.003 0.306 C-178.285 0.269 -166.567 0.257 -154.85 0.254 C-141.913 0.249 -128.977 0.216 -116.04 0.181 C-93.31 0.119 -70.579 0.088 -47.848 0.079 C-31.898 0.072 -15.949 0.047 0 0 Z M-257 26.059 C-256.904 27.972 -256.904 27.972 -256 30.059 C-254.076 31.76 -254.076 31.76 -251.539 33.458 C-250.602 34.095 -249.665 34.732 -248.7 35.388 C-247.685 36.063 -246.67 36.738 -245.625 37.434 C-243.506 38.873 -241.389 40.315 -239.273 41.758 C-238.212 42.481 -237.151 43.203 -236.057 43.947 C-231.713 46.948 -227.477 50.083 -223.25 53.247 C-217.058 57.864 -210.778 62.303 -204.375 66.622 C-197.358 71.355 -190.605 76.341 -183.923 81.534 C-179.111 85.258 -174.169 88.67 -169.066 91.989 C-164.705 94.933 -160.533 98.112 -156.339 101.288 C-149.077 106.779 -141.693 112.093 -134.3 117.405 C-131.209 119.628 -128.125 121.859 -125.041 124.09 C-118.918 128.518 -112.784 132.93 -106.625 137.309 C-90.293 148.93 -90.293 148.93 -85.976 152.938 C-84 154.059 -84 154.059 -81.633 153.512 C-78.551 151.811 -75.706 149.89 -72.875 147.809 C-72.276 147.375 -71.677 146.941 -71.059 146.494 C-69.034 145.023 -67.016 143.542 -65 142.059 C-64.268 141.521 -63.537 140.984 -62.784 140.43 C-59.625 138.105 -56.468 135.778 -53.314 133.447 C-45.662 127.796 -37.954 122.225 -30.234 116.668 C-26.486 113.969 -22.743 111.264 -19 108.559 C-17.5 107.476 -16 106.392 -14.5 105.309 C-13.757 104.773 -13.015 104.237 -12.25 103.684 C-10 102.059 -7.75 100.434 -5.5 98.809 C-4.757 98.272 -4.014 97.736 -3.248 97.183 C-1.753 96.103 -0.257 95.023 1.239 93.943 C5.054 91.189 8.867 88.431 12.676 85.668 C20.267 80.166 27.888 74.73 35.614 69.418 C42.034 64.972 48.331 60.347 54.652 55.762 C58.515 52.961 62.382 50.166 66.25 47.372 C66.992 46.836 67.733 46.3 68.497 45.748 C73.303 42.279 78.116 38.819 82.938 35.372 C83.224 35.166 83.224 35.166 84.675 34.129 C87.095 32.401 89.526 30.708 92 29.059 C92 28.069 92 27.079 92 26.059 C91.34 26.059 90.68 26.059 90 26.059 C90 25.399 90 24.739 90 24.059 C82.376 20.984 75.734 20.634 67.564 20.678 C66.214 20.675 64.864 20.67 63.514 20.664 C59.823 20.651 56.133 20.658 52.442 20.667 C48.454 20.674 44.467 20.663 40.479 20.655 C32.674 20.642 24.87 20.644 17.066 20.653 C10.722 20.66 4.377 20.661 -1.967 20.658 C-2.87 20.657 -3.774 20.657 -4.705 20.656 C-6.541 20.655 -8.377 20.654 -10.213 20.653 C-27.42 20.645 -44.627 20.655 -61.835 20.671 C-76.592 20.684 -91.349 20.682 -106.106 20.668 C-123.252 20.652 -140.399 20.646 -157.545 20.655 C-159.374 20.656 -161.204 20.657 -163.033 20.658 C-163.933 20.658 -164.833 20.659 -165.76 20.659 C-172.095 20.662 -178.429 20.657 -184.764 20.65 C-192.487 20.642 -200.209 20.644 -207.931 20.66 C-211.87 20.668 -215.808 20.671 -219.746 20.661 C-223.355 20.652 -226.963 20.657 -230.572 20.673 C-232.488 20.678 -234.405 20.668 -236.321 20.658 C-251.703 20.762 -251.703 20.762 -257 26.059 Z M-262 50.059 C-263.378 52.816 -263.126 55.025 -263.127 58.111 C-263.13 59.404 -263.132 60.697 -263.135 62.028 C-263.133 63.471 -263.131 64.913 -263.129 66.355 C-263.13 67.868 -263.132 69.381 -263.134 70.895 C-263.139 75.025 -263.137 79.156 -263.134 83.286 C-263.131 87.643 -263.134 91.999 -263.135 96.356 C-263.137 103.713 -263.135 111.07 -263.13 118.427 C-263.125 126.826 -263.126 135.226 -263.132 143.625 C-263.137 150.892 -263.137 158.159 -263.134 165.426 C-263.133 169.739 -263.133 174.052 -263.136 178.365 C-263.148 195.91 -263.07 213.456 -262.727 230.998 C-262.695 232.718 -262.668 234.438 -262.646 236.158 C-262.614 238.541 -262.563 240.922 -262.507 243.304 C-262.501 244.003 -262.495 244.702 -262.489 245.422 C-262.309 251.521 -260.56 255.425 -256.375 259.809 C-249.296 265.209 -239.466 264.345 -231.028 264.313 C-229.742 264.316 -228.455 264.319 -227.129 264.322 C-223.577 264.331 -220.026 264.327 -216.474 264.321 C-212.635 264.316 -208.797 264.323 -204.958 264.328 C-197.444 264.337 -189.93 264.335 -182.416 264.33 C-176.304 264.325 -170.192 264.325 -164.079 264.327 C-163.208 264.327 -162.337 264.327 -161.439 264.328 C-159.669 264.328 -157.899 264.329 -156.129 264.33 C-139.538 264.335 -122.946 264.329 -106.354 264.318 C-92.144 264.309 -77.933 264.311 -63.722 264.32 C-47.199 264.331 -30.676 264.335 -14.153 264.329 C-12.388 264.328 -10.622 264.327 -8.857 264.327 C-7.988 264.326 -7.12 264.326 -6.225 264.326 C-0.129 264.324 5.966 264.327 12.062 264.332 C19.504 264.337 26.947 264.336 34.39 264.325 C38.181 264.32 41.972 264.318 45.764 264.324 C84.092 264.385 84.092 264.385 90.65 260.482 C95.363 255.623 97.441 250.537 97.517 243.792 C97.505 243.037 97.493 242.282 97.481 241.504 C97.485 240.681 97.488 239.857 97.492 239.009 C97.498 236.269 97.476 233.531 97.454 230.791 C97.453 228.82 97.454 226.848 97.456 224.877 C97.457 219.538 97.434 214.2 97.406 208.862 C97.381 203.278 97.379 197.694 97.374 192.11 C97.361 181.542 97.329 170.974 97.288 160.406 C97.244 148.373 97.222 136.339 97.202 124.305 C97.16 99.556 97.089 74.808 97 50.059 C95.263 51.154 93.527 52.251 91.792 53.349 C90.825 53.96 89.858 54.571 88.862 55.2 C84.712 57.896 80.764 60.832 76.813 63.809 C70.831 68.271 64.805 72.626 58.625 76.809 C53.099 80.555 47.761 84.47 42.5 88.578 C38.715 91.529 34.849 94.312 30.899 97.036 C27.045 99.726 23.243 102.488 19.438 105.247 C13.51 109.542 7.556 113.793 1.563 117.997 C-5.338 122.841 -12.131 127.821 -18.905 132.841 C-24.834 137.225 -30.832 141.499 -36.869 145.733 C-42.04 149.366 -47.15 153.075 -52.238 156.823 C-57.412 160.634 -62.607 164.416 -67.812 168.184 C-68.596 168.753 -69.38 169.322 -70.187 169.908 C-70.915 170.435 -71.644 170.962 -72.394 171.504 C-73.042 171.974 -73.691 172.443 -74.358 172.927 C-78.412 175.723 -82.207 175.928 -87 175.059 C-90.658 173.153 -93.76 170.598 -97 168.059 C-98.572 166.936 -100.144 165.813 -101.725 164.702 C-108.819 159.709 -115.781 154.538 -122.753 149.378 C-128.704 144.984 -134.727 140.706 -140.787 136.465 C-146.372 132.541 -151.827 128.462 -157.269 124.343 C-162.242 120.592 -167.329 117.039 -172.472 113.524 C-176.803 110.529 -181.021 107.382 -185.25 104.247 C-191.366 99.713 -197.517 95.243 -203.75 90.872 C-209.02 87.175 -214.254 83.439 -219.437 79.622 C-230.883 71.194 -242.364 62.822 -254.062 54.747 C-254.747 54.272 -255.432 53.798 -256.138 53.309 C-260.877 50.059 -260.877 50.059 -262 50.059 Z " fill="currentColor" transform="translate(337.99969959259033,112.94093227386475)"/>
</svg>
