<?xml version="1.0" encoding="UTF-8"?>
<!-- Generator: visioncortex VTracer 0.6.12 -->
<svg viewBox="0 0 512 512" version="1.1" xmlns="http://www.w3.org/2000/svg" width="512" height="512">
<path d="M0 0 C0.785 -0.004 1.57 -0.009 2.378 -0.013 C4.024 -0.019 5.671 -0.019 7.317 -0.015 C9.807 -0.012 12.297 -0.035 14.787 -0.061 C35.191 -0.144 35.191 -0.144 41.941 6.363 C46.278 12.826 45.363 21.814 45.379 29.301 C45.708 29.323 45.708 29.323 47.372 29.437 C76.637 31.48 108.989 34.268 132.379 54.301 C133.799 57.142 133.693 59.156 133.379 62.301 C131.816 64.676 131.816 64.676 129.379 66.301 C123.463 66.971 120.024 65.333 115.254 62.113 C93.714 48.488 69.107 47.277 44.379 45.301 C44.405 46.339 44.431 47.378 44.458 48.448 C44.479 49.819 44.5 51.191 44.52 52.562 C44.529 52.904 44.529 52.904 44.577 54.634 C44.618 58.426 44.592 61.131 42.129 64.113 C39.898 65.888 38.043 67.314 35.379 68.301 C35.379 68.961 35.379 69.621 35.379 70.301 C36.49 70.725 37.601 71.149 38.746 71.586 C63.71 81.333 80.959 98.897 91.805 123.379 C96.599 134.834 98.531 146.769 98.519 159.131 C98.522 160.104 98.525 161.077 98.528 162.079 C98.537 165.33 98.539 168.581 98.54 171.832 C98.545 174.167 98.55 176.501 98.555 178.835 C98.568 185.17 98.575 191.505 98.579 197.839 C98.582 201.797 98.586 205.754 98.591 209.712 C98.603 220.677 98.613 231.642 98.616 242.607 C98.617 242.957 98.617 242.957 98.617 244.731 C98.617 245.433 98.618 246.135 98.618 246.859 C98.618 248.282 98.619 249.706 98.619 251.129 C98.619 251.482 98.619 251.482 98.62 253.268 C98.624 264.715 98.641 276.162 98.665 287.609 C98.688 299.372 98.701 311.134 98.702 322.897 C98.703 329.497 98.709 336.098 98.727 342.698 C98.743 348.903 98.745 355.108 98.737 361.314 C98.736 363.591 98.74 365.868 98.75 368.145 C98.763 371.254 98.757 374.362 98.746 377.471 C98.75 377.921 98.75 377.921 98.771 380.201 C98.724 386.22 97.951 391.23 93.949 396.008 C88.873 399.891 84.981 401.547 78.592 401.568 C78.014 401.572 78.014 401.572 75.088 401.594 C73.828 401.593 72.568 401.592 71.27 401.591 C69.923 401.597 68.576 401.604 67.228 401.612 C63.575 401.629 59.922 401.634 56.269 401.635 C53.984 401.637 51.7 401.641 49.415 401.646 C41.437 401.665 33.459 401.673 25.481 401.671 C18.056 401.67 10.632 401.691 3.207 401.723 C-3.177 401.749 -9.561 401.76 -15.945 401.758 C-19.754 401.758 -23.562 401.764 -27.371 401.785 C-30.956 401.804 -34.54 401.804 -38.124 401.79 C-40.057 401.787 -41.991 401.803 -43.924 401.821 C-52.117 401.762 -57.975 400.947 -63.996 394.926 C-67.671 388.989 -67.911 383.54 -67.882 376.765 C-67.884 376.289 -67.884 376.289 -67.893 373.876 C-67.904 370.684 -67.9 367.493 -67.896 364.301 C-67.9 362.011 -67.905 359.721 -67.911 357.431 C-67.925 351.209 -67.925 344.988 -67.923 338.766 C-67.922 333.565 -67.926 328.365 -67.931 323.164 C-67.943 310.182 -67.942 297.2 -67.936 284.218 C-67.931 272.974 -67.942 261.73 -67.961 250.486 C-67.98 238.919 -67.988 227.352 -67.985 215.785 C-67.983 209.3 -67.985 202.815 -67.999 196.33 C-68.012 190.222 -68.01 184.113 -67.997 178.005 C-67.995 175.774 -67.997 173.542 -68.006 171.311 C-68.116 139.434 -60.529 112.976 -38.188 89.773 C-31.73 83.57 -24.508 79.431 -16.621 75.301 C-15.554 74.731 -14.486 74.161 -13.387 73.574 C-10.621 72.301 -10.621 72.301 -7.621 72.301 C-7.621 71.311 -7.621 70.321 -7.621 69.301 C-8.19 69.298 -8.758 69.296 -9.344 69.293 C-15.089 69.005 -18.125 67.715 -22.309 63.773 C-25.176 60.556 -24.917 57.363 -25.184 53.176 C-25.267 51.894 -25.351 50.613 -25.438 49.293 C-25.498 48.306 -25.559 47.318 -25.621 46.301 C-45.679 47.91 -62.145 53.647 -75.621 69.301 C-81.231 76.658 -84.739 84.548 -87.621 93.301 C-87.919 94.186 -88.217 95.072 -88.523 95.984 C-93.993 114.733 -93.276 135.868 -91.562 155.098 C-91.396 157.044 -91.23 158.991 -91.064 160.937 C-90.834 163.63 -90.598 166.323 -90.362 169.016 C-89.951 173.711 -89.547 178.407 -89.145 183.103 C-88.931 185.589 -88.715 188.075 -88.497 190.56 C-87.275 204.698 -86.485 218.751 -86.514 232.941 C-86.517 236.809 -86.491 240.677 -86.471 244.545 C-86.446 249.412 -86.431 254.279 -86.446 259.146 C-86.458 263.134 -86.44 267.121 -86.404 271.109 C-86.395 272.611 -86.397 274.113 -86.41 275.614 C-86.477 283.895 -86.094 290.315 -81.004 297.184 C-77.291 302.866 -78.119 311.066 -77.809 317.613 C-77.732 318.811 -77.655 320.01 -77.576 321.244 C-77.244 328.513 -77.535 333.19 -81.621 339.301 C-86.079 343.237 -90.467 343.887 -96.324 343.621 C-100.587 343.027 -102.747 341.078 -105.871 338.301 C-108.528 333.747 -108.482 329.503 -108.621 324.301 C-108.642 323.644 -108.662 322.987 -108.683 322.311 C-109.307 299.942 -109.307 299.942 -104.601 293.561 C-102.372 289.891 -102.12 287.983 -102.119 283.737 C-102.115 283.09 -102.115 283.09 -102.091 279.818 C-102.102 278.408 -102.113 276.999 -102.125 275.59 C-102.124 274.115 -102.121 272.64 -102.117 271.165 C-102.113 267.23 -102.136 263.297 -102.166 259.362 C-102.184 256.925 -102.194 254.487 -102.201 252.049 C-102.284 227.688 -103.118 203.545 -105.621 179.301 C-111.977 114.06 -111.977 114.06 -103.621 89.301 C-103.233 88.138 -102.845 86.975 -102.445 85.777 C-95.219 65.467 -81.616 49.435 -62.621 39.301 C-62.163 39.055 -62.163 39.055 -59.848 37.809 C-50.058 32.957 -39.481 31.132 -28.633 30.609 C-27.969 30.508 -27.305 30.406 -26.621 30.301 C-25.344 27.747 -25.592 26.024 -25.684 23.176 C-25.714 15.434 -24.598 9.942 -19.742 3.746 C-14.174 -0.048 -6.536 -0.008 0 0 Z M-9.621 16.301 C-11.149 19.356 -10.763 22.547 -10.754 25.898 C-10.755 26.648 -10.756 27.397 -10.757 28.17 C-10.757 29.754 -10.756 31.339 -10.751 32.923 C-10.746 35.357 -10.751 37.791 -10.758 40.225 C-10.757 41.762 -10.756 43.299 -10.754 44.836 C-10.756 45.568 -10.758 46.3 -10.76 47.055 C-10.736 52.186 -10.736 52.186 -9.621 53.301 C-6.748 53.402 -3.9 53.44 -1.027 53.434 C-0.596 53.434 -0.596 53.434 1.584 53.436 C3.41 53.437 5.236 53.435 7.062 53.431 C9.867 53.426 12.672 53.431 15.477 53.438 C17.246 53.437 19.016 53.436 20.785 53.434 C21.63 53.436 22.475 53.438 23.345 53.44 C29.264 53.416 29.264 53.416 30.379 52.301 C30.479 50.395 30.51 48.486 30.512 46.578 C30.513 45.399 30.514 44.22 30.516 43.006 C30.514 42.384 30.514 42.384 30.504 39.238 C30.506 38.63 30.506 38.63 30.516 35.553 C30.497 18.419 30.497 18.419 28.379 16.301 C25.567 16.212 22.78 16.186 19.969 16.203 C19.548 16.204 19.548 16.204 17.417 16.207 C14.717 16.213 12.017 16.226 9.316 16.238 C7.49 16.243 5.664 16.248 3.838 16.252 C-0.648 16.263 -5.135 16.28 -9.621 16.301 Z M-32.496 105.113 C-49.984 125.916 -53.091 148.285 -52.993 174.361 C-52.996 176.655 -53 178.95 -53.004 181.244 C-53.014 187.431 -53.005 193.618 -52.991 199.805 C-52.98 206.289 -52.984 212.773 -52.986 219.257 C-52.987 230.128 -52.976 241 -52.957 251.871 C-52.938 263.056 -52.931 274.241 -52.937 285.426 C-52.943 298.929 -52.94 312.433 -52.928 325.937 C-52.923 331.09 -52.922 336.244 -52.924 341.397 C-52.926 347.451 -52.918 353.504 -52.902 359.557 C-52.898 361.784 -52.897 364.01 -52.9 366.236 C-52.903 369.262 -52.894 372.289 -52.882 375.316 C-52.886 376.206 -52.889 377.097 -52.893 378.014 C-52.849 384.072 -52.849 384.072 -50.621 386.301 C-48.338 386.552 -48.338 386.552 -45.428 386.555 C-44.327 386.56 -43.226 386.566 -42.092 386.572 C-40.879 386.568 -39.666 386.564 -38.416 386.56 C-37.143 386.563 -35.87 386.567 -34.558 386.57 C-31.06 386.579 -27.562 386.576 -24.064 386.569 C-20.408 386.564 -16.751 386.569 -13.094 386.572 C-6.951 386.576 -0.809 386.571 5.334 386.562 C12.439 386.551 19.544 386.554 26.649 386.565 C32.744 386.574 38.839 386.576 44.935 386.57 C48.577 386.567 52.22 386.567 55.862 386.573 C59.923 386.58 63.984 386.571 68.045 386.56 C69.256 386.564 70.467 386.568 71.714 386.572 C72.818 386.566 73.921 386.561 75.058 386.555 C76.019 386.554 76.98 386.553 77.969 386.552 C80.379 386.301 80.379 386.301 83.379 384.301 C83.682 381.232 83.787 378.363 83.767 375.291 C83.772 374.346 83.777 373.401 83.783 372.427 C83.797 369.239 83.79 366.051 83.783 362.863 C83.789 360.585 83.796 358.307 83.804 356.029 C83.822 349.821 83.821 343.614 83.815 337.406 C83.812 332.221 83.818 327.036 83.824 321.85 C83.839 308.902 83.835 295.953 83.823 283.004 C83.813 271.79 83.826 260.576 83.85 249.362 C83.874 237.832 83.884 226.302 83.877 214.773 C83.874 208.306 83.876 201.84 83.894 195.373 C83.909 189.277 83.905 183.181 83.886 177.085 C83.883 174.859 83.886 172.632 83.896 170.406 C84.006 145.268 79.128 123.645 62.379 104.301 C61.805 103.615 61.232 102.929 60.641 102.223 C50.877 91.465 34.827 84.035 20.379 83.301 C20.045 83.281 20.045 83.281 18.355 83.184 C-1.55 82.537 -18.967 90.816 -32.496 105.113 Z M-94.621 308.301 C-94.621 314.901 -94.621 321.501 -94.621 328.301 C-93.961 327.971 -93.301 327.641 -92.621 327.301 C-92.567 324.509 -92.528 321.718 -92.496 318.926 C-92.479 318.132 -92.463 317.338 -92.445 316.52 C-92.428 314.446 -92.518 312.372 -92.621 310.301 C-93.281 309.641 -93.941 308.981 -94.621 308.301 Z " fill="currentColor" transform="translate(242.62109375,54.69921875)"/>
<path d="M0 0 C0.694 -0.007 1.387 -0.014 2.102 -0.021 C4.373 -0.039 6.643 -0.027 8.914 -0.014 C10.504 -0.016 12.094 -0.02 13.683 -0.025 C17.006 -0.031 20.329 -0.023 23.651 -0.004 C27.901 0.019 32.149 0.006 36.398 -0.018 C39.678 -0.033 42.958 -0.028 46.237 -0.018 C47.804 -0.015 49.37 -0.018 50.937 -0.028 C53.129 -0.038 55.32 -0.022 57.512 0 C58.134 0.002 58.134 0.002 61.283 0.01 C66.478 0.784 69.543 3.246 73.004 7.08 C75.305 10.404 75.816 12.919 75.832 16.862 C75.837 17.749 75.843 18.637 75.849 19.551 C75.849 20.037 75.849 20.037 75.852 22.493 C75.855 23.006 75.855 23.006 75.867 25.598 C75.882 28.995 75.889 32.391 75.894 35.787 C75.9 38.145 75.906 40.503 75.912 42.861 C75.922 47.808 75.928 52.755 75.931 57.702 C75.937 64.041 75.961 70.38 75.989 76.718 C76.008 81.59 76.013 86.462 76.015 91.334 C76.018 93.671 76.026 96.007 76.039 98.344 C76.056 101.614 76.054 104.884 76.048 108.154 C76.057 109.118 76.066 110.083 76.076 111.077 C76.043 116.315 75.647 120 72.691 124.518 C67.825 129.019 64.36 129.643 57.852 129.695 C57.161 129.701 56.469 129.708 55.757 129.714 C53.469 129.734 51.182 129.746 48.894 129.756 C48.111 129.76 47.329 129.764 46.522 129.768 C42.377 129.789 38.232 129.803 34.088 129.813 C29.816 129.824 25.545 129.858 21.274 129.898 C17.981 129.924 14.688 129.932 11.396 129.936 C9.822 129.941 8.248 129.952 6.674 129.971 C4.465 129.996 2.257 129.994 0.048 129.988 C-0.58 129.99 -0.58 129.99 -3.754 130.005 C-8.956 129.292 -12.86 127.353 -16.184 123.143 C-18.728 117.206 -18.467 110.945 -18.486 104.6 C-18.492 103.617 -18.499 102.634 -18.506 101.622 C-18.525 98.381 -18.537 95.141 -18.547 91.9 C-18.551 90.791 -18.555 89.681 -18.559 88.537 C-18.58 82.667 -18.595 76.796 -18.604 70.925 C-18.615 64.87 -18.65 58.816 -18.689 52.761 C-18.715 48.096 -18.724 43.431 -18.727 38.766 C-18.732 36.534 -18.744 34.302 -18.762 32.07 C-18.787 28.944 -18.786 25.82 -18.779 22.694 C-18.792 21.778 -18.804 20.863 -18.818 19.919 C-18.77 14.056 -17.98 9.245 -14.309 4.518 C-9.961 0.729 -5.72 0.015 0 0 Z M-2.309 15.518 C-3.496 20.196 -3.45 24.724 -3.438 29.515 C-3.44 30.411 -3.442 31.308 -3.444 32.231 C-3.448 35.186 -3.445 38.141 -3.442 41.096 C-3.442 43.149 -3.443 45.202 -3.445 47.255 C-3.446 51.552 -3.444 55.849 -3.439 60.146 C-3.433 65.667 -3.437 71.188 -3.443 76.709 C-3.446 80.945 -3.445 85.181 -3.443 89.417 C-3.442 91.453 -3.443 93.49 -3.445 95.527 C-3.448 98.364 -3.444 101.201 -3.438 104.038 C-3.44 104.887 -3.442 105.736 -3.444 106.61 C-3.423 112.403 -3.423 112.403 -2.309 113.518 C-0.345 113.612 1.622 113.635 3.588 113.631 C4.219 113.631 4.219 113.631 7.41 113.631 C8.797 113.626 10.183 113.621 11.57 113.615 C12.981 113.613 14.392 113.612 15.803 113.611 C19.524 113.607 23.244 113.597 26.964 113.586 C30.758 113.576 34.552 113.571 38.345 113.566 C45.794 113.556 53.243 113.539 60.691 113.518 C60.714 100.888 60.732 88.258 60.743 75.628 C60.748 69.764 60.755 63.9 60.767 58.036 C60.777 52.382 60.783 46.728 60.786 41.074 C60.788 38.912 60.792 36.75 60.797 34.587 C60.804 31.57 60.805 28.553 60.805 25.535 C60.806 25.084 60.806 25.084 60.816 22.798 C60.805 16.632 60.805 16.632 59.691 15.518 C57.758 15.424 55.822 15.4 53.886 15.404 C52.645 15.404 51.404 15.404 50.125 15.404 C48.76 15.409 47.396 15.415 46.031 15.42 C44.642 15.422 43.254 15.423 41.865 15.424 C38.204 15.428 34.543 15.438 30.882 15.449 C27.148 15.459 23.415 15.464 19.681 15.469 C12.351 15.479 5.021 15.497 -2.309 15.518 Z " fill="currentColor" transform="translate(229.308837890625,218.482421875)"/>
</svg>
