<?xml version="1.0" encoding="UTF-8"?>
<!-- Generator: visioncortex VTracer 0.6.12 -->
<svg viewBox="0 0 512 512" version="1.1" xmlns="http://www.w3.org/2000/svg" width="512" height="512">
<path d="M0 0 C1.21 -0.005 2.42 -0.009 3.667 -0.014 C7.019 -0.024 10.37 -0.026 13.722 -0.023 C17.339 -0.023 20.957 -0.034 24.575 -0.043 C31.66 -0.06 38.746 -0.066 45.831 -0.067 C51.593 -0.068 57.355 -0.072 63.116 -0.078 C79.46 -0.096 95.804 -0.105 112.148 -0.103 C113.029 -0.103 113.91 -0.103 114.818 -0.103 C115.7 -0.103 116.582 -0.103 117.49 -0.103 C131.777 -0.102 146.063 -0.121 160.35 -0.149 C175.028 -0.178 189.705 -0.192 204.383 -0.19 C212.621 -0.19 220.857 -0.195 229.094 -0.217 C236.109 -0.235 243.124 -0.239 250.138 -0.226 C253.714 -0.219 257.29 -0.219 260.866 -0.236 C264.751 -0.255 268.635 -0.242 272.52 -0.227 C273.079 -0.232 273.079 -0.232 275.912 -0.258 C287.121 -0.16 295.739 2.886 303.843 10.693 C310.248 18.073 313.197 25.517 313.209 35.211 C313.212 36.41 313.216 37.609 313.22 38.844 C313.219 40.157 313.219 41.47 313.218 42.823 C313.22 44.235 313.223 45.647 313.227 47.059 C313.235 50.939 313.237 54.819 313.237 58.699 C313.239 62.884 313.247 67.069 313.253 71.254 C313.267 80.405 313.273 89.556 313.277 98.707 C313.28 104.421 313.284 110.136 313.289 115.851 C313.301 131.676 313.311 147.5 313.315 163.325 C313.315 164.338 313.315 165.35 313.315 166.394 C313.316 167.409 313.316 168.424 313.316 169.47 C313.317 171.527 313.317 173.584 313.317 175.641 C313.318 176.661 313.318 177.681 313.318 178.733 C313.322 195.264 313.34 211.795 313.363 228.326 C313.387 245.301 313.399 262.276 313.4 279.252 C313.401 288.781 313.407 298.311 313.425 307.841 C313.44 315.956 313.445 324.071 313.437 332.186 C313.433 336.325 313.434 340.464 313.448 344.603 C313.461 348.396 313.46 352.189 313.448 355.982 C313.445 357.996 313.457 360.009 313.469 362.023 C313.405 373.845 311.389 382.607 303.077 391.267 C295.733 397.876 287.862 401.378 277.904 401.404 C276.877 401.41 275.851 401.415 274.793 401.42 C274.232 401.42 274.232 401.42 271.395 401.421 C270.199 401.426 269.003 401.43 267.77 401.435 C264.452 401.446 261.135 401.452 257.817 401.457 C254.238 401.463 250.658 401.474 247.078 401.485 C238.435 401.51 229.792 401.524 221.149 401.537 C218.706 401.541 216.264 401.545 213.821 401.549 C198.644 401.574 183.467 401.596 168.29 401.609 C164.776 401.612 161.263 401.615 157.749 401.618 C157.312 401.618 157.312 401.618 155.103 401.62 C140.962 401.632 126.822 401.666 112.682 401.707 C98.154 401.75 83.626 401.773 69.099 401.779 C60.946 401.782 52.793 401.794 44.641 401.827 C37.696 401.855 30.752 401.866 23.808 401.854 C20.268 401.849 16.729 401.852 13.189 401.877 C9.342 401.904 5.495 401.891 1.648 401.875 C0.542 401.889 -0.563 401.903 -1.702 401.917 C-12.169 401.812 -21.528 398.535 -29.173 391.224 C-36.875 382.611 -39.239 375.012 -39.118 363.619 C-39.115 362.606 -39.112 361.594 -39.11 360.551 C-39.098 357.331 -39.073 354.112 -39.048 350.892 C-39.038 348.704 -39.029 346.515 -39.02 344.326 C-38.998 338.973 -38.965 333.62 -38.923 328.267 C-41.923 329.267 -41.923 329.267 -43.423 332.205 C-43.918 333.216 -44.413 334.226 -44.923 335.267 C-48.643 337.748 -50.521 337.731 -54.923 337.267 C-57.36 335.83 -57.36 335.83 -58.923 333.267 C-59.623 329.005 -59.418 325.441 -57.735 321.455 C-53.331 316.139 -48.515 313.897 -41.923 312.267 C-40.933 312.267 -39.943 312.267 -38.923 312.267 C-38.923 297.087 -38.923 281.907 -38.923 266.267 C-40.243 266.267 -41.563 266.267 -42.923 266.267 C-42.954 266.639 -42.954 266.639 -43.11 268.517 C-44.204 272.22 -45.607 273.351 -48.923 275.267 C-52.482 275.267 -54.333 274.655 -57.298 272.705 C-59.575 269.289 -59.566 266.197 -58.923 262.267 C-56.514 256.69 -52.388 253.716 -46.86 251.517 C-43.859 250.4 -42.296 250.267 -38.923 250.267 C-39.253 235.087 -39.583 219.907 -39.923 204.267 C-40.583 204.267 -41.243 204.267 -41.923 204.267 C-42.098 204.731 -42.098 204.731 -42.985 207.08 C-45.46 211.151 -47.349 212.085 -51.923 213.267 C-54.951 211.989 -56.613 210.577 -58.923 208.267 C-59.706 203.714 -59.33 200.098 -57.298 195.955 C-51.559 189.462 -47.93 189.069 -38.923 187.267 C-39.253 172.087 -39.583 156.907 -39.923 141.267 C-40.913 141.267 -41.903 141.267 -42.923 141.267 C-42.985 141.824 -43.047 142.381 -43.11 142.955 C-44.317 146.39 -46.07 148.049 -48.923 150.267 C-52.486 150.34 -54.303 149.659 -57.298 147.767 C-59.36 144.595 -59.674 142.399 -59.501 138.65 C-58.26 133.536 -54.483 129.831 -50.075 127.139 C-46.745 125.624 -43.523 124.988 -39.923 124.267 C-39.923 109.087 -39.923 93.907 -39.923 78.267 C-40.913 78.267 -41.903 78.267 -42.923 78.267 C-42.964 78.731 -42.964 78.731 -43.173 81.08 C-43.923 84.267 -43.923 84.267 -45.61 86.142 C-48.708 87.649 -50.514 87.824 -53.923 87.267 C-56.798 85.267 -56.798 85.267 -58.923 82.267 C-59.622 76.762 -59.306 72.845 -55.923 68.267 C-50.764 64.383 -46.308 62.225 -39.923 61.267 C-39.913 60.29 -39.904 59.312 -39.894 58.305 C-39.854 54.633 -39.788 50.962 -39.715 47.29 C-39.687 45.71 -39.666 44.129 -39.652 42.548 C-39.524 29.115 -37.919 18.188 -27.923 8.267 C-18.878 1.574 -11.055 -0.03 0 0 Z M-20.966 24.549 C-24.446 30.903 -23.44 38.744 -23.235 45.767 C-23.21 47.273 -23.187 48.778 -23.167 50.283 C-23.112 53.945 -23.026 57.606 -22.923 61.267 C-22.438 61.365 -22.438 61.365 -19.988 61.86 C-18.721 62.122 -17.454 62.384 -16.149 62.654 C-15.521 62.783 -15.521 62.783 -12.339 63.434 C-6.811 64.782 -4.291 66.683 -0.548 71.017 C1.599 75.312 1.692 77.505 1.077 82.267 C-0.548 84.767 -0.548 84.767 -2.923 86.267 C-6.067 86.717 -7.963 86.943 -10.61 85.08 C-11.923 83.267 -11.923 83.267 -13.11 80.642 C-13.708 79.859 -14.307 79.075 -14.923 78.267 C-16.243 78.102 -16.243 78.102 -22.923 77.267 C-22.923 93.107 -22.923 108.947 -22.923 125.267 C-18.303 125.927 -13.683 126.587 -8.923 127.267 C-1.001 132.062 -1.001 132.062 1.077 137.267 C1.742 141.226 1.616 144.307 -0.36 147.83 C-4.249 150.012 -7.671 149.103 -11.923 148.267 C-12.232 147.298 -12.542 146.329 -12.86 145.33 C-13.923 142.267 -13.923 142.267 -14.923 141.267 C-17.563 141.267 -20.203 141.267 -22.923 141.267 C-22.923 156.447 -22.923 171.627 -22.923 187.267 C-18.303 188.257 -13.683 189.247 -8.923 190.267 C-4.072 192.693 -1.356 195.4 1.077 200.267 C1.704 203.302 1.54 205.081 1.077 208.267 C-1.048 210.83 -1.048 210.83 -3.923 212.267 C-6.923 212.455 -6.923 212.455 -9.923 211.267 C-11.234 209.529 -12.279 207.806 -13.259 205.861 C-14.923 204.267 -14.923 204.267 -22.923 203.267 C-22.923 218.777 -22.923 234.287 -22.923 250.267 C-17.973 251.257 -13.023 252.247 -7.923 253.267 C-0.61 258.142 -0.61 258.142 1.077 262.267 C1.717 266.225 1.702 269.306 -0.548 272.767 C-3.644 274.723 -5.321 274.868 -8.923 274.267 C-11.771 272.035 -12.773 270.717 -13.923 267.267 C-15.923 266.267 -15.923 266.267 -22.923 266.267 C-22.923 281.447 -22.923 296.627 -22.923 312.267 C-18.633 312.927 -14.343 313.587 -9.923 314.267 C-4.89 316.784 -0.956 318.803 1.077 324.267 C1.703 328.23 1.706 331.3 -0.548 334.767 C-3.574 336.679 -5.4 336.642 -8.923 336.267 C-9.913 335.937 -10.903 335.607 -11.923 335.267 C-12.627 333.28 -13.294 331.28 -13.923 329.267 C-16.879 327.789 -19.665 328.207 -22.923 328.267 C-23.022 334.245 -23.094 340.222 -23.143 346.2 C-23.163 348.231 -23.19 350.262 -23.225 352.292 C-23.273 355.222 -23.296 358.15 -23.313 361.08 C-23.324 361.53 -23.324 361.53 -23.376 363.805 C-23.378 370.567 -21.969 376.182 -17.106 381.107 C-16.53 381.469 -15.954 381.832 -15.36 382.205 C-14.781 382.585 -14.203 382.965 -13.606 383.357 C-9.414 385.624 -5.376 385.396 -0.755 385.365 C0.04 385.364 0.835 385.362 1.654 385.361 C4.191 385.355 6.728 385.343 9.265 385.33 C10.985 385.325 12.706 385.32 14.427 385.316 C18.644 385.305 22.86 385.288 27.077 385.267 C27.8 380.725 28.202 376.369 28.203 371.771 C28.204 371.136 28.204 371.136 28.211 367.92 C28.209 366.522 28.207 365.125 28.204 363.727 C28.205 362.233 28.207 360.739 28.209 359.244 C28.213 355.146 28.211 351.048 28.208 346.95 C28.206 342.527 28.209 338.104 28.212 333.682 C28.216 325.023 28.215 316.364 28.213 307.705 C28.21 300.672 28.21 293.638 28.211 286.605 C28.211 286.104 28.211 286.104 28.212 283.572 C28.212 281.539 28.212 279.507 28.212 277.474 C28.215 258.416 28.212 239.358 28.207 220.3 C28.202 203.931 28.203 187.563 28.208 171.194 C28.213 152.195 28.215 133.197 28.212 114.198 C28.212 112.174 28.211 110.151 28.211 108.127 C28.211 107.132 28.211 106.136 28.211 105.11 C28.21 98.079 28.211 91.047 28.214 84.015 C28.216 75.456 28.216 66.896 28.21 58.337 C28.208 53.966 28.207 49.596 28.21 45.225 C28.213 41.231 28.211 37.237 28.206 33.242 C28.205 31.791 28.205 30.34 28.208 28.888 C28.211 26.928 28.207 24.969 28.203 23.009 C28.203 21.916 28.203 20.824 28.203 19.698 C28.077 17.267 28.077 17.267 27.077 16.267 C22.093 15.974 17.107 15.953 12.115 15.917 C10.437 15.901 8.76 15.874 7.082 15.835 C-13.537 15.366 -13.537 15.366 -20.966 24.549 Z M43.077 17.267 C42.979 19.216 42.952 21.168 42.951 23.119 C42.949 24.399 42.946 25.679 42.943 26.997 C42.946 28.436 42.948 29.875 42.95 31.314 C42.949 32.828 42.948 34.342 42.946 35.856 C42.941 40.036 42.943 44.216 42.947 48.396 C42.949 52.896 42.945 57.397 42.943 61.897 C42.938 70.721 42.939 79.546 42.942 88.37 C42.944 95.538 42.944 102.706 42.943 109.874 C42.943 110.892 42.943 111.91 42.943 112.959 C42.943 115.027 42.942 117.095 42.942 119.163 C42.939 138.579 42.942 157.995 42.948 177.411 C42.952 194.09 42.951 210.769 42.947 227.448 C42.942 246.791 42.939 266.135 42.942 285.479 C42.943 287.54 42.943 289.6 42.943 291.661 C42.944 292.675 42.944 293.689 42.944 294.733 C42.945 301.897 42.943 309.061 42.941 316.225 C42.938 324.949 42.939 333.674 42.944 342.398 C42.947 346.853 42.948 351.309 42.945 355.765 C42.942 359.837 42.943 363.909 42.949 367.981 C42.95 369.461 42.949 370.941 42.947 372.421 C42.944 374.419 42.947 376.417 42.951 378.416 C42.952 379.53 42.952 380.643 42.952 381.791 C43.077 384.267 43.077 384.267 44.077 385.267 C46.529 385.367 48.952 385.402 51.404 385.394 C51.792 385.395 51.792 385.395 53.755 385.399 C56.376 385.403 58.996 385.4 61.616 385.397 C63.487 385.398 65.357 385.4 67.228 385.402 C72.322 385.407 77.417 385.405 82.512 385.402 C87.832 385.399 93.151 385.402 98.47 385.403 C107.405 385.405 116.34 385.403 125.274 385.398 C135.62 385.392 145.966 385.394 156.311 385.4 C165.177 385.404 174.042 385.405 182.908 385.402 C188.21 385.401 193.512 385.4 198.815 385.404 C203.799 385.407 208.782 385.405 213.766 385.399 C215.601 385.397 217.435 385.398 219.27 385.4 C221.764 385.403 224.257 385.399 226.751 385.394 C227.118 385.396 227.118 385.396 228.98 385.401 C233.963 385.382 233.963 385.382 235.077 384.267 C235.181 382.325 235.213 380.379 235.219 378.434 C235.222 377.796 235.222 377.796 235.237 374.568 C235.239 373.134 235.241 371.7 235.242 370.266 C235.247 368.757 235.253 367.248 235.259 365.739 C235.275 361.572 235.284 357.405 235.292 353.238 C235.303 348.752 235.318 344.266 235.333 339.78 C235.362 330.983 235.385 322.187 235.406 313.39 C235.423 306.244 235.443 299.098 235.463 291.952 C235.465 291.444 235.465 291.444 235.472 288.876 C235.478 286.814 235.484 284.752 235.49 282.691 C235.546 263.332 235.595 243.974 235.643 224.616 C235.684 207.989 235.73 191.362 235.78 174.735 C235.838 155.451 235.893 136.166 235.943 116.881 C235.948 114.826 235.954 112.772 235.959 110.717 C235.96 110.211 235.96 110.211 235.967 107.653 C235.985 100.512 236.006 93.371 236.028 86.23 C236.055 77.532 236.078 68.835 236.096 60.137 C236.106 55.695 236.117 51.253 236.133 46.812 C236.147 42.751 236.156 38.691 236.162 34.63 C236.165 33.156 236.169 31.681 236.176 30.207 C236.184 28.214 236.186 26.22 236.187 24.227 C236.189 23.671 236.189 23.671 236.196 20.861 C236.077 18.267 236.077 18.267 235.077 16.267 C210.191 16.244 185.305 16.226 160.419 16.216 C148.865 16.21 137.311 16.203 125.757 16.192 C115.69 16.182 105.623 16.176 95.557 16.173 C90.223 16.172 84.889 16.169 79.555 16.162 C74.541 16.155 69.527 16.153 64.513 16.154 C62.667 16.154 60.821 16.152 58.975 16.148 C56.466 16.143 53.957 16.144 51.449 16.147 C51.078 16.146 51.078 16.146 49.205 16.138 C44.191 16.153 44.191 16.153 43.077 17.267 Z M252.077 16.267 C250.71 19.002 250.952 21.163 250.951 24.227 C250.949 25.505 250.946 26.783 250.943 28.1 C250.946 29.532 250.948 30.964 250.95 32.396 C250.949 33.907 250.948 35.417 250.946 36.928 C250.941 41.095 250.943 45.261 250.947 49.428 C250.949 53.915 250.945 58.402 250.943 62.89 C250.938 71.686 250.939 80.483 250.942 89.28 C250.944 96.425 250.944 103.571 250.943 110.717 C250.943 111.732 250.943 112.747 250.943 113.793 C250.943 115.855 250.942 117.917 250.942 119.98 C250.939 139.336 250.942 158.692 250.948 178.048 C250.952 194.675 250.951 211.303 250.947 227.93 C250.942 247.216 250.939 266.502 250.942 285.789 C250.943 287.843 250.943 289.897 250.943 291.952 C250.944 292.963 250.944 293.974 250.944 295.015 C250.945 302.157 250.943 309.299 250.941 316.441 C250.938 325.138 250.939 333.834 250.944 342.531 C250.947 346.973 250.948 351.414 250.945 355.856 C250.942 359.915 250.943 363.974 250.949 368.033 C250.95 369.508 250.949 370.983 250.947 372.458 C250.944 374.45 250.947 376.442 250.951 378.434 C250.952 379.544 250.952 380.655 250.952 381.799 C251.077 384.267 251.077 384.267 252.077 385.267 C256.082 385.511 260.091 385.496 264.103 385.508 C266.107 385.517 268.111 385.548 270.114 385.58 C284.848 385.639 284.848 385.639 291.101 380.654 C291.547 380.093 291.993 379.533 292.452 378.955 C292.914 378.402 293.375 377.849 293.851 377.279 C296.535 372.877 297.327 368.52 297.345 363.427 C297.353 362.277 297.362 361.127 297.371 359.943 C297.37 358.689 297.37 357.435 297.369 356.143 C297.376 354.79 297.383 353.437 297.391 352.084 C297.411 348.372 297.418 344.659 297.423 340.947 C297.431 336.941 297.45 332.934 297.468 328.928 C297.501 321.08 297.523 313.232 297.541 305.383 C297.556 299.001 297.575 292.619 297.597 286.236 C297.6 285.328 297.603 284.419 297.606 283.483 C297.613 281.638 297.619 279.792 297.625 277.946 C297.684 260.632 297.73 243.318 297.772 226.004 C297.809 211.163 297.856 196.323 297.911 181.483 C297.974 164.241 298.031 147 298.078 129.758 C298.083 127.917 298.088 126.076 298.093 124.235 C298.095 123.329 298.098 122.423 298.1 121.49 C298.118 115.123 298.14 108.755 298.165 102.388 C298.194 94.617 298.216 86.847 298.229 79.076 C298.236 75.115 298.246 71.154 298.265 67.193 C298.282 63.559 298.29 59.925 298.291 56.291 C298.293 54.37 298.306 52.449 298.319 50.528 C298.285 28.168 298.285 28.168 292.649 21.618 C285.091 15.125 275.899 15.782 266.515 16.017 C265.11 16.038 263.706 16.056 262.302 16.072 C258.893 16.119 255.485 16.185 252.077 16.267 Z " fill="currentColor" transform="translate(127.92277526855469,54.732574462890625)"/>
<path d="M0 0 C2.812 1 4.072 1.619 5.812 4 C6.773 6.882 6.918 8.699 6.875 11.688 C6.866 12.496 6.857 13.304 6.848 14.137 C6.836 14.752 6.824 15.366 6.812 16 C7.947 16.062 9.081 16.124 10.25 16.188 C18.997 17.287 26.657 23.162 32.125 29.812 C34.294 33.91 34.812 36.346 34.812 41 C33.375 44 33.375 44 30.812 46 C27.989 46.704 25.633 46.729 22.812 46 C20.562 43.812 20.562 43.812 18.812 41 C15.43 36.264 12.182 33.802 6.449 32.438 C-1.236 31.162 -9.18 31.299 -16.188 35 C-20.361 39.278 -21.294 41.998 -21.418 47.93 C-21.144 50.394 -20.46 51.874 -19.188 54 C-12.822 57.864 -6.102 59.531 1.062 61.375 C16.162 65.469 27.151 69.384 35.812 83.188 C38.323 92.758 37.762 102.358 32.812 111 C28.354 118.183 21.099 122.408 13.102 124.816 C11.021 125.286 8.918 125.655 6.812 126 C6.874 127.217 6.936 128.434 7 129.688 C7 133.597 6.296 135.873 3.812 139 C0.812 141 0.812 141 -2.125 140.875 C-5.816 139.82 -7.121 139.259 -9.188 136 C-9.515 132.64 -9.419 129.364 -9.188 126 C-10.136 125.938 -11.085 125.876 -12.062 125.812 C-21.161 124.455 -29.208 118.782 -35.188 112 C-37.801 107.942 -39.188 104.534 -39.188 99.688 C-37.979 96.439 -37.061 94.966 -34.188 93 C-30.292 92.443 -28.174 92.287 -24.938 94.625 C-23.188 97 -23.188 97 -21.75 100 C-19.227 104.843 -15.936 106.878 -10.938 108.75 C-2.748 111.213 4.982 110.436 12.812 107 C16.434 104.133 18.758 101.535 19.812 97 C19.962 92.674 19.39 89.819 16.875 86.25 C9.252 80.649 -0.489 78.668 -9.508 76.289 C-17.586 74.079 -24.234 71.321 -30.5 65.625 C-31.321 64.895 -32.142 64.166 -32.988 63.414 C-37.492 58.47 -38.84 53.406 -39.5 46.938 C-38.881 39.137 -36.553 31.246 -31.012 25.523 C-24.812 20.346 -17.933 17.133 -10.188 15 C-10.185 14.336 -10.182 13.672 -10.18 12.988 C-9.824 4.867 -9.824 4.867 -6.5 1.812 C-3.188 0 -3.188 0 0 0 Z " fill="currentColor" transform="translate(268.1875,134)"/>
<path d="M0 0 C0.484 -0.004 0.484 -0.004 2.933 -0.026 C6.134 -0.049 9.334 -0.05 12.535 -0.049 C14.76 -0.056 16.984 -0.064 19.208 -0.072 C23.871 -0.085 28.534 -0.087 33.197 -0.081 C39.174 -0.075 45.15 -0.106 51.127 -0.146 C55.721 -0.172 60.315 -0.175 64.909 -0.171 C67.112 -0.173 69.316 -0.183 71.52 -0.2 C74.601 -0.223 77.68 -0.213 80.762 -0.195 C81.673 -0.209 82.583 -0.222 83.522 -0.236 C87.986 -0.176 89.863 -0.027 93.508 2.771 C95.446 5.42 95.446 5.42 96.133 8.42 C95.347 11.85 94.084 13.218 91.347 15.371 C87.707 17.379 83.913 17.096 79.848 17.035 C78.899 17.041 77.95 17.046 76.973 17.052 C73.847 17.064 70.723 17.04 67.598 17.014 C65.421 17.012 63.245 17.012 61.068 17.014 C56.511 17.012 51.954 16.993 47.397 16.962 C41.558 16.922 35.718 16.918 29.878 16.925 C25.385 16.928 20.893 16.916 16.4 16.899 C14.247 16.892 12.093 16.889 9.94 16.89 C6.931 16.888 3.923 16.867 0.914 16.84 C0.025 16.843 -0.864 16.846 -1.78 16.849 C-6.511 16.783 -9.731 16.524 -13.554 13.42 C-15.338 10.473 -15.731 9.161 -14.929 5.795 C-11.308 -0.461 -6.591 -0.021 0 0 Z " fill="currentColor" transform="translate(226.554443359375,307.580078125)"/>
<path d="M0 0 C0.968 -0.009 1.936 -0.018 2.934 -0.027 C6.129 -0.049 9.324 -0.034 12.52 -0.017 C14.742 -0.02 16.965 -0.025 19.188 -0.032 C23.845 -0.039 28.502 -0.028 33.159 -0.005 C39.128 0.024 45.096 0.007 51.065 -0.023 C55.655 -0.041 60.244 -0.035 64.834 -0.022 C67.035 -0.019 69.236 -0.023 71.437 -0.035 C74.513 -0.047 77.588 -0.028 80.664 0 C81.119 -0.005 81.119 -0.005 83.419 -0.031 C87.879 0.044 89.758 0.207 93.401 3 C95.332 5.647 95.332 5.647 95.895 8.647 C95.204 12.329 93.964 14.015 91.332 16.647 C88.638 17.545 87.085 17.776 84.322 17.787 C83.916 17.79 83.916 17.79 81.859 17.805 C81.414 17.805 81.414 17.805 79.167 17.808 C78.697 17.811 78.697 17.811 76.323 17.823 C73.214 17.838 70.105 17.845 66.996 17.85 C64.838 17.856 62.679 17.862 60.521 17.867 C55.993 17.878 51.465 17.884 46.938 17.887 C41.135 17.893 35.332 17.917 29.529 17.945 C25.07 17.964 20.611 17.969 16.151 17.971 C14.012 17.974 11.872 17.982 9.733 17.995 C6.741 18.012 3.749 18.01 0.756 18.003 C-0.128 18.013 -1.012 18.022 -1.923 18.031 C-6.652 17.999 -9.843 17.753 -13.668 14.647 C-15.237 11.508 -15.02 9.108 -14.668 5.647 C-10.528 -0.157 -6.588 -0.073 0 0 Z " fill="currentColor" transform="translate(226.66796875,350.35302734375)"/>
</svg>
