<?xml version="1.0" encoding="UTF-8"?>
<!-- Generator: visioncortex VTracer 0.6.12 -->
<svg viewBox="0 0 512 512" version="1.1" xmlns="http://www.w3.org/2000/svg" width="512" height="512">
<path d="M0 0 C8.413 8.12 8.413 8.12 11 12 C11.99 12.33 12.98 12.66 14 13 C14.128 12.641 14.128 12.641 14.777 10.824 C23.365 -9.011 42.594 -22.319 62 -30 C76.221 -34.887 96.5 -37.083 111 -32 C113.743 -30.156 114.414 -29.055 116 -26 C115.753 -20.972 114.116 -18.431 110.938 -14.625 C93.714 7.159 86.59 37.606 89.507 64.972 C92.006 85.836 97.099 108.654 111.938 124.438 C114.317 127.003 115.06 128.174 116.25 131.625 C115.987 135.177 115.338 137.216 112.797 139.777 C103.167 146.33 83.535 143.855 72.5 142.312 C50.83 137.88 31.082 123.84 18.668 105.668 C17.288 103.572 15.927 101.462 14.594 99.336 C13 97 13 97 11 96 C10.768 96.548 10.536 97.096 10.297 97.66 C-2.916 121.5 -34.577 140.251 -59 150 C-59.59 150.237 -60.18 150.473 -60.788 150.717 C-102.31 167.1 -148.592 163.159 -189.125 145.625 C-224.329 129.993 -251.206 104.535 -274 74 C-274.439 73.414 -274.877 72.828 -275.329 72.224 C-284.509 59.917 -284.509 59.917 -284.321 53.074 C-283.778 49.562 -281.951 46.895 -279.938 44.062 C-279.525 43.454 -279.112 42.846 -278.687 42.219 C-275.903 38.158 -272.997 34.195 -269.898 30.367 C-268.49 28.611 -267.127 26.818 -265.789 25.008 C-254.428 9.743 -240.651 -4.145 -225 -15 C-224.44 -15.399 -223.879 -15.799 -223.302 -16.21 C-200.426 -32.489 -175.433 -42.385 -148 -48 C-147.43 -48.117 -147.43 -48.117 -144.547 -48.711 C-89.645 -58.84 -39.312 -37.175 0 0 Z M-134 -34 C-133.325 -30.785 -132.175 -28.11 -130.707 -25.176 C-130.244 -24.238 -129.782 -23.301 -129.305 -22.335 C-128.812 -21.337 -128.32 -20.34 -127.812 -19.312 C-111.575 14.213 -106.081 49.23 -113 86 C-113.134 86.753 -113.268 87.507 -113.406 88.283 C-116.66 106.318 -123.383 122.877 -132.312 138.824 C-134 142 -134 142 -134 144 C-93.12 147.166 -56.556 137.518 -24.551 111.215 C-19.246 106.609 -14.101 101.829 -9 97 C-8.38 96.429 -7.76 95.858 -7.121 95.27 C-6 94 -6 94 -6 92 C-5.34 92 -4.68 92 -4 92 C-2.273 89.95 -0.657 87.899 0.938 85.75 C1.38 85.163 1.823 84.577 2.279 83.973 C4.103 81.554 5.902 79.144 7.602 76.637 C9 75 9 75 12.438 74.062 C16.502 73.991 17.161 74.262 20 77 C21.605 79.934 21.605 79.934 23.188 83.438 C32.184 102.369 47.146 116.731 66.625 124.438 C75.154 127.221 84.052 128.351 93 128 C91.564 123.221 89.504 118.958 87.188 114.562 C72.939 86.623 71.033 54.445 77 24 C77.07 23.642 77.07 23.642 77.422 21.833 C80.335 7.481 85.962 -5.751 94 -18 C75.811 -18.841 58.196 -14.17 44.068 -2.123 C34.065 6.998 27.215 17.928 20.848 29.727 C19 33 19 33 17 35 C13.688 35.469 13.688 35.469 10 35 C7.375 32.656 7.375 32.656 5 29.5 C4.132 28.384 3.264 27.268 2.395 26.152 C1.604 25.112 0.814 24.072 0 23 C-23.038 -5.111 -54.431 -25.008 -90 -33 C-90.454 -33.102 -90.454 -33.102 -92.75 -33.621 C-106.094 -36.14 -120.593 -35.983 -134 -34 Z M-161.375 -29.125 C-161.745 -29.014 -161.745 -29.014 -163.62 -28.452 C-184.253 -22.004 -202.793 -11.981 -220 1 C-220.888 1.661 -221.776 2.323 -222.691 3.004 C-236.467 13.751 -248.98 26.697 -259 41 C-259.803 42.097 -260.606 43.193 -261.41 44.289 C-267.014 52.19 -267.014 52.19 -266.957 55.461 C-254.595 88.259 -214.417 117.022 -183.774 131.017 C-175.427 134.712 -166.979 138.192 -158 140 C-156.762 140.268 -155.525 140.536 -154.25 140.812 C-148.836 139.459 -146.849 134.562 -144 130 C-136.461 116.708 -130.934 102.985 -128 88 C-127.841 87.227 -127.681 86.454 -127.517 85.657 C-119.924 47.733 -126.373 7.334 -147.438 -25.312 C-151.662 -31.495 -154.592 -31.17 -161.375 -29.125 Z " fill="currentColor" transform="translate(340,201)"/>
<path d="M0 0 C4.03 2.164 8.033 4.669 9.836 9.016 C11.189 14.626 11.037 17.837 8 23 C5.149 26.637 2.51 28.027 -2 29 C-6.785 28.748 -10.208 27.972 -14 25 C-17.113 21.282 -18.834 17.893 -19.23 13.09 C-18.673 8.034 -15.433 4.273 -11.75 1 C-7.763 -0.45 -4.188 -0.68 0 0 Z " fill="currentColor" transform="translate(157,228)"/>
</svg>
