<?xml version="1.0" encoding="UTF-8"?>
<!-- Generator: visioncortex VTracer 0.6.12 -->
<svg viewBox="0 0 512 512" version="1.1" xmlns="http://www.w3.org/2000/svg" width="512" height="512">
<path d="M0 0 C13.318 10.365 22.17 23.223 25 40 C25.199 43.056 25.153 45.935 25 49 C26.12 48.678 27.24 48.355 28.395 48.023 C42.792 44.447 58.299 46.536 71.188 53.688 C86.411 63.615 95.945 77.306 100 95 C102.373 110.671 99.948 126.155 90.484 139.185 C82.144 150.057 73.074 155.947 61 162 C61.398 162.776 61.797 163.552 62.207 164.352 C69.986 180.213 72.158 194.967 67 212 C63.217 221.022 57.934 228.163 51 235 C50.363 235.647 49.726 236.294 49.07 236.961 C39.036 246.496 25.783 250.727 12.125 251.438 C-2.809 250.918 -14.414 245.012 -26 236 C-25.67 265.7 -25.34 295.4 -25 326 C-21.7 321.05 -18.4 316.1 -15 311 C-12.05 307.525 -9.164 304.248 -6 301 C-5.282 300.232 -4.564 299.463 -3.824 298.672 C16.773 277.16 47.108 264.587 76.734 263.797 C78.74 263.776 80.745 263.76 82.75 263.75 C83.257 263.74 83.257 263.74 85.824 263.688 C95.136 263.639 95.136 263.639 99 267 C102.322 271.982 101.125 277.314 100 283 C92.185 313.814 73.174 341.144 45.84 357.797 C34.792 364.27 23.457 369.012 11 372 C10.585 372.106 10.585 372.106 8.484 372.645 C-2.897 375.41 -14.369 375.114 -26 375 C-25.983 375.615 -25.967 376.23 -25.949 376.863 C-25.936 377.672 -25.924 378.48 -25.91 379.312 C-25.893 380.113 -25.877 380.914 -25.86 381.738 C-26.075 385.211 -27.577 387.577 -30 390 C-32.924 390.283 -35.157 390.486 -38 390 C-40.9 387.1 -41.171 384.234 -41.566 380.309 C-41.65 379.501 -41.733 378.693 -41.819 377.861 C-41.878 377.247 -41.938 376.633 -42 376 C-43.247 375.963 -44.493 375.925 -45.777 375.887 C-57.077 375.48 -67.967 374.514 -79 372 C-79.686 371.846 -80.373 371.692 -81.08 371.533 C-99.349 367.248 -114.861 358.143 -129 346 C-129.851 345.3 -130.702 344.6 -131.578 343.879 C-149.936 328.362 -164.463 302.399 -167.785 278.699 C-168.143 274.199 -168.341 269.89 -165.625 266.062 C-155.053 259.15 -131.748 264.44 -120.312 266.742 C-97.94 272.098 -78.063 283.672 -62 300 C-61.117 300.884 -60.234 301.769 -59.324 302.68 C-52.338 310.003 -47.794 317.309 -42 326 C-41.67 296.3 -41.34 266.6 -41 236 C-45.29 238.97 -49.58 241.94 -54 245 C-58.156 246.938 -58.156 246.938 -61.5 248 C-62.624 248.371 -63.748 248.743 -64.906 249.125 C-79.745 253.322 -94.438 251.058 -107.977 243.934 C-113.633 240.316 -118.293 235.756 -123 231 C-123.63 230.392 -124.261 229.783 -124.91 229.156 C-129.587 224.277 -131.764 218.289 -134 212 C-134.322 211.112 -134.645 210.224 -134.977 209.309 C-139.373 195.524 -137.614 180.065 -131.621 166.992 C-130.487 164.93 -129.32 162.947 -128 161 C-128.704 160.901 -129.408 160.801 -130.133 160.699 C-143.627 157.408 -153.778 146.164 -161 135 C-168.958 119.739 -170.164 103.447 -165 87 C-159.193 71.423 -149.099 59.09 -134.09 51.535 C-119.762 45.157 -106.934 44.689 -92 49 C-92.082 47.804 -92.165 46.608 -92.25 45.375 C-92.226 30.306 -84.982 17.184 -74.766 6.699 C-68.538 0.621 -61.977 -3.528 -54 -7 C-53.288 -7.322 -52.577 -7.645 -51.844 -7.977 C-34.9 -14.36 -14.578 -9.748 0 0 Z M-67.621 21.031 C-72.681 28.198 -77.268 37.05 -76.957 45.965 C-76.946 46.447 -76.946 46.447 -76.893 48.889 C-76.839 50.918 -76.774 52.946 -76.697 54.975 C-76.564 62.374 -76.564 62.374 -78.852 65.66 C-81.942 67.588 -83.359 67.53 -87 67 C-89.845 66.079 -92.629 65.061 -95.414 63.973 C-105.127 60.319 -115.63 61.103 -125.242 64.73 C-138.018 70.612 -145.522 80.101 -151.188 92.625 C-155.104 104.075 -153.258 115.559 -148.125 126.188 C-142.81 136.803 -134.71 143.048 -123.664 147.168 C-119.654 148.42 -115.581 149.338 -111.469 150.191 C-109 151 -109 151 -107 154 C-106.44 157.43 -106.75 158.65 -108.793 161.508 C-109.583 162.371 -110.373 163.235 -111.188 164.125 C-120.363 174.833 -122.661 185.182 -122 199 C-120.861 210.592 -113.413 220.352 -105 228 C-94.617 235.158 -83.93 237.66 -71.43 235.57 C-60.382 232.693 -50.501 226.431 -44 217 C-43.11 215.205 -42.255 213.392 -41.438 211.562 C-39.693 207.766 -39.411 207.195 -35.438 205.312 C-29.995 204.818 -29.995 204.818 -28 206 C-27.288 207.984 -26.635 209.99 -26 212 C-21.184 222.23 -13.592 229.109 -3.074 233.258 C-2.39 233.503 -1.705 233.748 -1 234 C0.114 234.413 1.227 234.825 2.375 235.25 C11.071 237.049 18.757 236.176 27 233 C27.677 232.745 28.354 232.49 29.051 232.227 C39.978 227.453 47.263 218.34 52.027 207.707 C56.148 196.371 54.968 184.152 50.574 173.148 C48.091 168.181 44.924 163.924 41 160 C40.624 156.619 40.454 154.727 42.535 151.953 C45.687 149.456 48.936 148.578 52.75 147.562 C65.01 143.985 73.862 137.865 80.375 126.562 C86.097 115.212 86.922 102.826 82.938 90.688 C80.511 84.585 77.528 79.744 73 75 C72.478 74.45 71.956 73.899 71.418 73.332 C62.431 64.826 51.641 61.648 39.574 61.703 C33.165 62.235 26.763 64.118 21 67 C13.603 67.47 13.603 67.47 11.388 65.745 C9.642 63.551 9.683 62.524 9.812 59.754 C9.838 58.922 9.864 58.091 9.89 57.234 C9.908 56.793 9.908 56.793 10 54.562 C10.281 39.565 7.17 28.344 -3.25 17.188 C-11.337 9.52 -22.332 5.083 -33.5 4.625 C-46.257 5.148 -59.601 10.982 -67.621 21.031 Z M-152 279 C-148.606 303.867 -131.935 326.069 -112.406 340.98 C-94.74 353.527 -73.656 360.306 -52 360.062 C-51.613 360.06 -51.613 360.06 -49.652 360.049 C-47.768 360.037 -45.884 360.019 -44 360 C-46.689 342.969 -57.129 327.923 -68 315 C-68.436 314.456 -68.873 313.913 -69.322 313.353 C-72.929 308.958 -76.799 305.486 -81.375 302.125 C-82.073 301.612 -82.77 301.099 -83.489 300.57 C-103.945 285.805 -126.569 278.075 -152 279 Z M11 305 C10.321 305.538 9.641 306.075 8.941 306.629 C-6.882 319.332 -16.959 338.999 -23 358 C-23 358.66 -23 359.32 -23 360 C-11.619 360.414 -1.125 359.434 10 357 C10.889 356.807 11.779 356.613 12.695 356.414 C34.56 350.707 53.415 336.663 67 319 C67.62 318.207 68.24 317.414 68.879 316.598 C77.07 305.585 81.725 293.204 85 280 C83.318 278.318 81.312 278.788 79 278.75 C53.962 279.017 29.593 288.331 11 305 Z " fill="currentColor" transform="translate(289,66)"/>
<path d="M0 0 C9.573 7.412 15.075 16.552 17.312 28.438 C18.802 41.374 15.552 52.772 7.516 62.996 C-0.147 71.487 -9.555 76.859 -21.035 77.676 C-33.414 77.923 -43.994 75.546 -53.688 67.438 C-63.207 58.163 -67.654 47.897 -68.188 34.562 C-67.901 23.167 -63.137 12.973 -55.688 4.438 C-39.975 -10.424 -17.697 -11.806 0 0 Z M-47.688 18.438 C-52.858 25.502 -53.624 32.884 -52.688 41.438 C-50.667 47.515 -47.585 52.275 -42.688 56.438 C-41.883 57.159 -41.079 57.881 -40.25 58.625 C-33.756 63.218 -26.355 63.294 -18.688 62.438 C-9.878 59.814 -4.372 54.001 0.188 46.25 C3.173 38.787 2.939 31.596 0.484 24 C-2.805 16.806 -8.609 11.705 -15.688 8.438 C-28.331 4.611 -39.072 9.045 -47.688 18.438 Z " fill="currentColor" transform="translate(280.6875,160.5625)"/>
</svg>
