<?xml version="1.0" encoding="UTF-8"?>
<!-- Generator: visioncortex VTracer 0.6.12 -->
<svg viewBox="0 0 512 512" version="1.1" xmlns="http://www.w3.org/2000/svg" width="512" height="512">
<path d="M0 0 C2.842 1.458 5.327 3.332 7.875 5.25 C8.618 5.793 9.361 6.336 10.127 6.895 C12.429 8.583 14.715 10.29 17 12 C18.345 12.993 19.69 13.985 21.035 14.977 C33.975 24.558 46.751 34.405 59.164 44.66 C62.76 47.627 66.38 50.563 70 53.5 C71.384 54.625 72.768 55.75 74.152 56.875 C76.413 58.712 78.675 60.545 80.941 62.375 C91.797 71.176 102.305 80.379 112.605 89.82 C114.629 91.662 116.676 93.465 118.75 95.25 C124.745 100.464 130.509 105.934 136.282 111.391 C137.742 112.758 139.224 114.1 140.711 115.438 C144.06 118.532 145.785 120.354 147.25 124.75 C147 128 147 128 145.188 130.375 C138.268 135.515 137.576 133 125 133 C125 179.86 125 226.72 125 275 C161.614 275 161.614 275 175.348 263.734 C179.66 259.208 182.853 253.327 183 247 C182.063 244.938 182.063 244.938 181 243 C180.562 240.5 180.562 240.5 181 238 C183.431 235.36 184.863 234.057 188.5 233.875 C192.202 235.541 194.394 237.3 196 241 C197.188 249.381 196.48 256.776 192 264 C191.587 264.686 191.175 265.372 190.75 266.078 C185.047 274.569 176.323 279.339 167 283 C166.39 283.276 165.781 283.552 165.152 283.836 C147.925 291.224 123.385 289.813 105.812 283.934 C103.096 282.764 100.567 281.468 98 280 C97.528 279.736 97.528 279.736 95.137 278.402 C88.965 274.736 84.347 270.712 80 265 C76.642 266.119 76.113 266.863 74 269.562 C65.14 279.952 53.748 285.815 40.344 287.75 C30.438 288.491 20.249 287.795 11 284 C10.524 283.805 10.524 283.805 8.113 282.82 C0.106 279.191 -5.808 274.172 -12 268 C-12.763 267.239 -13.526 266.479 -14.312 265.695 C-14.869 265.136 -15.426 264.576 -16 264 C-16.28 264.592 -16.559 265.183 -16.848 265.793 C-22.147 275.943 -32.693 281.81 -43.258 285.281 C-56.582 288.774 -68.974 286.441 -80.898 279.855 C-87.897 275.669 -92.375 270.674 -97 264 C-97.66 264.681 -98.32 265.361 -99 266.062 C-113.779 280.717 -129.07 287.697 -150.062 288.25 C-165.441 287.817 -179.414 284.495 -191 274 C-191.637 273.466 -192.274 272.933 -192.93 272.383 C-199.373 266.603 -202.794 259.077 -204.062 250.562 C-204.24 247.275 -204.164 246.276 -202.438 243.375 C-199.337 241.626 -197.509 241.477 -194 242 C-191.248 244.138 -190.617 245.797 -190.125 249.188 C-188.68 256.424 -184.893 262.006 -179.16 266.617 C-169.963 272.505 -160.908 274.172 -150.25 274.125 C-149.394 274.129 -148.538 274.133 -147.656 274.137 C-147.231 274.136 -147.231 274.136 -145.078 274.133 C-144.319 274.132 -143.56 274.131 -142.778 274.129 C-138.838 273.946 -134.92 273.436 -131 273 C-131 226.8 -131 180.6 -131 133 C-136.28 133 -141.56 133 -147 133 C-152 129 -152 129 -153 127.125 C-153 123.677 -151.877 121.9 -150 119 C-146.665 115.679 -143 112.791 -139.312 109.875 C-136.683 107.743 -134.394 105.397 -132 103 C-124.456 95.732 -116.797 88.681 -108.609 82.141 C-105.816 79.849 -103.158 77.448 -100.5 75 C-95.692 70.585 -90.726 66.433 -85.646 62.337 C-83.761 60.806 -81.89 59.26 -80.02 57.711 C-72.825 51.753 -65.602 45.849 -58.232 40.109 C-53.833 36.676 -49.505 33.161 -45.188 29.625 C-36.94 22.886 -28.498 16.419 -20 10 C-18.777 9.073 -17.555 8.146 -16.332 7.219 C-5.877 -0.682 -5.877 -0.682 0 0 Z M-9.75 18.312 C-10.327 18.763 -10.904 19.214 -11.499 19.678 C-12.722 20.635 -13.944 21.594 -15.164 22.555 C-16.908 23.928 -18.658 25.293 -20.41 26.656 C-27.357 32.073 -34.213 37.594 -41.038 43.163 C-45.324 46.655 -49.643 50.098 -54 53.5 C-61.041 59.003 -67.982 64.624 -74.898 70.282 C-77.065 72.053 -79.236 73.82 -81.406 75.586 C-88.656 81.503 -95.784 87.481 -102.656 93.836 C-104.763 95.781 -106.898 97.682 -109.062 99.562 C-112.927 102.921 -116.726 106.348 -120.523 109.781 C-123.513 112.46 -126.549 115.081 -129.602 117.688 C-130.063 118.121 -130.525 118.554 -131 119 C-131 119.33 -131 119.66 -131 120 C-46.19 120 38.62 120 126 120 C119.309 112.194 119.309 112.194 116.5 109.875 C113.246 107.113 110.111 104.253 107.002 101.33 C101.437 96.1 95.796 91.077 89.832 86.301 C86.558 83.641 83.375 80.888 80.188 78.125 C75.032 73.673 69.77 69.395 64.391 65.215 C59.877 61.704 55.43 58.117 51 54.5 C40.23 45.722 29.287 37.189 18.25 28.75 C17.387 28.088 16.523 27.427 15.634 26.745 C-2.724 12.753 -2.724 12.753 -9.75 18.312 Z M-118 133 C-118 176.89 -118 220.78 -118 266 C-108.991 259.243 -108.991 259.243 -106.125 254.375 C-105.571 253.455 -105.016 252.534 -104.445 251.586 C-103 249 -103 249 -102.02 246.723 C-101 245 -101 245 -97.562 244.062 C-94 244 -94 244 -92.379 245.211 C-90.786 247.277 -90.164 249.08 -89.375 251.562 C-86.247 259.667 -80.636 265.955 -72.938 270 C-62.991 274.337 -53.953 275.625 -43.5 272.062 C-34.814 268.453 -27.514 262.334 -23 254 C-22.713 253.23 -22.425 252.461 -22.129 251.668 C-21.224 249.285 -20.38 247.146 -19 245 C-15.438 243.75 -15.438 243.75 -12 244 C-8.878 245.784 -8.12 248.959 -6.793 252.18 C-2.754 261.451 5.531 267.924 14.543 272.035 C25.904 276.496 38.635 276.482 50 272 C61.032 266.73 67.755 259.678 72.676 248.539 C74 246 74 246 77 244 C79.965 243.988 79.965 243.988 83 245 C84.941 247.73 84.941 247.73 86.562 251.188 C91.084 260.273 95.674 265.513 105 270 C107.31 270.66 109.62 271.32 112 272 C112 226.13 112 180.26 112 133 C36.1 133 -39.8 133 -118 133 Z " fill="currentColor" transform="translate(259,112)"/>
<path d="M0 0 C1.224 -0.005 2.448 -0.01 3.709 -0.014 C6.295 -0.018 8.88 -0.009 11.466 0.012 C15.424 0.039 19.378 0.012 23.336 -0.02 C25.849 -0.016 28.362 -0.01 30.875 0 C32.058 -0.01 33.242 -0.02 34.461 -0.031 C39.188 0.037 42.495 0.15 46.683 2.434 C49.435 7.5 49.131 12.331 49.066 18.008 C49.069 19.21 49.071 20.412 49.074 21.65 C49.073 24.188 49.059 26.727 49.034 29.265 C49 33.15 49.014 37.033 49.033 40.918 C49.026 43.385 49.017 45.853 49.004 48.32 C49.006 48.901 49.006 48.901 49.019 51.84 C49.003 52.925 48.987 54.009 48.971 55.127 C48.965 56.078 48.959 57.029 48.952 58.008 C48.266 61.548 47.05 63.198 44.438 65.664 C41.781 66.292 41.781 66.292 38.723 66.295 C37.575 66.308 36.427 66.32 35.244 66.333 C34.008 66.32 32.773 66.307 31.5 66.293 C30.228 66.295 28.956 66.298 27.645 66.3 C24.954 66.299 22.266 66.288 19.575 66.261 C16.132 66.227 12.689 66.233 9.246 66.252 C5.955 66.265 2.665 66.246 -0.625 66.23 C-1.86 66.235 -3.096 66.24 -4.369 66.245 C-5.517 66.23 -6.665 66.214 -7.848 66.198 C-8.352 66.194 -8.352 66.194 -10.906 66.179 C-14.348 65.512 -15.516 64.486 -17.562 61.664 C-18.077 59.091 -18.077 59.091 -18.096 56.149 C-18.112 55.044 -18.128 53.939 -18.144 52.801 C-18.139 51.612 -18.134 50.424 -18.129 49.199 C-18.135 47.974 -18.141 46.748 -18.148 45.486 C-18.155 42.894 -18.152 40.303 -18.139 37.711 C-18.125 33.745 -18.159 29.781 -18.197 25.814 C-18.198 23.297 -18.196 20.779 -18.191 18.262 C-18.205 17.075 -18.218 15.889 -18.232 14.666 C-18.178 9.938 -18.077 6.616 -15.808 2.418 C-10.68 -0.353 -5.741 -0.049 0 0 Z M-4.562 13.664 C-4.562 26.534 -4.562 39.404 -4.562 52.664 C8.637 52.664 21.837 52.664 35.438 52.664 C35.438 39.794 35.438 26.924 35.438 13.664 C22.238 13.664 9.038 13.664 -4.562 13.664 Z " fill="currentColor" transform="translate(273.5625,266.3359375)"/>
</svg>
