<?xml version="1.0" encoding="UTF-8"?>
<!-- Generator: visioncortex VTracer 0.6.12 -->
<svg viewBox="0 0 512 512" version="1.1" xmlns="http://www.w3.org/2000/svg" width="512" height="512">
<path d="M0 0 C5.163 2.857 8.346 6.599 12.047 11.133 C12.892 11.958 13.738 12.783 14.609 13.633 C20.799 19.981 23.085 26.174 23.422 34.945 C22.973 53.934 4.815 66.634 -7.6 79.13 C-9.464 81.01 -11.323 82.896 -13.176 84.788 C-15.88 87.547 -18.6 90.289 -21.324 93.027 C-22.141 93.867 -22.958 94.707 -23.8 95.572 C-31.949 103.691 -40.08 108.198 -51.703 108.383 C-57.321 108.341 -61.804 107.287 -66.953 105.133 C-68.603 104.473 -70.253 103.813 -71.953 103.133 C-114.853 146.033 -157.753 188.933 -201.953 233.133 C-200.816 235.975 -199.636 238.803 -198.328 241.57 C-195.211 250.042 -195.909 260.193 -199.49 268.403 C-205.017 278.712 -215.955 287.254 -224.203 295.445 C-225.469 296.706 -226.735 297.967 -228 299.229 C-230.318 301.538 -232.637 303.847 -234.958 306.154 C-242.626 313.779 -242.626 313.779 -244.691 316.012 C-251.105 322.87 -258.059 326.18 -267.453 326.508 C-278.875 326.273 -286.005 321.673 -293.953 313.883 C-294.588 313.263 -295.224 312.644 -295.878 312.006 C-302.393 305.264 -305.528 298.523 -305.453 289.133 C-305.197 275.29 -298.138 268.18 -288.711 258.922 C-286.259 256.427 -283.992 253.789 -281.727 251.125 C-279.563 248.694 -277.255 246.433 -274.953 244.133 C-273.374 242.5 -271.797 240.864 -270.223 239.227 C-268.404 237.362 -266.585 235.497 -264.766 233.633 C-263.87 232.696 -262.975 231.759 -262.053 230.793 C-252.839 221.413 -244.445 216.909 -231.294 216.728 C-225.476 216.808 -221.241 218.268 -216.188 221.234 C-213.953 222.133 -213.953 222.133 -212.145 221.505 C-209.279 219.711 -207.013 217.462 -204.651 215.071 C-204.39 214.811 -204.39 214.811 -203.069 213.494 C-201.321 211.75 -199.581 209.999 -197.841 208.248 C-196.589 206.996 -195.338 205.744 -194.085 204.493 C-190.687 201.095 -187.294 197.69 -183.903 194.285 C-180.357 190.727 -176.807 187.175 -173.256 183.623 C-166.534 176.894 -159.817 170.161 -153.101 163.425 C-145.456 155.758 -137.805 148.095 -130.154 140.434 C-114.414 124.673 -98.681 108.905 -82.953 93.133 C-84.02 89.835 -85.137 86.73 -86.578 83.57 C-89.718 75.134 -88.514 66.235 -85.512 57.961 C-80.838 49.481 -73.79 42.628 -67.031 35.805 C-66.566 35.334 -66.101 34.863 -65.621 34.378 C-63.163 31.89 -60.699 29.407 -58.23 26.93 C-55.708 24.396 -53.204 21.844 -50.705 19.288 C-48.753 17.299 -46.789 15.324 -44.82 13.353 C-43.447 11.97 -42.087 10.574 -40.728 9.177 C-29.261 -2.21 -15.385 -7.19 0 0 Z M-45.266 34.383 C-46.237 35.36 -47.209 36.336 -48.182 37.312 C-49.964 39.103 -51.745 40.895 -53.525 42.688 C-55.247 44.422 -56.996 46.13 -58.762 47.819 C-60.953 50.133 -60.953 50.133 -60.953 52.133 C-61.613 52.133 -62.273 52.133 -62.953 52.133 C-68.732 57.613 -74.065 63.869 -74.453 72.07 C-74.099 79.38 -71.387 84.075 -66.078 89.008 C-61.093 93.045 -56.579 94.671 -50.065 94.431 C-40.743 93.113 -34.684 86.611 -28.336 80.215 C-27.348 79.233 -26.359 78.251 -25.369 77.27 C-23.309 75.221 -21.258 73.164 -19.213 71.099 C-16.606 68.469 -13.974 65.865 -11.335 63.267 C-9.291 61.248 -7.261 59.216 -5.236 57.179 C-3.806 55.748 -2.365 54.329 -0.923 52.911 C4.107 47.791 7.917 43.386 9.047 36.133 C8.887 26.724 2.854 21.692 -3.32 15.305 C-6.769 12.459 -9.993 11.384 -14.391 10.82 C-27.246 12.388 -36.655 25.695 -45.266 34.383 Z M-248.733 238.525 C-249.627 239.409 -250.521 240.294 -251.443 241.205 C-252.4 242.168 -253.356 243.131 -254.312 244.094 C-255.308 245.087 -256.303 246.079 -257.299 247.072 C-259.378 249.146 -261.452 251.227 -263.522 253.311 C-266.17 255.976 -268.832 258.628 -271.498 261.276 C-273.554 263.321 -275.602 265.373 -277.649 267.427 C-278.627 268.408 -279.608 269.386 -280.591 270.362 C-281.965 271.728 -283.328 273.105 -284.69 274.482 C-285.467 275.261 -286.244 276.04 -287.045 276.843 C-290.892 281.458 -291.417 285.891 -291.254 291.719 C-290.361 298.889 -283.157 304.603 -277.953 309.133 C-273.58 312.195 -269.424 312.388 -264.262 311.848 C-256.867 309.558 -251.585 303.071 -246.285 297.766 C-245.827 297.309 -245.827 297.309 -243.507 295.001 C-241.575 293.076 -239.647 291.147 -237.721 289.216 C-235.262 286.751 -232.791 284.297 -230.317 281.847 C-227.945 279.493 -225.585 277.129 -223.223 274.766 C-222.338 273.89 -221.454 273.015 -220.543 272.114 C-215.029 266.558 -210.528 261.918 -210.516 253.695 C-210.805 245.126 -215.091 240.666 -220.855 234.832 C-224.598 231.801 -228.125 230.843 -232.891 230.82 C-233.297 230.812 -233.297 230.812 -235.355 230.77 C-240.946 231.551 -244.833 234.637 -248.733 238.525 Z " fill="currentColor" transform="translate(432.953125,93.8671875)"/>
<path d="M0 0 C0.33 0.165 0.33 0.165 2 1 C2.054 2.437 2.093 3.875 2.125 5.312 C2.148 6.113 2.171 6.914 2.195 7.738 C2 10 2 10 0 13 C0 8.71 0 4.42 0 0 Z " fill="currentColor" transform="translate(55,272)"/>
</svg>
