<?xml version="1.0" encoding="UTF-8"?>
<!-- Generator: visioncortex VTracer 0.6.12 -->
<svg viewBox="0 0 512 512" version="1.1" xmlns="http://www.w3.org/2000/svg" width="512" height="512">
<path d="M0 0 C0.307 0.157 0.307 0.157 1.862 0.95 C10.386 5.378 17.724 10.747 25 17 C25.761 17.54 26.521 18.08 27.305 18.637 C27.864 19.087 28.424 19.536 29 20 C29 20.66 29 21.32 29 22 C29.55 22.197 30.101 22.394 30.668 22.598 C33.97 24.583 36.011 27.418 38.312 30.438 C38.556 30.753 38.556 30.753 39.786 32.352 C52.617 49.208 62.962 68.805 66 90 C66.111 90.753 66.222 91.506 66.336 92.281 C68.054 106.953 67.924 122.51 65 137 C64.903 137.487 64.903 137.487 64.41 139.953 C59.092 163.491 47.488 183.546 31 201 C30.657 201.375 30.657 201.375 28.922 203.273 C10.213 223.022 -18.771 236.025 -46 237 C-47.152 237.052 -48.305 237.103 -49.492 237.156 C-63.762 237.495 -77.724 235.522 -91.238 230.867 C-94.146 229.954 -96.987 229.436 -100 229 C-100.66 230.32 -101.32 231.64 -102 233 C-102.66 233 -103.32 233 -104 233 C-104.26 233.59 -104.521 234.181 -104.789 234.789 C-106.074 237.135 -107.424 238.56 -109.375 240.375 C-111.546 242.479 -113.186 244.278 -114.875 246.812 C-119.141 253.212 -124.955 261.647 -132.904 263.426 C-135.038 263.738 -137.166 263.978 -139.312 264.188 C-140.053 264.269 -140.794 264.351 -141.557 264.436 C-143.37 264.634 -145.185 264.819 -147 265 C-147.005 265.532 -147.005 265.532 -147.028 268.225 C-147.068 272.186 -147.134 276.146 -147.208 280.106 C-147.236 281.818 -147.257 283.53 -147.271 285.242 C-147.292 287.708 -147.339 290.172 -147.391 292.637 C-147.392 293.398 -147.393 294.16 -147.394 294.945 C-147.53 299.902 -148.444 302.524 -152 306 C-154.958 307.479 -157.955 307.122 -161.195 307.098 C-161.903 307.096 -162.61 307.095 -163.339 307.093 C-165.601 307.088 -167.863 307.075 -170.125 307.062 C-171.658 307.057 -173.19 307.053 -174.723 307.049 C-178.482 307.038 -182.241 307.021 -186 307 C-185.984 307.497 -185.984 307.497 -185.905 310.01 C-185.796 313.72 -185.727 317.43 -185.67 321.142 C-185.64 322.743 -185.6 324.345 -185.547 325.946 C-185.072 340.914 -185.072 340.914 -187.969 345.531 C-193.255 350.211 -202.23 348.988 -208.875 348.938 C-210.438 348.951 -212 348.967 -213.562 348.986 C-217.376 349.027 -221.187 349.025 -225 349 C-225.004 350.064 -225.008 351.129 -225.012 352.225 C-225.034 356.186 -225.089 360.146 -225.153 364.106 C-225.176 365.818 -225.19 367.53 -225.196 369.242 C-225.205 371.708 -225.246 374.171 -225.293 376.637 C-225.289 377.398 -225.285 378.16 -225.281 378.945 C-225.383 382.698 -225.775 384.71 -228.098 387.702 C-231.703 390.557 -233.538 390.632 -238.098 390.647 C-238.793 390.656 -239.488 390.664 -240.204 390.674 C-242.491 390.695 -244.776 390.681 -247.062 390.664 C-248.658 390.667 -250.253 390.672 -251.848 390.679 C-255.187 390.686 -258.525 390.675 -261.864 390.652 C-266.139 390.623 -270.411 390.64 -274.686 390.67 C-277.978 390.688 -281.271 390.682 -284.563 390.669 C-286.139 390.666 -287.714 390.67 -289.29 390.681 C-291.495 390.694 -293.698 390.675 -295.902 390.647 C-296.529 390.645 -296.529 390.645 -299.699 390.635 C-303.978 389.812 -305.436 388.487 -308 385 C-308.682 381.981 -308.682 381.981 -308.758 378.58 C-308.777 377.941 -308.777 377.941 -308.874 374.704 C-308.889 373.313 -308.9 371.922 -308.91 370.531 C-308.931 369.09 -308.953 367.648 -308.975 366.207 C-309.014 363.184 -309.031 360.162 -309.036 357.139 C-309.045 354.058 -309.093 350.983 -309.18 347.904 C-309.963 319.648 -309.963 319.648 -303.866 312.301 C-301.402 309.894 -298.828 307.976 -296 306 C-294.367 304.425 -292.757 302.825 -291.188 301.188 C-290.463 300.473 -289.739 299.759 -288.992 299.023 C-287.175 297.178 -285.487 295.286 -283.812 293.312 C-280.408 289.334 -276.719 285.68 -273 282 C-268.755 277.799 -264.647 273.579 -260.793 269.012 C-257.891 265.756 -254.764 262.723 -251.642 259.679 C-248.102 256.204 -248.102 256.204 -247 254 C-246.34 254 -245.68 254 -245 254 C-244.746 253.417 -244.492 252.835 -244.23 252.234 C-242.867 249.758 -241.358 248.195 -239.312 246.25 C-236.724 243.73 -234.262 241.202 -231.938 238.438 C-228.339 234.24 -224.425 230.387 -220.5 226.5 C-212.573 218.65 -212.573 218.65 -209.5 215 C-205.467 210.21 -200.929 205.906 -196.484 201.504 C-192.669 197.712 -189.007 193.866 -185.535 189.754 C-183.154 187.033 -180.552 184.543 -177.977 182.008 C-175.413 179.404 -173.042 176.662 -170.68 173.875 C-169.051 172.057 -167.326 170.49 -165.5 168.875 C-164.675 167.926 -163.85 166.977 -163 166 C-163.301 161.731 -164.617 158.269 -166.312 154.375 C-175.376 130.846 -176.906 101.078 -169 77 C-168.759 76.229 -168.517 75.459 -168.269 74.665 C-162.856 57.664 -154.262 43.719 -143 30 C-142.294 29.127 -141.587 28.255 -140.859 27.355 C-106.616 -12.912 -46.516 -23.824 0 0 Z M-83 11 C-83.633 11.204 -84.265 11.407 -84.917 11.617 C-99.689 16.488 -111.907 25.233 -123 36 C-123.598 36.536 -124.196 37.073 -124.812 37.625 C-139.666 51.378 -148.34 70.652 -153 90 C-153.246 91.013 -153.492 92.026 -153.746 93.07 C-158.401 116.122 -153.187 139.619 -143.316 160.574 C-141.958 164.11 -141.464 166.264 -142 170 C-143.406 172.176 -143.406 172.176 -145.5 174.312 C-146.321 175.17 -147.142 176.027 -147.988 176.91 C-148.225 177.151 -148.225 177.151 -149.42 178.372 C-151.196 180.202 -152.933 182.065 -154.668 183.934 C-161.746 191.545 -168.945 199.006 -176.334 206.314 C-179.812 209.768 -183.111 213.303 -186.27 217.055 C-189.348 220.515 -192.723 223.687 -196.059 226.898 C-198 229 -198 229 -198 231 C-198.66 231 -199.32 231 -200 231 C-200 231.66 -200 232.32 -200 233 C-200.66 233 -201.32 233 -202 233 C-203.305 234.293 -203.305 234.293 -204.875 236.188 C-212.475 245.109 -220.509 253.594 -228.846 261.827 C-232.133 265.087 -235.209 268.453 -238.199 271.984 C-241.308 275.464 -244.699 278.664 -248.059 281.898 C-250 284 -250 284 -250 286 C-250.66 286 -251.32 286 -252 286 C-253.445 287.469 -253.445 287.469 -255.125 289.5 C-257.643 292.467 -260.222 295.276 -263 298 C-265.477 300.439 -267.82 302.907 -270.062 305.562 C-274.392 310.622 -279.186 315.234 -283.934 319.897 C-284.253 320.212 -284.253 320.212 -285.867 321.805 C-286.446 322.372 -287.024 322.939 -287.621 323.523 C-290.035 326.109 -290.123 327.93 -290.114 331.358 C-290.113 332.259 -290.113 333.159 -290.113 334.088 C-290.108 335.062 -290.103 336.036 -290.098 337.039 C-290.096 338.035 -290.095 339.031 -290.093 340.057 C-290.088 343.247 -290.075 346.436 -290.062 349.625 C-290.057 351.784 -290.053 353.943 -290.049 356.102 C-290.038 361.401 -290.021 366.701 -290 372 C-283.467 372.025 -276.934 372.043 -270.402 372.055 C-268.177 372.06 -265.953 372.067 -263.729 372.075 C-260.539 372.088 -257.35 372.093 -254.16 372.098 C-253.159 372.103 -252.158 372.108 -251.127 372.113 C-250.666 372.113 -250.666 372.113 -248.336 372.114 C-247.521 372.116 -246.706 372.118 -245.867 372.12 C-244 372 -244 372 -243 371 C-242.937 369.032 -242.941 367.062 -242.973 365.094 C-242.985 363.874 -242.997 362.655 -243.01 361.398 C-243.044 358.831 -243.083 356.263 -243.127 353.695 C-243.281 336.426 -243.281 336.426 -239.398 332.296 C-236.111 330.52 -233.039 330.522 -229.391 330.488 C-229.027 330.479 -229.027 330.479 -227.188 330.434 C-224.876 330.38 -222.563 330.346 -220.25 330.312 C-218.678 330.279 -217.107 330.245 -215.535 330.209 C-211.69 330.124 -207.845 330.057 -204 330 C-203.996 328.966 -203.992 327.932 -203.988 326.866 C-203.966 323.017 -203.911 319.17 -203.847 315.321 C-203.824 313.658 -203.81 311.994 -203.804 310.331 C-203.795 307.934 -203.754 305.54 -203.707 303.145 C-203.711 302.405 -203.715 301.665 -203.719 300.903 C-203.613 297.14 -203.094 295.133 -200.91 292.035 C-197.282 289.498 -195.134 289.347 -190.73 289.293 C-190.049 289.278 -189.368 289.263 -188.667 289.247 C-186.507 289.204 -184.348 289.195 -182.188 289.188 C-180.717 289.164 -179.246 289.139 -177.775 289.111 C-174.184 289.049 -170.592 289.016 -167 289 C-166.991 288.032 -166.981 287.064 -166.972 286.066 C-166.932 282.454 -166.866 278.842 -166.792 275.23 C-166.764 273.671 -166.743 272.111 -166.729 270.552 C-166.707 268.302 -166.661 266.054 -166.609 263.805 C-166.608 263.114 -166.607 262.423 -166.606 261.711 C-166.457 256.722 -165.193 253.807 -162 250 C-159.118 247.986 -157.138 247.818 -153.691 248.148 C-140.714 248.86 -140.714 248.86 -136.052 245.665 C-132.362 241.992 -129.579 237.643 -126.685 233.337 C-123.677 229.165 -120.117 225.518 -116.562 221.812 C-115.9 221.107 -115.237 220.401 -114.554 219.674 C-112.731 217.752 -110.88 215.866 -109 214 C-108.474 213.473 -107.948 212.947 -107.406 212.404 C-104.952 210.132 -103.322 209.048 -99.988 208.547 C-96.744 209.039 -94.196 209.941 -91.188 211.25 C-64.715 221.702 -37.053 220.225 -10.848 209.371 C12.65 198.058 29.279 178.273 40 155 C40.248 154.484 40.248 154.484 41.504 151.875 C45.173 143.815 46.68 135.693 48 127 C48.133 126.178 48.266 125.355 48.402 124.508 C52.03 98.171 45.001 70.544 29.52 48.934 C12.667 27.131 -11.423 10.989 -39 7 C-53.979 5.91 -68.692 6.26 -83 11 Z " fill="currentColor" transform="translate(376,67)"/>
<path d="M0 0 C0.851 -0.024 1.703 -0.049 2.58 -0.074 C13.214 -0.123 21.252 4.804 28.844 11.93 C34.424 17.88 38.653 26.176 39.188 34.375 C39.238 35.014 39.288 35.654 39.34 36.312 C39.847 47.683 36.186 57.501 29.188 66.375 C22.032 74.075 13.144 78.722 2.609 79.711 C-9.417 79.839 -18.825 77.639 -27.812 69.375 C-36.541 60.753 -40.022 52.066 -41.125 39.938 C-40.089 28.133 -35.574 17.444 -26.812 9.375 C-18.035 2.881 -10.861 0.016 0 0 Z M-15.75 23.625 C-21.245 30.951 -23.102 37.101 -21.812 46.375 C-20.75 49.362 -19.486 51.655 -17.812 54.375 C-17.152 54.375 -16.493 54.375 -15.812 54.375 C-15.812 55.035 -15.812 55.695 -15.812 56.375 C-14.543 57.023 -13.272 57.669 -12 58.312 C-11.292 58.672 -10.585 59.032 -9.855 59.402 C-4.775 61.821 0.068 62.215 5.465 60.762 C12.763 57.93 17.518 53.132 20.688 46 C21.643 39.07 21.214 32.281 17.188 26.375 C12.678 21.388 7.731 18.821 1.188 17.375 C-4.898 17.375 -10.967 19.961 -15.75 23.625 Z " fill="currentColor" transform="translate(344.8125,115.625)"/>
</svg>
