<?xml version="1.0" encoding="UTF-8"?>
<!-- Generator: visioncortex VTracer 0.6.12 -->
<svg viewBox="0 0 512 512" version="1.1" xmlns="http://www.w3.org/2000/svg" width="512" height="512">
<path d="M0 0 C5.871 5.298 8.632 10.284 9.259 18.319 C9.263 19.474 9.267 20.629 9.272 21.819 C9.277 22.468 9.282 23.118 9.287 23.787 C9.302 25.946 9.302 28.104 9.303 30.262 C9.311 31.819 9.319 33.376 9.329 34.932 C9.347 38.282 9.359 41.632 9.366 44.981 C9.378 50.318 9.403 55.656 9.43 60.993 C9.472 69.48 9.504 77.967 9.533 86.455 C9.584 101.531 9.647 116.606 9.718 131.682 C9.743 136.944 9.762 142.207 9.778 147.469 C9.959 205.869 9.959 205.869 12.175 234.69 C12.45 238.272 12.704 241.856 12.961 245.44 C13.098 247.354 13.236 249.268 13.374 251.183 C14.193 262.529 14.9 273.881 15.605 285.234 C15.638 285.76 15.638 285.76 15.804 288.418 C16.134 293.719 16.462 299.021 16.79 304.323 C17.127 309.776 17.467 315.228 17.809 320.681 C18.075 324.951 18.34 329.222 18.604 333.493 C18.729 335.507 18.854 337.521 18.981 339.535 C19.155 342.318 19.326 345.102 19.497 347.886 C19.548 348.695 19.6 349.504 19.653 350.338 C20.388 362.504 20.018 374.409 11.754 384.227 C3.292 392.783 -5.307 397.341 -17.375 397.562 C-28.298 397.446 -37.076 393.931 -45.023 386.316 C-52.45 377.614 -54.183 369.38 -54.131 358.329 C-54.128 357.364 -54.125 356.399 -54.123 355.404 C-54.043 343.503 -53.471 331.625 -52.906 319.738 C-52.794 317.285 -52.682 314.832 -52.57 312.378 C-52.278 305.989 -51.981 299.6 -51.682 293.212 C-51.203 282.952 -50.73 272.692 -50.261 262.431 C-50.097 258.874 -49.93 255.316 -49.762 251.758 C-49.661 249.566 -49.56 247.373 -49.459 245.181 C-49.412 244.208 -49.365 243.235 -49.317 242.232 C-49.026 235.817 -48.949 229.421 -49 223 C-49.675 222.832 -50.35 222.663 -51.046 222.49 C-60.375 220.092 -68.789 215.341 -74 207 C-77.956 198.416 -79.186 190.161 -79.125 180.75 C-79.12 179.934 -79.115 179.118 -79.11 178.278 C-79.085 175.518 -79.044 172.759 -79 170 C-78.987 169.02 -78.975 168.039 -78.962 167.029 C-78.138 113.994 -68.658 57.769 -35 15 C-34.665 14.558 -34.665 14.558 -32.973 12.324 C-24.41 1.231 -14.323 -8.333 0 0 Z M-12 16 C-51.193 61.879 -59.609 120.453 -60.312 178.875 C-60.33 179.669 -60.348 180.464 -60.366 181.282 C-60.358 187.994 -59.188 194.983 -55.188 200.5 C-50.593 203.65 -46.384 204.059 -40.938 204.312 C-36.87 204.61 -35.28 204.813 -31.812 207.125 C-28.562 212.281 -28.875 217.839 -29.27 223.766 C-29.31 224.415 -29.35 225.065 -29.392 225.734 C-29.48 227.155 -29.571 228.575 -29.665 229.995 C-29.927 233.993 -30.162 237.992 -30.395 241.992 C-30.42 242.426 -30.42 242.426 -30.548 244.622 C-31.186 255.866 -31.583 267.121 -32 278.375 C-32.544 293.029 -33.158 307.671 -33.991 322.311 C-34.623 333.514 -35.219 344.716 -35.375 355.938 C-35.401 356.879 -35.427 357.82 -35.454 358.79 C-35.47 364.717 -34.477 368.157 -31 373 C-25.165 377.525 -20.241 378.844 -13 378 C-7.697 376.288 -4.02 373.762 -1 369 C0.665 365.453 1.222 362.88 0.999 358.978 C0.949 357.993 0.898 357.008 0.846 355.994 C0.779 354.929 0.713 353.863 0.645 352.766 C0.583 351.641 0.522 350.516 0.459 349.357 C0.255 345.654 0.034 341.952 -0.188 338.25 C-0.334 335.665 -0.48 333.081 -0.625 330.496 C-0.997 323.914 -1.384 317.334 -1.777 310.753 C-1.986 307.232 -2.192 303.711 -2.397 300.19 C-3.437 282.32 -4.512 264.454 -5.82 246.602 C-5.888 245.675 -5.956 244.748 -6.025 243.793 C-6.341 239.494 -6.663 235.196 -6.998 230.899 C-8.964 205.167 -9.158 179.409 -9.23 153.617 C-9.246 148.028 -9.269 142.438 -9.295 136.849 C-9.365 120.981 -9.426 105.113 -9.477 89.245 C-9.505 80.425 -9.54 71.605 -9.583 62.785 C-9.61 57.226 -9.628 51.667 -9.639 46.108 C-9.649 42.672 -9.666 39.237 -9.686 35.802 C-9.693 34.207 -9.697 32.611 -9.698 31.015 C-9.699 28.845 -9.712 26.676 -9.728 24.506 C-9.732 23.291 -9.737 22.075 -9.741 20.823 C-10 18 -10 18 -12 16 Z " fill="currentColor" transform="translate(203,58)"/>
<path d="M0 0 C2.972 2.065 4.744 3.694 5.456 7.33 C5.636 10.342 5.649 13.316 5.612 16.333 C5.617 17.478 5.623 18.623 5.629 19.803 C5.642 23.592 5.622 27.38 5.602 31.168 C5.607 33.805 5.615 36.442 5.626 39.079 C5.65 46.027 5.645 52.976 5.632 59.924 C5.612 71.028 5.624 82.132 5.658 93.236 C5.664 97.108 5.651 100.98 5.636 104.852 C5.639 107.241 5.643 109.631 5.647 112.02 C5.638 113.089 5.628 114.158 5.619 115.259 C5.671 125.067 7.172 132.823 14.035 140.078 C15.361 141.375 16.703 142.656 18.059 143.922 C24.297 149.819 29.79 157.232 30.067 166.171 C30.053 166.576 30.053 166.576 29.98 168.626 C29.947 169.597 29.913 170.568 29.879 171.568 C29.834 172.665 29.789 173.761 29.742 174.891 C29.696 176.091 29.65 177.291 29.602 178.527 C28.8 198.483 27.627 218.424 26.531 238.365 C26.12 245.827 25.715 253.289 25.31 260.751 C24.233 280.59 23.153 300.429 22.022 320.266 C21.764 324.805 21.511 329.345 21.257 333.884 C21.069 337.205 20.872 340.525 20.674 343.845 C20.565 345.788 20.456 347.732 20.348 349.676 C20.296 350.497 20.244 351.317 20.191 352.163 C19.824 359.022 19.64 366.063 22.562 372.375 C26.77 376.906 31.284 379.178 37.5 379.5 C42.295 379.252 46.123 377.825 50 375 C56.91 367.204 55.004 356.477 54.579 346.761 C54.521 345.325 54.463 343.89 54.407 342.454 C54.283 339.368 54.156 336.281 54.025 333.195 C53.816 328.263 53.617 323.331 53.42 318.399 C53.068 309.649 52.707 300.899 52.346 292.149 C51.244 265.505 50.162 238.861 49.159 212.214 C49.01 208.255 48.856 204.296 48.702 200.338 C48.494 194.906 48.307 189.475 48.144 184.042 C48.086 182.184 48.02 180.327 47.946 178.47 C47.502 167.099 47.754 157.981 55.25 148.812 C57.735 146.146 60.378 143.818 63.188 141.5 C68.155 137.293 70.658 132.319 72 126 C72.092 124.347 72.133 122.691 72.138 121.035 C72.143 120.035 72.149 119.036 72.155 118.006 C72.156 116.915 72.157 115.825 72.158 114.701 C72.163 113.548 72.168 112.395 72.173 111.207 C72.184 108.702 72.192 106.197 72.199 103.692 C72.211 99.729 72.23 95.766 72.252 91.803 C72.314 80.535 72.368 69.268 72.401 58 C72.42 51.774 72.449 45.548 72.489 39.323 C72.51 36.03 72.524 32.737 72.528 29.445 C72.533 25.772 72.556 22.1 72.583 18.428 C72.582 17.884 72.582 17.884 72.574 15.13 C72.646 8.678 73.282 5.02 77.688 0.125 C80.686 -1.334 82.745 -1.077 86 -0.715 C88.798 0.285 90.101 1.729 92 4 C92.503 6.429 92.503 6.429 92.508 9.19 C92.519 10.24 92.53 11.29 92.542 12.372 C92.534 13.518 92.526 14.665 92.518 15.846 C92.525 17.058 92.532 18.27 92.539 19.518 C92.553 22.841 92.55 26.163 92.537 29.486 C92.527 32.973 92.537 36.459 92.543 39.945 C92.55 45.807 92.541 51.669 92.521 57.531 C92.5 64.285 92.507 71.038 92.529 77.792 C92.547 83.605 92.549 89.417 92.539 95.23 C92.533 98.695 92.532 102.159 92.545 105.625 C92.559 109.499 92.54 113.374 92.518 117.248 C92.526 118.381 92.534 119.513 92.542 120.68 C92.392 134.922 86.609 145.513 76.68 155.418 C75.253 156.811 73.804 158.184 72.355 159.555 C69.161 162.871 68.063 164.649 67.846 169.314 C67.882 170.658 67.929 172.001 67.985 173.344 C67.996 173.715 67.996 173.715 68.053 175.594 C68.132 178.087 68.226 180.578 68.32 183.07 C68.38 184.86 68.44 186.65 68.498 188.44 C68.66 193.317 68.836 198.192 69.014 203.068 C69.162 207.149 69.302 211.231 69.441 215.312 C70.658 250.785 72.09 286.25 73.596 321.712 C73.768 325.763 73.939 329.814 74.109 333.865 C74.227 336.631 74.347 339.397 74.467 342.162 C75.94 376.594 75.94 376.594 64.938 388.75 C56.198 396.891 45.688 399.487 34.156 399.277 C23.417 398.787 14.968 393.4 7.75 385.75 C-2.589 372.903 0.032 355.95 0.855 340.617 C0.959 338.589 1.062 336.561 1.164 334.533 C1.439 329.103 1.724 323.675 2.011 318.246 C2.247 313.737 2.478 309.227 2.708 304.717 C3.782 283.662 4.896 262.609 6.082 241.56 C6.225 239.022 6.367 236.484 6.51 233.946 C6.899 227.008 7.292 220.07 7.704 213.132 C8.2 204.758 8.625 196.381 9 188 C9.06 186.829 9.12 185.658 9.183 184.451 C9.342 181.139 9.451 177.83 9.543 174.516 C9.595 173.559 9.648 172.603 9.701 171.618 C9.782 166.346 9.105 163.53 5.605 159.488 C4.424 158.304 3.225 157.139 2 156 C1.633 155.616 1.633 155.616 -0.223 153.672 C-0.83 153.038 -1.437 152.403 -2.062 151.75 C-11.671 140.948 -14.298 128.979 -14.306 114.972 C-14.315 113.789 -14.323 112.606 -14.332 111.387 C-14.351 108.164 -14.362 104.941 -14.367 101.718 C-14.371 99.702 -14.377 97.686 -14.384 95.669 C-14.409 88.629 -14.422 81.588 -14.426 74.547 C-14.429 67.993 -14.459 61.439 -14.501 54.885 C-14.536 49.246 -14.551 43.606 -14.552 37.967 C-14.553 34.604 -14.561 31.241 -14.59 27.878 C-14.617 24.132 -14.612 20.386 -14.599 16.64 C-14.614 15.53 -14.629 14.419 -14.644 13.276 C-14.573 5.771 -14.573 5.771 -11.65 1.835 C-7.438 -1.082 -4.887 -1.368 0 0 Z " fill="currentColor" transform="translate(294,56)"/>
<path d="M0 0 C2.318 1.891 3.669 3.338 5 6 C5.102 7.42 5.144 8.845 5.154 10.269 C5.163 11.165 5.171 12.061 5.18 12.984 C5.184 13.969 5.188 14.955 5.193 15.97 C5.201 17.006 5.209 18.042 5.218 19.109 C5.243 22.548 5.259 25.987 5.273 29.426 C5.279 30.598 5.284 31.771 5.29 32.979 C5.316 39.183 5.336 45.387 5.35 51.592 C5.367 58.008 5.412 64.424 5.462 70.84 C5.496 75.767 5.508 80.693 5.513 85.62 C5.52 87.986 5.535 90.351 5.559 92.717 C5.591 96.025 5.591 99.333 5.583 102.642 C5.6 103.621 5.616 104.601 5.633 105.61 C5.59 110.264 5.525 112.319 2.606 116.106 C-0.07 118.051 -1.243 118.682 -4.5 118.625 C-4.866 118.631 -4.866 118.631 -6.719 118.664 C-10.372 117.601 -11.691 116.038 -14 113 C-14.807 109.239 -14.78 105.508 -14.797 101.672 C-14.82 100.502 -14.844 99.332 -14.868 98.126 C-14.927 94.809 -14.961 91.494 -14.983 88.176 C-15.001 85.932 -15.026 83.687 -15.054 81.442 C-15.176 71.445 -15.229 61.448 -15.24 51.45 C-15.246 47.065 -15.27 42.68 -15.298 38.295 C-15.317 34.873 -15.322 31.452 -15.324 28.031 C-15.327 26.412 -15.335 24.794 -15.348 23.175 C-15.365 20.928 -15.363 18.682 -15.356 16.435 C-15.36 15.164 -15.364 13.893 -15.367 12.583 C-14.852 7.56 -13.635 3.454 -9.75 0 C-6.045 -1.347 -3.784 -1.032 0 0 Z " fill="currentColor" transform="translate(338,56)"/>
</svg>
