<?xml version="1.0" encoding="UTF-8"?>
<!-- Generator: visioncortex VTracer 0.6.12 -->
<svg viewBox="0 0 512 512" version="1.1" xmlns="http://www.w3.org/2000/svg" width="512" height="512">
<path d="M0 0 C0.559 0.374 1.119 0.749 1.695 1.135 C9.458 6.358 16.501 12.01 23.281 18.457 C25.201 20.252 27.103 21.932 29.133 23.59 C31.471 25.555 33.419 27.426 35.375 29.75 C37.168 31.86 38.958 33.954 40.836 35.988 C72.494 70.295 89.55 117.833 89.312 164.188 C89.31 164.95 89.308 165.713 89.306 166.498 C89.089 214.512 71.716 260.005 40 296 C39.451 296.623 38.902 297.247 38.336 297.889 C25.222 312.662 9.991 324.898 -7 335 C-8.106 335.683 -9.212 336.366 -10.352 337.07 C-28.992 348.301 -49.78 355.499 -71 360 C-71.403 360.088 -71.403 360.088 -73.444 360.535 C-97.7 365.598 -125.805 365.042 -150 360 C-150.367 359.928 -150.367 359.928 -152.227 359.562 C-168.933 356.23 -184.577 350.121 -200 343 C-201.036 342.529 -202.073 342.059 -203.141 341.574 C-211.649 337.536 -219.31 332.394 -227 327 C-227.51 326.645 -227.51 326.645 -230.094 324.848 C-238.114 319.058 -245.24 312.437 -252.352 305.581 C-253.718 304.271 -255.104 302.982 -256.496 301.699 C-286.531 273.318 -305.169 229.532 -310 189 C-310.095 188.23 -310.19 187.461 -310.288 186.667 C-312.137 170.283 -311.797 153.243 -309 137 C-308.893 136.349 -308.786 135.698 -308.675 135.028 C-302.29 96.501 -285.642 62.316 -260 33 C-259.132 31.946 -258.266 30.89 -257.402 29.832 C-255.489 27.577 -253.694 25.695 -251.438 23.812 C-249.062 21.805 -246.777 19.781 -244.555 17.602 C-180.831 -44.307 -72.212 -49.028 0 0 Z M-199 11 C-199.597 11.314 -200.194 11.628 -200.81 11.952 C-210.39 16.992 -218.676 23.118 -227 30 C-223.018 34.712 -218.939 39.309 -214.723 43.812 C-214.126 44.451 -213.528 45.089 -212.913 45.746 C-205.94 53.167 -198.853 60.474 -191.692 67.713 C-190.167 69.26 -188.648 70.814 -187.135 72.373 C-184.915 74.659 -182.677 76.925 -180.434 79.188 C-180.097 79.538 -180.097 79.538 -178.391 81.314 C-173.685 86 -173.685 86 -170.154 85.999 C-167.932 84.969 -166.136 83.859 -164.188 82.375 C-145.108 69.234 -119.658 64.277 -96.883 67.496 C-81.128 70.444 -64.704 75.849 -52 86 C-47.785 84.359 -44.983 81.236 -41.879 78.074 C-41.297 77.49 -40.715 76.905 -40.116 76.303 C-38.26 74.436 -36.411 72.562 -34.562 70.688 C-33.323 69.438 -32.082 68.188 -30.842 66.939 C-28.553 64.634 -26.266 62.326 -23.983 60.014 C-20.75 56.744 -17.511 53.481 -14.227 50.262 C-11.152 47.24 -8.236 44.156 -5.438 40.875 C-2.537 37.502 0.496 34.734 4 32 C2.704 29.062 1.483 27.288 -1.062 25.336 C-1.685 24.859 -2.307 24.381 -2.948 23.89 C-3.287 23.64 -3.287 23.64 -5 22.375 C-5.71 21.849 -6.42 21.324 -7.151 20.782 C-63.41 -19.939 -138.757 -21.711 -199 11 Z M17.281 46.599 C16.534 47.348 15.788 48.096 15.019 48.868 C14.174 49.713 13.329 50.557 12.459 51.428 C11.539 52.353 10.619 53.278 9.672 54.23 C8.721 55.183 7.771 56.135 6.82 57.087 C4.308 59.603 1.798 62.122 -0.71 64.642 C-3.247 67.188 -5.785 69.732 -8.324 72.275 C-12.851 76.812 -17.375 81.351 -21.898 85.892 C-23.596 87.595 -25.299 89.295 -27.004 90.992 C-28.868 92.868 -30.608 94.791 -32.312 96.812 C-32.824 97.417 -33.336 98.022 -33.863 98.645 C-34.238 99.092 -34.614 99.539 -35 100 C-33.985 103.138 -32.899 105.117 -30.734 107.645 C-27.605 111.327 -25.272 115.343 -22.938 119.562 C-22.499 120.355 -22.061 121.147 -21.609 121.963 C-18.134 128.418 -15.616 134.832 -14 142 C-13.828 142.701 -13.657 143.403 -13.48 144.125 C-7.937 168.562 -12.264 194.538 -25 216 C-27.294 219.35 -29.785 222.485 -32.41 225.582 C-34 228 -34 228 -33.855 229.875 C-32.715 232.708 -31.083 234.269 -28.911 236.414 C-28.477 236.846 -28.477 236.846 -26.281 239.033 C-25.327 239.969 -24.372 240.904 -23.418 241.84 C-22.442 242.808 -21.466 243.777 -20.492 244.746 C-17.923 247.297 -15.347 249.84 -12.768 252.38 C-8.649 256.44 -4.542 260.512 -0.437 264.585 C0.994 266.002 2.429 267.415 3.864 268.828 C4.303 269.261 4.303 269.261 6.523 271.457 C6.908 271.836 6.908 271.836 8.855 273.755 C11 276 11 276 13.077 278.639 C15.372 281.457 17.919 283.109 21 285 C31.503 275.431 39.42 263.254 46.053 250.771 C46.996 249.007 47.975 247.261 48.953 245.516 C69.037 208.675 74.526 162.111 63.056 121.672 C59.149 108.532 54.694 95.722 47.975 83.741 C46.982 81.968 46.027 80.178 45.074 78.383 C38.431 66.081 29.844 54.933 20 45 C19 45 19 45 17.281 46.599 Z M-244.812 47.695 C-274.325 80.475 -291.529 125.165 -290.219 169.484 C-290.147 170.645 -290.074 171.805 -290 173 C-289.957 173.75 -289.915 174.499 -289.871 175.271 C-287.737 210.217 -275.638 244.334 -254 272 C-253.584 272.534 -253.168 273.068 -252.74 273.618 C-245.825 282.45 -245.825 282.45 -242 285 C-235.544 278.59 -229.093 272.175 -222.65 265.753 C-219.657 262.771 -216.663 259.791 -213.664 256.815 C-210.768 253.941 -207.877 251.061 -204.989 248.178 C-203.888 247.082 -202.786 245.987 -201.683 244.894 C-200.132 243.358 -198.587 241.815 -197.044 240.271 C-196.165 239.396 -195.285 238.521 -194.379 237.62 C-191.882 234.871 -189.977 232.134 -188 229 C-188.568 228.152 -189.137 227.304 -189.723 226.43 C-206.526 201.06 -213.629 174.969 -208.031 144.668 C-204.823 129.199 -197.408 113.889 -187 102 C-188.587 98.148 -191.045 95.702 -193.969 92.772 C-194.473 92.265 -194.977 91.757 -195.497 91.234 C-197.16 89.562 -198.829 87.898 -200.5 86.234 C-201.658 85.075 -202.817 83.914 -203.975 82.754 C-206.399 80.327 -208.827 77.903 -211.258 75.481 C-214.379 72.372 -217.49 69.254 -220.599 66.133 C-222.988 63.737 -225.38 61.347 -227.775 58.958 C-228.924 57.809 -230.073 56.659 -231.219 55.508 C-232.819 53.904 -234.424 52.306 -236.031 50.71 C-236.945 49.798 -237.858 48.887 -238.799 47.947 C-241.54 45.523 -242.117 45.174 -244.812 47.695 Z M-170 113 C-178.564 122.97 -185.042 135.166 -188 148 C-188.204 148.835 -188.407 149.671 -188.617 150.531 C-192.905 170.503 -188.231 190.318 -177.75 207.625 C-166.181 224.942 -148.586 237.718 -128 242 C-105.116 245.391 -82.718 241.623 -63.449 228.227 C-47.074 215.748 -36.626 199.392 -32.426 179.246 C-29.587 157.6 -33.475 138.012 -46.016 120.125 C-47.927 117.657 -49.907 115.315 -52 113 C-52.637 112.294 -53.274 111.587 -53.93 110.859 C-67.572 96.504 -86.951 87.788 -106.703 86.875 C-131.095 86.364 -153.171 95.407 -170 113 Z M-177.316 248.064 C-177.896 248.651 -178.476 249.239 -179.074 249.844 C-179.676 250.446 -180.278 251.049 -180.899 251.67 C-182.178 252.952 -183.455 254.237 -184.729 255.523 C-186.657 257.469 -188.592 259.407 -190.529 261.344 C-196.068 266.899 -201.553 272.448 -206.641 278.425 C-208.641 280.743 -210.809 282.864 -213 285 C-214.185 286.182 -215.368 287.366 -216.551 288.551 C-220.034 292.034 -223.517 295.517 -227 299 C-222.479 305.191 -216.315 308.869 -210 313 C-208.962 313.686 -207.925 314.372 -206.855 315.078 C-191.876 324.65 -175.949 330.825 -159 336 C-157.958 336.329 -156.917 336.657 -155.844 336.996 C-112.499 349.298 -62.925 341.505 -23.675 320.363 C-13.661 314.711 -4.168 307.928 5 301 C4.524 296.671 1.961 294.628 -1.062 291.688 C-1.557 291.203 -2.051 290.719 -2.561 290.22 C-6.045 286.835 -9.665 283.635 -13.363 280.484 C-15.517 278.531 -17.201 276.279 -19 274 C-20.983 272.313 -22.983 270.646 -25 269 C-28.239 265.851 -31.349 262.588 -34.469 259.32 C-36.145 257.588 -37.823 255.856 -39.5 254.125 C-40.342 253.233 -41.184 252.341 -42.051 251.422 C-42.869 250.584 -43.688 249.746 -44.531 248.883 C-45.269 248.113 -46.007 247.344 -46.768 246.551 C-49 245 -49 245 -51.663 245.185 C-54.118 246.041 -55.699 247.04 -57.75 248.625 C-78.046 262.604 -105.039 266.216 -128.949 262.305 C-133.06 261.478 -137.022 260.314 -141 259 C-141.67 258.791 -142.341 258.582 -143.031 258.367 C-152.377 255.413 -160.254 251.331 -168.305 245.758 C-172.865 242.784 -173.725 244.494 -177.316 248.064 Z " fill="currentColor" transform="translate(366,91)"/>
</svg>
