<?xml version="1.0" encoding="UTF-8"?>
<!-- Generator: visioncortex VTracer 0.6.12 -->
<svg viewBox="0 0 512 512" version="1.1" xmlns="http://www.w3.org/2000/svg" width="512" height="512">
<path d="M0 0 C1.448 -0.005 2.895 -0.012 4.343 -0.019 C7.363 -0.029 10.383 -0.025 13.403 -0.01 C17.255 0.007 21.106 -0.016 24.958 -0.051 C27.943 -0.074 30.927 -0.072 33.912 -0.064 C35.332 -0.063 36.752 -0.07 38.171 -0.085 C46.14 -0.155 52.946 -0.212 58.965 5.566 C61.848 9.891 62.508 14.452 61.609 19.605 C60.964 21.801 60.206 23.924 59.402 26.066 C58.748 27.919 58.094 29.772 57.441 31.625 C57.249 32.16 57.249 32.16 56.278 34.867 C53.847 41.715 51.523 48.6 49.181 55.479 C48.271 58.146 47.359 60.812 46.447 63.478 C42.173 75.966 37.989 88.482 33.842 101.012 C30.514 111.057 27.08 121.05 23.374 130.964 C23.081 131.746 22.789 132.529 22.488 133.336 C22.24 133.992 21.992 134.648 21.736 135.323 C20.689 138.37 19.843 141.467 18.965 144.566 C20.114 144.57 21.264 144.574 22.448 144.577 C33.292 144.614 44.136 144.672 54.979 144.75 C60.554 144.79 66.128 144.822 71.703 144.837 C77.085 144.853 82.466 144.887 87.848 144.935 C89.899 144.95 91.95 144.957 94.002 144.958 C96.879 144.961 99.756 144.988 102.633 145.021 C103.478 145.015 104.322 145.01 105.192 145.005 C110.906 145.106 114.257 146.286 118.965 149.566 C121.704 153.036 122.792 156.152 122.965 160.566 C121.106 168.002 116.852 172.804 111.965 178.566 C109.624 181.394 107.296 184.231 104.965 187.066 C103.738 188.553 102.512 190.04 101.285 191.527 C97.463 196.169 93.705 200.859 89.965 205.566 C87.966 208.068 85.966 210.567 83.965 213.066 C82.928 214.362 81.892 215.658 80.855 216.953 C73.715 225.879 73.715 225.879 71.801 228.27 C70.595 229.778 69.392 231.288 68.191 232.801 C63.233 239.035 58.172 245.181 53.101 251.324 C49.386 255.829 45.707 260.358 42.074 264.93 C39.29 268.41 36.469 271.862 33.652 275.316 C29.492 280.42 25.385 285.559 21.34 290.754 C17.378 295.838 13.28 300.78 9.087 305.675 C5.793 309.538 2.639 313.492 -0.473 317.504 C-4.693 322.944 -9.101 328.182 -13.618 333.378 C-16.967 337.254 -20.138 341.227 -23.223 345.316 C-26.817 350.08 -30.647 354.52 -34.688 358.91 C-38.439 363.155 -41.868 367.645 -45.344 372.117 C-48.423 376.078 -51.582 379.967 -54.785 383.828 C-56.399 385.792 -57.976 387.767 -59.535 389.773 C-64.637 396.264 -68.846 401.578 -77.285 402.926 C-81.904 403.207 -85.637 402.521 -89.527 399.961 C-93.329 396.445 -94.921 392.372 -95.242 387.277 C-95.024 383.358 -94.302 379.775 -93.285 376.004 C-93.103 375.302 -92.92 374.6 -92.732 373.877 C-91.307 368.452 -89.783 363.057 -88.219 357.672 C-86.702 352.439 -85.249 347.189 -83.785 341.941 C-79.065 325.066 -74.34 308.192 -69.293 291.41 C-69.174 291.013 -69.174 291.013 -68.571 289.005 C-67.411 285.138 -66.244 281.272 -65.067 277.409 C-61.287 264.903 -58.123 252.26 -55.035 239.566 C-55.626 239.569 -56.217 239.571 -56.825 239.573 C-107.011 239.753 -107.011 239.753 -125.409 239.303 C-127.426 239.255 -129.443 239.22 -131.461 239.186 C-132.06 239.168 -132.06 239.168 -135.094 239.078 C-135.601 239.065 -135.601 239.065 -138.166 238.999 C-142.921 238.282 -146.159 236.512 -149.41 233.004 C-151.697 228.167 -152.117 224.825 -151.035 219.566 C-146.34 207.273 -138.651 196.094 -131.852 184.898 C-128.382 179.172 -125.025 173.39 -121.723 167.566 C-118.244 161.437 -114.744 155.323 -111.16 149.254 C-102.165 134.017 -93.25 118.736 -84.502 103.356 C-80.402 96.165 -76.186 89.046 -71.956 81.93 C-68.099 75.421 -64.358 68.855 -60.66 62.254 C-55.378 52.831 -49.885 43.549 -44.288 34.31 C-41.268 29.32 -38.304 24.32 -35.503 19.205 C-26.913 3.56 -17.537 -0.078 0 0 Z M8.058 18.644 C6.518 18.676 4.978 18.697 3.437 18.707 C1.16 18.722 -1.114 18.77 -3.391 18.824 C-4.072 18.823 -4.753 18.823 -5.455 18.822 C-11.008 19.019 -13.262 20.767 -17.035 24.566 C-18.567 26.608 -18.567 26.608 -19.676 28.613 C-20.101 29.367 -20.527 30.12 -20.965 30.896 C-21.183 31.296 -21.183 31.296 -22.285 33.316 C-23.248 35.03 -24.212 36.744 -25.176 38.457 C-25.655 39.316 -26.134 40.175 -26.627 41.061 C-28.707 44.762 -30.869 48.414 -33.035 52.066 C-39.43 62.908 -45.757 73.791 -51.977 84.734 C-57.449 94.362 -63.016 103.917 -68.744 113.396 C-72.16 119.065 -75.456 124.788 -78.679 130.569 C-85.801 143.337 -93.223 155.924 -100.769 168.445 C-104.18 174.114 -107.497 179.822 -110.758 185.578 C-113.909 191.121 -117.134 196.622 -120.348 202.129 C-120.959 203.177 -121.571 204.226 -122.201 205.306 C-126.871 213.305 -126.871 213.305 -128.727 216.269 C-130.035 218.566 -130.035 218.566 -130.035 220.566 C-129.477 220.568 -129.477 220.568 -126.652 220.577 C-116.131 220.614 -105.611 220.672 -95.091 220.75 C-89.682 220.79 -84.273 220.822 -78.865 220.837 C-73.645 220.853 -68.425 220.887 -63.206 220.935 C-61.214 220.95 -59.223 220.957 -57.231 220.958 C-54.442 220.961 -51.654 220.988 -48.865 221.021 C-48.041 221.015 -47.217 221.01 -46.369 221.005 C-42.399 221.078 -40.476 221.285 -37.046 223.476 C-34.057 226.584 -34.057 226.584 -33.996 229.374 C-34.705 237.86 -37.191 245.819 -39.598 253.941 C-40.055 255.509 -40.511 257.077 -40.967 258.645 C-41.886 261.804 -42.808 264.963 -43.735 268.12 C-45.534 274.26 -47.285 280.413 -49.035 286.566 C-49.679 288.823 -50.324 291.08 -50.969 293.336 C-51.299 294.49 -51.628 295.645 -51.968 296.834 C-52.934 300.213 -53.901 303.59 -54.868 306.968 C-55.945 310.73 -57.021 314.492 -58.098 318.254 C-58.31 318.997 -58.523 319.74 -58.742 320.506 C-61.789 331.157 -64.799 341.819 -67.756 352.495 C-69.517 358.823 -71.401 365.085 -73.504 371.309 C-74.035 373.566 -74.035 373.566 -73.035 376.566 C-67.822 370.437 -62.614 364.307 -57.535 358.066 C-54.247 354.027 -50.908 350.036 -47.535 346.066 C-43.487 341.3 -39.496 336.494 -35.547 331.645 C-32.389 327.775 -29.212 323.921 -26.035 320.066 C-21.385 314.424 -16.742 308.776 -12.117 303.113 C-10.659 301.33 -9.198 299.549 -7.734 297.77 C-4.388 293.697 -1.056 289.623 2.152 285.441 C5.574 281.004 9.143 276.695 12.715 272.379 C19.409 264.285 25.931 256.071 32.359 247.765 C37.673 240.899 43.059 234.238 48.934 227.836 C51.407 225.072 53.652 222.18 55.898 219.23 C58.63 215.709 61.456 212.267 64.277 208.816 C68.279 203.919 72.21 198.984 76.027 193.941 C80.512 188.059 85.257 182.44 90.105 176.855 C90.568 176.321 91.03 175.786 91.506 175.235 C92.545 174.047 93.597 172.87 94.658 171.702 C95.208 171.088 95.758 170.473 96.324 169.84 C96.829 169.285 97.334 168.73 97.854 168.158 C98.965 166.566 98.965 166.566 98.965 163.566 C97.956 163.569 96.947 163.571 95.908 163.573 C86.347 163.594 76.786 163.608 67.225 163.618 C62.311 163.623 57.396 163.63 52.482 163.642 C47.73 163.653 42.977 163.659 38.224 163.661 C36.422 163.663 34.619 163.667 32.816 163.672 C27.198 163.688 21.582 163.669 15.965 163.566 C15.261 163.554 14.557 163.541 13.831 163.528 C11.885 163.48 9.94 163.396 7.995 163.31 C6.918 163.265 5.841 163.219 4.732 163.172 C1.311 162.423 0.09 161.31 -2.035 158.566 C-4.047 151.337 -1.9 146.181 0.777 139.379 C1.626 137.126 2.472 134.872 3.316 132.617 C3.758 131.451 4.199 130.286 4.653 129.084 C6.755 123.447 8.705 117.759 10.652 112.066 C11.058 110.887 11.463 109.707 11.88 108.491 C12.995 105.244 14.107 101.996 15.218 98.748 C16.015 96.419 16.813 94.091 17.612 91.762 C21.746 79.703 25.864 67.637 29.965 55.566 C30.23 54.786 30.495 54.006 30.769 53.202 C32.227 48.908 33.681 44.613 35.126 40.315 C35.759 38.434 36.396 36.555 37.033 34.676 C37.409 33.553 37.785 32.43 38.172 31.273 C38.496 30.309 38.821 29.345 39.156 28.351 C40.002 25.437 40.525 22.567 40.965 19.566 C29.977 18.77 19.074 18.382 8.058 18.644 Z " fill="currentColor" transform="translate(269.03515625,53.43359375)"/>
</svg>
