<?xml version="1.0" encoding="UTF-8"?>
<!-- Generator: visioncortex VTracer 0.6.12 -->
<svg viewBox="0 0 512 512" version="1.1" xmlns="http://www.w3.org/2000/svg" width="512" height="512">
<path d="M0 0 C2.433 1.899 4.736 3.87 7.016 5.949 C7.612 6.455 8.209 6.96 8.824 7.48 C22.115 19.513 30.639 38.233 32.016 55.949 C32.399 64.066 32.203 71.404 30.516 79.387 C29.589 85.13 29.589 85.13 31.383 88.574 C33.448 90.953 35.589 92.942 38.016 94.949 C38.689 95.55 39.361 96.151 40.055 96.77 C41.352 97.922 42.662 99.06 43.984 100.184 C46.236 102.141 48.384 104.175 50.516 106.262 C51.186 106.918 51.856 107.574 52.547 108.25 C54.016 109.949 54.016 109.949 54.016 111.949 C54.603 112.21 55.191 112.47 55.796 112.739 C58.158 114.027 59.661 115.384 61.527 117.313 C62.195 117.997 62.862 118.681 63.55 119.385 C64.261 120.122 64.971 120.858 65.703 121.617 C67.221 123.165 68.739 124.713 70.258 126.26 C72.646 128.704 75.031 131.152 77.407 133.608 C79.703 135.976 82.014 138.329 84.328 140.68 C85.039 141.422 85.749 142.165 86.481 142.93 C87.149 143.604 87.816 144.279 88.504 144.973 C89.087 145.574 89.67 146.174 90.271 146.792 C92.016 147.949 92.016 147.949 93.999 147.85 C96.456 146.753 97.893 145.432 99.787 143.519 C100.511 142.794 101.236 142.069 101.982 141.323 C102.755 140.534 103.528 139.746 104.324 138.934 C105.128 138.126 105.932 137.318 106.76 136.485 C109.331 133.897 111.892 131.298 114.453 128.699 C116.174 126.963 117.896 125.227 119.619 123.492 C122.789 120.298 125.954 117.1 129.115 113.897 C133.377 109.58 137.666 105.292 141.977 101.023 C143.448 99.561 144.919 98.099 146.391 96.637 C147.12 95.915 147.85 95.194 148.602 94.451 C151.937 91.13 155.179 87.807 158.203 84.199 C161.369 80.508 164.847 77.274 168.43 74 C192.214 52.039 192.214 52.039 193.767 33.874 C194.158 30.848 195.021 29.262 197.016 26.949 C199.664 24.926 202.47 23.222 205.328 21.512 C207.036 20.463 208.743 19.414 210.449 18.363 C210.9 18.088 210.9 18.088 213.179 16.696 C218.121 13.653 223.002 10.514 227.891 7.387 C229.721 6.218 231.552 5.05 233.383 3.883 C234.157 3.388 234.932 2.894 235.73 2.385 C236.484 1.911 237.239 1.437 238.016 0.949 C238.445 0.676 238.445 0.676 240.615 -0.709 C243.687 -2.426 245.544 -2.523 249.016 -2.051 C251.191 -0.68 251.191 -0.68 253.328 1.387 C254.167 2.198 255.006 3.008 255.871 3.844 C256.351 4.322 256.831 4.799 257.326 5.292 C259.332 7.259 261.387 9.169 263.441 11.086 C265.009 12.58 266.576 14.077 268.141 15.574 C268.912 16.29 269.683 17.006 270.478 17.744 C275.794 22.935 275.794 22.935 276.797 27.527 C275.832 31.753 273.957 34.676 271.391 38.074 C270.382 39.471 269.376 40.87 268.371 42.27 C267.83 43.016 267.289 43.763 266.732 44.532 C263 49.787 259.508 55.208 255.964 60.59 C254.331 63.055 252.68 65.506 251.016 67.949 C250.761 68.328 250.761 68.328 249.475 70.246 C244.419 77.449 239 79.152 230.641 80.699 C229.924 80.818 229.207 80.936 228.469 81.059 C218.503 83.073 211.847 91.973 204.938 98.914 C204.068 99.783 203.199 100.652 202.303 101.547 C199.945 103.907 197.588 106.268 195.233 108.631 C192.762 111.108 190.287 113.583 187.814 116.058 C183.141 120.734 178.47 125.413 173.8 130.092 C168.479 135.425 163.156 140.754 157.832 146.083 C146.89 157.035 135.952 167.991 125.016 178.949 C126.808 182.804 129.26 185.47 132.256 188.433 C132.79 188.968 133.324 189.504 133.873 190.056 C135.637 191.823 137.408 193.584 139.18 195.344 C140.414 196.576 141.647 197.809 142.88 199.043 C145.468 201.629 148.059 204.212 150.653 206.792 C153.96 210.082 157.26 213.378 160.558 216.677 C163.107 219.226 165.659 221.773 168.212 224.319 C169.429 225.532 170.645 226.746 171.86 227.96 C177.528 233.622 183.19 239.234 189.286 244.44 C192.17 246.956 194.843 249.673 197.527 252.398 C197.815 252.688 197.815 252.688 199.273 254.156 C201.086 255.98 202.895 257.808 204.703 259.637 C207.1 262.06 209.5 264.48 211.902 266.898 C212.442 267.446 212.982 267.994 213.538 268.559 C216.55 271.59 219.665 274.287 223.016 276.949 C224.215 278.408 225.414 279.868 226.598 281.34 C228.126 283.075 229.751 284.517 231.516 286.012 C255.215 306.518 255.215 306.518 256.94 323.172 C257.748 335.394 255.016 345.902 247.328 355.637 C239.751 363.832 229.861 369.621 218.633 370.293 C204.72 370.744 195.038 368.178 184.517 358.582 C179.028 353.373 173.832 347.895 168.918 342.141 C162.503 334.751 155.78 327.63 148.805 320.77 C146.979 318.912 145.275 316.988 143.578 315.012 C141.009 312.021 138.322 309.218 135.516 306.449 C132.812 303.782 130.223 301.095 127.766 298.199 C124.532 294.422 121.048 290.943 117.516 287.449 C113.482 283.456 109.576 279.438 105.891 275.117 C103.296 272.118 100.631 269.187 97.953 266.262 C97.458 265.715 96.963 265.167 96.453 264.604 C95.967 264.074 95.481 263.545 94.98 263 C94.554 262.532 94.127 262.065 93.687 261.583 C92.149 260.08 90.567 258.718 88.911 257.347 C87.956 256.556 87 255.764 86.016 254.949 C85.2 255.765 84.384 256.581 83.544 257.421 C63.403 277.562 43.263 297.702 23.123 317.842 C22.595 318.37 22.068 318.897 21.524 319.441 C20.087 320.877 18.649 322.313 17.211 323.748 C15.322 325.642 13.478 327.562 11.66 329.523 C4.409 337.313 -2.91 345.036 -10.359 352.637 C-11.071 353.378 -11.783 354.12 -12.516 354.884 C-22.319 364.795 -32.976 370.168 -46.984 370.324 C-59.679 370.183 -69.844 365.911 -79.234 357.324 C-87.234 348.871 -91.582 337.311 -91.297 325.723 C-89.768 312.15 -82.722 301.226 -72.984 291.949 C-72.324 291.949 -71.664 291.949 -70.984 291.949 C-70.737 291.33 -70.489 290.712 -70.234 290.074 C-68.747 287.546 -67.548 287.231 -64.984 285.949 C-64.686 285.346 -64.387 284.742 -64.08 284.12 C-62.838 281.66 -61.414 280.145 -59.456 278.21 C-59.095 277.851 -59.095 277.851 -57.27 276.034 C-56.88 275.651 -56.88 275.651 -54.906 273.711 C-54.102 272.912 -53.298 272.113 -52.469 271.29 C-49.896 268.734 -47.316 266.185 -44.734 263.637 C-42.168 261.098 -39.604 258.559 -37.042 256.016 C-35.449 254.435 -33.853 252.856 -32.254 251.281 C-28.426 247.487 -24.783 243.635 -21.319 239.506 C-19.332 237.189 -17.169 235.08 -14.984 232.949 C-13.78 231.753 -12.577 230.555 -11.375 229.356 C-10.711 228.695 -10.047 228.034 -9.362 227.353 C-6.358 224.362 -3.357 221.369 -0.355 218.375 C1.224 216.8 2.805 215.227 4.387 213.654 C6.682 211.37 8.974 209.084 11.266 206.797 C11.968 206.1 12.67 205.403 13.394 204.685 C17.156 200.922 20.683 197.098 24.016 192.949 C22.7 190.066 21.265 187.916 19.094 185.613 C18.792 185.293 18.792 185.293 17.267 183.67 C16.607 182.978 15.946 182.287 15.266 181.574 C14.92 181.209 14.92 181.209 13.172 179.364 C6.132 171.979 -1.095 164.78 -8.356 157.614 C-13.458 152.562 -18.328 147.413 -22.984 141.949 C-23.314 141.619 -23.644 141.289 -23.984 140.949 C-25.738 140.957 -27.492 141.035 -29.242 141.141 C-30.336 141.2 -31.429 141.259 -32.556 141.32 C-33.729 141.383 -34.901 141.446 -36.109 141.512 C-61.665 142.669 -81.252 136.842 -100.984 120.27 C-109.468 112.375 -115.924 101.712 -119.984 90.949 C-120.376 90.009 -120.768 89.07 -121.172 88.102 C-126.388 73.486 -126.498 53.951 -121.25 39.332 C-119.756 36.519 -118.179 34.262 -115.984 31.949 C-110.656 31.103 -110.656 31.103 -107.984 31.949 C-104.458 35.289 -101.171 38.856 -97.847 42.395 C-95.118 45.284 -92.357 48.142 -89.594 50.998 C-88.148 52.506 -86.712 54.024 -85.287 55.552 C-73.47 68.203 -73.47 68.203 -67.493 69.998 C-64.417 70.053 -61.945 69.748 -58.984 68.949 C-57.868 68.715 -56.752 68.48 -55.602 68.238 C-50.075 65.516 -45.01 61.392 -41.984 55.949 C-40.58 50.688 -40.929 45.24 -41.984 39.949 C-43.539 38.105 -43.539 38.105 -44.984 36.949 C-44.984 36.289 -44.984 35.629 -44.984 34.949 C-45.578 34.678 -46.172 34.408 -46.784 34.129 C-48.958 32.963 -50.428 31.788 -52.192 30.079 C-52.793 29.501 -53.393 28.924 -54.012 28.328 C-54.647 27.704 -55.283 27.08 -55.938 26.438 C-56.598 25.791 -57.258 25.145 -57.938 24.479 C-59.33 23.11 -60.718 21.739 -62.104 20.365 C-64.225 18.271 -66.37 16.201 -68.516 14.131 C-69.866 12.797 -71.215 11.462 -72.562 10.125 C-73.206 9.511 -73.85 8.897 -74.513 8.265 C-77.653 5.094 -78.889 3.697 -79.472 -0.863 C-78.984 -4.051 -78.984 -4.051 -77.609 -6.238 C-54.742 -22.027 -21.285 -14.626 0 0 Z M-57.984 1.949 C-53.798 7.007 -49.396 11.529 -44.547 15.949 C-28.215 30.927 -28.215 30.927 -27.646 35.917 C-27.554 39.129 -27.477 42.34 -27.449 45.553 C-27.422 47.614 -27.347 49.669 -27.271 51.729 C-27.156 62.914 -27.156 62.914 -31.152 67.504 C-32.409 68.675 -33.686 69.825 -34.984 70.949 C-35.996 72.06 -36.994 73.184 -37.977 74.32 C-38.935 75.345 -39.896 76.367 -40.859 77.387 C-41.325 77.915 -41.79 78.442 -42.27 78.986 C-45.788 82.661 -48.533 83.637 -53.589 83.905 C-54.379 83.919 -55.17 83.934 -55.984 83.949 C-56.777 83.985 -57.571 84.021 -58.388 84.058 C-60.817 84.153 -63.241 84.184 -65.672 84.199 C-66.487 84.22 -67.303 84.24 -68.143 84.262 C-74.143 84.301 -78.211 83.515 -82.782 79.286 C-84.822 77.22 -86.783 75.099 -88.734 72.949 C-89.434 72.193 -90.135 71.436 -90.856 70.656 C-93.993 67.258 -97.098 63.831 -100.18 60.383 C-100.64 59.869 -101.101 59.355 -101.575 58.826 C-102.779 57.477 -103.972 56.118 -105.164 54.758 C-106.984 52.949 -106.984 52.949 -108.984 52.949 C-110.89 71.803 -107.837 88.525 -95.984 103.949 C-84.422 117.216 -70.612 125.038 -52.984 126.949 C-45.568 127.384 -38.749 126.845 -31.477 125.422 C-27.611 124.689 -24.938 124.366 -20.984 124.949 C-14.308 129.618 -8.649 136.134 -2.922 141.887 C-2.492 142.314 -2.492 142.314 -0.318 144.479 C3.419 148.222 7.096 151.971 10.543 155.984 C14.616 160.725 19.064 165.068 23.516 169.449 C25.154 171.061 26.789 172.676 28.422 174.293 C29.137 174.996 29.851 175.699 30.588 176.424 C32.49 178.402 34.271 180.401 36.051 182.484 C40.573 187.688 45.467 192.513 50.357 197.366 C52.084 199.08 53.808 200.798 55.531 202.516 C59.19 206.163 62.852 209.807 66.516 213.449 C70.766 217.676 75.014 221.904 79.258 226.136 C80.944 227.815 82.633 229.491 84.321 231.167 C89.253 236.076 94.108 241.004 98.608 246.319 C100.931 249.009 103.472 251.47 106.016 253.949 C109.939 257.819 113.67 261.757 117.242 265.957 C120.213 269.294 123.436 272.377 126.613 275.516 C128.653 277.582 130.571 279.679 132.453 281.887 C135.317 285.238 138.379 288.355 141.516 291.449 C145.234 295.118 148.752 298.881 152.141 302.855 C154.499 305.489 157 307.967 159.516 310.449 C163.155 314.045 166.63 317.712 169.953 321.602 C173.434 325.564 177.063 329.39 180.682 333.227 C183.447 336.166 186.185 339.108 188.793 342.188 C195.52 350.041 202.589 355.355 213.141 356.199 C221.59 355.654 229.029 353.103 235.016 346.949 C240.224 339.869 242.606 333.812 242.016 324.949 C239.955 316.266 235.486 310.103 229.219 303.922 C228.666 303.37 228.114 302.818 227.545 302.249 C226.38 301.088 225.214 299.929 224.045 298.773 C222.279 297.025 220.522 295.27 218.766 293.514 C217.625 292.378 216.485 291.244 215.344 290.109 C215.086 289.852 215.086 289.852 213.784 288.553 C210.99 285.794 208.131 283.16 205.157 280.597 C200.705 276.737 196.564 272.606 192.422 268.418 C192.026 268.021 192.026 268.021 190.025 266.01 C186.675 262.644 183.332 259.272 179.988 255.901 C177.53 253.425 175.07 250.953 172.609 248.48 C171.866 247.729 171.123 246.978 170.358 246.204 C169.644 245.486 168.929 244.769 168.193 244.029 C167.578 243.409 166.963 242.788 166.328 242.149 C164.436 240.349 162.511 238.656 160.526 236.961 C154.626 231.824 149.177 226.225 143.665 220.68 C142.435 219.447 141.206 218.215 139.976 216.982 C137.343 214.343 134.712 211.702 132.081 209.06 C127.925 204.885 123.764 200.714 119.602 196.544 C107.774 184.692 95.951 172.833 84.133 160.97 C77.595 154.408 71.053 147.849 64.508 141.294 C60.366 137.146 56.229 132.993 52.095 128.837 C49.532 126.262 46.964 123.691 44.396 121.121 C43.201 119.925 42.009 118.727 40.818 117.527 C39.199 115.896 37.574 114.271 35.948 112.648 C35.038 111.735 34.129 110.822 33.192 109.882 C31.016 107.949 31.016 107.949 29.016 107.949 C28.799 107.392 28.583 106.835 28.359 106.262 C26.563 103.17 24.217 101.281 21.516 98.949 C15.059 93.376 15.059 93.376 14.016 89.949 C14.223 87.617 14.223 87.617 14.828 85.137 C19.609 64.953 17.476 46.809 7.016 28.949 C-1.494 15.732 -14.774 5.957 -29.984 1.949 C-39.633 0.041 -48.312 -0.432 -57.984 1.949 Z M237.629 17.887 C237.118 18.211 237.118 18.211 234.533 19.852 C233.476 20.544 232.418 21.236 231.328 21.949 C230.29 22.611 229.251 23.272 228.182 23.953 C225.107 25.923 222.058 27.929 219.016 29.949 C218.049 30.583 217.082 31.216 216.085 31.869 C215.188 32.472 214.291 33.074 213.367 33.695 C212.573 34.226 211.778 34.756 210.959 35.302 C207.483 38.247 206.841 41.608 206.016 45.949 C205.954 46.917 205.892 47.885 205.829 48.883 C204.41 61.822 195.653 68.712 186.711 77.328 C185.066 78.953 183.423 80.58 181.782 82.209 C177.478 86.472 173.142 90.701 168.797 94.923 C164.383 99.225 159.999 103.558 155.613 107.889 C148.53 114.876 141.428 121.844 134.301 128.786 C130.848 132.151 127.417 135.534 124.016 138.949 C123.43 139.523 122.845 140.096 122.242 140.688 C117.935 144.921 113.94 149.362 110.016 153.949 C109.43 154.63 108.845 155.31 108.242 156.012 C106.831 157.655 105.423 159.302 104.016 160.949 C106.986 163.919 109.956 166.889 113.016 169.949 C118.789 165.144 124.141 160.007 129.453 154.699 C130.28 153.885 131.107 153.07 131.959 152.23 C132.74 151.452 133.52 150.673 134.324 149.871 C134.679 149.518 134.679 149.518 136.474 147.733 C138.016 145.949 138.016 145.949 138.016 143.949 C138.59 143.701 139.164 143.452 139.756 143.197 C142.355 141.762 144.085 140.106 146.168 137.992 C146.945 137.209 147.721 136.426 148.521 135.619 C149.324 134.8 150.126 133.981 150.953 133.137 C151.752 132.329 152.55 131.522 153.373 130.689 C154.914 129.131 156.453 127.569 157.989 126.006 C159.627 124.343 161.277 122.695 162.938 121.055 C165.016 118.949 165.016 118.949 167.328 116.074 C169.242 113.734 171.277 111.783 173.578 109.824 C177.282 106.663 180.758 103.324 184.203 99.887 C184.702 99.392 185.201 98.898 185.715 98.388 C188.154 95.94 190.465 93.454 192.652 90.777 C194.568 88.485 196.349 86.644 198.641 84.762 C201.13 82.689 203.279 80.647 205.414 78.199 C211.912 70.863 216.732 68.409 226.219 66.73 C233.656 65.2 236.599 63.975 240.988 57.723 C242.369 55.601 243.732 53.468 245.078 51.324 C245.759 50.268 246.441 49.213 247.143 48.125 C248.482 46.049 249.811 43.967 251.129 41.878 C253.332 38.459 255.674 35.153 258.08 31.874 C259.016 29.949 259.016 29.949 258.8 27.86 C257.578 24.883 255.524 23.024 253.266 20.762 C252.405 19.881 251.543 19.001 250.656 18.094 C245.735 14.097 242.813 14.551 237.629 17.887 Z M31.539 206.16 C30.869 206.828 30.198 207.496 29.508 208.184 C28.809 208.89 28.11 209.596 27.391 210.324 C26.684 211.023 25.978 211.722 25.25 212.441 C24.582 213.112 23.915 213.782 23.227 214.473 C22.611 215.091 21.995 215.709 21.361 216.345 C20.016 217.949 20.016 217.949 20.016 219.949 C19.356 219.949 18.696 219.949 18.016 219.949 C16.584 221.401 16.584 221.401 14.915 223.419 C11.031 227.983 6.884 232.209 2.633 236.43 C1.856 237.206 1.078 237.981 0.277 238.781 C-2.183 241.235 -4.646 243.686 -7.109 246.137 C-8.77 247.792 -10.43 249.448 -12.09 251.104 C-15.133 254.138 -18.177 257.172 -21.223 260.204 C-21.875 260.853 -22.527 261.502 -23.198 262.171 C-24.3 263.268 -25.403 264.365 -26.506 265.461 C-29.103 268.046 -31.608 270.698 -34.082 273.402 C-39.408 279.215 -44.869 284.855 -50.508 290.363 C-51.676 291.51 -52.845 292.657 -54.013 293.804 C-55.765 295.523 -57.522 297.238 -59.293 298.938 C-67.88 307.181 -75.856 315.51 -76.297 328.074 C-76.138 336.158 -73.167 342.104 -67.609 347.887 C-60.862 354.159 -54.53 356.322 -45.445 356.156 C-39.175 355.629 -33.886 354.094 -29.176 349.818 C-28.487 349.193 -27.798 348.568 -27.088 347.925 C-23.665 344.71 -20.308 341.435 -16.984 338.117 C-16.263 337.399 -15.542 336.682 -14.799 335.942 C-13.292 334.44 -11.786 332.937 -10.282 331.432 C-7.968 329.12 -5.646 326.817 -3.324 324.514 C-1.856 323.049 -0.389 321.583 1.078 320.117 C1.426 319.772 1.426 319.772 3.189 318.028 C3.824 317.39 4.459 316.752 5.113 316.094 C5.675 315.534 6.238 314.973 6.817 314.395 C8.016 312.949 8.016 312.949 8.016 310.949 C8.6 310.696 9.185 310.442 9.788 310.181 C12.265 308.811 13.757 307.334 15.66 305.246 C15.999 304.879 15.999 304.879 17.713 303.023 C18.411 302.256 19.109 301.489 19.828 300.699 C27.579 292.213 27.579 292.213 31.59 288.902 C34.019 286.887 36.09 284.804 38.133 282.398 C43.436 276.173 49.341 270.519 55.141 264.762 C56.319 263.588 57.498 262.414 58.676 261.24 C60.84 259.084 63.005 256.93 65.172 254.777 C65.648 254.303 66.124 253.829 66.615 253.341 C67.998 251.967 69.385 250.596 70.773 249.225 C72.74 247.229 74.406 245.236 76.016 242.949 C75.568 242.502 75.121 242.055 74.66 241.594 C73.4 240.334 72.141 239.074 70.883 237.812 C69.416 236.348 67.937 234.897 66.453 233.449 C63.919 230.85 61.628 228.126 59.348 225.305 C59.128 225.081 59.128 225.081 58.016 223.949 C57.356 223.949 56.696 223.949 56.016 223.949 C55.765 223.374 55.514 222.799 55.256 222.206 C53.848 219.645 52.234 217.909 50.172 215.84 C49.42 215.086 48.669 214.332 47.895 213.555 C47.109 212.777 46.324 212 45.516 211.199 C44.731 210.406 43.946 209.614 43.137 208.797 C42.761 208.422 42.761 208.422 40.859 206.527 C40.17 205.841 39.481 205.154 38.771 204.446 C35.472 201.633 34.207 203.502 31.539 206.16 Z " fill="currentColor" transform="translate(179.984375,77.05078125)"/>
<path d="M0 0 C3.075 1.703 5.406 3.812 7 7 C7.681 13.813 7.681 13.813 5.953 16.824 C3.62 19.659 1.755 21.754 -1.953 22.273 C-6.247 22.463 -9.096 22.434 -12.5 19.625 C-15.872 16.084 -16.395 14.032 -16.359 9.105 C-15.724 5.384 -13.66 3.597 -11 1 C-7.516 -0.742 -3.801 -0.587 0 0 Z " fill="currentColor" transform="translate(398,393)"/>
</svg>
