<?xml version="1.0" encoding="UTF-8"?>
<!-- Generator: visioncortex VTracer 0.6.12 -->
<svg viewBox="0 0 512 512" version="1.1" xmlns="http://www.w3.org/2000/svg" width="512" height="512">
<path d="M0 0 C5.682 3.117 9.807 6.823 12.176 12.934 C14.004 19.412 14.464 25.544 14.436 32.25 C14.44 33.251 14.444 34.252 14.448 35.283 C14.458 38.618 14.454 41.952 14.45 45.287 C14.455 47.686 14.46 50.085 14.466 52.483 C14.478 58.311 14.48 64.138 14.478 69.966 C14.476 74.705 14.478 79.444 14.482 84.183 C14.483 84.859 14.484 85.534 14.484 86.231 C14.485 87.604 14.487 88.977 14.488 90.35 C14.499 103.212 14.497 116.074 14.49 128.935 C14.485 140.688 14.497 152.44 14.516 164.192 C14.535 176.276 14.543 188.361 14.539 200.446 C14.537 207.223 14.54 214.001 14.554 220.778 C14.567 227.152 14.565 233.525 14.552 239.899 C14.549 242.234 14.552 244.57 14.56 246.906 C14.571 250.101 14.563 253.295 14.55 256.49 C14.557 257.408 14.565 258.326 14.572 259.272 C14.494 268.697 12.535 276.428 5.945 283.309 C0.908 287.935 -3.798 289.32 -10.577 289.212 C-18.874 288.183 -26.82 282.964 -34.012 278.996 C-35.047 278.431 -36.082 277.865 -37.149 277.282 C-45.366 272.777 -53.521 268.164 -61.667 263.532 C-67.86 260.018 -74.099 256.617 -80.406 253.313 C-86.223 250.264 -91.997 247.142 -97.762 243.996 C-98.692 243.489 -99.622 242.981 -100.58 242.458 C-106.555 239.191 -112.506 235.883 -118.449 232.559 C-124.188 229.35 -129.971 226.311 -135.891 223.445 C-138.11 222.301 -140.22 221.12 -142.352 219.828 C-148.831 215.91 -154.028 212.934 -161.824 212.934 C-163.359 216.002 -162.945 219.211 -162.922 222.577 C-162.92 223.366 -162.919 224.155 -162.917 224.967 C-162.914 226.684 -162.908 228.401 -162.899 230.117 C-162.887 232.837 -162.88 235.557 -162.875 238.277 C-162.862 245.037 -162.838 251.797 -162.814 258.557 C-162.794 264.261 -162.778 269.965 -162.768 275.668 C-162.762 278.342 -162.749 281.016 -162.737 283.69 C-162.733 285.341 -162.73 286.992 -162.727 288.643 C-162.721 289.382 -162.716 290.12 -162.711 290.881 C-162.71 302.143 -162.71 302.143 -165.574 306.746 C-170.634 311.666 -176.276 311.254 -182.945 311.27 C-183.923 311.276 -184.9 311.283 -185.907 311.29 C-187.971 311.3 -190.034 311.305 -192.098 311.304 C-195.247 311.309 -198.396 311.345 -201.545 311.383 C-203.553 311.389 -205.562 311.393 -207.57 311.395 C-208.508 311.409 -209.446 311.423 -210.412 311.438 C-216.023 311.399 -219.465 310.832 -223.824 306.934 C-226.553 303.102 -226.131 298.729 -226.143 294.218 C-226.153 293.339 -226.163 292.461 -226.174 291.556 C-226.204 288.656 -226.221 285.756 -226.238 282.855 C-226.257 280.843 -226.277 278.831 -226.297 276.819 C-226.348 271.526 -226.388 266.232 -226.425 260.938 C-226.465 255.536 -226.516 250.133 -226.566 244.73 C-226.663 234.132 -226.748 223.533 -226.824 212.934 C-227.859 212.663 -228.893 212.393 -229.959 212.115 C-231.327 211.755 -232.695 211.394 -234.063 211.034 C-234.403 210.945 -234.403 210.945 -236.125 210.497 C-247.945 207.373 -257.305 201.72 -265.824 192.934 C-266.544 192.212 -267.263 191.49 -268.004 190.746 C-280.987 177.028 -285.471 159.455 -285.172 141.012 C-284.832 133.496 -282.605 126.867 -279.824 119.934 C-279.452 119 -279.079 118.067 -278.695 117.105 C-272.743 103.915 -261.926 93.266 -249.199 86.684 C-248.898 86.525 -248.898 86.525 -247.375 85.722 C-235.737 80.038 -224.139 78.362 -211.391 78.723 C-209.086 78.783 -206.783 78.809 -204.476 78.825 C-197.933 78.872 -191.391 78.948 -184.849 79.122 C-164.627 79.632 -149.691 79.287 -132.934 66.508 C-130.049 64.355 -127.051 62.654 -123.902 60.91 C-122.934 60.352 -121.965 59.795 -120.968 59.22 C-120.013 58.672 -119.058 58.123 -118.074 57.559 C-115.878 56.294 -113.681 55.03 -111.484 53.766 C-110.388 53.135 -109.291 52.504 -108.161 51.854 C-103.707 49.291 -99.258 46.72 -94.809 44.15 C-83.233 37.465 -71.64 30.813 -60.028 24.191 C-58.092 23.086 -56.157 21.98 -54.223 20.871 C-46.768 16.601 -39.298 12.357 -31.824 8.121 C-30.832 7.557 -29.839 6.993 -28.817 6.412 C-26.159 4.908 -23.494 3.417 -20.824 1.934 C-20.275 1.628 -20.275 1.628 -17.496 0.082 C-11.843 -2.348 -5.725 -2.162 0 0 Z M-14.234 19.207 C-15.133 19.697 -16.031 20.187 -16.957 20.691 C-17.924 21.225 -18.891 21.759 -19.887 22.309 C-20.882 22.855 -21.878 23.402 -22.904 23.965 C-30.186 27.982 -37.372 32.141 -44.52 36.391 C-49.236 39.189 -53.996 41.907 -58.762 44.621 C-76.143 54.527 -93.464 64.536 -110.734 74.635 C-116.169 77.811 -121.614 80.97 -127.07 84.109 C-127.673 84.456 -128.275 84.803 -128.896 85.16 C-131.834 86.851 -134.772 88.539 -137.713 90.225 C-138.236 90.525 -138.236 90.525 -140.883 92.047 C-141.814 92.581 -142.745 93.115 -143.705 93.665 C-145.824 94.934 -145.824 94.934 -146.824 95.934 C-147.01 98.984 -147.13 102.014 -147.208 105.068 C-147.235 106.028 -147.262 106.987 -147.291 107.976 C-147.531 116.853 -147.674 125.733 -147.787 134.613 C-147.865 140.581 -147.974 146.544 -148.162 152.51 C-148.342 158.275 -148.438 164.037 -148.476 169.806 C-148.505 172 -148.563 174.194 -148.652 176.387 C-149.3 193.107 -149.3 193.107 -145.174 197.818 C-141.128 201.061 -136.69 203.177 -131.895 205.083 C-128.982 206.279 -126.303 207.826 -123.582 209.402 C-121.706 210.416 -119.829 211.427 -117.949 212.434 C-117.443 212.707 -117.443 212.707 -114.881 214.089 C-107.763 217.921 -100.601 221.665 -93.43 225.397 C-87.829 228.34 -82.413 231.523 -77.02 234.828 C-73.484 236.982 -69.925 238.943 -66.199 240.746 C-57.601 244.911 -49.414 249.845 -41.138 254.608 C-37.668 256.596 -34.175 258.533 -30.648 260.418 C-28.263 261.698 -25.896 263.006 -23.531 264.324 C-21.983 265.174 -20.435 266.023 -18.887 266.871 C-18.152 267.286 -17.417 267.7 -16.659 268.128 C-15.962 268.506 -15.265 268.884 -14.547 269.273 C-13.926 269.618 -13.304 269.962 -12.664 270.316 C-10.315 271.105 -9.116 270.816 -6.824 269.934 C-3.848 266.958 -4.357 263.601 -4.207 259.596 C-4.17 258.747 -4.132 257.898 -4.093 257.024 C-3.705 247.464 -3.684 237.906 -3.695 228.339 C-3.693 226.356 -3.692 224.372 -3.69 222.388 C-3.685 217.06 -3.687 211.731 -3.69 206.402 C-3.692 200.783 -3.69 195.163 -3.689 189.544 C-3.687 180.107 -3.689 170.67 -3.694 161.233 C-3.699 150.385 -3.698 139.538 -3.692 128.69 C-3.687 119.317 -3.687 109.944 -3.689 100.571 C-3.691 94.999 -3.691 89.427 -3.688 83.856 C-3.668 44.137 -3.668 44.137 -4.145 29.214 C-4.167 28.271 -4.189 27.329 -4.212 26.358 C-4.462 20.382 -4.462 20.382 -6.231 18.189 C-9.253 15.807 -11.191 17.543 -14.234 19.207 Z M-248.824 107.934 C-249.876 108.655 -250.928 109.377 -252.012 110.121 C-261.84 119.949 -266.834 132.754 -267.137 146.496 C-267 159.455 -262.434 170.468 -253.863 180.148 C-238.542 194.985 -221.007 195.247 -200.824 194.934 C-188.944 194.604 -177.064 194.274 -164.824 193.934 C-164.824 162.254 -164.824 130.574 -164.824 97.934 C-169.723 97.892 -169.723 97.892 -194.512 97.684 C-197.578 97.647 -200.644 97.611 -203.803 97.573 C-206.273 97.562 -208.742 97.551 -211.211 97.543 C-212.462 97.523 -213.712 97.502 -215.001 97.481 C-227.744 97.476 -238.349 100.67 -248.824 107.934 Z M-207.824 212.934 C-207.824 239.004 -207.824 265.074 -207.824 291.934 C-199.244 291.934 -190.664 291.934 -181.824 291.934 C-180.128 290.237 -180.705 288.122 -180.7 285.859 C-180.703 285.133 -180.707 284.408 -180.711 283.66 C-180.711 282.899 -180.71 282.138 -180.71 281.354 C-180.711 278.827 -180.719 276.3 -180.727 273.773 C-180.728 272.026 -180.73 270.279 -180.731 268.531 C-180.735 263.923 -180.745 259.315 -180.756 254.707 C-180.766 250.009 -180.77 245.31 -180.775 240.611 C-180.786 231.385 -180.804 222.16 -180.824 212.934 C-189.734 212.934 -198.644 212.934 -207.824 212.934 Z " fill="currentColor" transform="translate(340.82421875,101.06640625)"/>
<path d="M0 0 C3.715 3.032 3.715 3.032 5 6 C5.337 10.245 5.263 12.432 2.59 15.75 C-2.244 20.184 -7.843 23.746 -13.258 27.426 C-17.48 30.308 -21.612 33.311 -25.75 36.312 C-26.128 36.584 -26.128 36.584 -28.04 37.96 C-31.954 40.777 -35.838 43.625 -39.684 46.535 C-41.185 47.649 -42.686 48.762 -44.188 49.875 C-44.87 50.405 -45.552 50.935 -46.255 51.482 C-49.799 54.08 -51.306 55.013 -55.84 54.926 C-59.436 53.872 -60.852 53.057 -63 50 C-64.059 46.681 -64.397 44.898 -62.977 41.684 C-60.293 38.04 -57.06 35.67 -53.438 33 C-52.686 32.436 -51.934 31.872 -51.16 31.291 C-44.36 26.21 -37.487 21.227 -30.574 16.301 C-27.385 14.021 -24.254 11.68 -21.145 9.293 C-20.346 8.69 -19.547 8.086 -18.724 7.465 C-17.201 6.312 -15.688 5.145 -14.188 3.961 C-9.248 0.261 -6.185 -0.863 0 0 Z " fill="currentColor" transform="translate(442,154)"/>
<path d="M0 0 C0.646 -0.009 1.292 -0.018 1.958 -0.027 C4.083 -0.048 6.205 -0.034 8.33 -0.017 C9.813 -0.02 11.296 -0.025 12.779 -0.032 C15.883 -0.039 18.986 -0.028 22.089 -0.005 C26.061 0.024 30.031 0.007 34.003 -0.023 C37.064 -0.041 40.124 -0.035 43.185 -0.022 C44.649 -0.019 46.113 -0.023 47.577 -0.035 C49.627 -0.047 51.673 -0.028 53.723 0 C54.887 0.004 56.051 0.008 57.25 0.012 C61.282 0.835 62.786 2.512 65.361 5.647 C66.025 7.709 66.025 7.709 65.986 9.647 C65.993 9.967 65.993 9.967 66.025 11.584 C64.963 14.885 62.989 16.445 60.361 18.647 C57.212 19.289 57.212 19.289 53.631 19.31 C52.975 19.32 52.319 19.331 51.643 19.341 C49.486 19.368 47.331 19.359 45.174 19.346 C43.668 19.352 42.163 19.359 40.657 19.368 C37.507 19.38 34.357 19.373 31.206 19.354 C27.174 19.331 23.143 19.358 19.111 19.399 C16.004 19.424 12.897 19.422 9.789 19.411 C8.303 19.409 6.817 19.417 5.33 19.434 C-6.184 19.545 -6.184 19.545 -9.683 17.385 C-12.132 14.645 -12.635 12.738 -12.764 9.084 C-10.562 2.358 -6.922 0.024 0 0 Z " fill="currentColor" transform="translate(390.638671875,235.35302734375)"/>
<path d="M0 0 C3.414 0.562 5.389 2.373 7.982 4.587 C9.107 5.515 10.235 6.439 11.365 7.36 C11.958 7.848 12.552 8.337 13.163 8.84 C16.449 11.454 19.907 13.82 23.357 16.212 C29.872 20.761 36.272 25.441 42.604 30.24 C45.675 32.567 48.76 34.852 51.912 37.067 C56.321 40.261 56.321 40.261 57.045 43.337 C56.97 47.545 56.697 49.61 53.857 52.774 C50.521 54.628 48.817 54.657 45.045 54.337 C37.219 50.826 30.276 44.541 23.527 39.317 C18.994 35.809 14.413 32.395 9.732 29.087 C8.604 28.286 7.477 27.485 6.349 26.684 C6.077 26.491 6.077 26.491 4.7 25.513 C4.154 25.125 3.607 24.737 3.045 24.337 C2.478 23.934 1.911 23.532 1.327 23.117 C-0.337 21.93 -1.991 20.729 -3.643 19.524 C-4.595 18.837 -5.548 18.15 -6.53 17.442 C-9.062 15.244 -10.49 13.34 -11.955 10.337 C-11.955 6.798 -10.997 5.393 -8.893 2.524 C-5.696 0.144 -3.929 -0.12 0 0 Z " fill="currentColor" transform="translate(389.955322265625,280.663330078125)"/>
</svg>
