<?xml version="1.0" encoding="UTF-8"?>
<!-- Generator: visioncortex VTracer 0.6.12 -->
<svg viewBox="0 0 512 512" version="1.1" xmlns="http://www.w3.org/2000/svg" width="512" height="512">
<path d="M0 0 C1.809 0.221 3.617 0.441 5.426 0.661 C9.578 1.167 13.729 1.675 17.879 2.185 C25.144 3.075 32.411 3.946 39.678 4.816 C73.373 8.851 107.042 13.047 140.679 17.548 C143.508 17.927 146.338 18.305 149.168 18.684 C149.877 18.778 150.586 18.873 151.316 18.971 C167.888 21.187 184.47 23.319 201.053 25.452 C207.343 26.261 213.632 27.075 219.921 27.893 C220.806 28.007 221.69 28.122 222.601 28.241 C226.172 28.705 229.742 29.169 233.312 29.633 C244.095 31.036 254.879 32.423 265.667 33.788 C272.642 34.671 279.615 35.569 286.586 36.477 C290.672 37.01 294.759 37.534 298.848 38.041 C302.629 38.51 306.407 38.997 310.184 39.5 C311.558 39.68 312.934 39.852 314.31 40.017 C327.187 41.564 327.187 41.564 332.062 47.062 C335.504 53.945 332.478 64.85 331.49 72.123 C331.322 73.395 331.154 74.667 330.982 75.977 C330.619 78.732 330.252 81.485 329.882 84.238 C329.29 88.639 328.708 93.041 328.126 97.444 C327.198 104.457 326.265 111.47 325.328 118.482 C323.673 130.88 322.028 143.279 320.385 155.679 C319.888 159.429 319.39 163.179 318.892 166.929 C316.304 186.392 313.779 205.861 311.542 225.368 C311.454 226.122 311.365 226.876 311.274 227.653 C311.046 229.604 310.823 231.556 310.601 233.508 C309.006 244.041 309.006 244.041 305.812 247.5 C302.681 249.28 300.67 249.989 297.062 250.062 C293.088 248.534 291.444 247.635 289.062 244.062 C288.267 235.06 289.381 226.187 290.812 217.312 C292.404 206.831 293.793 196.344 295 185.812 C295.331 182.941 295.663 180.07 295.996 177.199 C296.081 176.467 296.166 175.735 296.253 174.981 C297.313 165.857 298.429 156.74 299.562 147.625 C299.669 146.772 299.775 145.919 299.884 145.04 C301.304 133.665 302.869 122.325 304.604 110.994 C306 101.765 307.181 92.514 308.312 83.25 C308.402 82.531 308.491 81.811 308.582 81.07 C308.835 79.02 309.083 76.969 309.328 74.918 C309.47 73.739 309.612 72.559 309.759 71.344 C310.047 68.227 310.118 65.191 310.062 62.062 C309.783 62.03 309.783 62.03 308.371 61.866 C293.962 60.188 279.579 58.353 265.201 56.435 C254.939 55.069 244.672 53.758 234.395 52.512 C233.314 52.381 232.234 52.25 231.121 52.114 C225.823 51.473 220.525 50.836 215.227 50.206 C206.344 49.141 197.489 48.024 188.66 46.578 C178.357 44.892 168.01 43.624 157.648 42.36 C151.494 41.609 145.34 40.846 139.188 40.082 C137.885 39.92 136.582 39.759 135.239 39.592 C125.613 38.394 115.993 37.151 106.375 35.887 C105.673 35.794 104.971 35.702 104.248 35.607 C100.669 35.137 97.09 34.665 93.511 34.194 C68.737 30.932 43.953 27.773 19.146 24.768 C16.947 24.501 14.747 24.234 12.548 23.967 C8.488 23.474 4.428 22.984 0.367 22.496 C-0.842 22.35 -2.051 22.203 -3.296 22.052 C-4.398 21.921 -5.499 21.79 -6.633 21.654 C-7.591 21.539 -8.549 21.424 -9.535 21.306 C-11.938 21.062 -11.938 21.062 -14.938 21.062 C-15.017 21.641 -15.017 21.641 -15.418 24.57 C-15.653 26.11 -15.888 27.649 -16.125 29.188 C-16.226 29.948 -16.327 30.709 -16.432 31.492 C-17.321 37.067 -18.774 40.179 -22.938 44.062 C-26.045 45.1 -28.772 44.854 -31.938 44.062 C-34.938 41.625 -34.938 41.625 -36.938 39.062 C-37.267 38.733 -37.597 38.403 -37.938 38.062 C-38.186 31.229 -37.582 24.645 -36.688 17.875 C-36.578 16.917 -36.468 15.958 -36.355 14.971 C-35.461 8.156 -34.108 3.78 -28.75 -0.812 C-20.261 -4.208 -8.892 -1.104 0 0 Z " fill="currentColor" transform="translate(122.9375,112.9375)"/>
<path d="M0 0 C1.109 -0.005 2.218 -0.01 3.361 -0.016 C4.569 -0.011 5.777 -0.007 7.021 -0.002 C8.312 -0.005 9.604 -0.009 10.934 -0.012 C14.512 -0.02 18.09 -0.016 21.667 -0.01 C25.528 -0.005 29.389 -0.012 33.25 -0.018 C40.812 -0.027 48.373 -0.025 55.934 -0.019 C62.079 -0.014 68.224 -0.014 74.369 -0.016 C75.243 -0.016 76.117 -0.017 77.018 -0.017 C78.795 -0.018 80.571 -0.018 82.348 -0.019 C99.007 -0.025 115.666 -0.018 132.325 -0.007 C146.62 0.002 160.915 0 175.211 -0.009 C191.81 -0.02 208.409 -0.024 225.008 -0.018 C226.778 -0.017 228.548 -0.017 230.318 -0.016 C230.754 -0.016 230.754 -0.016 232.957 -0.015 C239.095 -0.013 245.233 -0.016 251.37 -0.021 C258.85 -0.027 266.33 -0.025 273.809 -0.014 C277.626 -0.009 281.442 -0.007 285.258 -0.014 C289.394 -0.021 293.53 -0.012 297.666 -0.002 C298.874 -0.007 300.082 -0.011 301.326 -0.016 C302.435 -0.011 303.544 -0.005 304.687 0 C305.641 0 306.596 0.001 307.579 0.001 C313.291 0.519 317.944 2.617 322.343 6.252 C325.874 11.502 326.928 16.258 326.851 22.487 C326.858 23.276 326.864 24.066 326.87 24.879 C326.886 27.503 326.874 30.126 326.861 32.75 C326.866 34.639 326.874 36.529 326.882 38.419 C326.9 43.536 326.893 48.654 326.881 53.772 C326.871 59.134 326.88 64.497 326.886 69.86 C326.894 78.865 326.884 87.869 326.865 96.874 C326.843 107.276 326.85 117.678 326.872 128.08 C326.89 137.02 326.893 145.961 326.882 154.901 C326.876 160.237 326.875 165.572 326.889 170.908 C326.9 175.924 326.892 180.941 326.869 185.958 C326.864 187.796 326.865 189.634 326.874 191.472 C326.885 193.987 326.871 196.501 326.851 199.016 C326.856 199.378 326.856 199.378 326.878 201.205 C326.796 206.588 325.283 210.735 322.343 215.252 C317.815 219.553 314.102 221.499 307.86 221.512 C306.739 221.519 305.618 221.526 304.463 221.533 C303.231 221.531 301.999 221.528 300.73 221.526 C300.076 221.528 300.076 221.528 296.764 221.542 C293.129 221.556 289.494 221.558 285.858 221.557 C281.938 221.559 278.019 221.572 274.099 221.583 C265.527 221.606 256.954 221.614 248.382 221.619 C243.03 221.622 237.677 221.629 232.325 221.636 C217.507 221.656 202.688 221.672 187.87 221.675 C187.396 221.675 187.396 221.675 184.996 221.676 C183.073 221.676 181.15 221.676 179.227 221.677 C178.273 221.677 177.318 221.677 176.335 221.677 C175.857 221.677 175.857 221.677 173.439 221.678 C157.954 221.681 142.469 221.708 126.985 221.746 C111.087 221.784 95.19 221.803 79.293 221.803 C70.367 221.804 61.441 221.813 52.515 221.841 C44.914 221.866 37.314 221.873 29.713 221.858 C25.835 221.851 21.958 221.852 18.081 221.875 C13.875 221.899 9.671 221.885 5.465 221.866 C4.853 221.873 4.853 221.873 1.759 221.906 C-5.334 221.836 -10.214 220.988 -15.657 216.252 C-20.357 211.189 -20.805 207.206 -20.797 200.528 C-20.8 199.734 -20.803 198.939 -20.806 198.12 C-20.815 195.449 -20.816 192.777 -20.818 190.106 C-20.822 188.194 -20.827 186.282 -20.833 184.37 C-20.846 179.17 -20.852 173.969 -20.857 168.769 C-20.86 165.521 -20.864 162.273 -20.868 159.025 C-20.882 148.867 -20.892 138.708 -20.896 128.549 C-20.9 116.816 -20.918 105.084 -20.947 93.351 C-20.968 84.286 -20.978 75.221 -20.98 66.156 C-20.981 60.74 -20.987 55.324 -21.004 49.908 C-21.021 44.813 -21.023 39.718 -21.014 34.624 C-21.013 32.754 -21.018 30.884 -21.028 29.015 C-21.04 26.462 -21.035 23.909 -21.024 21.356 C-21.032 20.617 -21.04 19.878 -21.049 19.116 C-21.004 14.42 -20.13 11.24 -17.657 7.252 C-12.323 2.037 -7.421 0.003 0 0 Z M-0.657 22.252 C-0.657 32.812 -0.657 43.372 -0.657 54.252 C10.839 52.974 17.646 49.744 25.343 41.252 C29.964 34.698 31.76 29.151 32.343 21.252 C27.965 21.227 23.587 21.209 19.209 21.197 C17.719 21.192 16.229 21.185 14.739 21.176 C12.599 21.164 10.46 21.158 8.32 21.154 C7.676 21.151 7.676 21.151 4.416 21.138 C1.343 21.252 1.343 21.252 -0.657 22.252 Z M54.343 21.252 C53.867 22.678 53.391 24.104 52.915 25.53 C52.649 26.324 52.384 27.118 52.111 27.936 C51.464 29.889 50.831 31.847 50.203 33.806 C44.68 50.335 35.864 61.216 20.343 69.252 C14.45 72.047 8.707 73.784 2.277 74.857 C0.343 75.252 0.343 75.252 -0.657 76.252 C-0.751 78.43 -0.774 80.611 -0.77 82.791 C-0.77 83.474 -0.77 84.157 -0.771 84.86 C-0.77 87.128 -0.762 89.395 -0.754 91.662 C-0.752 93.23 -0.751 94.798 -0.75 96.366 C-0.746 100.5 -0.736 104.635 -0.725 108.77 C-0.715 112.986 -0.71 117.202 -0.705 121.418 C-0.695 129.696 -0.678 137.974 -0.657 146.252 C-0.139 146.387 -0.139 146.387 2.479 147.071 C3.848 147.432 5.216 147.793 6.585 148.154 C7.265 148.331 7.946 148.509 8.647 148.692 C24.195 152.803 36.7 161.554 44.918 175.537 C49.132 183.561 51.112 191.325 53.343 200.252 C119.013 200.252 184.683 200.252 252.343 200.252 C253.663 194.972 254.983 189.692 256.343 184.252 C260.089 175.367 264.499 168.999 271.343 162.252 C271.908 161.677 272.473 161.102 273.054 160.509 C281.245 152.798 291.688 149.582 302.386 147.111 C303.362 146.827 304.338 146.544 305.343 146.252 C306.771 143.396 306.463 140.975 306.457 137.782 C306.457 137.451 306.457 137.451 306.457 135.772 C306.457 133.575 306.449 131.378 306.441 129.181 C306.439 127.66 306.438 126.138 306.437 124.616 C306.433 120.608 306.423 116.6 306.412 112.592 C306.402 108.503 306.397 104.415 306.392 100.326 C306.381 92.301 306.364 84.276 306.343 76.252 C302.969 75.283 299.598 74.319 296.203 73.427 C280.913 69.183 267.955 59.82 259.808 46.076 C256.169 39.059 254.05 31.924 252.738 24.15 C252.343 22.252 252.343 22.252 251.343 21.252 C248.801 21.154 246.287 21.122 243.744 21.131 C242.939 21.131 242.134 21.13 241.304 21.129 C238.585 21.127 235.865 21.133 233.146 21.138 C231.205 21.138 229.264 21.138 227.323 21.138 C222.036 21.137 216.749 21.143 211.462 21.15 C205.943 21.157 200.425 21.157 194.906 21.158 C184.448 21.161 173.989 21.17 163.531 21.18 C151.628 21.191 139.725 21.196 127.822 21.201 C103.329 21.212 78.836 21.229 54.343 21.252 Z M273.343 21.252 C271.723 24.493 273.206 27.13 274.277 30.459 C278 40.209 283.599 46.869 292.968 51.568 C297.283 53.411 300.611 54.461 305.343 54.252 C307.008 48.72 306.528 42.911 306.531 37.189 C306.537 36.591 306.537 36.591 306.568 33.562 C306.57 32.417 306.572 31.272 306.574 30.092 C306.578 29.043 306.582 27.995 306.586 26.916 C306.343 24.252 306.343 24.252 304.343 21.252 C301.271 20.911 301.271 20.911 297.367 20.959 C297.024 20.961 297.024 20.961 295.29 20.972 C293.099 20.988 290.909 21.026 288.718 21.064 C287.234 21.079 285.75 21.093 284.265 21.105 C280.624 21.138 276.984 21.19 273.343 21.252 Z M-0.657 168.252 C-0.681 172.648 -0.699 177.045 -0.712 181.441 C-0.717 182.938 -0.723 184.435 -0.732 185.932 C-0.744 188.079 -0.75 190.226 -0.754 192.373 C-0.76 193.666 -0.765 194.96 -0.77 196.292 C-0.657 199.252 -0.657 199.252 0.343 200.252 C2.719 200.34 5.065 200.367 7.441 200.349 C8.15 200.348 8.859 200.347 9.589 200.345 C11.861 200.339 14.134 200.327 16.406 200.314 C17.943 200.309 19.48 200.305 21.017 200.301 C24.793 200.289 28.568 200.272 32.343 200.252 C30.232 188.409 26.229 179.92 16.246 172.744 C10.674 169.304 5.804 168.712 -0.657 168.252 Z M284.343 176.252 C277.286 183.617 273.343 189.862 273.343 200.252 C283.903 200.252 294.463 200.252 305.343 200.252 C306.196 195.991 306.398 192.908 306.222 188.638 C306.174 187.391 306.126 186.144 306.076 184.859 C306.048 184.212 306.048 184.212 305.906 180.939 C305.88 180.283 305.88 180.283 305.748 176.961 C305.618 173.724 305.483 170.488 305.343 167.252 C297.599 167.252 290.072 171.337 284.343 176.252 Z " fill="currentColor" transform="translate(76.6566162109375,178.74831771850586)"/>
<path d="M0 0 C11.084 9.553 18.06 23.089 19.188 37.75 C19.34 53.162 14.166 66.606 3.688 77.875 C-6.896 87.966 -19.511 93.602 -34.188 94.188 C-47.968 93.808 -61.727 88.358 -71.836 78.914 C-80.695 69.214 -86.808 58.059 -87.812 44.75 C-87.916 43.451 -88.019 42.151 -88.125 40.812 C-87.905 24.789 -80.979 11.785 -69.812 0.75 C-49.658 -17.529 -20.776 -16.102 0 0 Z M-59.812 19.75 C-67.054 29.232 -67.993 38.062 -66.812 49.75 C-64.631 57.914 -58.787 64.387 -51.871 69.062 C-43.146 73.857 -33.798 74.755 -24.309 72.031 C-15.543 68.927 -8.262 63.01 -3.812 54.75 C-0.605 46.776 -0.315 37.478 -2.91 29.285 C-7.293 20.017 -13.16 13.452 -22.812 9.75 C-36.33 5.362 -50.441 9.456 -59.812 19.75 Z " fill="currentColor" transform="translate(263.8125,249.25)"/>
</svg>
