<?xml version="1.0" encoding="UTF-8"?>
<!-- Generator: visioncortex VTracer 0.6.12 -->
<svg viewBox="0 0 512 512" version="1.1" xmlns="http://www.w3.org/2000/svg" width="512" height="512">
<path d="M0 0 C2.57 2.3 5.067 4.663 7.559 7.047 C9.179 8.511 10.804 9.969 12.434 11.422 C15.7 14.359 18.947 17.315 22.177 20.292 C23.216 21.248 24.259 22.199 25.306 23.147 C27.431 25.072 29.513 26.999 31.488 29.078 C33.764 31.386 35.438 32.912 38.731 33.308 C39.149 33.299 39.149 33.299 41.262 33.254 C42.245 33.233 43.228 33.212 44.24 33.191 C49.23 32.974 54.211 32.66 59.194 32.335 C77.734 31.144 96.233 30.848 114.809 30.859 C115.407 30.859 115.407 30.859 118.433 30.857 C129.662 30.858 140.888 30.903 152.105 31.434 C152.475 31.449 152.475 31.449 154.346 31.525 C159.318 31.807 159.318 31.807 161.559 34.047 C163.207 46.562 160.557 56.138 154.559 67.047 C153.945 68.168 153.331 69.29 152.699 70.445 C143.933 85.406 132.713 97.853 119.559 109.047 C118.521 109.937 117.483 110.828 116.445 111.719 C110.62 116.7 104.766 121.543 98.559 126.047 C101.951 133.407 108.023 136.031 115.242 138.922 C119.737 140.447 124.278 141.412 128.941 142.273 C131.559 143.047 131.559 143.047 133.559 146.047 C134.114 152.273 134.114 152.273 132.344 154.738 C128.639 157.454 123.917 156.526 119.559 156.047 C107.46 153.454 96.729 148.472 88.559 139.047 C85.512 140.407 83.483 141.961 81.121 144.297 C71.659 152.769 59.23 156.453 46.746 156.359 C45.956 156.354 45.167 156.348 44.353 156.342 C29.124 156.027 16.301 149.735 5.559 139.047 C5.086 139.41 4.612 139.774 4.125 140.148 C1.951 141.801 -0.241 143.428 -2.441 145.047 C-2.796 145.31 -2.796 145.31 -4.59 146.641 C-17.701 155.918 -32.622 157.843 -48.246 155.469 C-59.495 152.663 -68.572 146.314 -77.441 139.047 C-77.929 139.543 -78.416 140.039 -78.918 140.551 C-90.434 151.586 -103.72 156.487 -119.434 156.41 C-131.742 156.128 -141.556 152.263 -151.441 145.047 C-152.252 144.458 -153.063 143.869 -153.898 143.262 C-155.765 141.879 -157.612 140.478 -159.441 139.047 C-159.952 139.555 -160.462 140.063 -160.988 140.586 C-172.821 151.789 -186.577 156.588 -202.671 156.467 C-215.855 156.037 -227.895 151.057 -237.191 141.547 C-239.296 139.28 -239.446 138.288 -239.387 135.148 C-238.282 129.181 -235.767 123.549 -233.566 117.922 C-232.82 115.997 -232.075 114.071 -231.33 112.145 C-230.815 110.814 -230.3 109.483 -229.783 108.152 C-227.953 103.424 -226.2 98.671 -224.477 93.902 C-223.759 91.938 -223.04 89.974 -222.32 88.01 C-221.643 86.149 -220.983 84.282 -220.323 82.416 C-219.902 81.274 -219.481 80.133 -219.047 78.957 C-218.687 77.958 -218.328 76.959 -217.958 75.93 C-215.691 71.62 -213.09 68.09 -208.437 66.257 C-206.114 65.675 -203.812 65.261 -201.445 64.895 C-200.574 64.74 -199.703 64.586 -198.805 64.428 C-196.021 63.942 -193.232 63.493 -190.441 63.047 C-188.626 62.743 -186.811 62.438 -184.996 62.132 C-179.462 61.212 -173.922 60.346 -168.379 59.484 C-166.511 59.191 -164.643 58.898 -162.775 58.604 C-161.855 58.459 -160.934 58.315 -159.986 58.166 C-158.155 57.878 -156.324 57.588 -154.494 57.297 C-150.002 56.587 -145.51 55.912 -141.003 55.305 C-140.57 55.244 -140.57 55.244 -138.378 54.935 C-136.749 54.707 -135.119 54.491 -133.487 54.29 C-128.768 53.612 -126.06 52.569 -122.816 49.047 C-121.657 47.404 -120.533 45.736 -119.441 44.047 C-118.043 42.303 -116.625 40.574 -115.191 38.859 C-114.446 37.942 -113.701 37.024 -112.934 36.078 C-108.634 30.849 -104.21 25.727 -99.784 20.605 C-98.615 19.249 -97.455 17.885 -96.297 16.52 C-96.001 16.173 -96.001 16.173 -94.504 14.422 C-94.021 13.852 -93.537 13.282 -93.039 12.695 C-89.342 8.881 -86.052 6.601 -80.883 5.301 C-79.789 5.023 -78.695 4.746 -77.568 4.459 C-76.392 4.179 -75.216 3.898 -74.004 3.609 C-72.782 3.311 -71.56 3.012 -70.302 2.705 C-13.466 -10.773 -13.466 -10.773 0 0 Z M-58.379 15.547 C-59.117 15.696 -59.856 15.845 -60.617 15.999 C-81.986 20.342 -81.986 20.342 -87.754 27.859 C-88.206 28.421 -88.658 28.983 -89.124 29.562 C-90.58 31.378 -92.01 33.212 -93.441 35.047 C-94.489 36.359 -95.539 37.67 -96.59 38.98 C-104.441 48.821 -104.441 48.821 -104.441 50.047 C-94.752 49.496 -85.19 48.625 -75.566 47.34 C-73.616 47.086 -71.666 46.833 -69.716 46.58 C-67.679 46.315 -65.642 46.048 -63.605 45.78 C-56.577 44.858 -49.547 43.95 -42.516 43.051 C-42.168 43.006 -42.168 43.006 -40.411 42.782 C-26.455 41.003 -12.476 39.5 1.537 38.239 C2.272 38.17 3.007 38.101 3.764 38.031 C5.684 37.852 7.604 37.682 9.524 37.514 C12.317 37.084 14.158 36.49 16.559 35.047 C11.726 30.113 6.854 25.3 1.602 20.812 C0.124 19.535 -1.329 18.229 -2.766 16.906 C-3.546 16.19 -4.325 15.473 -5.129 14.734 C-5.834 14.078 -6.539 13.422 -7.266 12.746 C-19.299 3.348 -44.556 12.716 -58.379 15.547 Z M49.559 48.047 C48.567 48.122 47.575 48.198 46.554 48.275 C9.092 51.138 -28.187 55.198 -65.441 60.047 C-66.094 60.132 -66.747 60.217 -67.42 60.304 C-99.563 64.488 -131.657 68.97 -163.691 73.922 C-164.907 74.109 -166.123 74.296 -167.375 74.489 C-173.856 75.49 -180.327 76.538 -186.793 77.631 C-189.183 78.006 -191.561 78.296 -193.967 78.548 C-197.492 79.022 -200.263 79.456 -203.441 81.047 C-206.195 84.741 -207.215 88.649 -208.441 93.047 C-209.339 95.431 -210.257 97.807 -211.195 100.176 C-212.134 102.653 -213.07 105.131 -214.004 107.609 C-214.477 108.859 -214.95 110.108 -215.424 111.357 C-216.339 113.778 -217.25 116.201 -218.157 118.625 C-218.993 120.853 -219.842 123.076 -220.707 125.292 C-221.082 126.272 -221.457 127.252 -221.844 128.262 C-222.178 129.118 -222.511 129.973 -222.855 130.855 C-223.441 133.047 -223.441 133.047 -222.441 136.047 C-219.93 137.398 -219.93 137.398 -216.754 138.672 C-215.719 139.097 -214.684 139.523 -213.617 139.961 C-202.845 143.645 -192.397 142.277 -181.988 138.051 C-174.612 134.324 -168.079 128.501 -164.441 121.047 C-161.392 119.522 -158.799 119.811 -155.441 120.047 C-153.088 121.977 -151.562 124.284 -149.879 126.797 C-143.564 135.285 -134.647 139.967 -124.34 141.512 C-111.585 142.841 -100.793 140.309 -90.629 132.234 C-87.548 129.444 -85.502 126.299 -83.484 122.684 C-82.441 121.047 -82.441 121.047 -80.441 120.047 C-77.086 119.668 -77.086 119.668 -73.441 120.047 C-71.141 122.207 -71.141 122.207 -69.129 125.109 C-62.163 134.298 -53.978 139.652 -42.598 141.512 C-30.579 142.89 -20.088 140.635 -10.25 133.445 C-6.668 130.468 -3.969 127.478 -1.379 123.609 C0.895 120.403 1.131 120.127 5.246 119.359 C10.258 120.4 11.805 123.334 14.684 127.359 C21.085 135.631 29.418 139.969 39.664 141.516 C51.895 142.777 62.187 140.684 72.082 133.117 C76.029 129.733 79.12 126.694 81.559 122.047 C81.559 121.387 81.559 120.727 81.559 120.047 C82.083 119.832 82.608 119.616 83.148 119.395 C86.504 117.518 89.25 115.012 92.121 112.484 C93.381 111.388 94.641 110.293 95.902 109.199 C96.524 108.66 97.145 108.121 97.785 107.566 C100.189 105.507 102.652 103.526 105.121 101.547 C122.899 87.073 138.344 70.856 146.559 49.047 C146.559 48.057 146.559 47.067 146.559 46.047 C81.177 45.603 81.177 45.603 49.559 48.047 Z " fill="currentColor" transform="translate(294.44140625,179.953125)"/>
</svg>
