<?xml version="1.0" encoding="UTF-8"?>
<!-- Generator: visioncortex VTracer 0.6.12 -->
<svg viewBox="0 0 512 512" version="1.1" xmlns="http://www.w3.org/2000/svg" width="512" height="512">
<path d="M0 0 C0.443 -0.002 0.443 -0.002 2.684 -0.012 C5.64 -0.022 8.596 -0.018 11.552 -0.014 C13.677 -0.018 15.801 -0.023 17.925 -0.029 C23.688 -0.043 29.45 -0.043 35.213 -0.041 C40.026 -0.04 44.84 -0.045 49.653 -0.049 C61.011 -0.061 72.369 -0.061 83.727 -0.055 C95.437 -0.049 107.147 -0.061 118.857 -0.083 C128.917 -0.1 138.978 -0.106 149.038 -0.103 C155.044 -0.101 161.05 -0.104 167.055 -0.118 C172.704 -0.13 178.353 -0.128 184.002 -0.115 C186.072 -0.113 188.142 -0.116 190.212 -0.124 C193.044 -0.134 195.875 -0.126 198.707 -0.114 C199.521 -0.121 200.334 -0.128 201.172 -0.136 C210.215 -0.051 218.115 2.661 224.762 8.944 C233.163 17.79 234.578 27.032 234.59 38.925 C234.607 40.198 234.623 41.471 234.64 42.783 C234.68 46.134 234.704 49.483 234.719 52.834 C234.739 56.267 234.781 59.699 234.82 63.132 C234.894 69.841 234.946 76.551 234.981 83.261 C236.049 83.27 237.118 83.279 238.218 83.289 C242.226 83.329 246.232 83.395 250.239 83.468 C251.966 83.496 253.692 83.518 255.418 83.532 C270.156 83.66 280.513 85.538 291.668 95.815 C298.753 103.219 301.099 113.663 301.114 123.645 C301.119 124.935 301.123 126.224 301.127 127.553 C301.127 128.975 301.126 130.397 301.126 131.819 C301.129 133.322 301.132 134.826 301.136 136.329 C301.145 140.41 301.147 144.492 301.148 148.573 C301.149 151.128 301.151 153.684 301.153 156.239 C301.163 165.172 301.167 174.104 301.166 183.037 C301.165 191.333 301.176 199.629 301.192 207.925 C301.205 215.068 301.21 222.21 301.209 229.353 C301.209 233.609 301.212 237.866 301.223 242.122 C301.232 246.136 301.232 250.15 301.225 254.163 C301.224 255.624 301.226 257.086 301.232 258.547 C301.295 274.645 301.064 288.697 289.668 301.073 C278.27 311.695 265.098 311.547 250.418 311.386 C248.821 311.376 247.224 311.367 245.627 311.358 C241.745 311.336 237.863 311.302 233.981 311.261 C233.984 311.653 233.984 311.653 234.001 313.637 C234.061 321.051 234.107 328.465 234.136 335.88 C234.152 339.691 234.173 343.502 234.207 347.313 C234.24 350.996 234.258 354.679 234.265 358.362 C234.271 359.762 234.282 361.162 234.298 362.562 C234.424 373.867 233.38 382.475 225.297 391.046 C214.324 401.445 202.354 400.835 188.084 400.762 C185.961 400.766 183.838 400.772 181.715 400.779 C175.969 400.793 170.223 400.782 164.477 400.765 C158.454 400.751 152.43 400.758 146.406 400.761 C136.292 400.764 126.177 400.75 116.063 400.727 C104.383 400.701 92.703 400.699 81.023 400.711 C69.77 400.721 58.517 400.715 47.264 400.701 C42.482 400.695 37.701 400.695 32.92 400.7 C27.286 400.705 21.652 400.695 16.018 400.673 C13.955 400.668 11.892 400.667 9.829 400.672 C7.003 400.678 4.179 400.666 1.354 400.648 C0.95 400.651 0.95 400.651 -1.096 400.667 C-11.188 400.556 -18.559 397.744 -25.816 390.737 C-32.033 383.749 -34.151 377.172 -34.133 367.91 C-34.133 367.279 -34.133 367.279 -34.133 364.089 C-34.128 362.723 -34.122 361.357 -34.117 359.991 C-34.115 358.586 -34.114 357.181 -34.113 355.775 C-34.109 352.088 -34.099 348.4 -34.088 344.713 C-34.078 340.946 -34.073 337.178 -34.068 333.411 C-34.058 326.028 -34.04 318.644 -34.019 311.261 C-35.017 311.282 -36.014 311.303 -37.042 311.324 C-40.799 311.397 -44.556 311.443 -48.314 311.48 C-49.929 311.5 -51.545 311.527 -53.16 311.562 C-64.37 311.799 -74.375 311.546 -84.133 305.253 C-92.344 297.348 -99.4 289.622 -100.277 277.785 C-100.28 276.557 -100.283 275.329 -100.287 274.064 C-100.291 273.374 -100.296 272.684 -100.301 271.973 C-100.313 269.681 -100.312 267.388 -100.31 265.095 C-100.316 263.444 -100.323 261.792 -100.33 260.141 C-100.348 255.668 -100.353 251.195 -100.354 246.721 C-100.355 243.924 -100.36 241.126 -100.365 238.328 C-100.383 228.56 -100.392 218.791 -100.39 209.022 C-100.389 199.93 -100.41 190.837 -100.441 181.745 C-100.468 173.926 -100.478 166.108 -100.477 158.289 C-100.477 153.625 -100.482 148.961 -100.503 144.296 C-100.523 139.908 -100.523 135.521 -100.508 131.132 C-100.506 129.527 -100.511 127.921 -100.523 126.316 C-100.583 117.905 -100.482 110.642 -96.019 103.261 C-95.55 102.391 -95.081 101.52 -94.598 100.624 C-88.791 91.658 -81.4 86.788 -71.019 84.261 C-64.823 83.516 -58.564 83.564 -52.332 83.511 C-50.648 83.482 -48.963 83.453 -47.279 83.421 C-43.193 83.348 -39.106 83.298 -35.019 83.261 C-35.016 82.907 -35.016 82.907 -35.002 81.119 C-34.943 74.426 -34.871 67.733 -34.784 61.04 C-34.739 57.6 -34.7 54.16 -34.673 50.72 C-34.642 46.755 -34.587 42.791 -34.531 38.827 C-34.525 37.605 -34.518 36.383 -34.512 35.123 C-34.332 24.58 -32.531 16 -25.019 8.261 C-17.188 1.827 -9.922 -0.046 0 0 Z M-13.019 26.261 C-14.332 29.26 -14.146 32.312 -14.149 35.564 C-14.152 36.622 -14.155 37.679 -14.158 38.769 C-14.156 39.904 -14.154 41.04 -14.152 42.21 C-14.153 43.378 -14.154 44.547 -14.155 45.75 C-14.156 48.217 -14.154 50.685 -14.15 53.152 C-14.144 56.944 -14.15 60.736 -14.156 64.528 C-14.155 66.922 -14.154 69.316 -14.152 71.71 C-14.154 72.852 -14.156 73.993 -14.158 75.169 C-14.155 76.217 -14.152 77.266 -14.149 78.345 C-14.148 79.273 -14.147 80.2 -14.146 81.155 C-14.019 83.261 -14.019 83.261 -13.019 84.261 C-10.114 84.361 -7.232 84.395 -4.326 84.388 C-3.403 84.389 -2.48 84.391 -1.529 84.392 C1.589 84.396 4.707 84.393 7.824 84.39 C10.049 84.391 12.275 84.393 14.5 84.395 C20.561 84.4 26.623 84.398 32.685 84.395 C39.013 84.392 45.342 84.395 51.67 84.396 C62.982 84.398 74.293 84.395 85.604 84.39 C95.87 84.386 106.136 84.386 116.402 84.391 C128.31 84.396 140.218 84.398 152.126 84.395 C158.434 84.394 164.743 84.394 171.051 84.397 C176.98 84.4 182.91 84.398 188.839 84.392 C191.022 84.391 193.205 84.391 195.388 84.393 C198.354 84.396 201.321 84.393 204.287 84.388 C205.163 84.39 206.039 84.392 206.941 84.394 C212.866 84.375 212.866 84.375 213.981 83.261 C214.09 81.6 214.13 79.934 214.142 78.269 C214.151 77.205 214.161 76.14 214.171 75.042 C214.175 73.882 214.179 72.722 214.184 71.526 C214.189 70.341 214.195 69.156 214.201 67.934 C214.21 65.419 214.217 62.904 214.221 60.389 C214.231 56.541 214.262 52.694 214.293 48.847 C214.3 46.407 214.305 43.966 214.309 41.526 C214.315 40.95 214.315 40.95 214.346 38.035 C214.345 37.496 214.345 37.496 214.337 34.769 C214.341 33.824 214.344 32.879 214.348 31.905 C213.8 27.962 212.152 25.469 209.408 22.639 C205.854 20.621 202.394 20.84 198.416 20.866 C197.543 20.86 196.67 20.854 195.77 20.848 C192.839 20.831 189.908 20.836 186.977 20.841 C184.878 20.833 182.779 20.825 180.68 20.815 C174.973 20.793 169.266 20.79 163.56 20.792 C158.798 20.792 154.037 20.783 149.275 20.775 C138.043 20.756 126.81 20.753 115.578 20.76 C103.985 20.766 92.393 20.743 80.8 20.706 C70.852 20.676 60.904 20.664 50.956 20.668 C45.012 20.67 39.068 20.665 33.125 20.64 C27.535 20.618 21.946 20.62 16.356 20.64 C14.304 20.644 12.252 20.639 10.2 20.624 C7.399 20.606 4.6 20.619 1.799 20.639 C1.393 20.633 1.393 20.633 -0.662 20.601 C-6.439 20.692 -8.99 22.1 -13.019 26.261 Z M-75.769 110.136 C-79.331 115.082 -80.269 118.723 -80.287 124.8 C-80.291 125.443 -80.296 126.086 -80.301 126.749 C-80.313 128.896 -80.312 131.042 -80.31 133.189 C-80.316 134.732 -80.323 136.275 -80.33 137.818 C-80.348 142.004 -80.353 146.19 -80.354 150.376 C-80.355 152.994 -80.36 155.612 -80.365 158.229 C-80.383 167.369 -80.392 176.509 -80.39 185.648 C-80.389 194.156 -80.41 202.663 -80.441 211.171 C-80.468 218.484 -80.478 225.797 -80.477 233.11 C-80.477 237.474 -80.482 241.837 -80.503 246.201 C-80.523 250.308 -80.523 254.415 -80.508 258.523 C-80.506 260.025 -80.511 261.528 -80.523 263.03 C-80.641 278.591 -80.641 278.591 -76.019 285.261 C-70.624 289.665 -66.593 290.388 -59.762 290.394 C-59.41 290.394 -59.41 290.394 -57.629 290.396 C-56.145 290.397 -54.66 290.395 -53.176 290.391 C-50.896 290.386 -48.616 290.391 -46.336 290.397 C-44.894 290.397 -43.453 290.395 -42.012 290.394 C-40.695 290.392 -39.379 290.391 -38.023 290.39 C-35.019 290.261 -35.019 290.261 -34.019 289.261 C-33.727 283.33 -33.705 277.398 -33.669 271.461 C-33.653 269.458 -33.625 267.455 -33.587 265.452 C-33.533 262.569 -33.511 259.687 -33.496 256.804 C-33.473 255.909 -33.451 255.014 -33.427 254.092 C-33.448 247.876 -33.448 247.876 -36.427 244.664 C-39.019 243.261 -39.019 243.261 -41.019 243.261 C-43.363 239.598 -43.545 236.537 -43.019 232.261 C-40.847 229.631 -39.073 227.787 -36.019 226.261 C-34.508 226.166 -32.992 226.133 -31.477 226.132 C-30.515 226.129 -29.552 226.126 -28.561 226.122 C-27.496 226.124 -26.431 226.125 -25.334 226.127 C-24.209 226.125 -23.084 226.122 -21.925 226.12 C-18.128 226.114 -14.332 226.115 -10.536 226.115 C-7.824 226.113 -5.113 226.109 -2.402 226.105 C4.215 226.097 10.831 226.094 17.447 226.094 C22.824 226.093 28.201 226.091 33.578 226.088 C48.814 226.079 64.05 226.075 79.286 226.075 C80.108 226.075 80.93 226.075 81.777 226.075 C82.6 226.075 83.423 226.075 84.271 226.076 C97.608 226.076 110.944 226.066 124.281 226.052 C137.967 226.038 151.653 226.031 165.338 226.032 C173.025 226.032 180.712 226.029 188.399 226.019 C194.944 226.01 201.49 226.007 208.035 226.014 C211.375 226.017 214.716 226.016 218.056 226.009 C221.676 226.001 225.295 226.006 228.915 226.013 C229.973 226.008 231.031 226.003 232.121 225.998 C232.606 226 232.606 226 235.061 226.012 C235.478 226.012 235.478 226.012 237.592 226.011 C240.361 226.3 242.476 227.06 244.981 228.261 C247.593 231.62 247.485 235.153 246.981 239.261 C243.139 244.663 240.939 244.521 233.981 246.261 C233.981 260.781 233.981 275.301 233.981 290.261 C239.467 290.323 244.953 290.384 250.606 290.448 C252.326 290.476 254.046 290.503 255.819 290.531 C257.198 290.54 258.578 290.547 259.957 290.554 C260.661 290.569 261.364 290.584 262.089 290.6 C268.246 290.603 272.074 288.864 276.731 284.948 C280.573 280.359 281.231 275.829 281.228 269.963 C281.23 269.341 281.23 269.341 281.241 266.192 C281.235 264.825 281.229 263.459 281.224 262.092 C281.225 260.643 281.227 259.193 281.229 257.744 C281.234 253.816 281.226 249.888 281.216 245.96 C281.208 241.838 281.209 237.715 281.21 233.593 C281.209 226.665 281.2 219.736 281.186 212.808 C281.171 204.822 281.165 196.837 281.166 188.852 C281.167 180.324 281.16 171.797 281.151 163.27 C281.149 160.827 281.148 158.384 281.147 155.94 C281.146 152.081 281.14 148.221 281.13 144.362 C281.127 142.954 281.126 141.547 281.127 140.139 C281.133 114.988 281.133 114.988 275.981 108.261 C271.254 104.716 267.084 104.136 261.289 104.129 C260.121 104.125 258.954 104.122 257.75 104.118 C257.109 104.118 257.109 104.118 253.86 104.12 C252.483 104.118 251.106 104.115 249.729 104.111 C245.942 104.103 242.154 104.101 238.367 104.101 C234.284 104.099 230.2 104.091 226.117 104.085 C217.188 104.071 208.258 104.065 199.328 104.061 C193.754 104.058 188.18 104.054 182.606 104.049 C167.177 104.037 151.748 104.027 136.318 104.023 C135.331 104.023 134.343 104.023 133.326 104.022 C132.336 104.022 131.346 104.022 130.326 104.022 C128.32 104.021 126.314 104.021 124.308 104.02 C123.313 104.02 122.318 104.02 121.293 104.02 C105.163 104.016 89.034 103.998 72.904 103.975 C56.349 103.951 39.794 103.939 23.239 103.938 C13.942 103.937 4.645 103.931 -4.652 103.913 C-12.567 103.898 -20.482 103.892 -28.397 103.901 C-32.436 103.905 -36.475 103.904 -40.515 103.89 C-44.212 103.877 -47.909 103.878 -51.606 103.89 C-53.578 103.893 -55.55 103.881 -57.522 103.869 C-65.277 103.912 -70.194 104.307 -75.769 110.136 Z M-14.019 247.261 C-14.122 248.826 -14.155 250.397 -14.16 251.965 C-14.166 252.983 -14.171 254.001 -14.177 255.05 C-14.178 256.176 -14.179 257.302 -14.181 258.462 C-14.185 259.641 -14.19 260.82 -14.196 262.035 C-14.208 265.279 -14.215 268.523 -14.22 271.767 C-14.222 273.794 -14.227 275.822 -14.231 277.849 C-14.245 284.194 -14.254 290.539 -14.258 296.884 C-14.263 304.204 -14.28 311.524 -14.309 318.845 C-14.331 324.503 -14.341 330.162 -14.342 335.821 C-14.343 339.2 -14.349 342.578 -14.367 345.957 C-14.384 349.733 -14.382 353.507 -14.376 357.283 C-14.385 358.397 -14.394 359.511 -14.404 360.659 C-14.368 367.26 -14.219 372.881 -9.448 377.921 C-5.881 379.889 -2.41 379.671 1.559 379.635 C2.433 379.639 3.308 379.643 4.209 379.647 C7.145 379.657 10.08 379.645 13.016 379.633 C15.118 379.635 17.221 379.639 19.323 379.644 C25.038 379.653 30.753 379.644 36.467 379.631 C42.442 379.619 48.416 379.624 54.391 379.625 C64.425 379.626 74.459 379.615 84.493 379.597 C96.102 379.576 107.71 379.572 119.319 379.578 C130.476 379.584 141.633 379.578 152.79 379.567 C157.543 379.563 162.295 379.562 167.048 379.564 C172.643 379.566 178.237 379.558 183.831 379.542 C185.887 379.538 187.943 379.537 189.999 379.539 C192.8 379.543 195.601 379.534 198.402 379.521 C199.221 379.525 200.039 379.529 200.882 379.533 C207.901 379.478 207.901 379.478 210.981 377.261 C214.99 371.756 214.39 365.729 214.337 359.213 C214.338 358.608 214.338 358.608 214.343 355.55 C214.346 352.248 214.335 348.947 214.318 345.646 C214.303 342.19 214.304 338.734 214.303 335.277 C214.299 329.48 214.284 323.682 214.262 317.884 C214.233 310.435 214.223 302.985 214.218 295.535 C214.214 289.133 214.202 282.731 214.188 276.329 C214.184 274.269 214.181 272.208 214.178 270.147 C214.172 266.319 214.158 262.49 214.142 258.662 C214.141 258.089 214.141 258.089 214.138 255.188 C214.133 254.152 214.127 253.116 214.121 252.048 C214.12 251.595 214.12 251.595 214.112 249.304 C213.981 247.261 213.981 247.261 212.981 246.261 C210.075 246.161 207.193 246.126 204.287 246.134 C203.364 246.132 202.441 246.131 201.49 246.129 C198.372 246.125 195.255 246.128 192.137 246.131 C189.912 246.13 187.687 246.128 185.462 246.126 C179.4 246.121 173.338 246.123 167.276 246.126 C160.948 246.129 154.62 246.127 148.291 246.125 C136.98 246.123 125.668 246.126 114.357 246.131 C104.091 246.136 93.825 246.135 83.559 246.13 C71.651 246.125 59.743 246.123 47.835 246.126 C41.527 246.128 35.219 246.128 28.91 246.124 C22.981 246.122 17.051 246.123 11.122 246.129 C8.939 246.131 6.756 246.13 4.573 246.128 C1.607 246.125 -1.36 246.129 -4.326 246.134 C-5.202 246.131 -6.078 246.129 -6.98 246.127 C-12.905 246.147 -12.905 246.147 -14.019 247.261 Z " fill="currentColor" transform="translate(155.01937866210938,54.73930358886719)"/>
<path d="M0 0 C5.785 4.482 9.46 9.785 11 17 C11.729 24.336 10.862 31.211 6.336 37.203 C0.41 43.578 -5.731 47.109 -14.5 47.5 C-22.303 47.173 -28.806 44.058 -34.492 38.742 C-39.835 32.569 -40.604 25.984 -40.316 18.016 C-39.582 11.014 -36.199 5.688 -31 1 C-20.991 -5.384 -10.424 -5.875 0 0 Z M-22 18 C-22.625 21.5 -22.625 21.5 -22 25 C-19.875 27.5 -19.875 27.5 -17 29 C-13.845 28.937 -11.862 28.489 -9.125 26.938 C-7.284 23.768 -7.333 20.559 -8 17 C-10.051 14.569 -11.337 14.119 -14.438 13.562 C-18.022 14.174 -19.576 15.298 -22 18 Z " fill="currentColor" transform="translate(398,192)"/>
<path d="M0 0 C1.046 -0.009 2.093 -0.018 3.171 -0.027 C6.616 -0.048 10.059 -0.026 13.503 -0.001 C15.903 -0.003 18.302 -0.006 20.702 -0.011 C25.724 -0.016 30.745 0.001 35.767 0.033 C42.204 0.073 48.641 0.064 55.078 0.039 C60.03 0.025 64.981 0.035 69.933 0.052 C72.307 0.058 74.681 0.057 77.055 0.048 C80.37 0.04 83.684 0.065 87 0.098 C87.981 0.089 88.962 0.081 89.972 0.072 C94.629 0.152 96.69 0.228 100.456 3.177 C103.148 6.81 103.562 9.069 103.894 13.593 C103.024 17.195 101.28 18.509 98.371 20.76 C94.94 21.516 91.563 21.471 88.06 21.452 C87.024 21.465 85.987 21.479 84.92 21.493 C81.497 21.532 78.075 21.536 74.652 21.538 C72.272 21.556 69.892 21.576 67.512 21.598 C62.526 21.639 57.539 21.663 52.553 21.675 C46.16 21.69 39.768 21.736 33.375 21.793 C28.462 21.835 23.548 21.866 18.634 21.893 C16.277 21.906 13.92 21.922 11.562 21.94 C8.269 21.962 4.975 21.971 1.681 21.975 C0.706 21.984 -0.268 21.992 -1.272 22.001 C-7.055 21.991 -11.056 21.499 -15.942 18.198 C-18.088 15.098 -18.225 12.865 -18.454 9.175 C-15.576 0.745 -7.78 -0.109 0 0 Z " fill="currentColor" transform="translate(212.62939453125,332.239501953125)"/>
<path d="M0 0 C0.446 -0.005 0.446 -0.005 2.706 -0.03 C3.197 -0.033 3.197 -0.033 5.683 -0.048 C6.715 -0.058 7.748 -0.068 8.812 -0.078 C12.241 -0.108 15.671 -0.129 19.1 -0.148 C20.27 -0.155 21.44 -0.161 22.645 -0.168 C28.839 -0.2 35.032 -0.225 41.226 -0.244 C46.355 -0.262 51.483 -0.297 56.611 -0.347 C62.799 -0.407 68.986 -0.438 75.175 -0.448 C77.533 -0.456 79.891 -0.475 82.25 -0.504 C85.553 -0.543 88.855 -0.544 92.159 -0.536 C93.131 -0.556 94.104 -0.576 95.105 -0.597 C101.027 -0.534 104.2 0.506 108.501 4.64 C110.805 7.458 110.604 9.58 110.272 13.04 C109.307 16.918 108.184 18.084 104.744 20.161 C93.354 22.08 81.235 21.397 69.721 21.469 C68.683 21.476 67.644 21.482 66.574 21.489 C61.094 21.521 55.613 21.546 50.133 21.566 C45.613 21.584 41.094 21.619 36.574 21.668 C31.087 21.728 25.6 21.759 20.112 21.769 C18.03 21.777 15.948 21.796 13.866 21.826 C10.958 21.864 8.053 21.866 5.145 21.858 C4.293 21.878 3.441 21.898 2.563 21.918 C-2.958 21.851 -5.89 20.548 -9.982 16.839 C-11.879 14.339 -12.097 12.199 -11.826 9.125 C-10.805 5.608 -8.861 3.704 -6.256 1.161 C-3.938 0.002 -2.581 0.023 0 0 Z " fill="currentColor" transform="translate(206.2555389404297,381.83937072753906)"/>
</svg>
