<?xml version="1.0" encoding="UTF-8"?>
<!-- Generator: visioncortex VTracer 0.6.12 -->
<svg viewBox="0 0 512 512" version="1.1" xmlns="http://www.w3.org/2000/svg" width="512" height="512">
<path d="M0 0 C0.587 0 0.587 0 3.56 0.003 C13.473 0.136 22.385 1.64 31.875 4.375 C32.329 4.477 32.329 4.477 34.629 4.992 C48.214 8.26 60.291 17.665 70.875 26.375 C71.398 26.801 71.92 27.226 72.459 27.665 C88.659 40.956 98.592 60.785 104.875 80.375 C105.574 80.359 106.272 80.344 106.992 80.327 C137.729 79.729 162.466 84.043 185.551 105.884 C194.419 114.615 201.052 124.904 205.875 136.375 C206.362 137.487 206.85 138.6 207.352 139.746 C213.926 156.713 214.092 182.731 207.488 199.727 C206.956 200.931 206.424 202.135 205.875 203.375 C205.58 204.058 205.286 204.741 204.982 205.444 C201.076 214.354 196.513 222.193 189.875 229.375 C188.991 230.351 188.106 231.327 187.195 232.332 C171.628 248.987 150.392 259.457 127.464 260.483 C109.302 260.926 91.181 260.043 74.188 253.062 C68.643 251.001 65.369 251.527 59.875 253.375 C57.565 254.049 55.252 254.715 52.938 255.375 C51.835 255.705 50.733 256.035 49.598 256.375 C20.234 264.263 -22.124 266.376 -50.125 252.375 C-55.73 251.995 -60.131 253.037 -65.375 254.75 C-77.172 258.557 -88.439 259.789 -100.812 259.75 C-101.522 259.749 -102.232 259.748 -102.963 259.746 C-128.084 259.63 -147.465 251.09 -165.715 233.941 C-181.459 217.551 -188.52 195.516 -188.428 173.18 C-187.86 148.439 -176.794 130.069 -159.84 113.086 C-145.951 100.029 -127.805 94.117 -109.125 92.375 C-108.894 91.371 -108.664 90.367 -108.426 89.332 C-103.744 69.46 -96.052 51.558 -82.125 36.375 C-81.688 35.891 -81.252 35.407 -80.802 34.908 C-59.993 12.043 -30.75 -0.042 0 0 Z M-70.125 49.375 C-83.291 64.709 -90.601 83.351 -92.438 103.414 C-93.251 106.92 -94.319 108.178 -97.125 110.375 C-100.506 111.502 -102.882 111.371 -106.438 111.25 C-123.675 111.197 -138.416 117.132 -151.367 128.512 C-164.582 142.232 -170.49 159.854 -170.43 178.622 C-170.287 185.193 -169.242 191.135 -167.125 197.375 C-166.858 198.222 -166.591 199.069 -166.316 199.941 C-161.289 214.219 -149.24 227.036 -136.125 234.375 C-113.902 244.977 -90.214 244.249 -67.25 236.625 C-66.3 236.283 -65.349 235.94 -64.37 235.588 C-57.566 233.286 -52.973 233.323 -46.125 235.375 C-45.749 235.476 -45.749 235.476 -43.849 235.989 C-41.641 236.592 -39.446 237.231 -37.25 237.875 C-6.864 246.497 26.392 245.522 56.195 235.001 C63.71 232.467 69.556 232.914 77 235.688 C99.451 243.712 128.048 246.991 150.271 236.606 C156.604 233.465 162.471 229.96 167.875 225.375 C168.691 224.745 169.507 224.114 170.348 223.465 C184.267 211.955 192.239 192.965 194.089 175.332 C195.535 156.701 189.19 138.535 177.875 123.812 C166.305 110.348 150.2 100.4 132.281 98.539 C122.521 97.874 113.801 98.502 104.348 100.816 C99.473 101.601 95.652 101.629 91.527 98.719 C89.451 95.774 89.017 93.425 88.438 89.875 C84.242 68.181 71.058 47.95 53.312 34.812 C13.291 8.131 -37.344 14.247 -70.125 49.375 Z " fill="currentColor" transform="translate(245.125,55.625)"/>
<path d="M0 0 C4.52 2.977 6.594 6.45 8.812 11.25 C9.502 12.688 10.192 14.125 10.883 15.562 C11.231 16.297 11.58 17.032 11.938 17.789 C13.301 20.626 14.729 23.427 16.161 26.229 C17.503 28.87 18.808 31.528 20.107 34.189 C20.921 35.84 21.766 37.476 22.613 39.109 C26.832 47.903 27.976 57.667 25.043 67.066 C22.796 71.852 20.051 75.556 16 79 C15.618 79.351 15.618 79.351 13.688 81.125 C6.483 86.151 -0.415 86.817 -9 86 C-15.577 84.761 -21.361 81.864 -26 77 C-32.124 67.694 -34.502 59.076 -33 48 C-31.32 42.004 -28.76 36.568 -26 31 C-25.458 29.903 -24.917 28.806 -24.359 27.675 C-22.535 24 -20.68 20.341 -18.812 16.688 C-18.507 16.088 -18.202 15.488 -17.887 14.87 C-17.003 13.141 -16.105 11.42 -15.207 9.699 C-14.686 8.697 -14.165 7.695 -13.628 6.663 C-10.153 0.98 -6.758 -2.092 0 0 Z M-4 27 C-5.444 29.663 -6.88 32.33 -8.312 35 C-8.717 35.744 -9.121 36.488 -9.537 37.254 C-16.889 51.001 -16.889 51.001 -16 59 C-14.672 62.837 -13.652 64.545 -10.312 66.875 C-6.348 68.222 -3.137 68.742 1 68 C4.442 66.279 6.404 65.002 8.375 61.688 C9.802 55.55 8.928 50.932 6.375 45.25 C6.109 44.652 5.842 44.055 5.568 43.439 C3.009 37.798 0.088 32.366 -3 27 C-3.33 27 -3.66 27 -4 27 Z " fill="currentColor" transform="translate(151,341)"/>
<path d="M0 0 C4.306 1.259 6.938 5.763 9.074 9.504 C10.055 11.507 10.963 13.529 11.848 15.577 C14.463 21.389 17.226 27.049 20.286 32.639 C26.008 43.265 30.115 53.583 26.911 65.889 C23.738 74.667 18.122 80.208 9.973 84.577 C1.999 87.826 -6.968 87.636 -14.968 84.542 C-22.973 80.79 -27.869 74.948 -31.167 66.737 C-32.126 63.21 -32.398 60.106 -32.464 56.452 C-32.504 55.253 -32.544 54.054 -32.585 52.819 C-31.824 42.28 -24.744 31.582 -20.088 22.219 C-19.017 20.058 -17.963 17.888 -16.909 15.718 C-16.22 14.326 -15.53 12.936 -14.839 11.546 C-14.531 10.904 -14.222 10.262 -13.904 9.601 C-10.82 3.494 -7.243 -0.383 0 0 Z M-3.027 27.577 C-16.454 51.727 -16.454 51.727 -15.027 59.577 C-13.624 63.116 -12.063 65.915 -8.777 68.014 C-3.956 69 0.161 69.302 4.786 67.452 C8.487 64.279 9.767 61.113 10.411 56.327 C9.2 45.948 2.929 36.598 -2.027 27.577 C-2.357 27.577 -2.687 27.577 -3.027 27.577 Z " fill="currentColor" transform="translate(356.026611328125,340.423095703125)"/>
<path d="M0 0 C3.464 0.945 4.875 1.517 7.438 3.938 C8.617 6.232 9.612 8.427 10.562 10.812 C11.165 12.255 11.77 13.697 12.379 15.137 C12.705 15.909 13.031 16.682 13.368 17.478 C15.297 21.914 17.404 26.265 19.5 30.625 C20.355 32.414 21.211 34.203 22.066 35.992 C23.187 38.332 24.309 40.672 25.437 43.009 C26.277 44.753 27.108 46.501 27.938 48.25 C28.159 48.712 28.159 48.712 29.281 51.051 C32.027 57.906 32.779 64.129 32.75 71.438 C32.766 72.241 32.782 73.044 32.799 73.871 C32.806 83.245 29.342 90.721 23.438 97.938 C16.807 104.369 8.681 108.102 -0.562 108.375 C-10.687 107.96 -18.298 105.121 -25.562 97.938 C-32.961 89.247 -36.287 80.945 -35.969 69.512 C-34.485 56.459 -28.37 44.536 -22.562 32.938 C-22.218 32.246 -21.873 31.554 -21.517 30.842 C-20.161 28.125 -18.804 25.409 -17.429 22.702 C-15.84 19.561 -14.308 16.415 -12.902 13.188 C-12.398 12.033 -11.894 10.877 -11.375 9.688 C-10.948 8.672 -10.522 7.656 -10.082 6.609 C-7.549 2.156 -5.199 -0.091 0 0 Z M-1.562 30.938 C-3.318 34.56 -5.066 38.186 -6.812 41.812 C-7.304 42.826 -7.795 43.839 -8.301 44.883 C-19.579 68.342 -19.579 68.342 -16.348 79.086 C-14.375 83.738 -11.542 86.365 -7.25 88.875 C-1.482 90.537 2.38 90.006 7.688 87.25 C13.054 82.738 14.833 78.676 15.652 71.891 C15.05 63.611 11.277 55.773 8 48.25 C7.618 47.352 7.236 46.454 6.842 45.529 C4.655 40.46 2.28 35.671 -0.562 30.938 C-0.892 30.938 -1.222 30.938 -1.562 30.938 Z " fill="currentColor" transform="translate(251.5625,346.0625)"/>
</svg>
