<?xml version="1.0" encoding="UTF-8"?>
<!-- Generator: visioncortex VTracer 0.6.12 -->
<svg viewBox="0 0 512 512" version="1.1" xmlns="http://www.w3.org/2000/svg" width="512" height="512">
<path d="M0 0 C8.644 7.588 14.078 17.079 19.421 27.09 C20.751 29.574 22.101 32.045 23.453 34.516 C25.567 38.387 27.664 42.267 29.746 46.156 C40.529 66.296 51.707 86.201 62.964 106.078 C66.328 112.023 69.659 117.984 72.965 123.961 C76.743 130.791 80.613 137.557 84.59 144.273 C86.244 141.793 87.067 140.184 87.957 137.438 C88.203 136.703 88.449 135.968 88.703 135.211 C89.208 133.679 89.708 132.145 90.203 130.609 C91.965 125.387 93.804 121.133 98.562 117.957 C102.319 116.691 105.818 117.251 109.59 118.273 C113.246 120.787 114.351 122.381 115.496 126.66 C116.13 132.875 113.36 138.365 111.09 144.023 C110.154 146.428 109.22 148.832 108.289 151.238 C107.827 152.424 107.364 153.61 106.888 154.832 C105.708 157.96 104.63 161.094 103.609 164.277 C103.317 165.181 103.024 166.084 102.723 167.015 C102.194 168.673 101.681 170.336 101.188 172.005 C99.627 176.799 97.572 179.842 93.884 183.266 C87.327 186.145 79.038 183.887 72.262 182.664 C71.31 182.496 70.358 182.328 69.377 182.155 C67.379 181.799 65.383 181.439 63.387 181.075 C60.337 180.523 57.284 179.995 54.23 179.469 C52.282 179.119 50.334 178.767 48.387 178.414 C47.933 178.337 47.933 178.337 45.634 177.946 C39.853 176.861 35.87 175.422 32.277 170.461 C31.255 167.207 31.239 164.669 31.59 161.273 C33.698 157.283 35.357 154.878 39.59 153.273 C47.978 152.975 56.484 155.392 64.59 157.273 C62.55 153.647 60.508 150.023 58.465 146.398 C57.895 145.385 57.325 144.372 56.738 143.328 C53.546 137.669 50.296 132.055 46.917 126.505 C45.538 124.187 44.243 121.836 42.965 119.461 C39.935 113.843 36.766 108.31 33.59 102.773 C30.011 96.532 26.464 90.281 23.047 83.949 C21.258 80.665 19.426 77.406 17.59 74.148 C13.542 66.965 9.5 59.777 5.465 52.586 C4.854 51.501 4.244 50.416 3.615 49.298 C-1.375 40.408 -1.375 40.408 -3.547 36.133 C-8.541 26.307 -14.568 17.017 -25.41 13.273 C-25.728 13.157 -25.728 13.157 -27.336 12.566 C-35.672 9.977 -43.527 12.051 -51.574 14.75 C-59.391 18.949 -63.792 24.741 -67.723 32.523 C-68.658 34.299 -69.596 36.074 -70.535 37.848 C-71.007 38.747 -71.479 39.646 -71.965 40.572 C-74.275 44.89 -76.746 49.111 -79.223 53.336 C-83.064 59.924 -86.808 66.551 -90.41 73.273 C-94.987 81.737 -99.643 90.156 -104.409 98.515 C-105.252 99.996 -106.088 101.482 -106.922 102.969 C-109.862 107.996 -112.44 110.207 -117.848 112.148 C-121.479 112.326 -123.368 111.215 -126.41 109.273 C-129.443 106.159 -131.305 103.685 -131.41 99.273 C-128.879 92.421 -125.111 86.184 -121.535 79.836 C-120.18 77.419 -118.828 75.001 -117.477 72.582 C-117.306 72.277 -117.306 72.277 -116.443 70.733 C-113.053 64.657 -109.762 58.529 -106.473 52.398 C-102.59 45.172 -98.573 38.136 -94.168 31.215 C-92.205 27.93 -90.553 24.536 -88.91 21.086 C-85.796 14.73 -82.21 9.467 -77.41 4.273 C-76.842 3.651 -76.273 3.028 -75.688 2.387 C-55.007 -17.84 -22.172 -17.114 0 0 Z " fill="currentColor" transform="translate(291.41015625,66.7265625)"/>
<path d="M0 0 C3.645 3.125 5.748 5.947 7.168 10.531 C7.433 11.364 7.699 12.197 7.972 13.055 C8.111 13.5 8.111 13.5 8.812 15.75 C11.549 24.272 14.634 32.578 18.048 40.852 C18.37 41.634 18.692 42.416 19.023 43.223 C19.309 43.906 19.594 44.589 19.888 45.293 C21.537 49.672 22.111 53.555 21.625 58.25 C19.549 61.896 16.705 65.014 12.625 66.25 C9.608 66.786 7.617 66.82 4.917 65.269 C-0.678 60.881 -2.301 56.146 -4.188 49.438 C-4.75 47.533 -5.319 45.631 -5.895 43.73 C-6.133 42.894 -6.371 42.058 -6.616 41.196 C-7.375 39.25 -7.375 39.25 -9.375 38.25 C-9.64 38.954 -9.904 39.657 -10.177 40.382 C-11.451 43.431 -12.939 46.244 -14.543 49.133 C-15.182 50.287 -15.82 51.441 -16.478 52.63 C-17.173 53.878 -17.868 55.127 -18.562 56.375 C-19.28 57.669 -19.998 58.964 -20.715 60.259 C-22.568 63.601 -24.424 66.941 -26.281 70.281 C-28.007 73.388 -29.73 76.497 -31.453 79.605 C-39.481 94.085 -47.532 108.55 -55.761 122.916 C-57.804 126.483 -59.842 130.054 -61.877 133.625 C-62.867 135.36 -63.859 137.095 -64.853 138.828 C-66.243 141.256 -67.623 143.69 -69 146.125 C-69.414 146.843 -69.827 147.562 -70.254 148.302 C-75.493 157.625 -77.2 167.596 -74.688 178.133 C-71.028 188.106 -65.578 192.618 -56.082 197.086 C-52.611 198.578 -49.932 199.375 -46.182 199.375 C-45.329 199.377 -44.475 199.38 -43.595 199.382 C-43.129 199.381 -43.129 199.381 -40.766 199.376 C-39.781 199.378 -38.795 199.38 -37.779 199.382 C-35.637 199.386 -33.494 199.388 -31.351 199.388 C-26.797 199.392 -22.243 199.413 -17.689 199.433 C-9.207 199.471 -0.724 199.503 7.758 199.5 C13.656 199.5 19.553 199.523 25.45 199.562 C27.697 199.573 29.945 199.574 32.192 199.567 C35.338 199.557 38.482 199.578 41.628 199.606 C42.556 199.596 43.483 199.586 44.439 199.576 C48.802 199.646 51.721 199.868 55.187 202.665 C58.768 206.462 59.017 208.856 58.984 213.922 C58.38 217.84 56.456 219.554 53.625 222.25 C51.317 223.404 49.985 223.385 47.417 223.404 C46.534 223.413 45.651 223.421 44.741 223.43 C43.77 223.434 42.799 223.438 41.798 223.443 C41.287 223.447 41.287 223.447 38.703 223.468 C35.307 223.493 31.911 223.509 28.516 223.523 C27.354 223.529 26.193 223.534 24.997 223.54 C18.841 223.566 12.684 223.586 6.528 223.6 C0.193 223.617 -6.141 223.661 -12.476 223.712 C-17.364 223.746 -22.252 223.758 -27.141 223.763 C-29.474 223.77 -31.807 223.785 -34.14 223.809 C-54.564 224.008 -69.439 221.147 -85.125 207.125 C-96.991 194.386 -100.214 179.187 -99.703 162.328 C-99.061 150.007 -93.7 140.857 -87.496 130.527 C-84.156 124.944 -81.071 119.235 -78 113.5 C-73.717 105.529 -69.352 97.614 -64.875 89.75 C-60.445 81.967 -56.119 74.136 -51.875 66.25 C-44.626 52.785 -37.278 39.344 -29.375 26.25 C-30.593 26.539 -31.811 26.827 -33.066 27.125 C-34.69 27.5 -36.314 27.875 -37.938 28.25 C-38.737 28.441 -39.537 28.632 -40.361 28.828 C-51.767 31.435 -51.767 31.435 -57.125 29 C-60.19 26.616 -62.054 25.131 -62.73 21.168 C-62.993 16.895 -62.814 14.857 -60.25 11.312 C-55.037 7.573 -48.736 6.534 -42.574 5.086 C-42.156 4.987 -42.156 4.987 -40.041 4.489 C-38.279 4.076 -36.517 3.664 -34.754 3.254 C-32.079 2.629 -29.408 1.99 -26.736 1.352 C-25.016 0.95 -23.295 0.549 -21.574 0.148 C-21.18 0.053 -21.18 0.053 -19.187 -0.429 C-12.621 -1.928 -6.147 -3.187 0 0 Z " fill="currentColor" transform="translate(156.375,197.75)"/>
<path d="M0 0 C4.945 3.115 6.934 7.049 9.438 12.125 C10.228 13.674 11.021 15.222 11.816 16.77 C12.194 17.509 12.572 18.248 12.961 19.01 C14.176 21.338 15.493 23.581 16.875 25.812 C20.438 31.599 23.642 37.583 26.895 43.547 C29.411 48.148 31.979 52.696 34.688 57.188 C37.48 61.93 39.94 66.788 42.312 71.75 C42.481 72.099 42.481 72.099 43.337 73.864 C46.807 81.271 48.378 88.135 48.312 96.312 C48.307 97.055 48.301 97.798 48.295 98.563 C47.987 112.608 42.344 125.484 32.602 135.617 C19.972 147.184 6.57 152.779 -10.567 152.675 C-11.842 152.687 -13.117 152.699 -14.431 152.712 C-17.878 152.744 -21.326 152.746 -24.773 152.742 C-28.398 152.742 -32.023 152.77 -35.648 152.795 C-41.719 152.833 -47.789 152.853 -53.861 152.859 C-62.425 152.869 -70.99 152.913 -79.554 152.964 C-85.499 152.997 -91.444 153.022 -97.388 153.046 C-98.827 153.052 -100.266 153.058 -101.704 153.064 C-106.422 153.084 -111.139 153.095 -115.856 153.101 C-116.452 153.104 -116.452 153.104 -119.469 153.117 C-120.555 153.116 -121.641 153.116 -122.76 153.116 C-123.705 153.118 -124.65 153.12 -125.624 153.121 C-128 153 -128 153 -131 152 C-126.584 157.597 -122.117 163.105 -117.348 168.406 C-114.474 171.805 -114.705 174.642 -115 179 C-116.414 182.456 -117.658 183.767 -120.75 185.875 C-124.809 187.28 -126.839 187.067 -131 186 C-133.476 184.256 -135.455 182.161 -137.5 179.938 C-137.784 179.641 -137.784 179.641 -139.222 178.139 C-142.661 174.523 -146.022 170.835 -149.254 167.031 C-151.491 164.429 -153.808 161.906 -156.125 159.375 C-166.948 147.481 -166.948 147.481 -167.426 139.23 C-166.32 133.44 -161.163 128.666 -157.375 124.312 C-157.113 124.009 -157.113 124.009 -155.784 122.47 C-151.681 117.736 -147.493 113.086 -143.25 108.477 C-141.175 106.192 -139.177 103.859 -137.188 101.5 C-133.85 97.694 -131.207 95.329 -126.062 94.562 C-121.543 95.208 -118.393 97.164 -115.625 100.812 C-114.643 104.251 -114.47 106.405 -115 110 C-118.507 115.927 -123.551 120.739 -128.496 125.469 C-130 127 -130 127 -130 128 C-113.649 128.094 -97.297 128.164 -80.946 128.207 C-73.352 128.228 -65.759 128.256 -58.166 128.302 C-51.542 128.342 -44.919 128.367 -38.296 128.376 C-34.794 128.382 -31.291 128.394 -27.789 128.423 C-23.866 128.455 -19.943 128.456 -16.021 128.454 C-14.876 128.468 -13.732 128.483 -12.553 128.498 C-1.446 128.441 8.048 126.041 16.156 118.152 C21.758 111.612 23.132 104.777 23.312 96.312 C23.35 95.174 23.387 94.036 23.426 92.863 C22.422 83.751 17.426 75.721 13.062 67.812 C12.78 67.295 12.78 67.295 11.349 64.678 C7.369 57.422 3.323 50.204 -0.75 43 C-1.019 42.525 -1.019 42.525 -2.378 40.12 C-4.818 35.814 -7.275 31.519 -9.781 27.25 C-9.992 26.888 -9.992 26.888 -11.056 25.055 C-11.819 23.742 -12.591 22.434 -13.374 21.133 C-15.705 17.102 -16.728 13.647 -17 9 C-15.471 4.815 -13.845 2.283 -10 0 C-6.183 -1.272 -3.913 -0.877 0 0 Z " fill="currentColor" transform="translate(406,269)"/>
</svg>
