<?xml version="1.0" encoding="UTF-8"?>
<!-- Generator: visioncortex VTracer 0.6.12 -->
<svg viewBox="0 0 512 512" version="1.1" xmlns="http://www.w3.org/2000/svg" width="512" height="512">
<path d="M0 0 C4.577 3.039 7.457 6.989 10.625 11.375 C11.693 12.827 12.762 14.277 13.832 15.727 C14.365 16.45 14.898 17.174 15.448 17.919 C17.678 20.909 19.99 23.831 22.312 26.75 C32.953 40.185 43.153 53.974 53 68 C53.251 68.358 53.251 68.358 54.524 70.167 C58.051 75.188 61.567 80.216 65.078 85.248 C67.07 88.1 69.068 90.949 71.066 93.797 C77.895 103.546 84.62 113.333 91.027 123.363 C94.436 128.699 97.909 133.991 101.378 139.287 C104.589 144.189 107.794 149.095 111 154 C111.537 154.821 112.074 155.641 112.627 156.487 C120.285 168.202 127.67 180.077 135 192 C137.036 195.31 139.072 198.621 141.108 201.931 C142.485 204.171 143.863 206.411 145.24 208.651 C149.463 215.517 153.707 222.369 157.995 229.195 C159 230.795 160 232.397 161 234 C161.571 234.88 162.142 235.761 162.73 236.668 C163.998 238.996 164.458 240.378 164.5 243 C164.515 243.32 164.515 243.32 164.594 244.938 C163.635 248.267 161.612 249.801 159 252 C155.995 252.631 155.995 252.631 152.59 252.639 C151.296 252.655 150.002 252.67 148.668 252.686 C147.241 252.677 145.814 252.669 144.387 252.659 C142.879 252.668 141.371 252.679 139.863 252.691 C135.775 252.719 131.687 252.717 127.598 252.709 C123.323 252.706 119.048 252.731 114.774 252.753 C106.681 252.79 98.589 252.802 90.496 252.805 C81.282 252.81 72.068 252.843 62.854 252.878 C43.903 252.95 24.952 252.986 6 253 C5.67 258.94 5.34 264.88 5 271 C6.053 270.997 6.053 270.997 11.382 270.98 C31.203 270.919 51.024 270.874 70.846 270.845 C81.036 270.829 91.227 270.808 101.418 270.774 C110.3 270.744 119.181 270.724 128.063 270.718 C132.766 270.714 137.47 270.705 142.173 270.683 C146.6 270.662 151.026 270.656 155.453 270.661 C157.078 270.66 158.703 270.654 160.328 270.642 C162.546 270.627 164.764 270.631 166.983 270.639 C168.224 270.636 169.466 270.634 170.745 270.631 C175.379 271.156 177.961 272.719 180.875 276.312 C182.333 279.795 181.908 281.34 181 285 C179.745 287.632 178.45 290.105 177 292.625 C176.574 293.379 176.147 294.133 175.708 294.91 C167.011 310.133 157.82 325.132 148.337 339.875 C147 342 147 342 146 344 C146.526 344.237 146.526 344.237 149.188 345.438 C149.779 345.704 150.371 345.971 150.98 346.246 C162.663 350.607 176.958 348.404 188.129 343.676 C192.922 341.39 197.194 338.982 201.312 335.625 C204.069 333.458 205.066 332.988 208.688 332.312 C212.956 333.198 214.471 334.474 217 338 C217.75 340.812 217.75 340.812 217 344 C212.669 350.957 206.019 355.094 199 359 C198.145 359.476 197.291 359.951 196.41 360.441 C180.638 368.387 162.745 368.717 146 364 C134.434 360.149 125.221 353.956 117 345 C116.051 345.846 115.103 346.691 114.125 347.562 C99.014 360.454 82.144 368.152 62 367 C43.216 365.474 29.818 357.282 16 345 C15.622 345.424 15.245 345.848 14.855 346.285 C2.07 359.909 -15.128 366.32 -33.48 367.027 C-53.596 367.265 -69.35 358.023 -84 345 C-84.427 345.485 -84.853 345.969 -85.293 346.469 C-98.056 360.153 -115.258 366.601 -133.75 367.312 C-151.408 366.885 -167.576 360.823 -180.688 348.875 C-183.249 345.69 -184.087 344.077 -184 340 C-182.626 337.121 -181.25 335.25 -179 333 C-174.877 332.513 -172.7 332.56 -169.148 334.793 C-168.233 335.583 -167.318 336.373 -166.375 337.188 C-156.248 345.277 -145.451 348.193 -132.688 348.062 C-132.27 348.06 -132.27 348.06 -130.154 348.049 C-128.103 348.037 -126.051 348.019 -124 348 C-124.447 346.909 -124.895 345.819 -125.355 344.695 C-133.132 325.43 -139.092 305.597 -139.438 284.688 C-139.46 283.881 -139.482 283.074 -139.505 282.242 C-139.491 278.631 -139.342 276.461 -137.16 273.52 C-133.796 271.153 -131.12 270.876 -127.122 270.88 C-126.116 270.878 -125.111 270.877 -124.075 270.876 C-123.524 270.877 -123.524 270.877 -120.736 270.886 C-119.574 270.886 -118.413 270.886 -117.217 270.886 C-113.37 270.887 -109.523 270.895 -105.676 270.902 C-103.012 270.904 -100.348 270.906 -97.685 270.907 C-91.384 270.91 -85.084 270.918 -78.783 270.928 C-71.611 270.939 -64.438 270.945 -57.265 270.95 C-42.51 270.96 -27.755 270.978 -13 271 C-13 270.409 -13 270.409 -13.003 267.417 C-13.025 239.201 -13.041 210.986 -13.051 182.77 C-13.052 179.28 -13.054 175.79 -13.055 172.3 C-13.055 171.953 -13.055 171.953 -13.056 170.195 C-13.06 159.019 -13.068 147.843 -13.077 136.667 C-13.087 125.158 -13.092 113.649 -13.094 102.139 C-13.095 95.693 -13.098 89.246 -13.106 82.799 C-13.123 67.199 -13.112 51.6 -13 36 C-12.994 35.112 -12.988 34.224 -12.981 33.309 C-12.946 28.652 -12.887 23.997 -12.785 19.341 C-12.746 17.427 -12.724 15.513 -12.702 13.599 C-12.671 12.496 -12.639 11.394 -12.606 10.258 C-12.586 9.327 -12.565 8.396 -12.544 7.436 C-11.836 4.265 -10.466 3.049 -8 1 C-5.147 -0.427 -3.165 -0.31 0 0 Z M5 35 C4.977 60.929 4.959 86.858 4.948 112.787 C4.943 124.826 4.936 136.864 4.925 148.903 C4.915 159.391 4.908 169.88 4.906 180.368 C4.905 185.926 4.902 191.483 4.894 197.04 C4.888 202.265 4.885 207.489 4.887 212.713 C4.887 214.636 4.885 216.56 4.881 218.483 C4.876 221.097 4.877 223.711 4.88 226.325 C4.877 227.096 4.874 227.868 4.871 228.662 C4.886 233.886 4.886 233.886 6 235 C7.734 235.096 9.471 235.122 11.207 235.12 C12.336 235.122 13.465 235.123 14.628 235.124 C15.878 235.121 17.127 235.117 18.414 235.114 C19.721 235.114 21.029 235.114 22.375 235.114 C25.97 235.114 29.565 235.108 33.16 235.101 C36.913 235.095 40.666 235.095 44.419 235.093 C51.53 235.09 58.642 235.082 65.753 235.072 C73.847 235.061 81.942 235.055 90.036 235.05 C106.691 235.04 123.345 235.022 140 235 C138.442 230.021 136.281 226.05 133.375 221.75 C128.392 214.226 123.639 206.578 118.938 198.875 C113.81 190.494 108.591 182.21 103.078 174.078 C101.235 171.348 99.447 168.596 97.688 165.812 C88.809 151.765 79.645 137.9 70.398 124.093 C69.052 122.078 67.714 120.058 66.379 118.035 C61.598 110.801 56.69 103.683 51.621 96.648 C49.287 93.409 46.984 90.148 44.688 86.883 C35.503 73.825 26.27 60.817 16.5 48.188 C15.925 47.441 15.349 46.694 14.756 45.924 C14.208 45.221 13.659 44.518 13.094 43.793 C12.616 43.18 12.139 42.566 11.646 41.934 C9.562 39.485 7.282 37.265 5 35 Z M-122 289 C-118.986 308.092 -115.623 323.698 -108 341 C-103.601 339.589 -101.091 337.467 -97.875 334.188 C-97.027 333.335 -96.179 332.483 -95.305 331.605 C-93.157 329.178 -91.613 326.796 -90 324 C-87.326 321.899 -85.957 322.002 -82.5 322.125 C-77.898 323.275 -76.42 325.026 -73.707 328.797 C-66.123 339.289 -57.168 345.333 -44.543 348.645 C-29.552 350.74 -15.271 348.229 -3 339 C1.478 335.074 5.433 331.081 8.562 326 C11.074 322.909 11.409 322.522 15.062 321.938 C18.79 321.997 20.019 322.057 23 324 C24.352 325.848 24.352 325.848 25.625 328.062 C32.775 339.125 42.863 345.378 55.477 348.641 C69.845 350.687 83.994 348.396 96 340 C101.517 335.215 106.138 330.179 110 324 C113.518 321.655 114.858 321.42 119 322 C121.5 324.063 121.5 324.063 124 327 C124.543 327.624 125.085 328.248 125.645 328.891 C127.112 330.581 128.562 332.285 130 334 C132.979 331.2 135.195 328.387 137.355 324.922 C137.974 323.933 138.593 322.943 139.23 321.924 C139.876 320.877 140.522 319.829 141.188 318.75 C141.851 317.681 142.514 316.613 143.198 315.511 C158 291.527 158 291.527 158 289 C65.6 289 -26.8 289 -122 289 Z " fill="currentColor" transform="translate(239,72)"/>
</svg>
