<?xml version="1.0" encoding="UTF-8"?>
<!-- Generator: visioncortex VTracer 0.6.12 -->
<svg viewBox="0 0 512 512" version="1.1" xmlns="http://www.w3.org/2000/svg" width="512" height="512">
<path d="M0 0 C0.752 0.58 1.504 1.16 2.279 1.758 C12.718 9.542 25.36 8.1 37.812 8.188 C41.298 8.228 44.783 8.278 48.268 8.351 C50.425 8.395 52.582 8.419 54.739 8.421 C61.91 8.547 66.453 9.572 71.758 14.699 C75.698 20.777 75.731 26.464 75.562 33.562 C75.55 34.713 75.537 35.863 75.523 37.048 C75.303 45.972 73.867 53.582 71 62 C70.638 63.661 70.294 65.326 70 67 C71.036 67.519 72.073 68.039 73.141 68.574 C74.511 69.278 75.881 69.983 77.25 70.688 C77.932 71.027 78.614 71.367 79.316 71.717 C83.493 73.886 86.474 75.872 89 80 C88.446 83.464 87.597 85.339 85.25 87.938 C82.087 89.431 80.389 88.813 77 88 C73.939 86.548 70.993 84.997 68.035 83.352 C63.529 80.956 63.529 80.956 60.68 81.191 C58.684 82.152 57.447 83.337 56 85 C57.85 89.865 61.987 92.99 65.744 96.402 C68.472 99 69.855 100.519 70.965 104.203 C71 107 71 107 69.5 109.875 C67 112 67 112 63.84 112.602 C58.224 111.722 55.803 108.575 52.062 104.5 C51.721 104.142 51.721 104.142 49.99 102.332 C48.31 100.569 46.648 98.793 45 97 C38.433 99.367 32.738 103.23 29 109.188 C24.58 121.62 27.167 135.237 29.75 147.812 C30.027 149.221 30.303 150.629 30.577 152.037 C31.895 158.755 33.296 165.455 34.752 172.144 C41.025 201.029 42.444 233.95 33.453 262.465 C32.301 268.912 34.679 274.173 37.562 279.75 C37.914 280.444 38.265 281.138 38.627 281.852 C41.439 287.256 44.676 292.062 48.434 296.863 C50 299 50 299 51 302 C52.809 303.054 52.809 303.054 55 304 C56.354 304.708 57.705 305.421 59.055 306.137 C59.828 306.546 60.601 306.955 61.398 307.376 C63.075 308.264 64.752 309.152 66.428 310.04 C70.313 312.089 74.201 314.12 78.152 316.039 C78.776 316.342 79.399 316.646 80.042 316.958 C81.697 317.757 83.358 318.545 85.02 319.332 C89.155 321.647 92.897 324.225 95.438 328.312 C96.24 332.146 96.391 335.342 95 339 C88.477 347.57 77.173 350.343 67 352 C40.381 354.91 12.166 355.348 -10.152 339.023 C-11.092 338.356 -12.032 337.688 -13 337 C-13.311 336.752 -13.311 336.752 -14.887 335.5 C-18.603 334.621 -21.658 336.922 -24.875 338.625 C-32.471 342.439 -39.761 344.868 -48 347 C-52.679 348.299 -56.143 349.966 -59.688 353.312 C-79.266 371.402 -112.262 369.71 -137 369 C-167.162 367.638 -167.162 367.638 -177.609 357.586 C-180.381 354.424 -180.106 351.98 -180.062 347.875 C-180.053 346.779 -180.044 345.684 -180.035 344.555 C-180.024 343.712 -180.012 342.869 -180 342 C-189.537 338.291 -196.532 337.92 -206 342 C-208.256 343.155 -210.505 344.323 -212.75 345.5 C-233.838 356.455 -264.916 355.877 -287.5 349.625 C-294.756 347.174 -300.922 344.755 -305 338 C-305.769 334.784 -305.988 332.166 -305 329 C-301.097 322.76 -295.85 319.973 -289.312 317 C-287.525 316.143 -285.74 315.283 -283.957 314.418 C-283.103 314.006 -282.249 313.594 -281.37 313.169 C-270.877 307.991 -266.198 302.639 -261.16 292.254 C-242.564 253.933 -212.031 236.538 -174.688 219.271 C-151.496 208.397 -133.94 191.294 -125.047 167.038 C-122.955 161.114 -121.326 155.142 -120 149 C-119.807 148.197 -119.613 147.394 -119.414 146.566 C-116.039 131.674 -116.745 115.742 -116.523 100.554 C-116.032 68.219 -116.032 68.219 -111.875 53.312 C-111.665 52.541 -111.456 51.769 -111.24 50.973 C-107.231 37.111 -99.798 23.614 -90 13 C-89.34 13 -88.68 13 -88 13 C-87.67 12.01 -87.34 11.02 -87 10 C-85.07 8.424 -83.182 7.014 -81.125 5.625 C-80.539 5.227 -79.952 4.828 -79.348 4.417 C-56.249 -10.924 -24.732 -12.647 0 0 Z M-80.051 23.797 C-100.6 45.149 -101.213 75.727 -101.5 103.438 C-101.679 120.647 -102.066 137.735 -105.75 154.625 C-105.835 155.016 -105.835 155.016 -106.265 156.993 C-110.8 176.802 -120.002 194.272 -134 209 C-134.806 209.86 -135.611 210.72 -136.441 211.605 C-149.449 224.41 -166.493 231.892 -182.894 239.344 C-195.952 245.29 -208.159 251.454 -219 261 C-219.817 261.686 -220.635 262.372 -221.477 263.078 C-236.431 275.949 -245.521 291.607 -252.77 309.773 C-255.935 315.501 -261 318.435 -266.562 321.438 C-266.912 321.631 -266.912 321.631 -268.68 322.608 C-273.984 325.516 -279.37 328.224 -284.84 330.809 C-287 332 -287 332 -288 334 C-286.378 334.49 -284.752 334.966 -283.125 335.438 C-282.22 335.704 -281.315 335.971 -280.383 336.246 C-258.351 341.156 -232.026 339.983 -211.938 329.375 C-200.098 323.287 -188.399 324.233 -176 328 C-174.514 328.566 -173.034 329.148 -171.562 329.75 C-165.118 332.011 -159.811 328.856 -153.812 326.312 C-152.964 325.953 -152.116 325.594 -151.241 325.223 C-145.176 322.607 -139.435 319.785 -134 316 C-132.948 315.278 -131.896 314.556 -130.812 313.812 C-120.977 303.977 -117.115 291.445 -114.223 278.223 C-113 275 -113 275 -110.578 273.008 C-108 272 -108 272 -104.688 272.812 C-103.801 273.204 -102.914 273.596 -102 274 C-100.941 279.315 -101.187 283.434 -102.625 288.688 C-102.809 289.383 -102.993 290.079 -103.182 290.795 C-108.259 309.298 -116.875 322.044 -133.531 331.594 C-139.487 334.882 -145.66 337.741 -151.854 340.55 C-156.337 342.606 -160.417 344.513 -164 348 C-164 348.66 -164 349.32 -164 350 C-153.975 355.971 -137.712 354.373 -126.375 354.371 C-123.766 354.375 -121.159 354.411 -118.551 354.449 C-99.663 354.575 -79.159 352.548 -64.805 338.969 C-49.814 322.615 -45.432 299.776 -44.441 278.242 C-43.912 275.552 -43.155 274.651 -41 273 C-37.673 272.002 -36.35 271.883 -33 273 C-28.388 279.918 -31.273 290.411 -32.688 298.188 C-32.775 298.683 -32.775 298.683 -33.22 301.192 C-34.804 309.722 -37.12 317.821 -40 326 C-40.33 326.99 -40.66 327.98 -41 329 C-20.263 322.881 -2.881 307.439 7.994 288.868 C32.252 243.815 24.66 192.751 14.256 145.049 C11.072 130.335 9.387 113.765 17.305 100.277 C21.26 94.964 26.511 90.659 32 87 C30.693 83.079 28.871 82.261 25.5 79.938 C20.1 76.201 20.1 76.201 19 74 C18.543 68.631 18.543 68.631 20.312 66.188 C22 65 22 65 25 64 C29.518 65.812 32.685 68.29 36.188 71.625 C40.686 75.895 40.686 75.895 44 77 C45.32 75.35 46.64 73.7 48 72 C47.748 71.869 47.748 71.869 46.471 71.206 C44.187 70.016 41.906 68.821 39.625 67.625 C39.228 67.419 39.228 67.419 37.219 66.375 C36.838 66.175 36.838 66.175 34.914 65.164 C34.212 64.797 33.511 64.431 32.788 64.053 C31 63 31 63 29 61 C28.75 57.5 28.75 57.5 29 54 C31 52 31 52 34.141 51.656 C38.689 52.061 41.75 53.424 45.75 55.5 C52.655 59 52.655 59 56 59 C61.361 44.639 61.361 44.639 60 39 C57.647 37.328 55.333 36.134 52.676 35.008 C48.573 31.93 47.018 27.623 45 23 C43.988 23.017 42.976 23.034 41.933 23.051 C38.103 23.102 34.274 23.093 30.443 23.067 C28.8 23.064 27.156 23.077 25.512 23.106 C14.168 23.297 6.562 21.751 -2.799 15.169 C-7.25 12.153 -11.876 10.508 -17 9 C-18.11 8.653 -19.22 8.306 -20.363 7.949 C-42.031 2.294 -63.61 9.392 -80.051 23.797 Z M24 287 C23.443 288.039 22.886 289.078 22.312 290.148 C15.352 302.948 6.875 313.356 -3 324 C-1.325 329.024 3.469 330.651 8 333 C19.073 337.861 31.272 338.364 43.188 338.312 C43.821 338.311 43.821 338.311 47.025 338.306 C57.611 338.193 67.894 337.369 78 334 C78 333.34 78 332.68 78 332 C77.498 331.774 76.995 331.549 76.478 331.317 C44.338 316.778 44.338 316.778 35 303.312 C34.566 302.696 34.131 302.08 33.684 301.445 C30.456 296.805 27.541 292.054 25 287 C24.67 287 24.34 287 24 287 Z " fill="currentColor" transform="translate(360,75)"/>
<path d="M0 0 C3.302 3.946 3.961 6.98 3.562 12.062 C1.905 16.207 -0.672 18.698 -4.438 21.062 C-8.374 21.733 -10.081 21.251 -13.625 19.375 C-17.403 16.269 -19.15 13.994 -19.875 9.125 C-19.231 4.619 -17.273 1.505 -13.688 -1.312 C-8.28 -2.815 -4.814 -2.713 0 0 Z " fill="currentColor" transform="translate(340.4375,108.9375)"/>
</svg>
