<?xml version="1.0" encoding="UTF-8"?>
<!-- Generator: visioncortex VTracer 0.6.12 -->
<svg viewBox="0 0 512 512" version="1.1" xmlns="http://www.w3.org/2000/svg" width="512" height="512">
<path d="M0 0 C2.61 1.655 3.573 2.36 5 5 C5.786 9.387 5.792 13.739 5.812 18.188 C5.836 19.436 5.86 20.684 5.884 21.97 C5.947 25.647 5.977 29.323 6 33 C6.026 34.914 6.054 36.828 6.082 38.742 C6.203 50.39 6.203 50.39 5 54 C8.83 51.873 11.828 49.45 15 46.438 C20.094 41.723 25.41 37.493 30.957 33.324 C33.105 31.684 35.153 30.03 37.199 28.273 C40.365 25.704 41.932 24.915 46 25 C49.43 26.715 51.444 28.081 53.438 31.375 C54.139 34.648 53.834 36.757 53 40 C51.207 42.168 51.207 42.168 48.812 44.188 C47.911 44.954 47.01 45.721 46.082 46.512 C42.149 49.687 38.18 52.812 34.184 55.906 C29.732 59.369 25.537 63.042 21.387 66.863 C18.085 69.819 14.622 72.548 11.129 75.273 C6.129 79.329 6.129 79.329 5.615 82.009 C5.611 82.781 5.606 83.552 5.601 84.347 C5.589 85.235 5.576 86.122 5.563 87.037 C5.565 88.008 5.566 88.979 5.568 89.979 C5.557 91.004 5.547 92.028 5.537 93.084 C5.507 96.477 5.497 99.869 5.488 103.262 C5.471 105.612 5.453 107.961 5.434 110.311 C5.386 116.501 5.357 122.69 5.33 128.88 C5.301 135.194 5.254 141.508 5.209 147.822 C5.123 160.215 5.056 172.607 5 185 C12.528 180.902 20.033 176.77 27.5 172.562 C28.455 172.028 29.41 171.494 30.395 170.943 C36.203 167.67 41.859 164.235 47.437 160.581 C50.138 158.915 52.893 157.505 55.75 156.125 C60.968 153.589 65.919 150.724 70.844 147.668 C74.587 145.37 78.373 143.27 82.297 141.293 C83.201 140.829 84.104 140.364 85.035 139.885 C86.807 138.981 88.591 138.1 90.387 137.245 C94.55 135.096 97.309 133.46 98.953 128.945 C99.357 127.309 99.701 125.658 100 124 C100.178 123.037 100.355 122.075 100.538 121.083 C101.081 117.853 101.548 114.619 102 111.375 C103.238 102.903 104.564 94.511 106.359 86.137 C106.988 83.058 107.431 79.985 107.875 76.875 C108.719 72.029 110.126 69.98 114 67 C114.33 66.67 114.66 66.34 115 66 C118.853 65.562 120.541 65.694 123.812 67.875 C126.758 70.736 126.976 71.409 127.145 75.591 C127.086 80.001 126.46 84.216 125.688 88.551 C125.554 89.331 125.421 90.112 125.284 90.916 C124.862 93.383 124.432 95.848 124 98.312 C123.57 100.795 123.142 103.279 122.716 105.762 C122.452 107.301 122.185 108.839 121.915 110.377 C121.41 113.294 121 116.032 121 119 C123.693 117.493 126.386 115.985 129.079 114.477 C131.368 113.196 133.658 111.917 135.949 110.64 C140.987 107.829 146.016 105.013 150.977 102.066 C151.69 101.647 152.404 101.228 153.139 100.797 C154.421 100.04 155.696 99.272 156.963 98.49 C161.116 96.06 164.226 95.524 169 96 C171.875 97.562 171.875 97.562 174 100 C175.115 103.833 175.427 105.981 173.875 109.688 C169.385 115.225 163.42 118.02 157.188 121.188 C148.002 125.921 138.966 130.864 130 136 C132.873 137.172 135.748 138.338 138.625 139.5 C139.511 139.859 140.396 140.218 141.309 140.587 C146.2 142.548 151.105 144.413 156.086 146.137 C156.58 146.309 156.58 146.309 159.08 147.18 C160.995 147.841 162.914 148.488 164.838 149.121 C169.865 150.862 173.246 152.156 176 157 C176.709 161.412 176.559 163.221 173.938 166.875 C170.339 169.478 168.434 169.811 164 170 C160.803 169.236 157.838 168.029 154.805 166.773 C154.37 166.601 154.37 166.601 152.17 165.729 C149.399 164.626 146.637 163.501 143.875 162.375 C142.042 161.64 140.209 160.907 138.375 160.176 C124.6 154.67 124.6 154.67 118.974 152.325 C117.83 151.86 116.686 151.394 115.508 150.914 C115.028 150.714 115.028 150.714 112.598 149.702 C108.342 148.552 105.158 149.682 101.418 151.793 C100.746 152.168 100.075 152.544 99.383 152.931 C98.658 153.345 97.934 153.76 97.188 154.188 C96.408 154.627 95.629 155.066 94.826 155.519 C87.302 159.78 79.847 164.163 72.388 168.539 C64.033 173.431 55.592 178.16 47.126 182.859 C39.315 187.214 31.628 191.752 24.015 196.446 C23.631 196.68 23.631 196.68 21.691 197.867 C21.357 198.074 21.357 198.074 19.666 199.121 C18 200 18 200 16 200 C16 200.99 16 201.98 16 203 C16.877 203.27 17.753 203.54 18.657 203.818 C21.835 204.942 24.557 206.261 27.492 207.906 C28.519 208.48 29.545 209.054 30.603 209.646 C31.683 210.257 32.763 210.869 33.875 211.5 C34.435 211.815 34.435 211.815 37.268 213.409 C44.052 217.251 50.697 221.248 57.257 225.458 C62.828 228.99 68.616 232.016 74.485 235.02 C82.067 238.939 89.36 243.306 96.616 247.798 C105.397 253.132 105.397 253.132 110 253 C113.459 252.108 116.739 250.863 120.062 249.562 C121.022 249.2 121.981 248.837 122.97 248.464 C124.978 247.703 126.983 246.936 128.987 246.163 C131.907 245.036 134.833 243.927 137.762 242.824 C145.477 239.912 153.167 236.964 160.783 233.798 C164.083 232.61 166.55 232.391 170 233 C173.583 235.57 174.787 237.255 176 241.5 C176 245.557 175.476 246.839 173 250 C170.016 251.484 170.016 251.484 166.25 252.75 C164.822 253.245 163.395 253.742 161.969 254.242 C161.185 254.514 160.401 254.786 159.594 255.065 C153.571 257.236 147.651 259.698 141.72 262.104 C140.776 262.48 139.832 262.855 138.859 263.242 C138.019 263.581 137.178 263.92 136.312 264.269 C134 265 134 265 130 265 C131.41 267.82 133.152 268.169 136 269.5 C142.837 272.829 149.329 276.637 155.852 280.539 C158.428 282.08 161.017 283.579 163.648 285.023 C164.713 285.614 165.778 286.204 166.875 286.812 C167.801 287.314 168.726 287.815 169.68 288.332 C172.381 290.274 173.585 292.005 175 295 C174.924 298.631 174.191 300.67 172.375 303.812 C169.202 306.735 167.286 306.837 163 307 C160.33 305.951 158.183 304.937 155.75 303.5 C155.095 303.133 154.44 302.765 153.766 302.387 C149.005 299.685 144.417 296.735 139.84 293.734 C135.368 291.003 130.683 288.759 125.969 286.48 C123 285 123 285 120 283 C120.105 283.577 120.211 284.155 120.32 284.75 C121.187 289.5 122.051 294.252 122.91 299.004 C123.572 302.66 124.245 306.314 124.934 309.965 C125.206 311.435 125.478 312.905 125.75 314.375 C125.992 315.661 126.235 316.948 126.484 318.273 C127.933 328.746 127.933 328.746 124.812 332.938 C121.916 335.062 120.569 336 117 336 C112.206 334.274 110.151 332.57 108 328 C107.282 324.713 106.892 321.402 106.5 318.062 C105.57 310.896 104.493 303.892 102.758 296.867 C102.126 293.641 101.791 290.649 101.555 287.383 C100.212 272.422 100.212 272.422 96.283 268.12 C92 264.911 87.213 262.887 82.26 260.928 C79.127 259.641 76.283 257.98 73.375 256.25 C72.255 255.608 71.135 254.966 69.98 254.305 C66.871 252.51 63.773 250.698 60.676 248.883 C50.079 242.673 39.458 236.516 28.75 230.5 C28.251 230.219 28.251 230.219 25.725 228.794 C20.751 226.012 15.742 223.34 10.638 220.803 C9.576 220.274 8.515 219.746 7.421 219.202 C6.622 218.805 5.823 218.409 5 218 C4.945 231.422 4.934 244.843 4.977 258.265 C4.995 264.498 4.999 270.73 4.969 276.963 C4.941 282.98 4.951 288.997 4.989 295.014 C4.996 297.307 4.99 299.601 4.969 301.894 C4.942 305.112 4.965 308.327 5 311.545 C4.99 312.017 4.99 312.017 4.941 314.405 C5.061 319.87 6.01 322.58 9.901 326.517 C11.244 327.706 12.608 328.871 14 330 C14.852 330.719 15.704 331.439 16.582 332.18 C16.95 332.459 16.95 332.459 18.812 333.875 C22.447 336.713 25.873 339.673 29.25 342.812 C34.043 347.236 39.049 351.284 44.229 355.245 C52.837 361.859 52.837 361.859 53.562 366.938 C53.377 370.245 52.922 371.114 50.938 374 C47.141 376.585 45.52 376.843 41 376 C38.048 374.333 35.574 372.196 33 370 C31.167 368.521 29.334 367.041 27.5 365.562 C22.921 361.794 18.448 357.921 14 354 C8.485 349.162 8.485 349.162 5 348 C5.33 348.66 5.66 349.32 6 350 C6.099 352.486 6.14 354.943 6.133 357.43 C6.134 358.175 6.135 358.921 6.136 359.689 C6.136 361.274 6.135 362.86 6.13 364.445 C6.125 366.831 6.13 369.216 6.137 371.602 C6.151 395.51 6.151 395.51 2.875 399.75 C-0.816 401.355 -3.009 401.63 -7 401 C-9.785 399.384 -11.201 398.548 -13 396 C-13.831 392.33 -13.699 388.758 -13.586 385.012 C-13.577 383.953 -13.569 382.895 -13.56 381.805 C-13.527 378.431 -13.451 375.06 -13.375 371.688 C-13.345 369.398 -13.318 367.108 -13.293 364.818 C-13.227 359.211 -13.127 353.606 -13 348 C-18.888 352.794 -24.749 357.606 -30.5 362.562 C-34.58 366.023 -38.694 369.428 -42.938 372.688 C-43.772 373.331 -44.606 373.974 -45.465 374.637 C-48.562 376.302 -50.529 376.37 -54 376 C-57.748 373.918 -58.795 372.705 -60 368.562 C-60 363.685 -58.274 361.303 -54.906 357.859 C-54.509 357.511 -54.509 357.511 -52.5 355.75 C-52.054 355.359 -52.054 355.359 -49.797 353.379 C-46.238 350.352 -42.626 347.397 -38.996 344.457 C-35.562 341.641 -32.182 338.768 -28.812 335.875 C-28.255 335.396 -27.697 334.918 -27.122 334.425 C-26.036 333.49 -24.956 332.547 -23.884 331.596 C-22 330 -22 330 -19.948 328.543 C-16.902 326.255 -14.448 324.398 -13.26 320.689 C-12.977 317.953 -12.944 315.316 -13 312.567 C-12.989 311.542 -12.978 310.516 -12.967 309.46 C-12.94 306.088 -12.97 302.719 -13 299.348 C-12.992 297.004 -12.981 294.659 -12.967 292.315 C-12.939 286.158 -12.958 280.002 -12.987 273.845 C-13.009 267.558 -12.985 261.27 -12.965 254.982 C-12.932 242.655 -12.95 230.328 -13 218 C-15.706 219.425 -18.412 220.852 -21.116 222.28 C-21.876 222.68 -22.635 223.08 -23.418 223.491 C-29.611 226.763 -35.669 230.23 -41.688 233.812 C-49.426 238.376 -57.215 242.804 -65.125 247.062 C-75.493 252.648 -85.662 258.553 -95.722 264.676 C-98 266 -98 266 -100.108 266.983 C-103.717 268.692 -104.879 269.688 -106.348 273.465 C-106.617 274.95 -106.853 276.442 -107.062 277.938 C-107.205 278.767 -107.347 279.597 -107.494 280.451 C-108.029 283.63 -108.513 286.814 -109 290 C-109.628 293.958 -110.268 297.915 -110.908 301.871 C-111.583 306.051 -112.25 310.231 -112.895 314.416 C-113.141 315.984 -113.387 317.553 -113.633 319.121 C-113.741 319.841 -113.849 320.561 -113.961 321.303 C-114.681 325.847 -115.582 329.91 -118.188 333.75 C-121.067 335.736 -123.546 335.881 -127 336 C-129.923 334.636 -131.728 333.272 -134 331 C-134.834 324.86 -133.612 318.613 -132.469 312.59 C-132.313 311.737 -132.158 310.884 -131.998 310.005 C-131.506 307.315 -131.003 304.626 -130.5 301.938 C-130.162 300.1 -129.825 298.262 -129.488 296.424 C-128.667 291.948 -127.836 287.473 -127 283 C-136.335 287.983 -145.567 293.12 -154.756 298.369 C-169.855 306.955 -169.855 306.955 -174.188 307.125 C-178.175 305.53 -179.772 303.646 -182 300 C-182.25 296.5 -182.25 296.5 -181 293 C-175.317 287.381 -168.731 283.802 -161.75 280 C-161.216 279.705 -161.216 279.705 -158.512 278.211 C-155.346 276.465 -152.174 274.73 -149 273 C-147.928 272.415 -146.856 271.83 -145.752 271.227 C-143.169 269.817 -140.585 268.408 -138 267 C-145.117 263.414 -152.499 260.529 -159.984 257.812 C-160.519 257.617 -160.519 257.617 -163.224 256.629 C-165.386 255.843 -167.552 255.066 -169.722 254.299 C-170.227 254.115 -170.227 254.115 -172.781 253.184 C-173.689 252.859 -174.598 252.535 -175.533 252.201 C-178.317 250.846 -179.994 249.344 -182 247 C-182.856 243.891 -182.718 241.135 -182 238 C-179.031 234.193 -179.031 234.193 -176 233 C-168.024 233.135 -161.624 235.932 -154.375 239.062 C-145.362 242.837 -136.336 246.484 -127.125 249.75 C-126.65 249.923 -126.65 249.923 -124.248 250.801 C-123.364 251.109 -122.481 251.417 -121.57 251.734 C-120.805 252.005 -120.039 252.275 -119.25 252.554 C-114.466 253.503 -110.944 251.629 -106.852 249.297 C-105.858 248.735 -104.864 248.173 -103.839 247.594 C-103.309 247.29 -103.309 247.29 -100.625 245.75 C-99.522 245.124 -98.418 244.498 -97.282 243.853 C-94.985 242.549 -92.69 241.243 -90.396 239.934 C-87.193 238.11 -83.981 236.3 -80.766 234.496 C-72.088 229.626 -63.439 224.732 -54.95 219.538 C-47.506 215.024 -39.849 210.874 -32.213 206.696 C-31.166 206.117 -30.118 205.538 -29.039 204.941 C-28.566 204.682 -28.566 204.682 -26.17 203.369 C-24 202 -24 202 -23 200 C-23.688 199.745 -24.377 199.49 -25.086 199.227 C-28.404 197.83 -31.501 196.151 -34.625 194.375 C-35.301 193.993 -35.977 193.611 -36.674 193.218 C-43.524 189.32 -50.29 185.281 -57.062 181.25 C-68.37 174.52 -79.757 167.949 -91.252 161.543 C-94.08 159.955 -96.89 158.337 -99.699 156.715 C-101.508 155.685 -103.316 154.655 -105.125 153.625 C-105.949 153.142 -106.772 152.659 -107.621 152.161 C-108.388 151.729 -109.155 151.297 -109.945 150.852 C-110.278 150.66 -110.278 150.66 -111.961 149.69 C-116.405 148.186 -120.847 150.591 -125.023 152.188 C-126.199 152.635 -127.374 153.083 -128.585 153.544 C-129.204 153.782 -129.822 154.019 -130.459 154.264 C-132.394 155.007 -134.332 155.744 -136.27 156.479 C-142.47 158.839 -148.645 161.245 -154.781 163.766 C-155.815 164.186 -156.848 164.606 -157.913 165.039 C-159.84 165.827 -161.762 166.628 -163.677 167.445 C-168.874 169.562 -172.38 170.534 -178 169 C-180.438 167.562 -180.438 167.562 -182 165 C-182.663 161.534 -183.014 158.4 -182 155 C-177.871 151.871 -173.707 149.917 -168.879 148.09 C-168.216 147.836 -167.553 147.583 -166.87 147.321 C-164.77 146.52 -162.666 145.728 -160.562 144.938 C-158.463 144.141 -156.364 143.343 -154.266 142.543 C-152.36 141.818 -150.453 141.098 -148.545 140.379 C-144.99 138.996 -141.497 137.522 -138 136 C-145.064 131.491 -152.204 127.269 -159.625 123.375 C-160.346 122.996 -161.066 122.618 -161.809 122.228 C-165.007 120.553 -168.212 118.891 -171.422 117.238 C-172.396 116.727 -173.371 116.215 -174.375 115.688 C-175.208 115.258 -176.04 114.829 -176.898 114.387 C-179.258 112.83 -180.54 111.414 -182 109 C-182.54 104.754 -182.484 102.742 -180.125 99.125 C-177.361 96.361 -176.468 96.058 -172.531 95.566 C-166.637 95.653 -162.337 98.862 -157.5 101.938 C-155.557 103.13 -153.613 104.322 -151.668 105.512 C-150.713 106.103 -149.759 106.693 -148.775 107.302 C-144.838 109.711 -140.839 111.996 -136.812 114.25 C-136.16 114.62 -135.508 114.99 -134.836 115.371 C-132.242 116.827 -129.83 118.057 -127 119 C-127.264 117.849 -127.529 116.698 -127.801 115.512 C-129.24 109.024 -130.518 102.505 -131.769 95.979 C-132.049 94.528 -132.334 93.079 -132.622 91.63 C-133.043 89.512 -133.451 87.391 -133.855 85.27 C-134.099 84.018 -134.343 82.766 -134.594 81.476 C-135.185 76.413 -134.971 73.248 -131.812 69.188 C-128.644 66.723 -126.999 66 -123 66 C-119.471 67.604 -118.172 68.742 -116 72 C-115.558 73.821 -115.198 75.662 -114.887 77.51 C-114.79 78.074 -114.79 78.074 -114.3 80.928 C-114.098 82.147 -113.896 83.365 -113.688 84.621 C-113.58 85.247 -113.58 85.247 -113.038 88.413 C-112.352 92.42 -111.675 96.429 -111 100.438 C-110.325 104.443 -109.647 108.447 -108.962 112.451 C-108.535 114.944 -108.114 117.438 -107.7 119.933 C-107.603 120.499 -107.603 120.499 -107.113 123.361 C-106.946 124.356 -106.779 125.35 -106.607 126.375 C-105.795 129.885 -105.033 132.267 -102.055 134.381 C-101.265 134.793 -100.474 135.205 -99.66 135.629 C-98.772 136.1 -97.884 136.572 -96.97 137.058 C-96.01 137.554 -95.051 138.051 -94.062 138.562 C-92.037 139.639 -90.012 140.717 -87.988 141.797 C-86.973 142.336 -85.958 142.876 -84.913 143.432 C-80.808 145.642 -76.774 147.96 -72.75 150.312 C-71.994 150.754 -71.237 151.195 -70.458 151.649 C-68.85 152.587 -67.243 153.526 -65.636 154.465 C-59.567 157.999 -53.475 161.493 -47.388 164.995 C-35.898 171.617 -24.452 178.313 -13 185 C-12.876 171.352 -12.811 157.705 -12.821 144.056 C-12.824 137.718 -12.807 131.381 -12.743 125.042 C-12.682 118.921 -12.675 112.802 -12.704 106.68 C-12.706 104.349 -12.689 102.019 -12.652 99.688 C-12.366 80.462 -12.366 80.462 -16.407 75.388 C-18.981 72.789 -21.863 70.879 -25 69 C-26.229 68.031 -27.446 67.046 -28.645 66.039 C-29.69 65.242 -30.735 64.446 -31.812 63.625 C-37.999 58.852 -43.963 53.862 -49.844 48.719 C-51.745 47.059 -53.648 45.505 -55.656 43.969 C-60.644 40.105 -60.644 40.105 -61.652 36.977 C-61.945 33.133 -61.085 31.114 -58.812 28.062 C-55.916 25.938 -54.569 25 -51 25 C-46.288 27.004 -42.621 29.768 -38.812 33.125 C-37.67 34.111 -36.527 35.097 -35.383 36.082 C-34.816 36.573 -34.249 37.063 -33.665 37.569 C-31.202 39.686 -28.699 41.753 -26.188 43.812 C-25.377 44.479 -24.566 45.145 -23.73 45.832 C-21.455 47.639 -19.156 49.395 -16.829 51.135 C-16.111 51.673 -15.394 52.21 -14.654 52.764 C-14.108 53.172 -13.562 53.58 -13 54 C-13.009 53.41 -13.018 52.82 -13.027 52.211 C-13.115 46.063 -13.176 39.915 -13.22 33.767 C-13.24 31.473 -13.267 29.179 -13.302 26.885 C-13.35 23.586 -13.373 20.288 -13.391 16.988 C-13.411 15.964 -13.432 14.94 -13.453 13.885 C-13.455 6.749 -13.455 6.749 -11.101 2.876 C-7.45 -0.384 -4.862 -0.494 0 0 Z " fill="currentColor" transform="translate(258,55)"/>
</svg>
