<?xml version="1.0" encoding="UTF-8"?>
<!-- Generator: visioncortex VTracer 0.6.12 -->
<svg viewBox="0 0 512 512" version="1.1" xmlns="http://www.w3.org/2000/svg" width="512" height="512">
<path d="M0 0 C2.7 1.8 4.542 3.084 6 6 C6.111 7.791 6.159 9.586 6.177 11.38 C6.19 12.505 6.203 13.63 6.216 14.789 C6.223 16.01 6.231 17.23 6.238 18.488 C6.246 19.739 6.254 20.989 6.263 22.278 C6.277 24.928 6.288 27.579 6.295 30.229 C6.306 33.619 6.341 37.008 6.38 40.397 C6.413 43.636 6.417 46.875 6.426 50.113 C6.443 51.328 6.461 52.543 6.479 53.794 C6.476 54.929 6.473 56.063 6.47 57.232 C6.473 57.729 6.473 57.729 6.488 60.248 C5.864 63.77 4.453 65.446 2 68 C-1.544 69.532 -2.982 69.006 -6.688 67.75 C-10 66 -10 66 -12 63 C-12.267 60.509 -12.267 60.509 -12.291 57.506 C-12.303 56.382 -12.316 55.257 -12.329 54.098 C-12.331 52.882 -12.334 51.667 -12.336 50.414 C-12.343 49.165 -12.349 47.916 -12.356 46.629 C-12.366 43.984 -12.372 41.34 -12.371 38.695 C-12.37 35.313 -12.398 31.932 -12.432 28.551 C-12.46 25.318 -12.459 22.085 -12.461 18.852 C-12.475 17.64 -12.49 16.428 -12.504 15.18 C-12.498 14.049 -12.492 12.918 -12.486 11.752 C-12.489 10.76 -12.492 9.768 -12.494 8.745 C-11.863 5.239 -10.43 3.555 -8 1 C-5.147 -0.427 -3.165 -0.31 0 0 Z " fill="currentColor" transform="translate(258,56)"/>
<path d="M0 0 C1.889 1.576 3.52 3.277 5.188 5.086 C7.515 7.544 10.078 9.623 12.715 11.738 C13.139 12.155 13.563 12.571 14 13 C14 13.66 14 14.32 14 15 C14.558 15.233 15.116 15.465 15.691 15.705 C18.596 17.334 20.599 19.357 22.949 21.719 C23.879 22.651 24.809 23.583 25.768 24.543 C26.247 25.028 26.726 25.513 27.219 26.013 C28.688 27.5 30.164 28.979 31.643 30.457 C39.855 38.721 39.855 38.721 40.375 43.312 C40 47 40 47 37.938 49.938 C35 52 35 52 31.688 52.75 C26.361 51.667 23.806 48.715 20 45 C18.338 43.558 16.671 42.12 15 40.688 C12.688 38.699 12.688 38.699 11 37 C11 36.34 11 35.68 11 35 C10.719 34.88 10.719 34.88 9.296 34.27 C4.444 31.586 0.727 27.183 -3.188 23.312 C-4.115 22.426 -5.042 21.54 -5.998 20.627 C-6.879 19.756 -7.76 18.885 -8.668 17.988 C-9.475 17.2 -10.282 16.411 -11.114 15.599 C-13.459 12.368 -13.793 9.95 -14 6 C-12.772 3.297 -11.209 2.108 -9 0 C-5.281 -1.24 -3.757 -1.156 0 0 Z " fill="currentColor" transform="translate(124,112)"/>
<path d="M0 0 C2.61 2.54 3.821 4.27 4.688 7.812 C2.85 16.332 -7.538 23.688 -13.5 29.625 C-13.956 30.083 -13.956 30.083 -16.262 32.398 C-21.021 37.151 -25.84 41.687 -31 46 C-32.707 47.632 -34.354 49.305 -36 51 C-37 52 -37 52 -40.25 52.312 C-44.558 51.954 -45.991 51.009 -49 48 C-50.444 45.111 -50.377 43.204 -50 40 C-48.399 38.27 -46.721 36.611 -45 35 C-44.213 34.218 -43.426 33.437 -42.616 32.632 C-41.807 31.829 -40.998 31.026 -40.164 30.199 C-38.318 28.362 -36.471 26.525 -34.625 24.688 C-33.705 23.775 -32.784 22.863 -31.836 21.924 C-27.196 17.301 -22.712 12.627 -18.448 7.655 C-16.688 5.643 -14.823 3.824 -12.812 2.062 C-12.18 1.497 -11.547 0.931 -10.895 0.348 C-6.936 -2.468 -4.21 -2.316 0 0 Z " fill="currentColor" transform="translate(396,112)"/>
<path d="M0 0 C1.221 0.327 2.441 0.655 3.699 0.992 C29.287 8.986 51.592 29.228 65 52 C65.249 52.418 65.249 52.418 66.512 54.535 C80.059 79.45 82.591 109.933 75 137 C72.833 143.558 70.052 149.81 67 156 C66.68 156.651 66.36 157.302 66.031 157.972 C61.273 167.416 55.074 175.227 48 183 C47.441 183.654 46.881 184.307 46.305 184.98 C32.927 199.724 11.987 209.236 -7 214 C-7.711 214.185 -8.421 214.371 -9.153 214.562 C-16.891 216.364 -24.66 216.398 -32.562 216.375 C-32.918 216.375 -32.918 216.375 -34.716 216.373 C-45.655 216.335 -55.577 215.574 -66 212 C-66.663 211.786 -67.326 211.571 -68.009 211.351 C-82.325 206.699 -94.471 199.737 -106 190 C-106.75 189.47 -107.5 188.94 -108.273 188.395 C-108.843 187.934 -109.413 187.474 -110 187 C-110 186.34 -110 185.68 -110 185 C-110.66 185 -111.32 185 -112 185 C-112 184.34 -112 183.68 -112 183 C-112.66 183 -113.32 183 -114 183 C-114 182.34 -114 181.68 -114 181 C-114.66 181 -115.32 181 -116 181 C-117.642 179.163 -119.14 177.335 -120.625 175.375 C-121.069 174.789 -121.514 174.203 -121.972 173.599 C-139.75 149.658 -147.243 120.301 -143.539 90.641 C-139.106 64.667 -127.364 43.636 -109 25 C-108.285 24.272 -107.569 23.543 -106.832 22.793 C-100.356 16.633 -92.789 12.28 -85 8 C-84.497 7.721 -84.497 7.721 -81.953 6.309 C-56.667 -6.501 -27.023 -7.55 0 0 Z M-99 39 C-99.688 39.614 -100.377 40.227 -101.086 40.859 C-117.554 56.091 -126.289 79.16 -127.273 101.172 C-128.008 127.892 -119.888 149.245 -102.98 169.953 C-101 172 -101 172 -98 173 C-98 173.66 -98 174.32 -98 175 C-77.688 192.724 -51.797 201.347 -25 200 C-5.81 198.391 15.544 190.047 30 177 C30 176.34 30 175.68 30 175 C30.66 175 31.32 175 32 175 C32 174.34 32 173.68 32 173 C32.572 172.769 33.145 172.539 33.734 172.301 C47.372 164.471 55.136 143.967 59.347 129.562 C61.071 122.796 61.624 115.952 62 109 C62.07 108.094 62.139 107.188 62.211 106.254 C63.118 85.57 54.531 62.441 40.85 47.019 C38.621 44.622 36.32 42.31 34 40 C33.299 39.251 32.597 38.502 31.875 37.73 C17.375 22.441 -4.426 13.47 -25.332 12.73 C-54.256 12.106 -77.765 18.688 -99 39 Z " fill="currentColor" transform="translate(288,148)"/>
<path d="M0 0 C1.088 -0.006 2.176 -0.013 3.297 -0.019 C4.477 -0.02 5.658 -0.022 6.874 -0.023 C8.082 -0.026 9.29 -0.029 10.536 -0.033 C13.096 -0.038 15.657 -0.04 18.217 -0.04 C22.139 -0.042 26.061 -0.06 29.983 -0.079 C32.467 -0.082 34.952 -0.084 37.436 -0.085 C38.612 -0.092 39.788 -0.1 41 -0.107 C41.547 -0.105 41.547 -0.105 44.316 -0.098 C44.797 -0.098 44.797 -0.098 47.232 -0.102 C49.945 0.161 51.519 0.653 53.788 2.145 C55.811 5.181 56.125 6.103 56.225 9.583 C56.245 9.964 56.245 9.964 56.346 11.891 C55.508 15.273 53.63 16.241 50.788 18.145 C48.049 18.653 48.049 18.653 45.051 18.663 C43.923 18.675 42.795 18.688 41.633 18.701 C40.425 18.693 39.216 18.685 37.971 18.677 C37.347 18.678 37.347 18.678 34.188 18.688 C31.55 18.691 28.914 18.685 26.277 18.667 C22.902 18.644 19.528 18.657 16.153 18.681 C12.925 18.699 9.698 18.686 6.471 18.677 C5.261 18.685 4.05 18.693 2.803 18.701 C1.678 18.688 0.554 18.676 -0.605 18.663 C-1.594 18.66 -2.582 18.656 -3.601 18.653 C-6.927 18.006 -8.096 16.732 -10.212 14.145 C-11.639 11.292 -11.523 9.311 -11.212 6.145 C-7.848 1.099 -5.911 0.023 0 0 Z " fill="currentColor" transform="translate(400.21240234375,243.854736328125)"/>
<path d="M0 0 C2.5 3.75 2.536 5.559 2 10 C0.338 12.546 -0.423 13.562 -3 15 C-7.163 15.817 -11.294 15.841 -15.527 15.883 C-16.138 15.896 -16.138 15.896 -19.229 15.965 C-21.811 16.015 -24.392 16.053 -26.973 16.079 C-30.921 16.125 -34.864 16.224 -38.811 16.328 C-41.32 16.37 -43.83 16.41 -46.34 16.445 C-47.518 16.477 -48.696 16.509 -49.91 16.542 C-59.035 16.577 -59.035 16.577 -62.746 13.617 C-65.076 10.911 -65.783 9.94 -65.625 6.438 C-65.617 5.694 -65.61 4.95 -65.602 4.184 C-64.771 1.169 -63.394 -0.016 -61 -2 C-58.516 -2.539 -58.516 -2.539 -55.7 -2.594 C-54.642 -2.623 -53.584 -2.652 -52.493 -2.683 C-51.355 -2.693 -50.216 -2.704 -49.043 -2.715 C-47.867 -2.738 -46.69 -2.762 -45.478 -2.787 C-42.99 -2.832 -40.501 -2.867 -38.011 -2.894 C-34.212 -2.937 -30.414 -3.018 -26.615 -3.104 C-24.195 -3.143 -21.775 -3.18 -19.355 -3.215 C-18.223 -3.24 -17.09 -3.264 -15.924 -3.29 C-9.842 -3.332 -5.301 -3.111 0 0 Z " fill="currentColor" transform="translate(121,248)"/>
<path d="M0 0 C3.709 2.58 4.834 4.122 5.678 8.578 C5.477 14.89 0.525 18.596 -3.723 22.75 C-4.616 23.649 -5.51 24.547 -6.43 25.473 C-8.322 27.366 -10.22 29.249 -12.133 31.121 C-14.577 33.514 -16.987 35.94 -19.388 38.377 C-21.69 40.707 -24.02 43.008 -26.348 45.312 C-26.778 45.748 -26.778 45.748 -28.956 47.954 C-35.031 53.842 -35.031 53.842 -39.924 54.641 C-43.739 53.846 -45.432 52.946 -48 50 C-49.062 46.625 -49.062 46.625 -49 43 C-47.188 39.562 -47.188 39.562 -45 37 C-44.34 37 -43.68 37 -43 37 C-42.866 36.704 -42.866 36.704 -42.188 35.204 C-40.988 32.977 -39.77 31.516 -37.991 29.732 C-37.383 29.118 -36.776 28.504 -36.15 27.872 C-35.822 27.546 -35.822 27.546 -34.164 25.898 C-33.488 25.221 -32.813 24.543 -32.116 23.845 C-30.688 22.415 -29.257 20.988 -27.824 19.563 C-25.633 17.383 -23.453 15.192 -21.273 13 C-19.883 11.611 -18.493 10.223 -17.102 8.836 C-16.45 8.181 -15.799 7.526 -15.128 6.85 C-14.821 6.547 -14.821 6.547 -13.268 5.009 C-12.732 4.475 -12.196 3.941 -11.644 3.39 C-7.979 0.291 -4.786 -0.684 0 0 Z " fill="currentColor" transform="translate(159,344)"/>
<path d="M0 0 C8.719 6.486 16.231 15.114 23.875 22.812 C25.096 24.039 26.317 25.265 27.539 26.49 C29.77 28.729 31.999 30.969 34.226 33.21 C35.893 34.887 37.581 36.545 39.305 38.163 C41.934 41.013 42.066 43.184 42 47 C39.707 50.752 38.17 52.586 34 54.062 C28.798 53.954 25.532 50.781 21.96 47.25 C21.203 46.506 20.446 45.762 19.665 44.995 C18.863 44.195 18.061 43.395 17.234 42.57 C16.4 41.743 15.566 40.916 14.707 40.063 C12.95 38.316 11.195 36.566 9.442 34.813 C6.756 32.131 4.054 29.466 1.352 26.801 C-0.355 25.1 -2.061 23.398 -3.766 21.695 C-4.576 20.899 -5.386 20.103 -6.221 19.283 C-6.966 18.533 -7.71 17.782 -8.478 17.008 C-9.135 16.353 -9.793 15.698 -10.471 15.024 C-12.282 12.627 -12.755 10.98 -13 8 C-10.381 1.322 -7.286 -1.272 0 0 Z " fill="currentColor" transform="translate(359,344)"/>
<path d="M0 0 C2.617 1.653 3.576 2.354 5 5 C5.772 9.4 5.724 13.761 5.699 18.219 C5.706 19.509 5.714 20.8 5.721 22.13 C5.733 24.857 5.726 27.583 5.707 30.31 C5.684 33.798 5.711 37.283 5.752 40.77 C5.784 44.108 5.77 47.444 5.762 50.781 C5.777 52.03 5.792 53.279 5.808 54.566 C5.695 62.986 5.695 62.986 3.69 65.912 C1.555 67.762 -0.419 68.882 -3.195 69.445 C-3.832 69.34 -4.469 69.234 -5.125 69.125 C-5.767 69.045 -6.409 68.965 -7.07 68.883 C-10.248 67.429 -11.195 66.061 -13 63 C-13.613 58.744 -13.56 54.513 -13.531 50.219 C-13.535 48.973 -13.539 47.726 -13.543 46.442 C-13.546 43.136 -13.53 39.831 -13.508 36.525 C-13.5 34.502 -13.508 32.479 -13.521 30.456 C-13.546 26.564 -13.543 22.673 -13.531 18.781 C-13.539 17.576 -13.547 16.371 -13.556 15.129 C-13.462 6.784 -13.462 6.784 -11.092 2.764 C-7.398 -0.351 -4.812 -0.489 0 0 Z " fill="currentColor" transform="translate(259,385)"/>
</svg>
