<?xml version="1.0" encoding="UTF-8"?>
<!-- Generator: visioncortex VTracer 0.6.12 -->
<svg viewBox="0 0 512 512" version="1.1" xmlns="http://www.w3.org/2000/svg" width="512" height="512">
<path d="M0 0 C1.279 -0.013 2.558 -0.026 3.876 -0.039 C5.261 -0.047 6.647 -0.055 8.033 -0.061 C8.739 -0.065 9.446 -0.069 10.174 -0.074 C13.917 -0.094 17.66 -0.109 21.403 -0.118 C25.234 -0.129 29.064 -0.164 32.894 -0.203 C35.87 -0.23 38.846 -0.238 41.823 -0.241 C43.233 -0.246 44.643 -0.258 46.053 -0.276 C60.293 -0.454 71.957 1.978 82.529 11.865 C88.563 18.049 92.349 24.823 92.783 33.505 C92.804 33.905 92.804 33.905 92.91 35.927 C92.949 36.752 92.989 37.577 93.029 38.427 C93.072 39.267 93.115 40.108 93.16 40.974 C93.266 43.041 93.367 45.109 93.467 47.177 C94.336 47.183 95.206 47.189 96.101 47.195 C104.325 47.253 112.549 47.325 120.772 47.413 C124.999 47.457 129.226 47.497 133.453 47.523 C137.538 47.55 141.623 47.59 145.708 47.64 C147.26 47.657 148.813 47.668 150.366 47.675 C162.735 47.73 172.666 49.019 182.467 57.177 C189.573 64.515 191.933 73.131 191.935 83.157 C191.943 83.974 191.951 84.79 191.958 85.632 C191.969 87.342 191.972 89.052 191.968 90.762 C191.967 93.369 192.008 95.974 192.052 98.581 C192.058 100.253 192.06 101.924 192.06 103.595 C192.077 104.367 192.093 105.139 192.11 105.934 C192.037 111.684 190.583 114.157 186.467 118.177 C182.835 120.598 181.083 120.387 176.779 120.302 C175.664 120.28 174.549 120.258 173.401 120.235 C172.433 120.216 171.464 120.197 170.467 120.177 C170.422 121.251 170.377 122.326 170.331 123.432 C169.707 137.27 168.438 151.019 167.092 164.802 C166.903 166.761 166.714 168.719 166.526 170.678 C164.866 187.945 163.17 205.209 161.478 222.473 C160.63 231.115 159.785 239.757 158.94 248.4 C158.222 255.74 157.5 263.08 156.776 270.42 C156.198 276.275 155.625 282.13 155.052 287.986 C154.941 289.124 154.829 290.262 154.714 291.434 C153.49 303.942 152.337 316.45 151.346 328.978 C151.302 329.533 151.302 329.533 151.079 332.338 C150.663 337.577 150.26 342.817 149.879 348.059 C149.735 349.924 149.59 351.789 149.446 353.654 C149.391 354.476 149.336 355.297 149.279 356.144 C148.311 368.226 143.805 379.243 135.467 388.177 C134.807 388.177 134.147 388.177 133.467 388.177 C133.467 388.837 133.467 389.497 133.467 390.177 C131.236 391.833 131.236 391.833 128.279 393.677 C127.316 394.285 126.353 394.894 125.361 395.521 C118.478 399.459 112.192 400.299 104.314 400.317 C103.965 400.319 103.965 400.319 102.201 400.326 C99.878 400.335 97.554 400.337 95.231 400.338 C93.56 400.343 91.889 400.348 90.218 400.353 C85.687 400.366 81.156 400.373 76.625 400.377 C73.791 400.38 70.958 400.384 68.125 400.389 C59.252 400.402 50.38 400.412 41.507 400.416 C31.279 400.42 21.051 400.438 10.822 400.467 C2.906 400.489 -5.01 400.499 -12.926 400.5 C-17.65 400.501 -22.373 400.507 -27.097 400.525 C-31.541 400.541 -35.986 400.543 -40.431 400.535 C-42.057 400.534 -43.684 400.538 -45.31 400.548 C-60.388 400.635 -71.918 397.578 -83.283 387.052 C-93.639 376.184 -95.611 363.291 -96.727 348.941 C-97.691 336.6 -98.786 324.28 -100.086 311.969 C-101.786 295.848 -103.367 279.717 -104.901 263.579 C-105.002 262.517 -105.103 261.454 -105.207 260.359 C-105.835 253.746 -106.461 247.132 -107.086 240.518 C-107.962 231.262 -108.842 222.007 -109.721 212.752 C-109.939 210.458 -110.157 208.164 -110.375 205.869 C-112.282 185.782 -114.21 165.697 -116.158 145.615 C-116.285 144.314 -116.411 143.014 -116.541 141.674 C-117.204 134.842 -117.868 128.009 -118.533 121.177 C-119.21 121.125 -119.886 121.073 -120.583 121.02 C-121.475 120.943 -122.368 120.866 -123.287 120.786 C-123.729 120.75 -123.729 120.75 -125.961 120.567 C-130.706 119.848 -134.181 117.892 -137.198 114.067 C-138.953 110.27 -138.983 106.794 -138.967 102.693 C-138.972 101.878 -138.978 101.063 -138.983 100.223 C-138.989 98.502 -138.988 96.78 -138.979 95.059 C-138.971 92.449 -139 89.841 -139.031 87.232 C-139.084 75.062 -137.795 67.048 -129.26 57.896 C-121.807 50.477 -114.784 48.1 -104.448 47.972 C-103.755 47.962 -103.062 47.952 -102.348 47.942 C-100.07 47.91 -97.792 47.885 -95.514 47.861 C-93.929 47.84 -92.345 47.819 -90.76 47.798 C-86.599 47.743 -82.438 47.693 -78.277 47.645 C-74.027 47.594 -69.777 47.539 -65.528 47.484 C-57.196 47.376 -48.865 47.275 -40.533 47.177 C-40.475 46.085 -40.417 44.993 -40.356 43.868 C-40.274 42.418 -40.191 40.967 -40.108 39.517 C-40.07 38.799 -40.032 38.082 -39.993 37.342 C-39.333 26.071 -35.706 16.786 -27.346 8.927 C-19.256 2.473 -10.179 0.089 0 0 Z M17.559 22.309 C14.479 22.365 11.4 22.393 8.32 22.421 C6.339 22.457 4.358 22.494 2.377 22.532 C1.467 22.537 0.558 22.541 -0.379 22.546 C-5.9 22.694 -9.174 23.47 -13.533 27.177 C-17.491 32.311 -18.677 35.985 -18.658 42.365 C-18.661 43.245 -18.664 44.125 -18.666 45.032 C-18.533 47.177 -18.533 47.177 -17.533 48.177 C-14.795 48.272 -12.081 48.303 -9.342 48.291 C-8.483 48.291 -7.625 48.291 -6.74 48.291 C-3.889 48.29 -1.037 48.282 1.814 48.275 C3.786 48.273 5.757 48.271 7.729 48.27 C12.929 48.267 18.129 48.257 23.329 48.246 C28.63 48.235 33.932 48.231 39.234 48.226 C49.645 48.215 60.056 48.198 70.467 48.177 C72.32 41.366 72.089 36.096 68.677 29.939 C66.226 26.373 63.517 24.527 59.467 23.177 C56.413 22.84 53.343 22.741 50.275 22.603 C49.348 22.56 48.421 22.518 47.466 22.474 C37.492 22.068 27.536 22.11 17.559 22.309 Z M-114.916 75.29 C-117.165 79.304 -117.278 82.828 -117.408 87.365 C-117.455 88.184 -117.501 89.003 -117.549 89.847 C-117.639 91.955 -117.596 94.068 -117.533 96.177 C-115.533 98.177 -115.533 98.177 -113.466 98.427 C-113.036 98.426 -113.036 98.426 -110.858 98.426 C-109.866 98.43 -108.874 98.435 -107.851 98.44 C-107.303 98.437 -107.303 98.437 -104.525 98.424 C-103.945 98.425 -103.945 98.425 -101.009 98.432 C-97.78 98.436 -94.55 98.432 -91.32 98.424 C-87.841 98.417 -84.362 98.422 -80.883 98.426 C-74.063 98.431 -67.243 98.425 -60.424 98.416 C-52.488 98.405 -44.553 98.406 -36.618 98.406 C-22.464 98.406 -8.309 98.397 5.845 98.383 C19.593 98.369 33.34 98.362 47.088 98.362 C47.934 98.362 48.781 98.362 49.653 98.362 C50.076 98.362 50.076 98.362 52.214 98.363 C67.847 98.363 83.479 98.357 99.111 98.348 C104.648 98.345 110.184 98.344 115.721 98.344 C122.464 98.343 129.207 98.339 135.951 98.33 C139.394 98.325 142.837 98.322 146.28 98.323 C150.006 98.324 153.732 98.318 157.458 98.311 C158.556 98.312 159.653 98.314 160.785 98.315 C161.777 98.312 162.769 98.309 163.791 98.306 C164.652 98.305 165.512 98.304 166.399 98.304 C168.467 98.177 168.467 98.177 170.467 97.177 C171.073 79.452 171.073 79.452 166.029 73.115 C162.606 70.526 160.132 70.052 155.963 70.046 C155.035 70.042 154.106 70.038 153.15 70.034 C152.128 70.035 151.107 70.036 150.055 70.037 C148.971 70.034 147.887 70.031 146.77 70.028 C143.12 70.019 139.469 70.017 135.819 70.016 C133.209 70.011 130.6 70.006 127.99 70.001 C120.886 69.987 113.783 69.981 106.68 69.977 C102.245 69.974 97.809 69.97 93.374 69.965 C81.095 69.953 68.816 69.943 56.537 69.939 C55.751 69.939 54.965 69.939 54.155 69.939 C53.761 69.939 53.761 69.939 51.767 69.938 C50.171 69.938 48.574 69.937 46.977 69.937 C46.581 69.937 46.581 69.937 44.577 69.936 C31.746 69.932 18.915 69.915 6.084 69.891 C-7.089 69.868 -20.261 69.855 -33.434 69.854 C-40.83 69.853 -48.227 69.847 -55.623 69.829 C-62.58 69.812 -69.537 69.811 -76.494 69.819 C-79.048 69.82 -81.603 69.816 -84.158 69.806 C-87.643 69.793 -91.128 69.799 -94.613 69.81 C-95.626 69.801 -96.639 69.793 -97.682 69.785 C-104.54 69.833 -109.613 70.587 -114.916 75.29 Z M-95.533 120.177 C-94.352 139.415 -92.842 158.583 -90.924 177.763 C-90.674 180.306 -90.423 182.848 -90.174 185.391 C-89.65 190.715 -89.124 196.039 -88.596 201.363 C-87.774 209.641 -86.959 217.92 -86.145 226.199 C-86.112 226.542 -86.112 226.542 -85.941 228.277 C-85.67 231.032 -85.4 233.787 -85.129 236.543 C-84.728 240.623 -84.327 244.704 -83.925 248.784 C-81.871 269.661 -79.856 290.54 -77.908 311.427 C-77.795 312.644 -77.681 313.862 -77.563 315.116 C-77.348 317.418 -77.134 319.72 -76.92 322.023 C-76.725 324.122 -76.528 326.222 -76.33 328.321 C-75.856 333.392 -75.434 338.461 -75.085 343.542 C-75.009 344.581 -74.933 345.62 -74.854 346.69 C-74.714 348.633 -74.586 350.577 -74.475 352.522 C-73.946 359.639 -72.211 365.931 -67.604 371.517 C-67.283 371.78 -67.283 371.78 -65.658 373.115 C-65.022 373.66 -64.385 374.205 -63.729 374.767 C-58.935 377.846 -54.292 378.428 -48.684 378.438 C-48.02 378.442 -47.356 378.445 -46.671 378.449 C-44.458 378.46 -42.245 378.456 -40.032 378.452 C-38.44 378.456 -36.848 378.461 -35.256 378.467 C-30.939 378.481 -26.623 378.481 -22.307 378.479 C-18.699 378.478 -15.091 378.482 -11.483 378.487 C-2.966 378.498 5.55 378.499 14.066 378.493 C22.839 378.487 31.611 378.499 40.384 378.52 C47.927 378.538 55.469 378.544 63.011 378.541 C67.511 378.539 72.011 378.541 76.511 378.555 C80.746 378.568 84.98 378.566 89.215 378.553 C90.764 378.551 92.313 378.553 93.862 378.562 C111.397 378.648 111.397 378.648 118.771 373.599 C119.289 373.047 119.808 372.495 120.342 371.927 C120.875 371.386 121.409 370.844 121.959 370.286 C125.978 364.664 126.979 359.164 127.459 352.443 C127.494 352.018 127.494 352.018 127.673 349.869 C127.826 348.025 127.974 346.181 128.116 344.337 C128.508 339.275 128.94 334.217 129.365 329.157 C129.453 328.096 129.541 327.035 129.632 325.942 C130.524 315.262 131.577 304.599 132.646 293.936 C134.398 276.463 136.04 258.986 137.529 241.49 C138.738 227.291 140.027 213.105 141.467 198.927 C141.507 198.525 141.507 198.525 141.714 196.49 C141.878 194.87 142.043 193.251 142.207 191.631 C142.248 191.229 142.248 191.229 142.455 189.193 C142.537 188.387 142.619 187.581 142.703 186.751 C143.626 177.644 144.515 168.533 145.39 159.42 C145.563 157.627 145.736 155.835 145.911 154.042 C146.754 145.376 147.553 136.709 148.142 128.021 C148.23 126.723 148.318 125.426 148.409 124.089 C148.428 123.128 148.447 122.167 148.467 121.177 C146.522 119.232 143.566 120.054 140.977 120.048 C140.035 120.051 139.092 120.054 138.121 120.057 C137.624 120.056 137.624 120.056 135.112 120.054 C131.756 120.053 128.401 120.058 125.046 120.063 C122.652 120.064 120.258 120.064 117.864 120.063 C112.695 120.063 107.527 120.066 102.358 120.071 C94.885 120.079 87.412 120.082 79.94 120.083 C67.816 120.085 55.693 120.092 43.57 120.102 C31.791 120.111 20.012 120.118 8.232 120.122 C7.87 120.122 7.87 120.122 6.034 120.123 C2.394 120.124 -1.246 120.125 -4.886 120.127 C-35.102 120.137 -65.318 120.155 -95.533 120.177 Z " fill="currentColor" transform="translate(228.533447265625,54.822998046875)"/>
<path d="M0 0 C3.494 2.75 5.196 4.679 6 9 C6.149 10.48 6.26 11.965 6.341 13.451 C6.367 13.894 6.367 13.894 6.494 16.137 C6.545 17.103 6.596 18.068 6.648 19.063 C6.705 20.087 6.763 21.11 6.821 22.165 C7.01 25.562 7.192 28.959 7.375 32.355 C7.505 34.734 7.636 37.112 7.767 39.49 C8.042 44.493 8.314 49.495 8.584 54.498 C8.926 60.839 9.274 67.179 9.623 73.518 C9.894 78.444 10.163 83.37 10.431 88.296 C10.558 90.628 10.686 92.96 10.814 95.293 C11.637 110.329 12.329 125.366 12.897 140.414 C12.993 142.812 13.101 145.209 13.216 147.606 C13.634 157.007 13.634 157.007 10.625 160.812 C7.029 163.809 4.839 164.394 0.105 164.359 C-3.616 163.724 -5.403 161.66 -8 159 C-9.32 156.359 -9.268 154.191 -9.433 151.236 C-9.504 150.013 -9.574 148.791 -9.647 147.531 C-9.72 146.174 -9.794 144.818 -9.867 143.461 C-9.947 142.047 -10.027 140.633 -10.107 139.219 C-10.324 135.399 -10.534 131.579 -10.744 127.759 C-10.963 123.781 -11.186 119.803 -11.409 115.826 C-11.904 106.977 -12.391 98.127 -12.875 89.277 C-12.996 87.081 -13.116 84.885 -13.237 82.689 C-13.725 73.814 -14.208 64.938 -14.688 56.062 C-14.748 54.945 -14.808 53.828 -14.871 52.677 C-15.153 47.452 -15.428 42.227 -15.689 37 C-15.898 32.835 -16.144 28.674 -16.409 24.511 C-16.529 22.423 -16.65 20.334 -16.77 18.246 C-16.837 17.287 -16.905 16.328 -16.975 15.341 C-17.307 9.175 -16.588 6.019 -12.5 1.25 C-8.793 -1.839 -4.368 -1.252 0 0 Z " fill="currentColor" transform="translate(198,220)"/>
<path d="M0 0 C2.995 2.246 3.816 3.449 5 7 C5.098 9.005 5.135 11.014 5.14 13.022 C5.143 13.651 5.143 13.651 5.158 16.837 C5.159 18.235 5.16 19.633 5.161 21.031 C5.166 22.501 5.171 23.971 5.176 25.441 C5.189 29.437 5.196 33.433 5.2 37.429 C5.203 39.925 5.207 42.421 5.212 44.917 C5.225 52.726 5.235 60.535 5.239 68.344 C5.243 77.36 5.261 86.376 5.29 95.392 C5.312 102.36 5.322 109.328 5.323 116.297 C5.324 120.459 5.33 124.621 5.348 128.784 C5.364 132.699 5.366 136.614 5.358 140.529 C5.357 141.965 5.361 143.402 5.371 144.838 C5.384 146.8 5.376 148.762 5.367 150.724 C5.369 151.822 5.37 152.92 5.372 154.051 C4.946 157.428 4.017 159.279 2 162 C-1.419 164.331 -3.41 165 -7.562 165 C-11.64 163.814 -13.316 162.237 -16 159 C-17.358 156.284 -17.135 154.147 -17.147 151.105 C-17.154 149.849 -17.161 148.593 -17.169 147.299 C-17.172 145.899 -17.174 144.499 -17.177 143.099 C-17.183 141.63 -17.19 140.162 -17.197 138.694 C-17.214 134.697 -17.225 130.701 -17.233 126.705 C-17.238 124.209 -17.244 121.713 -17.251 119.217 C-17.27 111.407 -17.284 103.598 -17.292 95.789 C-17.302 86.772 -17.328 77.756 -17.369 68.74 C-17.399 61.773 -17.414 54.806 -17.417 47.838 C-17.419 43.676 -17.428 39.515 -17.453 35.353 C-17.477 31.436 -17.481 27.519 -17.471 23.602 C-17.47 22.166 -17.477 20.73 -17.49 19.295 C-17.508 17.331 -17.499 15.367 -17.488 13.403 C-17.49 12.305 -17.493 11.207 -17.495 10.075 C-16.877 6.234 -15.373 4.046 -13 1 C-8.889 -1.887 -4.676 -1.203 0 0 Z " fill="currentColor" transform="translate(261,220)"/>
<path d="M0 0 C3.47 2.236 5.562 4.136 7 8 C7.091 11.149 7.091 11.149 6.863 14.945 C6.824 15.646 6.785 16.347 6.745 17.069 C6.611 19.421 6.462 21.773 6.312 24.125 C6.214 25.814 6.116 27.503 6.02 29.192 C5.695 34.795 5.348 40.398 5 46 C4.562 53.098 4.126 60.196 3.692 67.294 C3.564 69.394 3.435 71.493 3.306 73.593 C2.201 91.587 1.347 109.585 0.646 127.599 C0.477 131.963 0.296 136.326 0.102 140.688 C0.036 142.188 -0.027 143.687 -0.086 145.187 C-0.166 147.13 -0.266 149.073 -0.367 151.016 C-0.417 152.065 -0.467 153.115 -0.519 154.196 C-1.073 157.426 -2.071 159.365 -4 162 C-8.026 164.684 -11.268 164.806 -16 164 C-19.573 162.076 -21.696 159.912 -23 156 C-23.366 148.142 -22.889 140.246 -22.449 132.398 C-22.42 131.853 -22.42 131.853 -22.272 129.092 C-22.08 125.519 -21.884 121.947 -21.688 118.375 C-21.481 114.569 -21.276 110.763 -21.071 106.957 C-20.929 104.323 -20.787 101.689 -20.644 99.055 C-20.142 89.756 -19.666 80.457 -19.203 71.156 C-19.073 68.57 -18.944 65.983 -18.814 63.397 C-18.628 59.689 -18.443 55.98 -18.262 52.272 C-17.936 45.579 -17.586 38.888 -17.189 32.199 C-17.061 30.034 -16.939 27.869 -16.823 25.703 C-16.647 22.532 -16.439 19.364 -16.223 16.195 C-16.175 15.252 -16.127 14.308 -16.077 13.336 C-15.617 7.267 -14.504 4.184 -10 0 C-6.183 -1.272 -3.913 -0.877 0 0 Z " fill="currentColor" transform="translate(322,220)"/>
</svg>
