<?xml version="1.0" encoding="UTF-8"?>
<!-- Generator: visioncortex VTracer 0.6.12 -->
<svg viewBox="0 0 512 512" version="1.1" xmlns="http://www.w3.org/2000/svg" width="512" height="512">
<path d="M0 0 C12.999 10.449 22.976 24.931 25.092 41.748 C26.61 60.077 22.229 75.079 11.174 89.619 C1.403 101.068 -12.661 109.833 -27.892 111.252 C-48.342 112.632 -64.465 107.562 -80.22 94.205 C-91.229 83.937 -98.31 69.752 -98.861 54.631 C-99.186 35.919 -93.858 19.545 -80.658 5.768 C-58.54 -15.423 -24.837 -18.465 0 0 Z M-71.033 21.018 C-78.754 30.352 -82.74 42.647 -81.658 54.768 C-79.501 65.633 -75.25 76.424 -66.658 83.768 C-57.538 89.826 -49.023 94.176 -37.783 94.018 C-37.079 94.01 -36.376 94.003 -35.652 93.995 C-21.122 93.695 -11.812 88.01 -1.658 77.768 C4.988 70.124 7.716 60.411 8.655 50.455 C7.518 37.041 2.344 24.705 -7.947 15.783 C-27.964 0.914 -53.636 2.841 -71.033 21.018 Z " fill="currentColor" transform="translate(197.65771484375,130.232421875)"/>
<path d="M0 0 C13.347 10.6 24.115 24.513 26.535 41.828 C28.142 58.742 24.713 74.615 14 88 C13.426 88.761 12.853 89.521 12.262 90.305 C3.47 101.186 -10.177 108.885 -24 111 C-42.836 112.188 -58.348 108.883 -73.672 97.297 C-74.11 96.869 -74.548 96.441 -75 96 C-75 95.34 -75 94.68 -75 94 C-75.66 94 -76.32 94 -77 94 C-87.265 82.72 -93.758 70.377 -95 55 C-95.071 54.16 -95.142 53.319 -95.215 52.453 C-95.91 35.447 -88.604 20.152 -77.609 7.625 C-73.763 3.755 -69.667 0.798 -65 -2 C-64.63 -2.235 -64.63 -2.235 -62.758 -3.426 C-43.573 -14.998 -18.175 -12.189 0 0 Z M-66.875 21.645 C-74.508 30.105 -78.219 41.69 -78 53 C-76.399 66.768 -70.871 77.306 -60 86 C-48.244 93.32 -37.069 95.551 -23.562 92.875 C-12.531 90.111 -3.46 83.879 2.758 74.289 C9.183 62.959 11.291 50.38 7.875 37.625 C3.366 25.22 -4.617 16.396 -16.438 10.5 C-34.459 2.912 -53.076 8.442 -66.875 21.645 Z " fill="currentColor" transform="translate(387,133)"/>
<path d="M0 0 C27.741 -0.68 53.66 8.118 74.266 26.828 C82.62 34.895 90.567 44.371 95.23 55.133 C95.23 56.123 95.23 57.113 95.23 58.133 C97.902 55.758 99.271 53.319 100.855 50.133 C104.239 43.785 108.475 38.504 113.23 33.133 C113.501 32.82 113.501 32.82 114.871 31.238 C126.872 18.298 144.932 8.424 162.23 5.133 C163.204 4.93 164.177 4.728 165.18 4.52 C194.199 -0.435 226.846 1.68 251.457 19.066 C252.372 19.748 253.288 20.43 254.23 21.133 C255.104 21.784 255.978 22.435 256.879 23.105 C267.685 31.468 275.346 40.448 282.23 52.133 C282.725 52.954 283.22 53.775 283.73 54.621 C293.765 72.777 293.296 93.012 293.23 113.133 C293.23 113.493 293.23 113.493 293.227 115.318 C293.216 120.196 293.146 125.069 293.043 129.945 C293.025 131.214 293.008 132.483 292.99 133.79 C292.952 134.961 292.914 136.133 292.875 137.34 C292.848 138.366 292.82 139.392 292.792 140.448 C292.091 143.798 290.868 145.018 288.23 147.133 C285.491 147.861 282.998 147.713 280.23 147.133 C277.799 145.263 276.59 143.851 275.23 141.133 C275.156 138.786 275.147 136.438 275.168 134.09 C275.177 132.619 275.186 131.149 275.194 129.678 C275.201 128.906 275.207 128.133 275.213 127.337 C275.635 68.793 275.635 68.793 256.23 47.133 C255.479 46.287 254.727 45.442 253.953 44.57 C241.447 31.274 223.651 22.719 205.267 21.972 C203.775 21.952 202.282 21.938 200.789 21.93 C199.985 21.924 199.181 21.918 198.352 21.912 C196.654 21.903 194.955 21.896 193.257 21.893 C190.7 21.883 188.144 21.852 185.588 21.82 C162.616 21.671 143.565 28.73 126.609 44.598 C106.261 66.282 105.763 90.946 105.87 119.026 C105.879 122.72 105.857 126.412 105.832 130.105 C105.845 131.239 105.859 132.372 105.872 133.54 C105.799 141.344 105.799 141.344 102.912 145.349 C99.367 147.707 97.411 147.805 93.23 147.133 C90.552 145.807 90.552 145.807 88.23 143.133 C87.476 139.36 87.557 135.625 87.594 131.789 C87.583 130.669 87.573 129.549 87.562 128.395 C87.533 124.807 87.536 121.221 87.543 117.633 C87.534 114.074 87.518 110.515 87.492 106.956 C87.477 104.744 87.473 102.531 87.481 100.318 C87.401 78.137 80.295 57.995 64.574 42.18 C46.233 24.826 23.423 19.31 -1.145 19.57 C-1.999 19.574 -2.853 19.578 -3.733 19.582 C-16.323 19.664 -27.987 20.313 -39.77 25.133 C-40.878 25.579 -41.987 26.025 -43.129 26.484 C-61.611 34.881 -76.154 50.162 -83.34 69.113 C-87.037 79.548 -87.9 88.691 -87.91 99.672 C-87.928 102.133 -87.948 104.594 -87.969 107.055 C-87.998 110.917 -88.02 114.779 -88.02 118.642 C-88.023 122.381 -88.058 126.12 -88.098 129.859 C-88.091 131.015 -88.084 132.17 -88.076 133.36 C-88.212 142.272 -88.212 142.272 -91.18 145.358 C-95.221 148.128 -96.952 147.897 -101.77 147.133 C-104.335 144.611 -105.623 142.93 -106.277 139.368 C-106.281 138.365 -106.284 137.361 -106.287 136.327 C-106.3 135.181 -106.312 134.035 -106.325 132.854 C-106.317 131.621 -106.309 130.388 -106.301 129.117 C-106.305 127.833 -106.308 126.548 -106.312 125.225 C-106.318 122.501 -106.31 119.778 -106.291 117.055 C-106.268 113.615 -106.282 110.177 -106.305 106.737 C-106.503 72.143 -106.503 72.143 -97.895 56.633 C-97.546 55.974 -97.197 55.315 -96.838 54.636 C-91.867 45.388 -85.976 37.774 -78.77 30.133 C-78.155 29.442 -77.54 28.751 -76.906 28.039 C-63.621 13.702 -44.493 6.063 -25.77 2.133 C-25.371 2.039 -25.371 2.039 -23.352 1.566 C-19.61 0.938 -15.869 0.761 -12.082 0.57 C-11.272 0.529 -10.462 0.488 -9.627 0.446 C-6.418 0.29 -3.209 0.154 0 0 Z " fill="currentColor" transform="translate(161.76953125,245.8671875)"/>
</svg>
