<?xml version="1.0" encoding="UTF-8"?>
<!-- Generator: visioncortex VTracer 0.6.12 -->
<svg viewBox="0 0 512 512" version="1.1" xmlns="http://www.w3.org/2000/svg" width="512" height="512">
<path d="M0 0 C7.004 5.193 10.869 12.424 14.905 19.973 C16.06 22.111 17.248 24.228 18.445 26.344 C22.439 33.416 26.313 40.512 29.875 47.812 C33.449 55.136 37.483 62.158 41.569 69.207 C45.007 75.171 48.189 81.206 51.203 87.395 C53.311 91.698 55.583 95.863 58 100 C60.773 104.751 63.329 109.56 65.75 114.5 C69.284 121.693 73.083 128.719 76.944 135.74 C81.542 144.119 86.028 152.554 90.5 161 C99.361 177.724 108.389 194.347 117.628 210.865 C120.436 215.913 123.044 221.037 125.582 226.227 C127.073 229.142 128.698 231.938 130.375 234.75 C133.118 239.367 135.574 244.058 137.938 248.875 C140.94 254.982 144.18 260.886 147.598 266.773 C152.752 275.753 157.574 284.924 162.437 294.063 C163.376 295.828 164.318 297.591 165.267 299.351 C171.994 311.855 176.422 324.393 172.801 338.559 C168.57 351.457 160.396 361.77 148.266 368.098 C140.631 371.138 133.886 371.288 125.704 371.267 C124.345 371.271 122.985 371.276 121.626 371.281 C117.901 371.293 114.175 371.293 110.45 371.291 C106.428 371.29 102.406 371.301 98.384 371.311 C90.508 371.327 82.631 371.333 74.755 371.334 C68.352 371.335 61.948 371.339 55.544 371.346 C37.38 371.363 19.216 371.372 1.051 371.371 C0.072 371.371 -0.907 371.371 -1.915 371.371 C-2.405 371.371 -2.405 371.371 -4.885 371.37 C-20.765 371.37 -36.646 371.389 -52.526 371.417 C-68.84 371.446 -85.155 371.459 -101.469 371.458 C-110.625 371.457 -119.78 371.463 -128.936 371.484 C-136.732 371.502 -144.528 371.507 -152.324 371.493 C-156.299 371.487 -160.274 371.486 -164.249 371.504 C-167.894 371.52 -171.538 371.517 -175.182 371.499 C-177.113 371.495 -179.045 371.51 -180.976 371.526 C-194.787 371.417 -205.379 366.538 -215.312 357.062 C-223.358 348.617 -227.418 336.885 -227.137 325.207 C-226.478 314.578 -221.939 306.212 -217 297 C-216.499 296.061 -215.998 295.121 -215.481 294.153 C-211.966 287.57 -208.42 281.004 -204.864 274.442 C-201.819 268.819 -198.783 263.192 -195.75 257.562 C-195.457 257.019 -195.457 257.019 -193.975 254.269 C-190.572 247.948 -187.204 241.61 -183.875 235.25 C-177.111 222.342 -170.089 209.574 -163.031 196.824 C-161.646 194.32 -160.26 191.817 -158.875 189.312 C-158.53 188.689 -158.185 188.066 -157.83 187.423 C-153.324 179.274 -148.894 171.091 -144.588 162.834 C-138.044 150.305 -131.242 137.909 -124.25 125.625 C-120.938 119.803 -117.904 113.88 -114.953 107.869 C-112.202 102.304 -109.187 96.932 -106.055 91.574 C-101.226 83.258 -96.792 74.727 -92.375 66.188 C-87.375 56.565 -82.247 47.02 -77.02 37.52 C-74.92 33.701 -72.861 29.864 -70.824 26.012 C-70.299 25.026 -69.774 24.041 -69.232 23.026 C-68.237 21.157 -67.249 19.284 -66.271 17.406 C-59.698 5.132 -51.012 -2.759 -37.5 -6.938 C-23.659 -10.173 -11.962 -7.21 0 0 Z M-42.274 21.489 C-45.267 25.526 -47.54 29.784 -49.688 34.312 C-52.579 40.25 -55.637 46.057 -58.875 51.812 C-62.303 57.912 -65.637 64.048 -68.875 70.25 C-72.444 77.085 -76.1 83.867 -79.812 90.625 C-84.196 98.61 -88.445 106.656 -92.625 114.75 C-96.677 122.592 -100.811 130.369 -105.133 138.066 C-113.198 152.45 -120.885 167.047 -128.668 181.585 C-128.98 182.169 -129.293 182.753 -129.615 183.355 C-130.247 184.536 -130.88 185.717 -131.512 186.898 C-136.917 196.995 -142.356 207.072 -147.82 217.137 C-149.968 221.094 -152.108 225.055 -154.242 229.02 C-160.122 239.932 -166.111 250.769 -172.25 261.538 C-176.415 268.879 -180.378 276.311 -184.223 283.825 C-186.844 288.92 -189.669 293.835 -192.646 298.73 C-194.278 301.466 -195.729 304.262 -197.125 307.125 C-199.901 312.816 -199.901 312.816 -201.23 315.293 C-203.978 320.421 -205.698 324.704 -204.441 330.637 C-202.057 338.403 -198.136 342.918 -191.221 347.068 C-188.497 348.211 -186.424 348.253 -183.47 348.257 C-182.338 348.264 -181.207 348.27 -180.041 348.277 C-178.797 348.274 -177.554 348.271 -176.273 348.267 C-174.938 348.271 -173.604 348.276 -172.27 348.281 C-168.6 348.293 -164.931 348.293 -161.261 348.291 C-157.305 348.29 -153.348 348.301 -149.392 348.311 C-141.638 348.328 -133.885 348.333 -126.132 348.334 C-119.83 348.335 -113.527 348.339 -107.225 348.346 C-89.36 348.363 -71.495 348.372 -53.629 348.371 C-52.666 348.371 -51.703 348.371 -50.71 348.371 C-49.745 348.371 -48.781 348.37 -47.787 348.37 C-32.156 348.37 -16.526 348.389 -0.896 348.417 C15.151 348.446 31.197 348.459 47.243 348.458 C56.253 348.457 65.263 348.463 74.273 348.484 C81.945 348.502 89.617 348.507 97.289 348.493 C101.203 348.486 105.117 348.486 109.031 348.504 C112.616 348.519 116.201 348.517 119.786 348.499 C121.693 348.495 123.599 348.51 125.506 348.526 C133.385 348.462 138.844 347.514 145.023 342.289 C149.664 336.576 151.671 331.32 151.504 323.891 C150.431 317.738 147.06 312.367 144 307 C143.832 306.703 143.832 306.703 142.98 305.2 C141.634 302.831 140.281 300.466 138.912 298.11 C136.801 294.467 134.851 290.782 133 287 C130.271 281.432 127.242 276.071 124.125 270.715 C119.037 261.894 114.35 252.863 109.688 243.812 C105.692 236.089 101.625 228.43 97.307 220.883 C93.807 214.735 90.553 208.466 87.292 202.189 C83.981 195.832 80.578 189.531 77.125 183.25 C72.761 175.307 68.533 167.302 64.375 159.25 C59.503 149.822 54.468 140.508 49.267 131.258 C38.034 111.231 38.034 111.231 34.062 103.125 C30.892 96.657 27.413 90.363 23.95 84.048 C19.886 76.636 15.873 69.198 11.875 61.75 C6.664 52.056 1.426 42.38 -3.991 32.799 C-4.91 31.16 -5.806 29.509 -6.699 27.855 C-10.262 21.468 -13.833 17.389 -21 15 C-28.714 14.009 -36.957 15.277 -42.274 21.489 Z " fill="currentColor" transform="translate(282,75)"/>
<path d="M0 0 C3.403 2.836 5.736 4.962 6.314 9.425 C7.207 21.177 7.121 32.909 7.055 44.688 C7.049 45.804 7.043 46.92 7.037 48.069 C7.006 53.957 6.967 59.845 6.923 65.733 C6.879 71.803 6.863 77.873 6.854 83.944 C6.841 88.63 6.806 93.315 6.766 98.001 C6.75 100.24 6.743 102.479 6.744 104.718 C6.745 107.842 6.714 110.963 6.675 114.086 C6.682 115.005 6.689 115.925 6.697 116.872 C6.612 121.208 6.372 124.099 3.585 127.535 C0.005 130.948 -2.433 132.288 -7.375 132.375 C-11.963 132.247 -14.568 131.187 -18 128 C-21.312 122.009 -21.429 116.774 -21.388 110.019 C-21.393 108.936 -21.399 107.852 -21.404 106.735 C-21.417 103.166 -21.409 99.597 -21.398 96.027 C-21.4 93.541 -21.403 91.054 -21.407 88.567 C-21.412 83.361 -21.405 78.156 -21.391 72.95 C-21.377 67.606 -21.377 62.263 -21.391 56.92 C-21.409 50.46 -21.411 44.001 -21.401 37.541 C-21.399 35.082 -21.402 32.622 -21.409 30.162 C-21.417 26.725 -21.405 23.289 -21.388 19.851 C-21.394 18.837 -21.4 17.822 -21.407 16.776 C-21.359 11.432 -21.036 7.6 -18 3 C-12.184 -2.517 -7.336 -2.694 0 0 Z " fill="currentColor" transform="translate(263,189)"/>
<path d="M0 0 C6.191 2.858 9.977 7.342 12.414 13.691 C14.123 19.468 13.501 23.864 11.289 29.504 C7.999 34.792 3.533 39.278 -2.461 41.316 C-9.814 42.319 -16.432 41.892 -22.461 37.316 C-26.938 33.279 -29.536 29.382 -30.461 23.316 C-30.533 16.952 -29.706 11.247 -25.461 6.316 C-17.734 -0.446 -10.328 -2.869 0 0 Z " fill="currentColor" transform="translate(264.4609375,347.68359375)"/>
</svg>
