<?xml version="1.0" encoding="UTF-8"?>
<!-- Generator: visioncortex VTracer 0.6.12 -->
<svg viewBox="0 0 512 512" version="1.1" xmlns="http://www.w3.org/2000/svg" width="512" height="512">
<path d="M0 0 C12.82 4.325 24.629 10.832 35.23 19.191 C35.988 19.721 36.746 20.251 37.527 20.797 C38.089 21.257 38.651 21.717 39.23 22.191 C39.23 22.851 39.23 23.511 39.23 24.191 C39.782 24.392 40.334 24.594 40.902 24.801 C44.157 26.745 46.2 29.48 48.48 32.441 C48.963 33.065 49.445 33.69 49.942 34.333 C62.943 51.511 72.335 73.213 71.66 95.168 C70.88 98.844 68.95 100.666 66.23 103.191 C63.13 104.742 60.652 104.481 57.23 104.191 C53.696 101.992 51.73 100.042 50.23 96.191 C49.897 93.579 49.636 91 49.418 88.379 C47.236 67.299 37.574 50.05 21.879 36.102 C8.659 25.428 -6.493 18.774 -23.52 17.879 C-28.861 17.47 -31.151 16.096 -34.77 12.191 C-36.545 8.64 -36.225 4.684 -35.082 0.941 C-27.526 -9.134 -9.853 -2.877 0 0 Z " fill="currentColor" transform="translate(374.76953125,58.80859375)"/>
<path d="M0 0 C8.274 6.261 13.375 14.068 18.75 22.812 C20.639 25.817 22.539 28.814 24.438 31.812 C27.497 36.653 30.553 41.495 33.594 46.348 C39.229 55.329 44.94 64.262 50.717 73.153 C51.486 74.339 52.254 75.525 53.02 76.712 C54.095 78.376 55.176 80.036 56.258 81.695 C56.883 82.658 57.509 83.621 58.153 84.614 C59.75 86.812 59.75 86.812 61.75 87.812 C61.721 87.413 61.721 87.413 61.574 85.391 C61.097 73.768 63.901 65.716 71.5 56.875 C79.677 48.455 88.119 44.811 99.75 44.562 C112.655 44.822 121.78 49.718 130.75 58.812 C137.676 67.378 138.824 78.665 140.711 89.195 C140.985 90.697 141.261 92.198 141.537 93.7 C142.26 97.645 142.977 101.592 143.691 105.539 C144.96 112.551 146.238 119.561 147.523 126.57 C147.662 127.326 147.8 128.081 147.942 128.859 C149.807 139.022 151.824 149.133 154.076 159.219 C155.78 166.851 157.264 174.509 158.636 182.207 C159.01 184.306 159.391 186.404 159.773 188.502 C160.456 192.268 161.111 196.039 161.75 199.812 C161.877 200.556 162.003 201.3 162.134 202.067 C164.552 218.429 164.022 236.837 159.75 252.812 C159.429 254.156 159.109 255.5 158.789 256.844 C153.702 276.978 142.968 295.515 128.793 310.594 C126.75 312.812 126.75 312.812 124.707 315.391 C106.657 337.728 75.254 350.43 47.75 354.812 C46.912 354.947 46.074 355.081 45.211 355.219 C24.309 357.878 4.458 354.743 -15.25 347.812 C-15.762 347.634 -15.762 347.634 -18.355 346.73 C-27.349 343.296 -35.289 338.151 -43.25 332.812 C-44.061 332.271 -44.872 331.73 -45.707 331.172 C-58.808 321.653 -69.485 308.917 -78.81 295.817 C-81.252 292.417 -83.789 289.089 -86.312 285.75 C-90.114 280.689 -93.886 275.607 -97.625 270.5 C-98.067 269.896 -98.509 269.292 -98.965 268.67 C-100.95 265.959 -102.933 263.246 -104.915 260.533 C-111.294 251.807 -117.709 243.128 -124.425 234.657 C-128.343 229.712 -132.149 224.692 -135.903 219.621 C-137.506 217.469 -139.127 215.331 -140.746 213.191 C-141.998 211.524 -143.249 209.856 -144.5 208.188 C-145.091 207.412 -145.682 206.636 -146.29 205.837 C-155.412 193.605 -158.449 182.951 -157.25 167.812 C-155.512 159.043 -149.881 152.104 -142.684 146.988 C-138.659 144.511 -134.666 142.499 -130.25 140.812 C-130.602 140.351 -130.954 139.89 -131.316 139.414 C-141.958 125.355 -149.358 114.823 -146.941 96.469 C-144.424 85.241 -138.169 77.666 -128.82 71.359 C-124.517 68.769 -120.358 66.812 -115.25 66.812 C-115.66 66.088 -116.07 65.364 -116.492 64.617 C-117.031 63.65 -117.57 62.684 -118.125 61.688 C-118.659 60.736 -119.192 59.785 -119.742 58.805 C-124.106 50.145 -124.628 41 -122.125 31.625 C-118.419 21.008 -112.2 12.787 -102.188 7.5 C-92.437 3.123 -81.854 1.935 -71.562 5.375 C-65.694 7.794 -60.463 11.223 -55.25 14.812 C-54.984 14.07 -54.719 13.328 -54.445 12.562 C-50.936 4.489 -43.872 -0.828 -35.941 -4.156 C-23.835 -8.34 -10.713 -7.088 0 0 Z M-36.633 21.316 C-40.089 26.331 -40.167 31.946 -39.25 37.812 C-37.04 44.442 -32.883 49.874 -28.742 55.418 C-18.156 69.695 -8.566 84.781 1.304 99.556 C2.547 101.417 3.791 103.276 5.035 105.136 C26.409 137.088 26.409 137.088 25.75 143.812 C23.688 147.524 22.469 148.599 18.375 149.812 C13.938 149.812 12.449 149.303 8.75 146.812 C6.037 143.414 3.784 139.758 1.5 136.062 C0.167 133.962 -1.166 131.862 -2.5 129.762 C-3.143 128.739 -3.786 127.716 -4.449 126.662 C-6.745 123.029 -9.106 119.444 -11.5 115.875 C-11.694 115.585 -11.694 115.585 -12.676 114.115 C-18.672 105.168 -24.78 96.294 -31 87.5 C-33.276 84.268 -35.413 80.982 -37.5 77.625 C-40.334 73.117 -43.388 68.833 -46.562 64.562 C-50.323 59.501 -53.954 54.381 -57.438 49.125 C-57.85 48.506 -58.262 47.887 -58.686 47.25 C-60.628 44.319 -62.531 41.374 -64.371 38.379 C-68.799 31.327 -72.439 26.353 -80.695 24.164 C-86.039 23.298 -89.882 23.828 -94.562 26.574 C-98.52 29.478 -100.994 33.103 -102.25 37.812 C-103.246 46.536 -101 52.516 -95.586 59.348 C-94.604 60.528 -93.617 61.704 -92.625 62.875 C-88.005 68.478 -83.858 74.223 -79.909 80.313 C-76.737 85.171 -73.301 89.753 -69.723 94.316 C-66.865 97.972 -64.246 101.713 -61.719 105.602 C-59.445 109.024 -56.992 112.312 -54.562 115.625 C-51.877 119.327 -49.251 123.068 -46.625 126.812 C-42.178 133.139 -37.651 139.401 -33.062 145.625 C-32.474 146.425 -31.886 147.225 -31.28 148.05 C-28.699 151.549 -26.102 155.027 -23.398 158.434 C-22.586 159.466 -21.774 160.499 -20.938 161.562 C-20.24 162.424 -19.543 163.285 -18.824 164.172 C-16.869 167.452 -16.425 170.014 -16.25 173.812 C-19.187 179.281 -19.187 179.281 -22.25 180.812 C-26.559 181.052 -29.558 181.096 -33.25 178.812 C-34.571 177.307 -34.571 177.307 -35.73 175.539 C-36.168 174.885 -36.605 174.231 -37.055 173.558 C-37.511 172.858 -37.967 172.158 -38.438 171.438 C-39.417 169.974 -40.399 168.512 -41.383 167.051 C-41.868 166.328 -42.353 165.606 -42.853 164.862 C-46.857 158.989 -51.245 153.388 -55.609 147.781 C-61.924 139.656 -67.891 131.326 -73.791 122.895 C-79.258 115.093 -84.729 107.298 -90.668 99.844 C-91.749 98.455 -92.793 97.036 -93.801 95.594 C-96.808 91.304 -99.047 88.383 -104.25 86.812 C-109.481 86.195 -113.769 86.154 -118.625 88.312 C-123.487 92.943 -126.498 97.342 -127.438 104.125 C-127.051 113.403 -119.73 120.526 -114.162 127.423 C-111.282 131.023 -108.554 134.732 -105.812 138.438 C-102.258 143.179 -98.669 147.89 -95.016 152.555 C-89.601 159.479 -84.252 166.452 -79 173.5 C-74.468 179.572 -69.807 185.54 -65.122 191.495 C-56.419 202.609 -56.419 202.609 -55.75 207.375 C-56.348 211.488 -57.119 213.083 -60.25 215.812 C-64.967 217.099 -67.978 217.168 -72.25 214.812 C-74.317 212.624 -76.017 210.207 -77.75 207.75 C-78.813 206.288 -79.877 204.827 -80.941 203.367 C-81.487 202.613 -82.032 201.858 -82.594 201.081 C-85.232 197.467 -87.959 193.921 -90.688 190.375 C-94.084 185.953 -97.472 181.525 -100.82 177.066 C-101.405 176.292 -101.99 175.517 -102.592 174.719 C-103.711 173.234 -104.827 171.747 -105.937 170.256 C-111.843 162.449 -111.843 162.449 -116.582 161.195 C-122.296 160.601 -126.173 160.727 -131.25 163.812 C-135.238 167.614 -137.093 170.954 -137.562 176.5 C-137.366 185.5 -130.91 192.135 -125.67 198.943 C-123.519 201.775 -121.427 204.65 -119.329 207.521 C-113.47 215.536 -107.484 223.434 -101.363 231.25 C-97.076 236.73 -92.878 242.268 -88.718 247.844 C-84.562 253.411 -80.345 258.93 -76.116 264.442 C-72.354 269.352 -68.637 274.293 -64.938 279.25 C-44.326 306.797 -22.45 327.245 12.748 333.402 C41.336 337.308 71.921 330.456 95.023 312.945 C95.923 312.241 96.823 311.538 97.75 310.812 C98.691 310.088 99.632 309.364 100.602 308.617 C123.298 290.673 137.945 263.367 141.399 234.687 C142.541 222.083 141.584 209.838 139.562 197.375 C139.439 196.59 139.316 195.805 139.189 194.996 C135.926 174.265 131.724 153.69 127.597 133.117 C127.462 132.445 127.327 131.772 127.188 131.078 C126.514 127.718 125.838 124.359 125.158 121 C123.741 113.969 122.397 106.93 121.148 99.867 C120.885 98.392 120.621 96.918 120.357 95.444 C119.857 92.652 119.375 89.858 118.904 87.061 C118.68 85.805 118.456 84.548 118.225 83.254 C118.036 82.152 117.847 81.05 117.652 79.914 C115.972 74.137 112.694 70.15 107.75 66.812 C102.551 65.226 97.382 64.673 92.305 66.871 C86.865 70.184 83.52 73.654 81.75 79.812 C81.21 86.415 82.006 92.9 83.027 99.414 C83.158 100.294 83.289 101.174 83.424 102.081 C83.838 104.868 84.262 107.653 84.688 110.438 C87.867 131.254 87.867 131.254 88.637 140.688 C88.687 141.291 88.687 141.291 88.944 144.344 C88.572 150.987 85.137 156.193 81.75 161.812 C75.672 172.956 73.393 183.205 72.659 195.82 C72.275 200.999 71.683 204.066 67.75 207.812 C64.611 209.382 62.211 209.165 58.75 208.812 C56.05 206.833 54.097 205.251 53.287 201.894 C53.108 199.595 53.11 197.367 53.188 195.062 C53.205 194.225 53.222 193.387 53.24 192.524 C53.846 176.157 59.367 161.381 67.312 147.188 C68.75 143.812 68.75 143.812 68.113 141.082 C66.498 137.209 64.537 133.714 62.375 130.125 C61.931 129.382 61.488 128.638 61.031 127.872 C52.419 113.519 43.266 99.521 34.065 85.542 C28.398 76.928 22.863 68.251 17.481 59.455 C11.124 49.099 4.436 38.957 -2.25 28.812 C-2.454 28.5 -2.454 28.5 -3.486 26.918 C-7.126 21.373 -10.884 17.095 -17.25 14.812 C-25.235 13.591 -31.128 15.329 -36.633 21.316 Z " fill="currentColor" transform="translate(224.25,99.1875)"/>
<path d="M0 0 C11.344 7.608 21.187 18.096 25 31.5 C25.22 32.208 25.441 32.915 25.668 33.645 C27.201 39.025 28.116 44.045 25.75 49.25 C23.09 52.67 21.451 54.315 17.062 54.875 C13.599 54.451 11.777 53.583 9 51.5 C7.03 48.545 6.651 47.257 6.125 43.875 C4.298 34.34 0.409 26.93 -7 20.5 C-12.654 16.809 -18.121 14.447 -24.812 13.5 C-29.461 12.813 -32.438 11.595 -35.812 8.277 C-38.103 4.849 -37.703 2.529 -37 -1.5 C-35.24 -4.498 -33.738 -6.036 -30.812 -7.875 C-20.583 -10.148 -8.522 -5.352 0 0 Z " fill="currentColor" transform="translate(376,108.5)"/>
</svg>
