<?xml version="1.0" encoding="UTF-8"?>
<!-- Generator: visioncortex VTracer 0.6.12 -->
<svg viewBox="0 0 512 512" version="1.1" xmlns="http://www.w3.org/2000/svg" width="512" height="512">
<path d="M0 0 C3.929 1.046 7.623 2.505 11.375 4.062 C18.713 7.021 26.081 9.731 33.598 12.195 C46.525 16.443 59.286 21.133 72.062 25.812 C76.941 27.595 81.82 29.376 86.699 31.156 C87.286 31.37 87.286 31.37 90.254 32.454 C98.944 35.624 107.653 38.734 116.375 41.812 C123.645 44.397 130.893 47.022 138.062 49.875 C138.743 50.138 139.423 50.4 140.125 50.671 C143.79 52.176 146.342 53.32 148 57 C148.92 65.769 146.556 74.442 144.812 83 C144.488 84.627 144.163 86.253 143.84 87.88 C143.196 91.114 142.547 94.346 141.893 97.577 C141.142 101.292 140.402 105.008 139.668 108.727 C138.688 113.687 137.692 118.644 136.688 123.6 C136.185 126.085 135.685 128.57 135.188 131.057 C121.244 200.677 121.244 200.677 100 225 C99.45 225.682 98.899 226.364 98.332 227.066 C90.808 236.198 81.168 243.082 71 249 C70.112 249.525 69.224 250.049 68.309 250.59 C54.933 257.901 39.107 261.202 23.938 261.188 C23.576 261.188 23.576 261.188 21.744 261.189 C14.393 261.119 7.251 260.182 0 259 C-0.118 259.679 -0.235 260.357 -0.356 261.056 C-1.107 264.49 -2.175 267.774 -3.301 271.098 C-3.533 271.792 -3.765 272.486 -4.005 273.201 C-4.771 275.489 -5.542 277.776 -6.312 280.062 C-6.853 281.674 -7.393 283.285 -7.933 284.896 C-9.057 288.252 -10.183 291.606 -11.31 294.961 C-13.697 302.072 -16.066 309.189 -18.436 316.305 C-19.674 320.023 -20.913 323.74 -22.152 327.457 C-22.631 328.894 -23.11 330.331 -23.589 331.768 C-27.06 342.179 -30.53 352.589 -34 363 C-29.437 364.529 -24.871 366.046 -20.294 367.531 C-15.882 368.961 -11.479 370.415 -7.079 371.878 C-5.188 372.503 -3.295 373.12 -1.4 373.731 C1.36 374.621 4.11 375.537 6.859 376.457 C7.702 376.723 8.545 376.989 9.413 377.263 C14.949 379.152 17.713 381.122 21 386 C21.926 389.152 21.818 391.822 21 395 C18.438 398.062 18.438 398.062 15 400 C9.75 400.422 5.816 399.521 0.898 397.727 C0.233 397.488 -0.432 397.249 -1.118 397.002 C-3.291 396.22 -5.458 395.422 -7.625 394.625 C-9.156 394.072 -10.687 393.52 -12.219 392.969 C-14.558 392.127 -16.898 391.285 -19.235 390.439 C-26.279 387.889 -33.351 385.43 -40.438 383 C-41.592 382.603 -42.747 382.205 -43.936 381.796 C-50.558 379.518 -57.185 377.254 -63.812 374.992 C-90.831 365.771 -90.831 365.771 -103 361.438 C-103.889 361.127 -104.779 360.817 -105.695 360.498 C-106.096 360.353 -106.096 360.353 -108.125 359.621 C-108.808 359.378 -109.491 359.135 -110.195 358.885 C-112.264 357.87 -113.51 356.749 -115 355 C-116.216 351.374 -116.728 347.69 -115.188 344.113 C-113.04 341.196 -111.262 340.064 -107.772 339.214 C-103.498 338.972 -100.693 339.702 -96.648 341.074 C-95.962 341.302 -95.275 341.53 -94.568 341.766 C-93.114 342.251 -91.662 342.743 -90.212 343.241 C-88.028 343.991 -85.838 344.722 -83.646 345.448 C-78.548 347.138 -73.459 348.854 -68.371 350.575 C-66.199 351.309 -64.025 352.04 -61.852 352.77 C-61.19 352.994 -60.529 353.219 -59.848 353.451 C-55.227 355 -55.227 355 -53 355 C-52.826 354.466 -52.652 353.932 -52.473 353.382 C-50.234 346.504 -47.993 339.627 -45.75 332.75 C-45.389 331.642 -45.027 330.533 -44.655 329.391 C-39.702 314.211 -34.703 299.049 -29.633 283.908 C-25.973 272.974 -22.395 262.019 -19 251 C-19.443 250.865 -19.443 250.865 -21.684 250.184 C-40.281 243.546 -56.988 225.123 -65.699 207.805 C-66.128 206.879 -66.558 205.954 -67 205 C-67.522 203.889 -68.044 202.778 -68.582 201.633 C-82.77 170.081 -78.872 138.651 -67.179 107.078 C-64.43 99.9 -61.365 92.909 -58 86 C-57.693 85.367 -57.385 84.734 -57.069 84.083 C-55.497 80.866 -53.894 77.667 -52.27 74.477 C-50.512 71.025 -48.789 67.559 -47.074 64.086 C-37.842 45.416 -37.842 45.416 -32.566 36.695 C-30.773 33.61 -29.198 30.453 -27.625 27.25 C-24.978 21.885 -22.215 16.606 -19.312 11.375 C-18.944 10.7 -18.575 10.025 -18.196 9.329 C-13.434 0.836 -9.961 -1.292 0 0 Z M-1 22 C-6.091 28.136 -9.541 35.621 -13.125 42.688 C-16.835 49.925 -20.583 57.126 -24.534 64.236 C-33.948 81.18 -42.728 98.541 -49.75 116.625 C-50.073 117.447 -50.396 118.269 -50.729 119.115 C-52.714 124.441 -53.57 129.331 -54 135 C-33.397 143.926 -13.552 145.112 7.797 137.359 C12.85 135.215 17.778 132.817 22.722 130.433 C47.19 118.698 72.599 113.382 99 122 C102.502 123.238 105.945 124.594 109.363 126.047 C112 127 112 127 116 127 C116.943 121.9 117.885 116.799 118.826 111.698 C119.145 109.972 119.464 108.245 119.783 106.518 C120.557 102.328 121.329 98.138 122.092 93.946 C122.69 90.67 123.306 87.398 123.935 84.128 C124.221 82.605 124.507 81.082 124.793 79.559 C124.862 79.213 124.862 79.213 125.209 77.463 C125.897 73.737 126.471 70.559 125 67 C122.799 65.661 122.799 65.661 119.816 64.633 C118.684 64.231 117.552 63.828 116.386 63.414 C115.112 62.984 113.837 62.555 112.562 62.125 C111.214 61.653 109.867 61.179 108.52 60.703 C105.58 59.667 102.636 58.643 99.689 57.626 C92.423 55.114 85.19 52.512 77.953 49.921 C75.356 48.993 72.758 48.069 70.16 47.145 C59.695 43.419 49.25 39.64 38.82 35.816 C37.628 35.379 36.436 34.942 35.207 34.492 C29.314 32.331 23.422 30.165 17.533 27.994 C15.386 27.206 13.24 26.417 11.094 25.629 C10.1 25.261 9.106 24.893 8.082 24.514 C7.175 24.181 6.268 23.849 5.334 23.506 C4.541 23.214 3.749 22.922 2.932 22.62 C1 22 1 22 -1 22 Z M29.238 147.261 C15.028 154.153 0.908 159.809 -15 161 C-16.092 161.083 -17.184 161.165 -18.309 161.25 C-31.565 161.74 -44.574 158.374 -57 154 C-57.313 164.428 -57.45 174.015 -54 184 C-53.598 185.191 -53.196 186.382 -52.781 187.609 C-45.224 208.738 -29.81 224.76 -9.82 234.559 C10.578 243.13 32.802 242.888 53.438 235.188 C54.975 234.495 56.496 233.763 58 233 C58.937 232.531 59.874 232.062 60.84 231.578 C69.039 227.146 75.461 221.539 82 215 C82.669 214.331 83.338 213.662 84.027 212.973 C97.875 198.121 104.648 178.166 109.375 158.812 C109.555 158.094 109.735 157.375 109.92 156.634 C111.557 149.609 111.557 149.609 110 147 C107.673 145.604 105.534 144.504 103.062 143.438 C102.383 143.134 101.704 142.83 101.004 142.517 C76.313 131.697 52.782 135.827 29.238 147.261 Z " fill="currentColor" transform="translate(239,55)"/>
</svg>
